# MagicaVoxel @ Ephtracy

# group
o 

# material
mtllib Bench.mtl
usemtl palette

# normals
vn -1 0 0
vn 1 0 0
vn 0 0 1
vn 0 0 -1
vn 0 -1 0
vn 0 1 0

# texcoords
vt 0.537109 0.5
vt 0.986328 0.5
vt 0.994141 0.5

# verts
v 0 2 0
v 0 2 -0.3
v 0 2 -1.7
v 0 2 -2
v 0 2.3 -0.3
v 0 2.3 -1.7
v 0 2.5 -0.3
v 0 2.5 -1.7
v 0 3.5 -0.3
v 0 3.5 -1.7
v 0 3.7 0
v 0 3.7 -2
v 0 3.8 0
v 0 3.8 -2
v 0 4 0
v 0 4 -2
v 0.1 3.7 -0.1
v 0.1 3.7 -1.9
v 0.1 3.8 -0.1
v 0.1 3.8 -1.9
v 3.7 2 0
v 3.7 2 -0.3
v 3.7 2 -1.7
v 3.7 2 -2
v 3.7 2.3 0
v 3.7 2.3 -0.3
v 3.7 2.3 -1.7
v 3.7 2.3 -2
v 3.7 2.5 0
v 3.7 2.5 -0.3
v 3.7 2.5 -1.7
v 3.7 2.5 -2
v 3.7 3.5 0
v 3.7 3.5 -0.3
v 3.7 3.5 -1.7
v 3.7 3.5 -2
v 0.3 2 0
v 0.3 2 -0.3
v 0.3 2 -1.7
v 0.3 2 -2
v 0.3 2.3 0
v 0.3 2.3 -0.3
v 0.3 2.3 -1.7
v 0.3 2.3 -2
v 0.3 2.5 0
v 0.3 2.5 -0.3
v 0.3 2.5 -1.7
v 0.3 2.5 -2
v 0.3 3.5 0
v 0.3 3.5 -0.3
v 0.3 3.5 -1.7
v 0.3 3.5 -2
v 3.9 3.7 -0.1
v 3.9 3.7 -1.9
v 3.9 3.8 -0.1
v 3.9 3.8 -1.9
v 4 2 0
v 4 2 -0.3
v 4 2 -1.7
v 4 2 -2
v 4 2.3 -0.3
v 4 2.3 -1.7
v 4 2.5 -0.3
v 4 2.5 -1.7
v 4 3.5 -0.3
v 4 3.5 -1.7
v 4 3.7 0
v 4 3.7 -2
v 4 3.8 0
v 4 3.8 -2
v 4 4 0
v 4 4 -2
v 0 2 0
v 0 3.7 0
v 0 3.8 0
v 0 4 0
v 0.3 2 0
v 0.3 2.3 0
v 0.3 2.5 0
v 0.3 3.5 0
v 3.7 2 0
v 3.7 2.3 0
v 3.7 2.5 0
v 3.7 3.5 0
v 4 2 0
v 4 3.7 0
v 4 3.8 0
v 4 4 0
v 0.1 3.7 -0.1
v 0.1 3.8 -0.1
v 3.9 3.7 -0.1
v 3.9 3.8 -0.1
v 0 2 -1.7
v 0 2.3 -1.7
v 0 2.5 -1.7
v 0 3.5 -1.7
v 0.3 2 -1.7
v 0.3 2.3 -1.7
v 0.3 2.5 -1.7
v 0.3 3.5 -1.7
v 3.7 2 -1.7
v 3.7 2.3 -1.7
v 3.7 2.5 -1.7
v 3.7 3.5 -1.7
v 4 2 -1.7
v 4 2.3 -1.7
v 4 2.5 -1.7
v 4 3.5 -1.7
v 0 2 -0.3
v 0 2.3 -0.3
v 0 2.5 -0.3
v 0 3.5 -0.3
v 0.3 2 -0.3
v 0.3 2.3 -0.3
v 0.3 2.5 -0.3
v 0.3 3.5 -0.3
v 3.7 2 -0.3
v 3.7 2.3 -0.3
v 3.7 2.5 -0.3
v 3.7 3.5 -0.3
v 4 2 -0.3
v 4 2.3 -0.3
v 4 2.5 -0.3
v 4 3.5 -0.3
v 0.1 3.7 -1.9
v 0.1 3.8 -1.9
v 3.9 3.7 -1.9
v 3.9 3.8 -1.9
v 0 2 -2
v 0 3.7 -2
v 0 3.8 -2
v 0 4 -2
v 0.3 2 -2
v 0.3 2.3 -2
v 0.3 2.5 -2
v 0.3 3.5 -2
v 3.7 2 -2
v 3.7 2.3 -2
v 3.7 2.5 -2
v 3.7 3.5 -2
v 4 2 -2
v 4 3.7 -2
v 4 3.8 -2
v 4 4 -2
v 0 2 0
v 0.3 2 0
v 3.7 2 0
v 4 2 0
v 0 2 -0.3
v 0.3 2 -0.3
v 3.7 2 -0.3
v 4 2 -0.3
v 0 2 -1.7
v 0.3 2 -1.7
v 3.7 2 -1.7
v 4 2 -1.7
v 0 2 -2
v 0.3 2 -2
v 3.7 2 -2
v 4 2 -2
v 0.3 2.3 0
v 3.7 2.3 0
v 0 2.3 -0.3
v 0.3 2.3 -0.3
v 3.7 2.3 -0.3
v 4 2.3 -0.3
v 0 2.3 -1.7
v 0.3 2.3 -1.7
v 3.7 2.3 -1.7
v 4 2.3 -1.7
v 0.3 2.3 -2
v 3.7 2.3 -2
v 0.3 3.5 0
v 3.7 3.5 0
v 0 3.5 -0.3
v 0.3 3.5 -0.3
v 3.7 3.5 -0.3
v 4 3.5 -0.3
v 0 3.5 -1.7
v 0.3 3.5 -1.7
v 3.7 3.5 -1.7
v 4 3.5 -1.7
v 0.3 3.5 -2
v 3.7 3.5 -2
v 0 3.8 0
v 4 3.8 0
v 0.1 3.8 -0.1
v 3.9 3.8 -0.1
v 0.1 3.8 -1.9
v 3.9 3.8 -1.9
v 0 3.8 -2
v 4 3.8 -2
v 0.3 2.5 0
v 3.7 2.5 0
v 0 2.5 -0.3
v 0.3 2.5 -0.3
v 3.7 2.5 -0.3
v 4 2.5 -0.3
v 0 2.5 -1.7
v 0.3 2.5 -1.7
v 3.7 2.5 -1.7
v 4 2.5 -1.7
v 0.3 2.5 -2
v 3.7 2.5 -2
v 0 3.7 0
v 4 3.7 0
v 0.1 3.7 -0.1
v 3.9 3.7 -0.1
v 0.1 3.7 -1.9
v 3.9 3.7 -1.9
v 0 3.7 -2
v 4 3.7 -2
v 0 4 0
v 4 4 0
v 0 4 -2
v 4 4 -2

# faces
f 5/3/1 2/3/1 1/3/1
f 6/3/1 4/3/1 3/3/1
f 7/3/1 5/3/1 1/3/1
f 7/3/1 6/3/1 5/3/1
f 8/3/1 4/3/1 6/3/1
f 8/3/1 6/3/1 7/3/1
f 9/3/1 7/3/1 1/3/1
f 10/3/1 4/3/1 8/3/1
f 11/3/1 9/3/1 1/3/1
f 11/3/1 10/3/1 9/3/1
f 12/3/1 4/3/1 10/3/1
f 12/3/1 10/3/1 11/3/1
f 15/1/1 14/1/1 13/1/1
f 16/1/1 14/1/1 15/1/1
f 19/2/1 18/2/1 17/2/1
f 20/2/1 18/2/1 19/2/1
f 25/3/1 22/3/1 21/3/1
f 26/3/1 22/3/1 25/3/1
f 27/3/1 24/3/1 23/3/1
f 28/3/1 24/3/1 27/3/1
f 30/3/1 27/3/1 26/3/1
f 31/3/1 27/3/1 30/3/1
f 33/3/1 30/3/1 29/3/1
f 34/3/1 30/3/1 33/3/1
f 35/3/1 32/3/1 31/3/1
f 36/3/1 32/3/1 35/3/1
f 37/3/2 38/3/2 41/3/2
f 41/3/2 38/3/2 42/3/2
f 39/3/2 40/3/2 43/3/2
f 43/3/2 40/3/2 44/3/2
f 42/3/2 43/3/2 46/3/2
f 46/3/2 43/3/2 47/3/2
f 45/3/2 46/3/2 49/3/2
f 49/3/2 46/3/2 50/3/2
f 47/3/2 48/3/2 51/3/2
f 51/3/2 48/3/2 52/3/2
f 53/2/2 54/2/2 55/2/2
f 55/2/2 54/2/2 56/2/2
f 57/3/2 58/3/2 61/3/2
f 59/3/2 60/3/2 62/3/2
f 57/3/2 61/3/2 63/3/2
f 61/3/2 62/3/2 63/3/2
f 62/3/2 60/3/2 64/3/2
f 63/3/2 62/3/2 64/3/2
f 57/3/2 63/3/2 65/3/2
f 64/3/2 60/3/2 66/3/2
f 57/3/2 65/3/2 67/3/2
f 65/3/2 66/3/2 67/3/2
f 66/3/2 60/3/2 68/3/2
f 67/3/2 66/3/2 68/3/2
f 69/1/2 70/1/2 71/1/2
f 71/1/2 70/1/2 72/1/2
f 77/3/3 74/3/3 73/3/3
f 78/3/3 74/3/3 77/3/3
f 79/3/3 74/3/3 78/3/3
f 80/3/3 74/3/3 79/3/3
f 82/3/3 79/3/3 78/3/3
f 83/3/3 79/3/3 82/3/3
f 84/3/3 74/3/3 80/3/3
f 85/3/3 83/3/3 82/3/3
f 85/3/3 84/3/3 83/3/3
f 85/3/3 82/3/3 81/3/3
f 86/3/3 74/3/3 84/3/3
f 86/3/3 84/3/3 85/3/3
f 87/1/3 76/1/3 75/1/3
f 88/1/3 76/1/3 87/1/3
f 91/2/3 90/2/3 89/2/3
f 92/2/3 90/2/3 91/2/3
f 97/3/3 94/3/3 93/3/3
f 98/3/3 94/3/3 97/3/3
f 99/3/3 96/3/3 95/3/3
f 100/3/3 96/3/3 99/3/3
f 102/3/3 99/3/3 98/3/3
f 103/3/3 99/3/3 102/3/3
f 105/3/3 102/3/3 101/3/3
f 106/3/3 102/3/3 105/3/3
f 107/3/3 104/3/3 103/3/3
f 108/3/3 104/3/3 107/3/3
f 109/3/4 110/3/4 113/3/4
f 113/3/4 110/3/4 114/3/4
f 111/3/4 112/3/4 115/3/4
f 115/3/4 112/3/4 116/3/4
f 114/3/4 115/3/4 118/3/4
f 118/3/4 115/3/4 119/3/4
f 117/3/4 118/3/4 121/3/4
f 121/3/4 118/3/4 122/3/4
f 119/3/4 120/3/4 123/3/4
f 123/3/4 120/3/4 124/3/4
f 125/2/4 126/2/4 127/2/4
f 127/2/4 126/2/4 128/2/4
f 129/3/4 130/3/4 133/3/4
f 133/3/4 130/3/4 134/3/4
f 134/3/4 130/3/4 135/3/4
f 135/3/4 130/3/4 136/3/4
f 134/3/4 135/3/4 138/3/4
f 138/3/4 135/3/4 139/3/4
f 136/3/4 130/3/4 140/3/4
f 138/3/4 139/3/4 141/3/4
f 139/3/4 140/3/4 141/3/4
f 137/3/4 138/3/4 141/3/4
f 140/3/4 130/3/4 142/3/4
f 141/3/4 140/3/4 142/3/4
f 131/1/4 132/1/4 143/1/4
f 143/1/4 132/1/4 144/1/4
f 149/3/5 146/3/5 145/3/5
f 150/3/5 146/3/5 149/3/5
f 151/3/5 148/3/5 147/3/5
f 152/3/5 148/3/5 151/3/5
f 157/3/5 154/3/5 153/3/5
f 158/3/5 154/3/5 157/3/5
f 159/3/5 156/3/5 155/3/5
f 160/3/5 156/3/5 159/3/5
f 164/3/5 162/3/5 161/3/5
f 165/3/5 162/3/5 164/3/5
f 167/3/5 164/3/5 163/3/5
f 168/3/5 164/3/5 167/3/5
f 169/3/5 166/3/5 165/3/5
f 170/3/5 166/3/5 169/3/5
f 171/3/5 169/3/5 168/3/5
f 172/3/5 169/3/5 171/3/5
f 176/3/5 174/3/5 173/3/5
f 177/3/5 174/3/5 176/3/5
f 179/3/5 176/3/5 175/3/5
f 179/3/5 178/3/5 177/3/5
f 179/3/5 177/3/5 176/3/5
f 180/3/5 178/3/5 179/3/5
f 181/3/5 178/3/5 180/3/5
f 182/3/5 178/3/5 181/3/5
f 183/3/5 181/3/5 180/3/5
f 184/3/5 181/3/5 183/3/5
f 187/1/5 186/1/5 185/1/5
f 188/1/5 186/1/5 187/1/5
f 189/1/5 187/1/5 185/1/5
f 190/1/5 186/1/5 188/1/5
f 191/1/5 189/1/5 185/1/5
f 191/1/5 190/1/5 189/1/5
f 192/1/5 186/1/5 190/1/5
f 192/1/5 190/1/5 191/1/5
f 193/3/6 194/3/6 196/3/6
f 196/3/6 194/3/6 197/3/6
f 195/3/6 196/3/6 199/3/6
f 199/3/6 196/3/6 200/3/6
f 197/3/6 198/3/6 201/3/6
f 201/3/6 198/3/6 202/3/6
f 200/3/6 201/3/6 203/3/6
f 203/3/6 201/3/6 204/3/6
f 205/3/6 206/3/6 207/3/6
f 207/3/6 206/3/6 208/3/6
f 205/3/6 207/3/6 209/3/6
f 208/3/6 206/3/6 210/3/6
f 205/3/6 209/3/6 211/3/6
f 209/3/6 210/3/6 211/3/6
f 210/3/6 206/3/6 212/3/6
f 211/3/6 210/3/6 212/3/6
f 213/1/6 214/1/6 215/1/6
f 215/1/6 214/1/6 216/1/6
