# MagicaVoxel @ Ephtracy

# group
o 

# material
mtllib Tool Box.mtl
usemtl palette

# normals
vn -1 0 0
vn 1 0 0
vn 0 0 1
vn 0 0 -1
vn 0 -1 0
vn 0 1 0

# texcoords
vt 0.861328 0.5
vt 0.978516 0.5
vt 0.990234 0.5

# verts
v 0 2 0
v 0 2 -2
v 0 2.1 -0.1
v 0 2.1 -1.9
v 0 2.7 -0.1
v 0 2.7 -1.9
v 0 2.8 0
v 0 2.8 -2
v 0.1 2.8 0
v 0.1 2.8 -2
v 0.1 2.9 0
v 0.1 2.9 -2
v 0.2 2.9 0
v 0.2 2.9 -2
v 0.2 3 0
v 0.2 3 -2
v 0.4 3 -0.5
v 0.4 3 -0.7
v 0.4 3 -1.3
v 0.4 3 -1.5
v 0.4 3.1 -0.5
v 0.4 3.1 -0.6
v 0.4 3.1 -1.4
v 0.4 3.1 -1.5
v 0.4 3.2 -0.7
v 0.4 3.2 -1.3
v 0.4 3.3 -0.6
v 0.4 3.3 -1.4
v 0.6 3 -0.5
v 0.6 3 -0.7
v 0.6 3 -1.3
v 0.6 3 -1.5
v 0.6 3.1 -0.5
v 0.6 3.1 -0.6
v 0.6 3.1 -1.4
v 0.6 3.1 -1.5
v 0.6 3.2 -0.7
v 0.6 3.2 -1.3
v 0.6 3.3 -0.6
v 0.6 3.3 -1.4
v 0.8 2.9 0
v 0.8 2.9 -2
v 0.8 3 0
v 0.8 3 -2
v 0.9 2.8 0
v 0.9 2.8 -2
v 0.9 2.9 0
v 0.9 2.9 -2
v 1 2 0
v 1 2 -2
v 1 2.1 -0.1
v 1 2.1 -1.9
v 1 2.4 -0.9
v 1 2.4 -1.1
v 1 2.5 -0.9
v 1 2.5 -1.1
v 1 2.6 -0.9
v 1 2.6 -1.1
v 1 2.7 -0.1
v 1 2.7 -0.9
v 1 2.7 -1.1
v 1 2.7 -1.9
v 1 2.8 0
v 1 2.8 -2
v 0 2 0
v 0 2.8 0
v 0.1 2.1 0
v 0.1 2.7 0
v 0.1 2.8 0
v 0.1 2.9 0
v 0.2 2.9 0
v 0.2 3 0
v 0.8 2.9 0
v 0.8 3 0
v 0.9 2.1 0
v 0.9 2.7 0
v 0.9 2.8 0
v 0.9 2.9 0
v 1 2 0
v 1 2.8 0
v 0.4 3 -0.5
v 0.4 3.1 -0.5
v 0.6 3 -0.5
v 0.6 3.1 -0.5
v 0.4 3.1 -0.6
v 0.4 3.3 -0.6
v 0.6 3.1 -0.6
v 0.6 3.3 -0.6
v 0.4 3 -1.3
v 0.4 3.2 -1.3
v 0.6 3 -1.3
v 0.6 3.2 -1.3
v 0.4 3 -0.7
v 0.4 3.2 -0.7
v 0.6 3 -0.7
v 0.6 3.2 -0.7
v 0.4 3.1 -1.4
v 0.4 3.3 -1.4
v 0.6 3.1 -1.4
v 0.6 3.3 -1.4
v 0.4 3 -1.5
v 0.4 3.1 -1.5
v 0.6 3 -1.5
v 0.6 3.1 -1.5
v 0 2 -2
v 0 2.8 -2
v 0.1 2.1 -2
v 0.1 2.7 -2
v 0.1 2.8 -2
v 0.1 2.9 -2
v 0.2 2.9 -2
v 0.2 3 -2
v 0.8 2.9 -2
v 0.8 3 -2
v 0.9 2.1 -2
v 0.9 2.7 -2
v 0.9 2.8 -2
v 0.9 2.9 -2
v 1 2 -2
v 1 2.8 -2
v 0 2 0
v 1 2 0
v 0.1 2 -0.1
v 0.9 2 -0.1
v 0.1 2 -1.9
v 0.9 2 -1.9
v 0 2 -2
v 1 2 -2
v 0.4 3.2 -0.7
v 0.6 3.2 -0.7
v 0.4 3.2 -1.3
v 0.6 3.2 -1.3
v 0 2.8 0
v 0.1 2.8 0
v 0.9 2.8 0
v 1 2.8 0
v 0 2.8 -2
v 0.1 2.8 -2
v 0.9 2.8 -2
v 1 2.8 -2
v 0.1 2.9 0
v 0.2 2.9 0
v 0.8 2.9 0
v 0.9 2.9 0
v 0.1 2.9 -2
v 0.2 2.9 -2
v 0.8 2.9 -2
v 0.9 2.9 -2
v 0.2 3 0
v 0.8 3 0
v 0.4 3 -0.5
v 0.6 3 -0.5
v 0.4 3 -0.7
v 0.6 3 -0.7
v 0.4 3 -1.3
v 0.6 3 -1.3
v 0.4 3 -1.5
v 0.6 3 -1.5
v 0.2 3 -2
v 0.8 3 -2
v 0.4 3.1 -0.5
v 0.6 3.1 -0.5
v 0.4 3.1 -0.6
v 0.6 3.1 -0.6
v 0.4 3.1 -1.4
v 0.6 3.1 -1.4
v 0.4 3.1 -1.5
v 0.6 3.1 -1.5
v 0.4 3.3 -0.6
v 0.6 3.3 -0.6
v 0.4 3.3 -1.4
v 0.6 3.3 -1.4

# faces
f 3/2/1 2/2/1 1/2/1
f 4/2/1 2/2/1 3/2/1
f 5/2/1 3/2/1 1/2/1
f 5/1/1 4/1/1 3/1/1
f 6/2/1 2/2/1 4/2/1
f 6/1/1 4/1/1 5/1/1
f 7/2/1 5/2/1 1/2/1
f 7/2/1 6/2/1 5/2/1
f 8/2/1 2/2/1 6/2/1
f 8/2/1 6/2/1 7/2/1
f 11/1/1 10/1/1 9/1/1
f 12/1/1 10/1/1 11/1/1
f 15/1/1 14/1/1 13/1/1
f 16/1/1 14/1/1 15/1/1
f 21/2/1 18/2/1 17/2/1
f 22/2/1 18/2/1 21/2/1
f 23/2/1 20/2/1 19/2/1
f 24/2/1 20/2/1 23/2/1
f 25/2/1 18/2/1 22/2/1
f 26/2/1 23/2/1 19/2/1
f 27/2/1 25/2/1 22/2/1
f 27/2/1 26/2/1 25/2/1
f 28/2/1 23/2/1 26/2/1
f 28/2/1 26/2/1 27/2/1
f 29/2/2 30/2/2 33/2/2
f 33/2/2 30/2/2 34/2/2
f 31/2/2 32/2/2 35/2/2
f 35/2/2 32/2/2 36/2/2
f 34/2/2 30/2/2 37/2/2
f 31/2/2 35/2/2 38/2/2
f 34/2/2 37/2/2 39/2/2
f 37/2/2 38/2/2 39/2/2
f 38/2/2 35/2/2 40/2/2
f 39/2/2 38/2/2 40/2/2
f 41/1/2 42/1/2 43/1/2
f 43/1/2 42/1/2 44/1/2
f 45/1/2 46/1/2 47/1/2
f 47/1/2 46/1/2 48/1/2
f 49/2/2 50/2/2 51/2/2
f 51/2/2 50/2/2 52/2/2
f 51/1/2 52/1/2 53/1/2
f 53/1/2 52/1/2 54/1/2
f 51/1/2 53/1/2 55/1/2
f 53/2/2 54/2/2 55/2/2
f 54/1/2 52/1/2 56/1/2
f 55/2/2 54/2/2 56/2/2
f 51/1/2 55/1/2 57/1/2
f 55/3/2 56/3/2 57/3/2
f 56/1/2 52/1/2 58/1/2
f 57/3/2 56/3/2 58/3/2
f 49/2/2 51/2/2 59/2/2
f 51/1/2 57/1/2 59/1/2
f 57/2/2 58/2/2 60/2/2
f 59/1/2 57/1/2 60/1/2
f 58/1/2 52/1/2 61/1/2
f 60/2/2 58/2/2 61/2/2
f 52/2/2 50/2/2 62/2/2
f 61/1/2 52/1/2 62/1/2
f 59/2/2 60/2/2 63/2/2
f 60/2/2 61/2/2 63/2/2
f 61/2/2 62/2/2 63/2/2
f 49/2/2 59/2/2 63/2/2
f 62/2/2 50/2/2 64/2/2
f 63/2/2 62/2/2 64/2/2
f 67/2/3 66/2/3 65/2/3
f 68/2/3 66/2/3 67/2/3
f 69/2/3 66/2/3 68/2/3
f 71/1/3 70/1/3 69/1/3
f 73/1/3 71/1/3 69/1/3
f 73/1/3 72/1/3 71/1/3
f 74/1/3 72/1/3 73/1/3
f 75/2/3 67/2/3 65/2/3
f 75/1/3 68/1/3 67/1/3
f 76/2/3 69/2/3 68/2/3
f 76/1/3 68/1/3 75/1/3
f 77/1/3 73/1/3 69/1/3
f 77/2/3 69/2/3 76/2/3
f 78/1/3 73/1/3 77/1/3
f 79/2/3 76/2/3 75/2/3
f 79/2/3 75/2/3 65/2/3
f 79/2/3 77/2/3 76/2/3
f 80/2/3 77/2/3 79/2/3
f 83/2/3 82/2/3 81/2/3
f 84/2/3 82/2/3 83/2/3
f 87/2/3 86/2/3 85/2/3
f 88/2/3 86/2/3 87/2/3
f 91/2/3 90/2/3 89/2/3
f 92/2/3 90/2/3 91/2/3
f 93/2/4 94/2/4 95/2/4
f 95/2/4 94/2/4 96/2/4
f 97/2/4 98/2/4 99/2/4
f 99/2/4 98/2/4 100/2/4
f 101/2/4 102/2/4 103/2/4
f 103/2/4 102/2/4 104/2/4
f 105/2/4 106/2/4 107/2/4
f 107/2/4 106/2/4 108/2/4
f 108/2/4 106/2/4 109/2/4
f 109/1/4 110/1/4 111/1/4
f 109/1/4 111/1/4 113/1/4
f 111/1/4 112/1/4 113/1/4
f 113/1/4 112/1/4 114/1/4
f 105/2/4 107/2/4 115/2/4
f 107/1/4 108/1/4 115/1/4
f 108/2/4 109/2/4 116/2/4
f 115/1/4 108/1/4 116/1/4
f 109/1/4 113/1/4 117/1/4
f 116/2/4 109/2/4 117/2/4
f 117/1/4 113/1/4 118/1/4
f 115/2/4 116/2/4 119/2/4
f 105/2/4 115/2/4 119/2/4
f 116/2/4 117/2/4 119/2/4
f 119/2/4 117/2/4 120/2/4
f 123/2/5 122/2/5 121/2/5
f 124/2/5 122/2/5 123/2/5
f 125/2/5 123/2/5 121/2/5
f 125/1/5 124/1/5 123/1/5
f 126/2/5 122/2/5 124/2/5
f 126/1/5 124/1/5 125/1/5
f 127/2/5 125/2/5 121/2/5
f 127/2/5 126/2/5 125/2/5
f 128/2/5 122/2/5 126/2/5
f 128/2/5 126/2/5 127/2/5
f 131/2/5 130/2/5 129/2/5
f 132/2/5 130/2/5 131/2/5
f 133/2/6 134/2/6 137/2/6
f 137/2/6 134/2/6 138/2/6
f 135/2/6 136/2/6 139/2/6
f 139/2/6 136/2/6 140/2/6
f 141/1/6 142/1/6 145/1/6
f 145/1/6 142/1/6 146/1/6
f 143/1/6 144/1/6 147/1/6
f 147/1/6 144/1/6 148/1/6
f 149/1/6 150/1/6 151/1/6
f 151/1/6 150/1/6 152/1/6
f 149/1/6 151/1/6 153/1/6
f 152/1/6 150/1/6 154/1/6
f 149/1/6 153/1/6 155/1/6
f 153/1/6 154/1/6 155/1/6
f 154/1/6 150/1/6 156/1/6
f 155/1/6 154/1/6 156/1/6
f 149/1/6 155/1/6 157/1/6
f 156/1/6 150/1/6 158/1/6
f 149/1/6 157/1/6 159/1/6
f 157/1/6 158/1/6 159/1/6
f 158/1/6 150/1/6 160/1/6
f 159/1/6 158/1/6 160/1/6
f 161/2/6 162/2/6 163/2/6
f 163/2/6 162/2/6 164/2/6
f 165/2/6 166/2/6 167/2/6
f 167/2/6 166/2/6 168/2/6
f 169/2/6 170/2/6 171/2/6
f 171/2/6 170/2/6 172/2/6
