# MagicaVoxel @ Ephtracy

# group
o 

# material
mtllib umbrella bin.mtl
usemtl palette

# normals
vn -1 0 0
vn 1 0 0
vn 0 0 1
vn 0 0 -1
vn 0 -1 0
vn 0 1 0

# texcoords
vt 0.908203 0.5
vt 0.939453 0.5
vt 0.970703 0.5
vt 0.974609 0.5

# verts
v 0 2 -0.5
v 0 2 -1
v 0 2.2 -0.5
v 0 2.2 -1
v 0 5.6 -0.5
v 0 5.6 -1
v 0 6 -0.5
v 0 6 -1
v 0.1 2 -0.3
v 0.1 2 -0.5
v 0.1 2 -1
v 0.1 2 -1.1
v 0.1 2 -1.2
v 0.1 2.2 -0.3
v 0.1 2.2 -0.5
v 0.1 2.2 -1
v 0.1 2.2 -1.1
v 0.1 2.2 -1.2
v 0.1 5.6 -0.3
v 0.1 5.6 -0.5
v 0.1 5.6 -1
v 0.1 5.6 -1.1
v 0.1 5.6 -1.2
v 0.1 6 -0.3
v 0.1 6 -0.5
v 0.1 6 -1
v 0.1 6 -1.1
v 0.1 6 -1.2
v 0.2 2 -0.2
v 0.2 2 -0.3
v 0.2 2 -1.2
v 0.2 2 -1.3
v 0.2 2.2 -0.2
v 0.2 2.2 -0.3
v 0.2 2.2 -1.2
v 0.2 2.2 -1.3
v 0.2 5.6 -0.2
v 0.2 5.6 -0.3
v 0.2 5.6 -1.2
v 0.2 5.6 -1.3
v 0.2 6 -0.2
v 0.2 6 -0.3
v 0.2 6 -1.2
v 0.2 6 -1.3
v 0.3 2 -0.1
v 0.3 2 -0.2
v 0.3 2 -1.3
v 0.3 2 -1.4
v 0.3 2.2 -0.1
v 0.3 2.2 -0.2
v 0.3 2.2 -1.3
v 0.3 2.2 -1.4
v 0.3 5.6 -0.1
v 0.3 5.6 -0.2
v 0.3 5.6 -1.3
v 0.3 5.6 -1.4
v 0.3 6 -0.1
v 0.3 6 -0.2
v 0.3 6 -1.3
v 0.3 6 -1.4
v 0.5 2 0
v 0.5 2 -0.1
v 0.5 2 -1.4
v 0.5 2 -1.5
v 0.5 2.2 0
v 0.5 2.2 -0.1
v 0.5 2.2 -1.4
v 0.5 2.2 -1.5
v 0.5 5.6 0
v 0.5 5.6 -0.1
v 0.5 5.6 -1.4
v 0.5 5.6 -1.5
v 0.5 6 0
v 0.5 6 -0.1
v 0.5 6 -1.4
v 0.5 6 -1.5
v 1 2.2 -0.1
v 1 2.2 -0.2
v 1 2.2 -1.3
v 1 2.2 -1.4
v 1 5.6 -0.1
v 1 5.6 -0.2
v 1 5.6 -1.3
v 1 5.6 -1.4
v 1 6 -0.1
v 1 6 -0.2
v 1 6 -1.3
v 1 6 -1.4
v 1.2 2.2 -0.2
v 1.2 2.2 -0.3
v 1.2 2.2 -1.2
v 1.2 2.2 -1.3
v 1.2 5.6 -0.2
v 1.2 5.6 -0.3
v 1.2 5.6 -1.2
v 1.2 5.6 -1.3
v 1.2 6 -0.2
v 1.2 6 -0.3
v 1.2 6 -1.2
v 1.2 6 -1.3
v 1.3 2.2 -0.3
v 1.3 2.2 -0.5
v 1.3 2.2 -1
v 1.3 2.2 -1.2
v 1.3 5.6 -0.3
v 1.3 5.6 -0.4
v 1.3 5.6 -0.5
v 1.3 5.6 -1
v 1.3 5.6 -1.2
v 1.3 6 -0.3
v 1.3 6 -0.4
v 1.3 6 -0.5
v 1.3 6 -1
v 1.3 6 -1.2
v 1.4 2.2 -0.5
v 1.4 2.2 -1
v 1.4 5.6 -0.5
v 1.4 5.6 -1
v 1.4 6 -0.5
v 1.4 6 -1
v 0.1 2.2 -0.5
v 0.1 2.2 -1
v 0.1 5.6 -0.5
v 0.1 5.6 -1
v 0.1 6 -0.5
v 0.1 6 -1
v 0.2 2.2 -0.3
v 0.2 2.2 -0.5
v 0.2 2.2 -1
v 0.2 2.2 -1.2
v 0.2 5.6 -0.3
v 0.2 5.6 -0.5
v 0.2 5.6 -1
v 0.2 5.6 -1.1
v 0.2 5.6 -1.2
v 0.2 6 -0.3
v 0.2 6 -0.5
v 0.2 6 -1
v 0.2 6 -1.1
v 0.2 6 -1.2
v 0.3 2.2 -0.2
v 0.3 2.2 -0.3
v 0.3 2.2 -1.2
v 0.3 2.2 -1.3
v 0.3 5.6 -0.2
v 0.3 5.6 -0.3
v 0.3 5.6 -1.2
v 0.3 5.6 -1.3
v 0.3 6 -0.2
v 0.3 6 -0.3
v 0.3 6 -1.2
v 0.3 6 -1.3
v 0.5 2.2 -0.1
v 0.5 2.2 -0.2
v 0.5 2.2 -1.3
v 0.5 2.2 -1.4
v 0.5 5.6 -0.1
v 0.5 5.6 -0.2
v 0.5 5.6 -1.3
v 0.5 5.6 -1.4
v 0.5 6 -0.1
v 0.5 6 -0.2
v 0.5 6 -1.3
v 0.5 6 -1.4
v 1 2 0
v 1 2 -0.1
v 1 2 -1.4
v 1 2 -1.5
v 1 2.2 0
v 1 2.2 -0.1
v 1 2.2 -1.4
v 1 2.2 -1.5
v 1 5.6 0
v 1 5.6 -0.1
v 1 5.6 -1.4
v 1 5.6 -1.5
v 1 6 0
v 1 6 -0.1
v 1 6 -1.4
v 1 6 -1.5
v 1.2 2 -0.1
v 1.2 2 -0.2
v 1.2 2 -1.3
v 1.2 2 -1.4
v 1.2 2.2 -0.1
v 1.2 2.2 -0.2
v 1.2 2.2 -1.3
v 1.2 2.2 -1.4
v 1.2 5.6 -0.1
v 1.2 5.6 -0.2
v 1.2 5.6 -1.3
v 1.2 5.6 -1.4
v 1.2 6 -0.1
v 1.2 6 -0.2
v 1.2 6 -1.3
v 1.2 6 -1.4
v 1.3 2 -0.2
v 1.3 2 -0.3
v 1.3 2 -1.2
v 1.3 2 -1.3
v 1.3 2.2 -0.2
v 1.3 2.2 -0.3
v 1.3 2.2 -1.2
v 1.3 2.2 -1.3
v 1.3 5.6 -0.2
v 1.3 5.6 -0.3
v 1.3 5.6 -1.2
v 1.3 5.6 -1.3
v 1.3 6 -0.2
v 1.3 6 -0.3
v 1.3 6 -1.2
v 1.3 6 -1.3
v 1.4 2 -0.3
v 1.4 2 -0.4
v 1.4 2 -0.5
v 1.4 2 -1
v 1.4 2 -1.2
v 1.4 2.2 -0.3
v 1.4 2.2 -0.4
v 1.4 2.2 -0.5
v 1.4 2.2 -1
v 1.4 2.2 -1.2
v 1.4 5.6 -0.3
v 1.4 5.6 -0.4
v 1.4 5.6 -0.5
v 1.4 5.6 -1
v 1.4 5.6 -1.2
v 1.4 6 -0.3
v 1.4 6 -0.4
v 1.4 6 -0.5
v 1.4 6 -1
v 1.4 6 -1.2
v 1.5 2 -0.5
v 1.5 2 -1
v 1.5 2.2 -0.5
v 1.5 2.2 -1
v 1.5 5.6 -0.5
v 1.5 5.6 -1
v 1.5 6 -0.5
v 1.5 6 -1
v 0.5 2 0
v 0.5 2.2 0
v 0.5 5.6 0
v 0.5 6 0
v 0.9 2 0
v 0.9 2.2 0
v 0.9 5.6 0
v 0.9 6 0
v 1 2 0
v 1 2.2 0
v 1 5.6 0
v 1 6 0
v 0.3 2 -0.1
v 0.3 2.2 -0.1
v 0.3 5.6 -0.1
v 0.3 6 -0.1
v 0.5 2 -0.1
v 0.5 2.2 -0.1
v 0.5 5.6 -0.1
v 0.5 6 -0.1
v 1 2 -0.1
v 1 2.2 -0.1
v 1 5.6 -0.1
v 1 6 -0.1
v 1.1 2 -0.1
v 1.1 2.2 -0.1
v 1.1 5.6 -0.1
v 1.1 6 -0.1
v 1.2 2 -0.1
v 1.2 2.2 -0.1
v 1.2 5.6 -0.1
v 1.2 6 -0.1
v 0.2 2 -0.2
v 0.2 2.2 -0.2
v 0.2 5.6 -0.2
v 0.2 6 -0.2
v 0.3 2 -0.2
v 0.3 2.2 -0.2
v 0.3 5.6 -0.2
v 0.3 6 -0.2
v 1.2 2 -0.2
v 1.2 2.2 -0.2
v 1.2 5.6 -0.2
v 1.2 6 -0.2
v 1.3 2 -0.2
v 1.3 2.2 -0.2
v 1.3 5.6 -0.2
v 1.3 6 -0.2
v 0.1 2 -0.3
v 0.1 2.2 -0.3
v 0.1 5.6 -0.3
v 0.1 6 -0.3
v 0.2 2 -0.3
v 0.2 2.2 -0.3
v 0.2 5.6 -0.3
v 0.2 6 -0.3
v 1.3 2 -0.3
v 1.3 2.2 -0.3
v 1.3 5.6 -0.3
v 1.3 6 -0.3
v 1.4 2 -0.3
v 1.4 2.2 -0.3
v 1.4 5.6 -0.3
v 1.4 6 -0.3
v 0 2 -0.5
v 0 2.2 -0.5
v 0 5.6 -0.5
v 0 6 -0.5
v 0.1 2 -0.5
v 0.1 2.2 -0.5
v 0.1 5.6 -0.5
v 0.1 6 -0.5
v 1.4 2 -0.5
v 1.4 2.2 -0.5
v 1.4 5.6 -0.5
v 1.4 6 -0.5
v 1.5 2 -0.5
v 1.5 2.2 -0.5
v 1.5 5.6 -0.5
v 1.5 6 -0.5
v 0.1 2.2 -1
v 0.1 5.6 -1
v 0.1 6 -1
v 0.2 2.2 -1
v 0.2 5.6 -1
v 0.2 6 -1
v 1.3 2.2 -1
v 1.3 5.6 -1
v 1.3 6 -1
v 1.4 2.2 -1
v 1.4 5.6 -1
v 1.4 6 -1
v 0.2 2.2 -1.2
v 0.2 5.6 -1.2
v 0.2 6 -1.2
v 0.3 2.2 -1.2
v 0.3 5.6 -1.2
v 0.3 6 -1.2
v 1.2 2.2 -1.2
v 1.2 5.6 -1.2
v 1.2 6 -1.2
v 1.3 2.2 -1.2
v 1.3 5.6 -1.2
v 1.3 6 -1.2
v 0.3 2.2 -1.3
v 0.3 5.6 -1.3
v 0.3 6 -1.3
v 0.4 5.6 -1.3
v 0.4 6 -1.3
v 0.5 2.2 -1.3
v 0.5 5.6 -1.3
v 0.5 6 -1.3
v 1 2.2 -1.3
v 1 5.6 -1.3
v 1 6 -1.3
v 1.2 2.2 -1.3
v 1.2 5.6 -1.3
v 1.2 6 -1.3
v 0.5 2.2 -1.4
v 0.5 5.6 -1.4
v 0.5 6 -1.4
v 0.6 5.6 -1.4
v 0.6 6 -1.4
v 1 2.2 -1.4
v 1 5.6 -1.4
v 1 6 -1.4
v 0.5 2.2 -0.1
v 0.5 5.6 -0.1
v 0.5 6 -0.1
v 0.9 5.6 -0.1
v 0.9 6 -0.1
v 1 2.2 -0.1
v 1 5.6 -0.1
v 1 6 -0.1
v 0.3 2.2 -0.2
v 0.3 5.6 -0.2
v 0.3 6 -0.2
v 0.5 2.2 -0.2
v 0.5 5.6 -0.2
v 0.5 6 -0.2
v 1 2.2 -0.2
v 1 5.6 -0.2
v 1 6 -0.2
v 1.1 5.6 -0.2
v 1.1 6 -0.2
v 1.2 2.2 -0.2
v 1.2 5.6 -0.2
v 1.2 6 -0.2
v 0.2 2.2 -0.3
v 0.2 5.6 -0.3
v 0.2 6 -0.3
v 0.3 2.2 -0.3
v 0.3 5.6 -0.3
v 0.3 6 -0.3
v 1.2 2.2 -0.3
v 1.2 5.6 -0.3
v 1.2 6 -0.3
v 1.3 2.2 -0.3
v 1.3 5.6 -0.3
v 1.3 6 -0.3
v 0.1 2.2 -0.5
v 0.1 5.6 -0.5
v 0.1 6 -0.5
v 0.2 2.2 -0.5
v 0.2 5.6 -0.5
v 0.2 6 -0.5
v 1.3 2.2 -0.5
v 1.3 5.6 -0.5
v 1.3 6 -0.5
v 1.4 2.2 -0.5
v 1.4 5.6 -0.5
v 1.4 6 -0.5
v 0 2 -1
v 0 2.2 -1
v 0 5.6 -1
v 0 6 -1
v 0.1 2 -1
v 0.1 2.2 -1
v 0.1 5.6 -1
v 0.1 6 -1
v 1.4 2 -1
v 1.4 2.2 -1
v 1.4 5.6 -1
v 1.4 6 -1
v 1.5 2 -1
v 1.5 2.2 -1
v 1.5 5.6 -1
v 1.5 6 -1
v 0.1 2 -1.2
v 0.1 2.2 -1.2
v 0.1 5.6 -1.2
v 0.1 6 -1.2
v 0.2 2 -1.2
v 0.2 2.2 -1.2
v 0.2 5.6 -1.2
v 0.2 6 -1.2
v 1.3 2 -1.2
v 1.3 2.2 -1.2
v 1.3 5.6 -1.2
v 1.3 6 -1.2
v 1.4 2 -1.2
v 1.4 2.2 -1.2
v 1.4 5.6 -1.2
v 1.4 6 -1.2
v 0.2 2 -1.3
v 0.2 2.2 -1.3
v 0.2 5.6 -1.3
v 0.2 6 -1.3
v 0.3 2 -1.3
v 0.3 2.2 -1.3
v 0.3 5.6 -1.3
v 0.3 6 -1.3
v 1.2 2 -1.3
v 1.2 2.2 -1.3
v 1.2 5.6 -1.3
v 1.2 6 -1.3
v 1.3 2 -1.3
v 1.3 2.2 -1.3
v 1.3 5.6 -1.3
v 1.3 6 -1.3
v 0.3 2 -1.4
v 0.3 2.2 -1.4
v 0.3 5.6 -1.4
v 0.3 6 -1.4
v 0.4 2 -1.4
v 0.4 2.2 -1.4
v 0.4 5.6 -1.4
v 0.4 6 -1.4
v 0.5 2 -1.4
v 0.5 2.2 -1.4
v 0.5 5.6 -1.4
v 0.5 6 -1.4
v 1 2 -1.4
v 1 2.2 -1.4
v 1 5.6 -1.4
v 1 6 -1.4
v 1.2 2 -1.4
v 1.2 2.2 -1.4
v 1.2 5.6 -1.4
v 1.2 6 -1.4
v 0.5 2 -1.5
v 0.5 2.2 -1.5
v 0.5 5.6 -1.5
v 0.5 6 -1.5
v 0.6 2 -1.5
v 0.6 2.2 -1.5
v 0.6 5.6 -1.5
v 0.6 6 -1.5
v 1 2 -1.5
v 1 2.2 -1.5
v 1 5.6 -1.5
v 1 6 -1.5
v 0.5 2 0
v 0.9 2 0
v 1 2 0
v 0.3 2 -0.1
v 0.5 2 -0.1
v 0.9 2 -0.1
v 1 2 -0.1
v 1.1 2 -0.1
v 1.2 2 -0.1
v 0.2 2 -0.2
v 0.3 2 -0.2
v 1 2 -0.2
v 1.1 2 -0.2
v 1.2 2 -0.2
v 1.3 2 -0.2
v 0.1 2 -0.3
v 0.2 2 -0.3
v 1.2 2 -0.3
v 1.3 2 -0.3
v 1.4 2 -0.3
v 1.3 2 -0.4
v 1.4 2 -0.4
v 0 2 -0.5
v 0.1 2 -0.5
v 1.4 2 -0.5
v 1.5 2 -0.5
v 0 2 -1
v 0.1 2 -1
v 1.4 2 -1
v 1.5 2 -1
v 0.1 2 -1.1
v 0.2 2 -1.1
v 0.1 2 -1.2
v 0.2 2 -1.2
v 0.3 2 -1.2
v 1.3 2 -1.2
v 1.4 2 -1.2
v 0.2 2 -1.3
v 0.3 2 -1.3
v 0.4 2 -1.3
v 0.5 2 -1.3
v 1.2 2 -1.3
v 1.3 2 -1.3
v 0.3 2 -1.4
v 0.4 2 -1.4
v 0.5 2 -1.4
v 0.6 2 -1.4
v 1 2 -1.4
v 1.2 2 -1.4
v 0.5 2 -1.5
v 0.6 2 -1.5
v 1 2 -1.5
v 0.5 2.2 -0.1
v 1 2.2 -0.1
v 0.3 2.2 -0.2
v 0.5 2.2 -0.2
v 1 2.2 -0.2
v 1.2 2.2 -0.2
v 0.2 2.2 -0.3
v 0.3 2.2 -0.3
v 1.2 2.2 -0.3
v 1.3 2.2 -0.3
v 0.1 2.2 -0.5
v 0.2 2.2 -0.5
v 1.3 2.2 -0.5
v 1.4 2.2 -0.5
v 0.1 2.2 -1
v 0.2 2.2 -1
v 1.3 2.2 -1
v 1.4 2.2 -1
v 0.2 2.2 -1.2
v 0.3 2.2 -1.2
v 1.2 2.2 -1.2
v 1.3 2.2 -1.2
v 0.3 2.2 -1.3
v 0.5 2.2 -1.3
v 1 2.2 -1.3
v 1.2 2.2 -1.3
v 0.5 2.2 -1.4
v 1 2.2 -1.4
v 0.5 6 0
v 0.9 6 0
v 1 6 0
v 0.3 6 -0.1
v 0.5 6 -0.1
v 0.9 6 -0.1
v 1 6 -0.1
v 1.1 6 -0.1
v 1.2 6 -0.1
v 0.2 6 -0.2
v 0.3 6 -0.2
v 0.5 6 -0.2
v 1 6 -0.2
v 1.1 6 -0.2
v 1.2 6 -0.2
v 1.3 6 -0.2
v 0.1 6 -0.3
v 0.2 6 -0.3
v 0.3 6 -0.3
v 1.2 6 -0.3
v 1.3 6 -0.3
v 1.4 6 -0.3
v 1.3 6 -0.4
v 1.4 6 -0.4
v 0 6 -0.5
v 0.1 6 -0.5
v 0.2 6 -0.5
v 1.3 6 -0.5
v 1.4 6 -0.5
v 1.5 6 -0.5
v 0 6 -1
v 0.1 6 -1
v 0.2 6 -1
v 1.3 6 -1
v 1.4 6 -1
v 1.5 6 -1
v 0.1 6 -1.1
v 0.2 6 -1.1
v 0.1 6 -1.2
v 0.2 6 -1.2
v 0.3 6 -1.2
v 1.2 6 -1.2
v 1.3 6 -1.2
v 1.4 6 -1.2
v 0.2 6 -1.3
v 0.3 6 -1.3
v 0.4 6 -1.3
v 0.5 6 -1.3
v 1 6 -1.3
v 1.2 6 -1.3
v 1.3 6 -1.3
v 0.3 6 -1.4
v 0.4 6 -1.4
v 0.5 6 -1.4
v 0.6 6 -1.4
v 1 6 -1.4
v 1.2 6 -1.4
v 0.5 6 -1.5
v 0.6 6 -1.5
v 1 6 -1.5

# faces
f 3/3/1 2/3/1 1/3/1
f 4/3/1 2/3/1 3/3/1
f 5/4/1 4/4/1 3/4/1
f 6/4/1 4/4/1 5/4/1
f 7/3/1 6/3/1 5/3/1
f 8/3/1 6/3/1 7/3/1
f 14/3/1 10/3/1 9/3/1
f 15/3/1 10/3/1 14/3/1
f 16/3/1 12/3/1 11/3/1
f 17/2/1 13/2/1 12/2/1
f 17/3/1 12/3/1 16/3/1
f 18/2/1 13/2/1 17/2/1
f 19/4/1 15/4/1 14/4/1
f 20/4/1 15/4/1 19/4/1
f 21/4/1 17/4/1 16/4/1
f 21/4/1 18/4/1 17/4/1
f 22/4/1 18/4/1 21/4/1
f 23/4/1 18/4/1 22/4/1
f 24/3/1 20/3/1 19/3/1
f 25/3/1 20/3/1 24/3/1
f 26/3/1 22/3/1 21/3/1
f 27/2/1 23/2/1 22/2/1
f 27/3/1 22/3/1 26/3/1
f 28/2/1 23/2/1 27/2/1
f 33/3/1 30/3/1 29/3/1
f 34/3/1 30/3/1 33/3/1
f 35/1/1 32/1/1 31/1/1
f 36/1/1 32/1/1 35/1/1
f 37/4/1 34/4/1 33/4/1
f 38/4/1 34/4/1 37/4/1
f 39/4/1 36/4/1 35/4/1
f 40/4/1 36/4/1 39/4/1
f 41/3/1 38/3/1 37/3/1
f 42/3/1 38/3/1 41/3/1
f 43/1/1 40/1/1 39/1/1
f 44/1/1 40/1/1 43/1/1
f 49/3/1 46/3/1 45/3/1
f 50/3/1 46/3/1 49/3/1
f 51/1/1 48/1/1 47/1/1
f 52/1/1 48/1/1 51/1/1
f 53/4/1 50/4/1 49/4/1
f 54/4/1 50/4/1 53/4/1
f 55/4/1 52/4/1 51/4/1
f 56/4/1 52/4/1 55/4/1
f 57/3/1 54/3/1 53/3/1
f 58/3/1 54/3/1 57/3/1
f 59/1/1 56/1/1 55/1/1
f 60/1/1 56/1/1 59/1/1
f 65/3/1 62/3/1 61/3/1
f 66/3/1 62/3/1 65/3/1
f 67/2/1 64/2/1 63/2/1
f 68/2/1 64/2/1 67/2/1
f 69/4/1 66/4/1 65/4/1
f 70/4/1 66/4/1 69/4/1
f 71/4/1 68/4/1 67/4/1
f 72/4/1 68/4/1 71/4/1
f 73/3/1 70/3/1 69/3/1
f 74/3/1 70/3/1 73/3/1
f 75/2/1 72/2/1 71/2/1
f 76/2/1 72/2/1 75/2/1
f 81/4/1 78/4/1 77/4/1
f 82/4/1 78/4/1 81/4/1
f 83/4/1 80/4/1 79/4/1
f 84/4/1 80/4/1 83/4/1
f 85/2/1 82/2/1 81/2/1
f 86/2/1 82/2/1 85/2/1
f 87/3/1 84/3/1 83/3/1
f 88/3/1 84/3/1 87/3/1
f 93/4/1 90/4/1 89/4/1
f 94/4/1 90/4/1 93/4/1
f 95/4/1 92/4/1 91/4/1
f 96/4/1 92/4/1 95/4/1
f 97/1/1 94/1/1 93/1/1
f 98/1/1 94/1/1 97/1/1
f 99/3/1 96/3/1 95/3/1
f 100/3/1 96/3/1 99/3/1
f 105/4/1 102/4/1 101/4/1
f 106/4/1 102/4/1 105/4/1
f 107/4/1 102/4/1 106/4/1
f 108/4/1 104/4/1 103/4/1
f 109/4/1 104/4/1 108/4/1
f 110/2/1 106/2/1 105/2/1
f 111/3/1 107/3/1 106/3/1
f 111/2/1 106/2/1 110/2/1
f 112/3/1 107/3/1 111/3/1
f 113/3/1 109/3/1 108/3/1
f 114/3/1 109/3/1 113/3/1
f 117/4/1 116/4/1 115/4/1
f 118/4/1 116/4/1 117/4/1
f 119/3/1 118/3/1 117/3/1
f 120/3/1 118/3/1 119/3/1
f 121/4/2 122/4/2 123/4/2
f 123/4/2 122/4/2 124/4/2
f 123/3/2 124/3/2 125/3/2
f 125/3/2 124/3/2 126/3/2
f 127/4/2 128/4/2 131/4/2
f 131/4/2 128/4/2 132/4/2
f 129/4/2 130/4/2 133/4/2
f 133/4/2 130/4/2 134/4/2
f 134/4/2 130/4/2 135/4/2
f 131/3/2 132/3/2 136/3/2
f 136/3/2 132/3/2 137/3/2
f 133/3/2 134/3/2 138/3/2
f 134/2/2 135/2/2 139/2/2
f 138/3/2 134/3/2 139/3/2
f 139/2/2 135/2/2 140/2/2
f 141/4/2 142/4/2 145/4/2
f 145/4/2 142/4/2 146/4/2
f 143/4/2 144/4/2 147/4/2
f 147/4/2 144/4/2 148/4/2
f 145/3/2 146/3/2 149/3/2
f 149/3/2 146/3/2 150/3/2
f 147/1/2 148/1/2 151/1/2
f 151/1/2 148/1/2 152/1/2
f 153/4/2 154/4/2 157/4/2
f 157/4/2 154/4/2 158/4/2
f 155/4/2 156/4/2 159/4/2
f 159/4/2 156/4/2 160/4/2
f 157/3/2 158/3/2 161/3/2
f 161/3/2 158/3/2 162/3/2
f 159/2/2 160/2/2 163/2/2
f 163/2/2 160/2/2 164/2/2
f 165/2/2 166/2/2 169/2/2
f 169/2/2 166/2/2 170/2/2
f 167/3/2 168/3/2 171/3/2
f 171/3/2 168/3/2 172/3/2
f 169/4/2 170/4/2 173/4/2
f 173/4/2 170/4/2 174/4/2
f 171/4/2 172/4/2 175/4/2
f 175/4/2 172/4/2 176/4/2
f 173/2/2 174/2/2 177/2/2
f 177/2/2 174/2/2 178/2/2
f 175/3/2 176/3/2 179/3/2
f 179/3/2 176/3/2 180/3/2
f 181/1/2 182/1/2 185/1/2
f 185/1/2 182/1/2 186/1/2
f 183/3/2 184/3/2 187/3/2
f 187/3/2 184/3/2 188/3/2
f 185/4/2 186/4/2 189/4/2
f 189/4/2 186/4/2 190/4/2
f 187/4/2 188/4/2 191/4/2
f 191/4/2 188/4/2 192/4/2
f 189/1/2 190/1/2 193/1/2
f 193/1/2 190/1/2 194/1/2
f 191/3/2 192/3/2 195/3/2
f 195/3/2 192/3/2 196/3/2
f 197/1/2 198/1/2 201/1/2
f 201/1/2 198/1/2 202/1/2
f 199/3/2 200/3/2 203/3/2
f 203/3/2 200/3/2 204/3/2
f 201/4/2 202/4/2 205/4/2
f 205/4/2 202/4/2 206/4/2
f 203/4/2 204/4/2 207/4/2
f 207/4/2 204/4/2 208/4/2
f 205/1/2 206/1/2 209/1/2
f 209/1/2 206/1/2 210/1/2
f 207/3/2 208/3/2 211/3/2
f 211/3/2 208/3/2 212/3/2
f 213/2/2 214/2/2 218/2/2
f 214/3/2 215/3/2 219/3/2
f 218/2/2 214/2/2 219/2/2
f 219/3/2 215/3/2 220/3/2
f 216/3/2 217/3/2 221/3/2
f 221/3/2 217/3/2 222/3/2
f 219/4/2 220/4/2 223/4/2
f 218/4/2 219/4/2 223/4/2
f 223/4/2 220/4/2 224/4/2
f 224/4/2 220/4/2 225/4/2
f 221/4/2 222/4/2 226/4/2
f 226/4/2 222/4/2 227/4/2
f 223/2/2 224/2/2 228/2/2
f 224/3/2 225/3/2 229/3/2
f 228/2/2 224/2/2 229/2/2
f 229/3/2 225/3/2 230/3/2
f 226/3/2 227/3/2 231/3/2
f 231/3/2 227/3/2 232/3/2
f 233/3/2 234/3/2 235/3/2
f 235/3/2 234/3/2 236/3/2
f 235/4/2 236/4/2 237/4/2
f 237/4/2 236/4/2 238/4/2
f 237/3/2 238/3/2 239/3/2
f 239/3/2 238/3/2 240/3/2
f 245/3/3 242/3/3 241/3/3
f 246/4/3 243/4/3 242/4/3
f 246/3/3 242/3/3 245/3/3
f 247/3/3 244/3/3 243/3/3
f 247/4/3 243/4/3 246/4/3
f 248/3/3 244/3/3 247/3/3
f 249/2/3 246/2/3 245/2/3
f 250/4/3 247/4/3 246/4/3
f 250/2/3 246/2/3 249/2/3
f 251/2/3 248/2/3 247/2/3
f 251/4/3 247/4/3 250/4/3
f 252/2/3 248/2/3 251/2/3
f 257/3/3 254/3/3 253/3/3
f 258/4/3 255/4/3 254/4/3
f 258/3/3 254/3/3 257/3/3
f 259/3/3 256/3/3 255/3/3
f 259/4/3 255/4/3 258/4/3
f 260/3/3 256/3/3 259/3/3
f 265/2/3 262/2/3 261/2/3
f 266/4/3 263/4/3 262/4/3
f 266/2/3 262/2/3 265/2/3
f 267/2/3 264/2/3 263/2/3
f 267/4/3 263/4/3 266/4/3
f 268/2/3 264/2/3 267/2/3
f 269/1/3 266/1/3 265/1/3
f 270/4/3 267/4/3 266/4/3
f 270/1/3 266/1/3 269/1/3
f 271/1/3 268/1/3 267/1/3
f 271/4/3 267/4/3 270/4/3
f 272/1/3 268/1/3 271/1/3
f 277/3/3 274/3/3 273/3/3
f 278/4/3 275/4/3 274/4/3
f 278/3/3 274/3/3 277/3/3
f 279/3/3 276/3/3 275/3/3
f 279/4/3 275/4/3 278/4/3
f 280/3/3 276/3/3 279/3/3
f 285/1/3 282/1/3 281/1/3
f 286/4/3 283/4/3 282/4/3
f 286/1/3 282/1/3 285/1/3
f 287/1/3 284/1/3 283/1/3
f 287/4/3 283/4/3 286/4/3
f 288/1/3 284/1/3 287/1/3
f 293/3/3 290/3/3 289/3/3
f 294/4/3 291/4/3 290/4/3
f 294/3/3 290/3/3 293/3/3
f 295/3/3 292/3/3 291/3/3
f 295/4/3 291/4/3 294/4/3
f 296/3/3 292/3/3 295/3/3
f 301/2/3 298/2/3 297/2/3
f 302/4/3 299/4/3 298/4/3
f 302/2/3 298/2/3 301/2/3
f 303/2/3 300/2/3 299/2/3
f 303/4/3 299/4/3 302/4/3
f 304/2/3 300/2/3 303/2/3
f 309/3/3 306/3/3 305/3/3
f 310/4/3 307/4/3 306/4/3
f 310/3/3 306/3/3 309/3/3
f 311/3/3 308/3/3 307/3/3
f 311/4/3 307/4/3 310/4/3
f 312/3/3 308/3/3 311/3/3
f 317/3/3 314/3/3 313/3/3
f 318/4/3 315/4/3 314/4/3
f 318/3/3 314/3/3 317/3/3
f 319/3/3 316/3/3 315/3/3
f 319/4/3 315/4/3 318/4/3
f 320/3/3 316/3/3 319/3/3
f 324/4/3 322/4/3 321/4/3
f 325/3/3 323/3/3 322/3/3
f 325/4/3 322/4/3 324/4/3
f 326/3/3 323/3/3 325/3/3
f 330/4/3 328/4/3 327/4/3
f 331/3/3 329/3/3 328/3/3
f 331/4/3 328/4/3 330/4/3
f 332/3/3 329/3/3 331/3/3
f 336/4/3 334/4/3 333/4/3
f 337/1/3 335/1/3 334/1/3
f 337/4/3 334/4/3 336/4/3
f 338/1/3 335/1/3 337/1/3
f 342/4/3 340/4/3 339/4/3
f 343/3/3 341/3/3 340/3/3
f 343/4/3 340/4/3 342/4/3
f 344/3/3 341/3/3 343/3/3
f 348/4/3 346/4/3 345/4/3
f 348/1/3 347/1/3 346/1/3
f 349/1/3 347/1/3 348/1/3
f 350/4/3 348/4/3 345/4/3
f 351/2/3 349/2/3 348/2/3
f 351/4/3 348/4/3 350/4/3
f 352/2/3 349/2/3 351/2/3
f 356/4/3 354/4/3 353/4/3
f 357/3/3 355/3/3 354/3/3
f 357/4/3 354/4/3 356/4/3
f 358/3/3 355/3/3 357/3/3
f 362/4/3 360/4/3 359/4/3
f 362/2/3 361/2/3 360/2/3
f 363/2/3 361/2/3 362/2/3
f 364/4/3 362/4/3 359/4/3
f 365/3/3 363/3/3 362/3/3
f 365/4/3 362/4/3 364/4/3
f 366/3/3 363/3/3 365/3/3
f 367/4/4 368/4/4 370/4/4
f 368/3/4 369/3/4 370/3/4
f 370/3/4 369/3/4 371/3/4
f 367/4/4 370/4/4 372/4/4
f 370/2/4 371/2/4 373/2/4
f 372/4/4 370/4/4 373/4/4
f 373/2/4 371/2/4 374/2/4
f 375/4/4 376/4/4 378/4/4
f 376/3/4 377/3/4 379/3/4
f 378/4/4 376/4/4 379/4/4
f 379/3/4 377/3/4 380/3/4
f 381/4/4 382/4/4 384/4/4
f 382/2/4 383/2/4 384/2/4
f 384/2/4 383/2/4 385/2/4
f 381/4/4 384/4/4 386/4/4
f 384/1/4 385/1/4 387/1/4
f 386/4/4 384/4/4 387/4/4
f 387/1/4 385/1/4 388/1/4
f 389/4/4 390/4/4 392/4/4
f 390/3/4 391/3/4 393/3/4
f 392/4/4 390/4/4 393/4/4
f 393/3/4 391/3/4 394/3/4
f 395/4/4 396/4/4 398/4/4
f 396/1/4 397/1/4 399/1/4
f 398/4/4 396/4/4 399/4/4
f 399/1/4 397/1/4 400/1/4
f 401/4/4 402/4/4 404/4/4
f 402/3/4 403/3/4 405/3/4
f 404/4/4 402/4/4 405/4/4
f 405/3/4 403/3/4 406/3/4
f 407/4/4 408/4/4 410/4/4
f 408/3/4 409/3/4 411/3/4
f 410/4/4 408/4/4 411/4/4
f 411/3/4 409/3/4 412/3/4
f 413/3/4 414/3/4 417/3/4
f 414/4/4 415/4/4 418/4/4
f 417/3/4 414/3/4 418/3/4
f 415/3/4 416/3/4 419/3/4
f 418/4/4 415/4/4 419/4/4
f 419/3/4 416/3/4 420/3/4
f 421/3/4 422/3/4 425/3/4
f 422/4/4 423/4/4 426/4/4
f 425/3/4 422/3/4 426/3/4
f 423/3/4 424/3/4 427/3/4
f 426/4/4 423/4/4 427/4/4
f 427/3/4 424/3/4 428/3/4
f 429/2/4 430/2/4 433/2/4
f 430/4/4 431/4/4 434/4/4
f 433/2/4 430/2/4 434/2/4
f 431/2/4 432/2/4 435/2/4
f 434/4/4 431/4/4 435/4/4
f 435/2/4 432/2/4 436/2/4
f 437/3/4 438/3/4 441/3/4
f 438/4/4 439/4/4 442/4/4
f 441/3/4 438/3/4 442/3/4
f 439/3/4 440/3/4 443/3/4
f 442/4/4 439/4/4 443/4/4
f 443/3/4 440/3/4 444/3/4
f 445/1/4 446/1/4 449/1/4
f 446/4/4 447/4/4 450/4/4
f 449/1/4 446/1/4 450/1/4
f 447/1/4 448/1/4 451/1/4
f 450/4/4 447/4/4 451/4/4
f 451/1/4 448/1/4 452/1/4
f 453/3/4 454/3/4 457/3/4
f 454/4/4 455/4/4 458/4/4
f 457/3/4 454/3/4 458/3/4
f 455/3/4 456/3/4 459/3/4
f 458/4/4 455/4/4 459/4/4
f 459/3/4 456/3/4 460/3/4
f 461/1/4 462/1/4 465/1/4
f 462/4/4 463/4/4 466/4/4
f 465/1/4 462/1/4 466/1/4
f 463/1/4 464/1/4 467/1/4
f 466/4/4 463/4/4 467/4/4
f 467/1/4 464/1/4 468/1/4
f 465/2/4 466/2/4 469/2/4
f 466/4/4 467/4/4 470/4/4
f 469/2/4 466/2/4 470/2/4
f 467/2/4 468/2/4 471/2/4
f 470/4/4 467/4/4 471/4/4
f 471/2/4 468/2/4 472/2/4
f 473/3/4 474/3/4 477/3/4
f 474/4/4 475/4/4 478/4/4
f 477/3/4 474/3/4 478/3/4
f 475/3/4 476/3/4 479/3/4
f 478/4/4 475/4/4 479/4/4
f 479/3/4 476/3/4 480/3/4
f 481/2/4 482/2/4 485/2/4
f 482/4/4 483/4/4 486/4/4
f 485/2/4 482/2/4 486/2/4
f 483/2/4 484/2/4 487/2/4
f 486/4/4 483/4/4 487/4/4
f 487/2/4 484/2/4 488/2/4
f 485/3/4 486/3/4 489/3/4
f 486/4/4 487/4/4 490/4/4
f 489/3/4 486/3/4 490/3/4
f 487/3/4 488/3/4 491/3/4
f 490/4/4 487/4/4 491/4/4
f 491/3/4 488/3/4 492/3/4
f 497/3/5 494/3/5 493/3/5
f 498/2/5 495/2/5 494/2/5
f 498/3/5 494/3/5 497/3/5
f 499/2/5 495/2/5 498/2/5
f 503/3/5 497/3/5 496/3/5
f 503/3/5 498/3/5 497/3/5
f 503/3/5 499/3/5 498/3/5
f 504/2/5 500/2/5 499/2/5
f 504/3/5 499/3/5 503/3/5
f 505/1/5 501/1/5 500/1/5
f 505/2/5 500/2/5 504/2/5
f 506/1/5 501/1/5 505/1/5
f 509/3/5 504/3/5 503/3/5
f 509/3/5 503/3/5 502/3/5
f 509/3/5 506/3/5 505/3/5
f 509/3/5 505/3/5 504/3/5
f 510/1/5 507/1/5 506/1/5
f 510/3/5 506/3/5 509/3/5
f 511/1/5 507/1/5 510/1/5
f 513/3/5 509/3/5 508/3/5
f 513/2/5 512/2/5 511/2/5
f 513/3/5 511/3/5 510/3/5
f 513/3/5 510/3/5 509/3/5
f 514/2/5 512/2/5 513/2/5
f 516/3/5 513/3/5 508/3/5
f 516/3/5 514/3/5 513/3/5
f 517/3/5 514/3/5 516/3/5
f 519/3/5 517/3/5 516/3/5
f 519/3/5 518/3/5 517/3/5
f 519/3/5 516/3/5 515/3/5
f 520/3/5 518/3/5 519/3/5
f 521/3/5 518/3/5 520/3/5
f 522/3/5 518/3/5 521/3/5
f 523/3/5 521/3/5 520/3/5
f 524/3/5 521/3/5 523/3/5
f 525/2/5 524/2/5 523/2/5
f 526/3/5 521/3/5 524/3/5
f 526/2/5 524/2/5 525/2/5
f 527/3/5 521/3/5 526/3/5
f 528/3/5 521/3/5 527/3/5
f 529/3/5 521/3/5 528/3/5
f 530/1/5 527/1/5 526/1/5
f 531/3/5 528/3/5 527/3/5
f 531/1/5 527/1/5 530/1/5
f 532/3/5 528/3/5 531/3/5
f 533/3/5 528/3/5 532/3/5
f 534/3/5 528/3/5 533/3/5
f 535/3/5 528/3/5 534/3/5
f 536/1/5 532/1/5 531/1/5
f 537/2/5 533/2/5 532/2/5
f 537/1/5 532/1/5 536/1/5
f 538/3/5 534/3/5 533/3/5
f 538/2/5 533/2/5 537/2/5
f 539/3/5 534/3/5 538/3/5
f 540/3/5 534/3/5 539/3/5
f 541/3/5 534/3/5 540/3/5
f 542/2/5 539/2/5 538/2/5
f 543/3/5 540/3/5 539/3/5
f 543/2/5 539/2/5 542/2/5
f 544/3/5 540/3/5 543/3/5
f 545/4/6 546/4/6 548/4/6
f 548/4/6 546/4/6 549/4/6
f 547/4/6 548/4/6 552/4/6
f 549/4/6 550/4/6 552/4/6
f 548/4/6 549/4/6 552/4/6
f 552/4/6 550/4/6 553/4/6
f 551/4/6 552/4/6 556/4/6
f 553/4/6 554/4/6 556/4/6
f 552/4/6 553/4/6 556/4/6
f 556/4/6 554/4/6 557/4/6
f 555/4/6 556/4/6 559/4/6
f 557/4/6 558/4/6 559/4/6
f 556/4/6 557/4/6 559/4/6
f 559/4/6 558/4/6 560/4/6
f 560/4/6 558/4/6 561/4/6
f 561/4/6 558/4/6 562/4/6
f 560/4/6 561/4/6 563/4/6
f 563/4/6 561/4/6 564/4/6
f 564/4/6 561/4/6 565/4/6
f 565/4/6 561/4/6 566/4/6
f 564/4/6 565/4/6 567/4/6
f 567/4/6 565/4/6 568/4/6
f 568/4/6 565/4/6 569/4/6
f 569/4/6 565/4/6 570/4/6
f 568/4/6 569/4/6 571/4/6
f 571/4/6 569/4/6 572/4/6
f 573/3/6 574/3/6 577/3/6
f 574/2/6 575/2/6 578/2/6
f 577/3/6 574/3/6 578/3/6
f 578/2/6 575/2/6 579/2/6
f 576/3/6 577/3/6 583/3/6
f 583/3/6 577/3/6 584/3/6
f 579/2/6 580/2/6 585/2/6
f 580/1/6 581/1/6 586/1/6
f 585/2/6 580/2/6 586/2/6
f 586/1/6 581/1/6 587/1/6
f 582/3/6 583/3/6 590/3/6
f 590/3/6 583/3/6 591/3/6
f 587/1/6 588/1/6 592/1/6
f 592/1/6 588/1/6 593/1/6
f 593/2/6 594/2/6 595/2/6
f 595/2/6 594/2/6 596/2/6
f 589/3/6 590/3/6 598/3/6
f 598/3/6 590/3/6 599/3/6
f 595/3/6 596/3/6 600/3/6
f 600/3/6 596/3/6 601/3/6
f 597/3/6 598/3/6 603/3/6
f 603/3/6 598/3/6 604/3/6
f 601/3/6 602/3/6 607/3/6
f 607/3/6 602/3/6 608/3/6
f 604/3/6 605/3/6 609/3/6
f 609/3/6 605/3/6 610/3/6
f 609/2/6 610/2/6 611/2/6
f 611/2/6 610/2/6 612/2/6
f 606/3/6 607/3/6 615/3/6
f 615/3/6 607/3/6 616/3/6
f 612/1/6 613/1/6 617/1/6
f 617/1/6 613/1/6 618/1/6
f 614/3/6 615/3/6 622/3/6
f 622/3/6 615/3/6 623/3/6
f 618/1/6 619/1/6 624/1/6
f 619/2/6 620/2/6 625/2/6
f 624/1/6 619/1/6 625/1/6
f 625/2/6 620/2/6 626/2/6
f 621/3/6 622/3/6 628/3/6
f 628/3/6 622/3/6 629/3/6
f 626/2/6 627/2/6 630/2/6
f 627/3/6 628/3/6 631/3/6
f 630/2/6 627/2/6 631/2/6
f 631/3/6 628/3/6 632/3/6
