# MagicaVoxel @ Ephtracy

# group
o 

# material
mtllib Shed door.mtl
usemtl palette

# normals
vn -1 0 0
vn 1 0 0
vn 0 0 1
vn 0 0 -1
vn 0 -1 0
vn 0 1 0

# texcoords
vt 0.0917969 0.5
vt 0.978516 0.5
vt 0.986328 0.5

# verts
v 2.7 2 -3.4
v 2.7 2 -3.5
v 2.7 5.2 -3.4
v 2.7 5.2 -3.5
v 2.9 3.4 -3.2
v 2.9 3.4 -3.3
v 2.9 3.4 -3.6
v 2.9 3.4 -3.7
v 2.9 3.7 -3.3
v 2.9 3.7 -3.4
v 2.9 3.7 -3.5
v 2.9 3.7 -3.6
v 2.9 3.8 -3.2
v 2.9 3.8 -3.4
v 2.9 3.8 -3.5
v 2.9 3.8 -3.7
v 3.9 3.3 -3.5
v 3.9 3.3 -3.6
v 3.9 3.4 -3.5
v 3.9 3.4 -3.6
v 3 3.4 -3.2
v 3 3.4 -3.3
v 3 3.4 -3.6
v 3 3.4 -3.7
v 3 3.7 -3.3
v 3 3.7 -3.4
v 3 3.7 -3.5
v 3 3.7 -3.6
v 3 3.8 -3.2
v 3 3.8 -3.4
v 3 3.8 -3.5
v 3 3.8 -3.7
v 4.1 2 -3.4
v 4.1 2 -3.5
v 4.1 3.3 -3.5
v 4.1 3.3 -3.6
v 4.1 3.4 -3.5
v 4.1 3.4 -3.6
v 4.1 5.2 -3.4
v 4.1 5.2 -3.5
v 2.9 3.4 -3.2
v 2.9 3.8 -3.2
v 3 3.4 -3.2
v 3 3.8 -3.2
v 2.7 2 -3.4
v 2.7 5.2 -3.4
v 2.9 3.7 -3.4
v 2.9 3.8 -3.4
v 3 3.7 -3.4
v 3 3.8 -3.4
v 4.1 2 -3.4
v 4.1 5.2 -3.4
v 2.9 3.4 -3.6
v 2.9 3.7 -3.6
v 3 3.4 -3.6
v 3 3.7 -3.6
v 2.9 3.4 -3.3
v 2.9 3.7 -3.3
v 3 3.4 -3.3
v 3 3.7 -3.3
v 2.7 2 -3.5
v 2.7 5.2 -3.5
v 2.9 3.7 -3.5
v 2.9 3.8 -3.5
v 3 3.7 -3.5
v 3 3.8 -3.5
v 3.9 3.3 -3.5
v 3.9 3.4 -3.5
v 4 3.3 -3.5
v 4 3.4 -3.5
v 4.1 2 -3.5
v 4.1 3.3 -3.5
v 4.1 3.4 -3.5
v 4.1 5.2 -3.5
v 3.9 3.3 -3.6
v 3.9 3.4 -3.6
v 4 3.3 -3.6
v 4 3.4 -3.6
v 4.1 3.3 -3.6
v 4.1 3.4 -3.6
v 2.9 3.4 -3.7
v 2.9 3.8 -3.7
v 3 3.4 -3.7
v 3 3.8 -3.7
v 2.7 2 -3.4
v 4.1 2 -3.4
v 2.7 2 -3.5
v 4.1 2 -3.5
v 3.9 3.3 -3.5
v 4 3.3 -3.5
v 4.1 3.3 -3.5
v 3.9 3.3 -3.6
v 4 3.3 -3.6
v 4.1 3.3 -3.6
v 2.9 3.4 -3.2
v 3 3.4 -3.2
v 2.9 3.4 -3.3
v 3 3.4 -3.3
v 2.9 3.4 -3.6
v 3 3.4 -3.6
v 2.9 3.4 -3.7
v 3 3.4 -3.7
v 2.9 3.7 -3.3
v 3 3.7 -3.3
v 2.9 3.7 -3.4
v 3 3.7 -3.4
v 2.9 3.7 -3.5
v 3 3.7 -3.5
v 2.9 3.7 -3.6
v 3 3.7 -3.6
v 3.9 3.4 -3.5
v 4 3.4 -3.5
v 4.1 3.4 -3.5
v 3.9 3.4 -3.6
v 4 3.4 -3.6
v 4.1 3.4 -3.6
v 2.9 3.8 -3.2
v 3 3.8 -3.2
v 2.9 3.8 -3.4
v 3 3.8 -3.4
v 2.9 3.8 -3.5
v 3 3.8 -3.5
v 2.9 3.8 -3.7
v 3 3.8 -3.7
v 2.7 5.2 -3.4
v 4.1 5.2 -3.4
v 2.7 5.2 -3.5
v 4.1 5.2 -3.5

# faces
f 3/1/1 2/1/1 1/1/1
f 4/1/1 2/1/1 3/1/1
f 9/2/1 6/2/1 5/2/1
f 12/2/1 8/2/1 7/2/1
f 13/2/1 10/2/1 9/2/1
f 13/2/1 9/2/1 5/2/1
f 14/2/1 10/2/1 13/2/1
f 15/2/1 12/2/1 11/2/1
f 16/2/1 8/2/1 12/2/1
f 16/2/1 12/2/1 15/2/1
f 19/2/1 18/2/1 17/2/1
f 20/2/1 18/2/1 19/2/1
f 21/2/2 22/2/2 25/2/2
f 23/2/2 24/2/2 28/2/2
f 25/2/2 26/2/2 29/2/2
f 21/2/2 25/2/2 29/2/2
f 29/2/2 26/2/2 30/2/2
f 27/2/2 28/2/2 31/2/2
f 28/2/2 24/2/2 32/2/2
f 31/2/2 28/2/2 32/2/2
f 33/1/2 34/1/2 35/1/2
f 33/1/2 35/1/2 37/1/2
f 35/3/2 36/3/2 37/3/2
f 37/3/2 36/3/2 38/3/2
f 33/1/2 37/1/2 39/1/2
f 39/1/2 37/1/2 40/1/2
f 43/2/3 42/2/3 41/2/3
f 44/2/3 42/2/3 43/2/3
f 47/1/3 46/1/3 45/1/3
f 48/1/3 46/1/3 47/1/3
f 49/1/3 47/1/3 45/1/3
f 50/1/3 46/1/3 48/1/3
f 51/1/3 49/1/3 45/1/3
f 51/1/3 50/1/3 49/1/3
f 52/1/3 46/1/3 50/1/3
f 52/1/3 50/1/3 51/1/3
f 55/2/3 54/2/3 53/2/3
f 56/2/3 54/2/3 55/2/3
f 57/2/4 58/2/4 59/2/4
f 59/2/4 58/2/4 60/2/4
f 61/1/4 62/1/4 63/1/4
f 63/1/4 62/1/4 64/1/4
f 61/1/4 63/1/4 65/1/4
f 64/1/4 62/1/4 66/1/4
f 61/1/4 65/1/4 67/1/4
f 65/1/4 66/1/4 67/1/4
f 67/1/4 66/1/4 68/1/4
f 61/1/4 67/1/4 69/1/4
f 68/1/4 66/1/4 70/1/4
f 61/1/4 69/1/4 71/1/4
f 71/1/4 69/1/4 72/1/4
f 70/1/4 66/1/4 73/1/4
f 66/1/4 62/1/4 74/1/4
f 73/1/4 66/1/4 74/1/4
f 75/2/4 76/2/4 77/2/4
f 77/2/4 76/2/4 78/2/4
f 77/3/4 78/3/4 79/3/4
f 79/3/4 78/3/4 80/3/4
f 81/2/4 82/2/4 83/2/4
f 83/2/4 82/2/4 84/2/4
f 87/1/5 86/1/5 85/1/5
f 88/1/5 86/1/5 87/1/5
f 92/2/5 90/2/5 89/2/5
f 93/3/5 91/3/5 90/3/5
f 93/2/5 90/2/5 92/2/5
f 94/3/5 91/3/5 93/3/5
f 97/2/5 96/2/5 95/2/5
f 98/2/5 96/2/5 97/2/5
f 101/2/5 100/2/5 99/2/5
f 102/2/5 100/2/5 101/2/5
f 105/2/5 104/2/5 103/2/5
f 106/2/5 104/2/5 105/2/5
f 109/2/5 108/2/5 107/2/5
f 110/2/5 108/2/5 109/2/5
f 111/2/6 112/2/6 114/2/6
f 112/3/6 113/3/6 115/3/6
f 114/2/6 112/2/6 115/2/6
f 115/3/6 113/3/6 116/3/6
f 117/2/6 118/2/6 119/2/6
f 119/2/6 118/2/6 120/2/6
f 121/2/6 122/2/6 123/2/6
f 123/2/6 122/2/6 124/2/6
f 125/1/6 126/1/6 127/1/6
f 127/1/6 126/1/6 128/1/6
