# MagicaVoxel @ Ephtracy

# group
o 

# material
mtllib TV.mtl
usemtl palette

# normals
vn -1 0 0
vn 1 0 0
vn 0 0 1
vn 0 0 -1
vn 0 -1 0
vn 0 1 0

# texcoords
vt 0.751953 0.5
vt 0.822266 0.5
vt 0.837891 0.5
vt 0.845703 0.5
vt 0.849609 0.5
vt 0.853516 0.5

# verts
v 3.6 2.7 -2.7
v 3.6 2.7 -3.2
v 3.6 2.8 -2.6
v 3.6 2.8 -2.7
v 3.6 6 -2.6
v 3.6 6 -3.2
v 4.9 6.6 -2.9
v 4.9 6.6 -3
v 4.9 6.7 -2.9
v 4.9 6.7 -3
v 5 6.5 -2.9
v 5 6.5 -3
v 5 6.6 -2.9
v 5 6.6 -3
v 5.1 6.4 -2.9
v 5.1 6.4 -3
v 5.1 6.5 -2.9
v 5.1 6.5 -3
v 5.2 6.3 -2.9
v 5.2 6.3 -3
v 5.2 6.4 -2.9
v 5.2 6.4 -3
v 5.3 6.2 -2.9
v 5.3 6.2 -3
v 5.3 6.3 -2.9
v 5.3 6.3 -3
v 5.4 6.1 -2.9
v 5.4 6.1 -3
v 5.4 6.2 -2.9
v 5.4 6.2 -3
v 5.5 6 -2.9
v 5.5 6 -3
v 5.5 6.1 -2.9
v 5.5 6.1 -3
v 5.8 6 -2.9
v 5.8 6 -3
v 5.8 6.1 -2.9
v 5.8 6.1 -3
v 5.9 6.1 -2.9
v 5.9 6.1 -3
v 5.9 6.2 -2.9
v 5.9 6.2 -3
v 6 6.2 -2.9
v 6 6.2 -3
v 6 6.3 -2.9
v 6 6.3 -3
v 6.1 6.3 -2.9
v 6.1 6.3 -3
v 6.1 6.4 -2.9
v 6.1 6.4 -3
v 6.2 6.4 -2.9
v 6.2 6.4 -3
v 6.2 6.5 -2.9
v 6.2 6.5 -3
v 6.3 6.5 -2.9
v 6.3 6.5 -3
v 6.3 6.6 -2.9
v 6.3 6.6 -3
v 6.4 6.6 -2.9
v 6.4 6.6 -3
v 6.4 6.7 -2.9
v 6.4 6.7 -3
v 7.4 3.2 -2.6
v 7.4 3.2 -2.7
v 7.4 5.7 -2.6
v 7.4 5.7 -2.7
v 7.5 2.7 -2.7
v 7.5 2.7 -3.2
v 7.5 2.8 -2.7
v 7.5 2.8 -3.2
v 3.8 2.7 -2.7
v 3.8 2.7 -3.2
v 3.8 2.8 -2.7
v 3.8 2.8 -3.2
v 3.9 3.2 -2.6
v 3.9 3.2 -2.7
v 3.9 5.7 -2.6
v 3.9 5.7 -2.7
v 5 6.6 -2.9
v 5 6.6 -3
v 5 6.7 -2.9
v 5 6.7 -3
v 5.1 6.5 -2.9
v 5.1 6.5 -3
v 5.1 6.6 -2.9
v 5.1 6.6 -3
v 5.2 6.4 -2.9
v 5.2 6.4 -3
v 5.2 6.5 -2.9
v 5.2 6.5 -3
v 5.3 6.3 -2.9
v 5.3 6.3 -3
v 5.3 6.4 -2.9
v 5.3 6.4 -3
v 5.4 6.2 -2.9
v 5.4 6.2 -3
v 5.4 6.3 -2.9
v 5.4 6.3 -3
v 5.5 6.1 -2.9
v 5.5 6.1 -3
v 5.5 6.2 -2.9
v 5.5 6.2 -3
v 5.6 6 -2.9
v 5.6 6 -3
v 5.6 6.1 -2.9
v 5.6 6.1 -3
v 5.9 6 -2.9
v 5.9 6 -3
v 5.9 6.1 -2.9
v 5.9 6.1 -3
v 6 6.1 -2.9
v 6 6.1 -3
v 6 6.2 -2.9
v 6 6.2 -3
v 6.1 6.2 -2.9
v 6.1 6.2 -3
v 6.1 6.3 -2.9
v 6.1 6.3 -3
v 6.2 6.3 -2.9
v 6.2 6.3 -3
v 6.2 6.4 -2.9
v 6.2 6.4 -3
v 6.3 6.4 -2.9
v 6.3 6.4 -3
v 6.3 6.5 -2.9
v 6.3 6.5 -3
v 6.4 6.5 -2.9
v 6.4 6.5 -3
v 6.4 6.6 -2.9
v 6.4 6.6 -3
v 6.5 6.6 -2.9
v 6.5 6.6 -3
v 6.5 6.7 -2.9
v 6.5 6.7 -3
v 7.7 2.7 -2.7
v 7.7 2.7 -3.2
v 7.7 2.8 -2.6
v 7.7 2.8 -2.7
v 7.7 6 -2.6
v 7.7 6 -3.2
v 3.6 2.8 -2.6
v 3.6 6 -2.6
v 3.9 3.2 -2.6
v 3.9 5.7 -2.6
v 5.1 3 -2.6
v 5.1 3.1 -2.6
v 5.2 3 -2.6
v 5.2 3.1 -2.6
v 5.4 3 -2.6
v 5.4 3.1 -2.6
v 5.5 3 -2.6
v 5.5 3.1 -2.6
v 5.8 3 -2.6
v 5.8 3.1 -2.6
v 5.9 3 -2.6
v 5.9 3.1 -2.6
v 6.1 3 -2.6
v 6.1 3.1 -2.6
v 6.2 3 -2.6
v 6.2 3.1 -2.6
v 7.4 3.2 -2.6
v 7.4 5.7 -2.6
v 7.7 2.8 -2.6
v 7.7 6 -2.6
v 3.6 2.7 -2.7
v 3.6 2.8 -2.7
v 3.8 2.7 -2.7
v 3.8 2.8 -2.7
v 3.9 3.2 -2.7
v 3.9 5.7 -2.7
v 7.4 3.2 -2.7
v 7.4 5.7 -2.7
v 7.5 2.7 -2.7
v 7.5 2.8 -2.7
v 7.7 2.7 -2.7
v 7.7 2.8 -2.7
v 4.9 6.6 -2.9
v 4.9 6.7 -2.9
v 5 6.5 -2.9
v 5 6.6 -2.9
v 5 6.7 -2.9
v 5.1 6.4 -2.9
v 5.1 6.5 -2.9
v 5.1 6.6 -2.9
v 5.2 6.3 -2.9
v 5.2 6.4 -2.9
v 5.2 6.5 -2.9
v 5.3 6.2 -2.9
v 5.3 6.3 -2.9
v 5.3 6.4 -2.9
v 5.4 6.1 -2.9
v 5.4 6.2 -2.9
v 5.4 6.3 -2.9
v 5.5 6 -2.9
v 5.5 6.1 -2.9
v 5.5 6.2 -2.9
v 5.6 6 -2.9
v 5.6 6.1 -2.9
v 5.8 6 -2.9
v 5.8 6.1 -2.9
v 5.9 6 -2.9
v 5.9 6.1 -2.9
v 5.9 6.2 -2.9
v 6 6.1 -2.9
v 6 6.2 -2.9
v 6 6.3 -2.9
v 6.1 6.2 -2.9
v 6.1 6.3 -2.9
v 6.1 6.4 -2.9
v 6.2 6.3 -2.9
v 6.2 6.4 -2.9
v 6.2 6.5 -2.9
v 6.3 6.4 -2.9
v 6.3 6.5 -2.9
v 6.3 6.6 -2.9
v 6.4 6.5 -2.9
v 6.4 6.6 -2.9
v 6.4 6.7 -2.9
v 6.5 6.6 -2.9
v 6.5 6.7 -2.9
v 4.9 6.6 -3
v 4.9 6.7 -3
v 5 6.5 -3
v 5 6.6 -3
v 5 6.7 -3
v 5.1 6.4 -3
v 5.1 6.5 -3
v 5.1 6.6 -3
v 5.2 6.3 -3
v 5.2 6.4 -3
v 5.2 6.5 -3
v 5.3 6.2 -3
v 5.3 6.3 -3
v 5.3 6.4 -3
v 5.4 6.1 -3
v 5.4 6.2 -3
v 5.4 6.3 -3
v 5.5 6 -3
v 5.5 6.1 -3
v 5.5 6.2 -3
v 5.6 6 -3
v 5.6 6.1 -3
v 5.8 6 -3
v 5.8 6.1 -3
v 5.9 6 -3
v 5.9 6.1 -3
v 5.9 6.2 -3
v 6 6.1 -3
v 6 6.2 -3
v 6 6.3 -3
v 6.1 6.2 -3
v 6.1 6.3 -3
v 6.1 6.4 -3
v 6.2 6.3 -3
v 6.2 6.4 -3
v 6.2 6.5 -3
v 6.3 6.4 -3
v 6.3 6.5 -3
v 6.3 6.6 -3
v 6.4 6.5 -3
v 6.4 6.6 -3
v 6.4 6.7 -3
v 6.5 6.6 -3
v 6.5 6.7 -3
v 3.6 2.7 -3.2
v 3.6 6 -3.2
v 3.8 2.7 -3.2
v 3.8 2.8 -3.2
v 7.5 2.7 -3.2
v 7.5 2.8 -3.2
v 7.7 2.7 -3.2
v 7.7 6 -3.2
v 3.6 2.7 -2.7
v 3.8 2.7 -2.7
v 7.5 2.7 -2.7
v 7.7 2.7 -2.7
v 3.6 2.7 -3.2
v 3.8 2.7 -3.2
v 7.5 2.7 -3.2
v 7.7 2.7 -3.2
v 3.6 2.8 -2.6
v 7.7 2.8 -2.6
v 3.6 2.8 -2.7
v 3.8 2.8 -2.7
v 7.5 2.8 -2.7
v 7.7 2.8 -2.7
v 3.8 2.8 -3.2
v 7.5 2.8 -3.2
v 3.9 5.7 -2.6
v 7.4 5.7 -2.6
v 3.9 5.7 -2.7
v 7.4 5.7 -2.7
v 5.4 6.1 -2.9
v 5.5 6.1 -2.9
v 5.9 6.1 -2.9
v 6 6.1 -2.9
v 5.4 6.1 -3
v 5.5 6.1 -3
v 5.9 6.1 -3
v 6 6.1 -3
v 5.3 6.2 -2.9
v 5.4 6.2 -2.9
v 6 6.2 -2.9
v 6.1 6.2 -2.9
v 5.3 6.2 -3
v 5.4 6.2 -3
v 6 6.2 -3
v 6.1 6.2 -3
v 5.2 6.3 -2.9
v 5.3 6.3 -2.9
v 6.1 6.3 -2.9
v 6.2 6.3 -2.9
v 5.2 6.3 -3
v 5.3 6.3 -3
v 6.1 6.3 -3
v 6.2 6.3 -3
v 5.1 6.4 -2.9
v 5.2 6.4 -2.9
v 6.2 6.4 -2.9
v 6.3 6.4 -2.9
v 5.1 6.4 -3
v 5.2 6.4 -3
v 6.2 6.4 -3
v 6.3 6.4 -3
v 5 6.5 -2.9
v 5.1 6.5 -2.9
v 6.3 6.5 -2.9
v 6.4 6.5 -2.9
v 5 6.5 -3
v 5.1 6.5 -3
v 6.3 6.5 -3
v 6.4 6.5 -3
v 4.9 6.6 -2.9
v 5 6.6 -2.9
v 6.4 6.6 -2.9
v 6.5 6.6 -2.9
v 4.9 6.6 -3
v 5 6.6 -3
v 6.4 6.6 -3
v 6.5 6.6 -3
v 3.9 3.2 -2.6
v 7.4 3.2 -2.6
v 3.9 3.2 -2.7
v 7.4 3.2 -2.7
v 3.6 6 -2.6
v 7.7 6 -2.6
v 5.5 6 -2.9
v 5.6 6 -2.9
v 5.8 6 -2.9
v 5.9 6 -2.9
v 5.5 6 -3
v 5.6 6 -3
v 5.8 6 -3
v 5.9 6 -3
v 3.6 6 -3.2
v 7.7 6 -3.2
v 5.5 6.1 -2.9
v 5.6 6.1 -2.9
v 5.8 6.1 -2.9
v 5.9 6.1 -2.9
v 5.5 6.1 -3
v 5.6 6.1 -3
v 5.8 6.1 -3
v 5.9 6.1 -3
v 5.4 6.2 -2.9
v 5.5 6.2 -2.9
v 5.9 6.2 -2.9
v 6 6.2 -2.9
v 5.4 6.2 -3
v 5.5 6.2 -3
v 5.9 6.2 -3
v 6 6.2 -3
v 5.3 6.3 -2.9
v 5.4 6.3 -2.9
v 6 6.3 -2.9
v 6.1 6.3 -2.9
v 5.3 6.3 -3
v 5.4 6.3 -3
v 6 6.3 -3
v 6.1 6.3 -3
v 5.2 6.4 -2.9
v 5.3 6.4 -2.9
v 6.1 6.4 -2.9
v 6.2 6.4 -2.9
v 5.2 6.4 -3
v 5.3 6.4 -3
v 6.1 6.4 -3
v 6.2 6.4 -3
v 5.1 6.5 -2.9
v 5.2 6.5 -2.9
v 6.2 6.5 -2.9
v 6.3 6.5 -2.9
v 5.1 6.5 -3
v 5.2 6.5 -3
v 6.2 6.5 -3
v 6.3 6.5 -3
v 5 6.6 -2.9
v 5.1 6.6 -2.9
v 6.3 6.6 -2.9
v 6.4 6.6 -2.9
v 5 6.6 -3
v 5.1 6.6 -3
v 6.3 6.6 -3
v 6.4 6.6 -3
v 4.9 6.7 -2.9
v 5 6.7 -2.9
v 6.4 6.7 -2.9
v 6.5 6.7 -2.9
v 4.9 6.7 -3
v 5 6.7 -3
v 6.4 6.7 -3
v 6.5 6.7 -3

# faces
f 4/4/1 2/4/1 1/4/1
f 5/4/1 4/4/1 3/4/1
f 6/4/1 2/4/1 4/4/1
f 6/4/1 4/4/1 5/4/1
f 9/1/1 8/1/1 7/1/1
f 10/1/1 8/1/1 9/1/1
f 13/1/1 12/1/1 11/1/1
f 14/1/1 12/1/1 13/1/1
f 17/1/1 16/1/1 15/1/1
f 18/1/1 16/1/1 17/1/1
f 21/1/1 20/1/1 19/1/1
f 22/1/1 20/1/1 21/1/1
f 25/1/1 24/1/1 23/1/1
f 26/1/1 24/1/1 25/1/1
f 29/1/1 28/1/1 27/1/1
f 30/1/1 28/1/1 29/1/1
f 33/1/1 32/1/1 31/1/1
f 34/1/1 32/1/1 33/1/1
f 37/1/1 36/1/1 35/1/1
f 38/1/1 36/1/1 37/1/1
f 41/1/1 40/1/1 39/1/1
f 42/1/1 40/1/1 41/1/1
f 45/1/1 44/1/1 43/1/1
f 46/1/1 44/1/1 45/1/1
f 49/1/1 48/1/1 47/1/1
f 50/1/1 48/1/1 49/1/1
f 53/1/1 52/1/1 51/1/1
f 54/1/1 52/1/1 53/1/1
f 57/1/1 56/1/1 55/1/1
f 58/1/1 56/1/1 57/1/1
f 61/1/1 60/1/1 59/1/1
f 62/1/1 60/1/1 61/1/1
f 65/4/1 64/4/1 63/4/1
f 66/4/1 64/4/1 65/4/1
f 69/4/1 68/4/1 67/4/1
f 70/4/1 68/4/1 69/4/1
f 71/4/2 72/4/2 73/4/2
f 73/4/2 72/4/2 74/4/2
f 75/4/2 76/4/2 77/4/2
f 77/4/2 76/4/2 78/4/2
f 79/1/2 80/1/2 81/1/2
f 81/1/2 80/1/2 82/1/2
f 83/1/2 84/1/2 85/1/2
f 85/1/2 84/1/2 86/1/2
f 87/1/2 88/1/2 89/1/2
f 89/1/2 88/1/2 90/1/2
f 91/1/2 92/1/2 93/1/2
f 93/1/2 92/1/2 94/1/2
f 95/1/2 96/1/2 97/1/2
f 97/1/2 96/1/2 98/1/2
f 99/1/2 100/1/2 101/1/2
f 101/1/2 100/1/2 102/1/2
f 103/1/2 104/1/2 105/1/2
f 105/1/2 104/1/2 106/1/2
f 107/1/2 108/1/2 109/1/2
f 109/1/2 108/1/2 110/1/2
f 111/1/2 112/1/2 113/1/2
f 113/1/2 112/1/2 114/1/2
f 115/1/2 116/1/2 117/1/2
f 117/1/2 116/1/2 118/1/2
f 119/1/2 120/1/2 121/1/2
f 121/1/2 120/1/2 122/1/2
f 123/1/2 124/1/2 125/1/2
f 125/1/2 124/1/2 126/1/2
f 127/1/2 128/1/2 129/1/2
f 129/1/2 128/1/2 130/1/2
f 131/1/2 132/1/2 133/1/2
f 133/1/2 132/1/2 134/1/2
f 135/4/2 136/4/2 138/4/2
f 137/4/2 138/4/2 139/4/2
f 138/4/2 136/4/2 140/4/2
f 139/4/2 138/4/2 140/4/2
f 143/4/3 142/4/3 141/4/3
f 144/4/3 142/4/3 143/4/3
f 145/4/3 143/4/3 141/4/3
f 146/4/3 143/4/3 145/4/3
f 147/4/3 145/4/3 141/4/3
f 147/5/3 146/5/3 145/5/3
f 148/4/3 143/4/3 146/4/3
f 148/5/3 146/5/3 147/5/3
f 149/4/3 147/4/3 141/4/3
f 149/4/3 148/4/3 147/4/3
f 150/4/3 143/4/3 148/4/3
f 150/4/3 148/4/3 149/4/3
f 151/4/3 149/4/3 141/4/3
f 151/5/3 150/5/3 149/5/3
f 152/4/3 143/4/3 150/4/3
f 152/5/3 150/5/3 151/5/3
f 153/4/3 151/4/3 141/4/3
f 153/4/3 152/4/3 151/4/3
f 154/4/3 143/4/3 152/4/3
f 154/4/3 152/4/3 153/4/3
f 155/4/3 153/4/3 141/4/3
f 155/5/3 154/5/3 153/5/3
f 156/4/3 143/4/3 154/4/3
f 156/5/3 154/5/3 155/5/3
f 157/4/3 155/4/3 141/4/3
f 157/4/3 156/4/3 155/4/3
f 158/4/3 143/4/3 156/4/3
f 158/4/3 156/4/3 157/4/3
f 159/4/3 157/4/3 141/4/3
f 159/5/3 158/5/3 157/5/3
f 160/4/3 143/4/3 158/4/3
f 160/5/3 158/5/3 159/5/3
f 161/4/3 160/4/3 159/4/3
f 161/4/3 143/4/3 160/4/3
f 162/4/3 142/4/3 144/4/3
f 163/4/3 161/4/3 159/4/3
f 163/4/3 162/4/3 161/4/3
f 163/4/3 159/4/3 141/4/3
f 164/4/3 142/4/3 162/4/3
f 164/4/3 162/4/3 163/4/3
f 167/4/3 166/4/3 165/4/3
f 168/4/3 166/4/3 167/4/3
f 171/6/3 170/6/3 169/6/3
f 172/6/3 170/6/3 171/6/3
f 175/4/3 174/4/3 173/4/3
f 176/4/3 174/4/3 175/4/3
f 180/1/3 178/1/3 177/1/3
f 181/1/3 178/1/3 180/1/3
f 183/1/3 180/1/3 179/1/3
f 184/1/3 180/1/3 183/1/3
f 186/1/3 183/1/3 182/1/3
f 187/1/3 183/1/3 186/1/3
f 189/1/3 186/1/3 185/1/3
f 190/1/3 186/1/3 189/1/3
f 192/1/3 189/1/3 188/1/3
f 193/1/3 189/1/3 192/1/3
f 195/1/3 192/1/3 191/1/3
f 196/1/3 192/1/3 195/1/3
f 197/1/3 195/1/3 194/1/3
f 198/1/3 195/1/3 197/1/3
f 201/1/3 200/1/3 199/1/3
f 202/1/3 200/1/3 201/1/3
f 204/1/3 203/1/3 202/1/3
f 205/1/3 203/1/3 204/1/3
f 207/1/3 206/1/3 205/1/3
f 208/1/3 206/1/3 207/1/3
f 210/1/3 209/1/3 208/1/3
f 211/1/3 209/1/3 210/1/3
f 213/1/3 212/1/3 211/1/3
f 214/1/3 212/1/3 213/1/3
f 216/1/3 215/1/3 214/1/3
f 217/1/3 215/1/3 216/1/3
f 219/1/3 218/1/3 217/1/3
f 220/1/3 218/1/3 219/1/3
f 221/1/4 222/1/4 224/1/4
f 224/1/4 222/1/4 225/1/4
f 223/1/4 224/1/4 227/1/4
f 227/1/4 224/1/4 228/1/4
f 226/1/4 227/1/4 230/1/4
f 230/1/4 227/1/4 231/1/4
f 229/1/4 230/1/4 233/1/4
f 233/1/4 230/1/4 234/1/4
f 232/1/4 233/1/4 236/1/4
f 236/1/4 233/1/4 237/1/4
f 235/1/4 236/1/4 239/1/4
f 239/1/4 236/1/4 240/1/4
f 238/1/4 239/1/4 241/1/4
f 241/1/4 239/1/4 242/1/4
f 243/1/4 244/1/4 245/1/4
f 245/1/4 244/1/4 246/1/4
f 246/1/4 247/1/4 248/1/4
f 248/1/4 247/1/4 249/1/4
f 249/1/4 250/1/4 251/1/4
f 251/1/4 250/1/4 252/1/4
f 252/1/4 253/1/4 254/1/4
f 254/1/4 253/1/4 255/1/4
f 255/1/4 256/1/4 257/1/4
f 257/1/4 256/1/4 258/1/4
f 258/1/4 259/1/4 260/1/4
f 260/1/4 259/1/4 261/1/4
f 261/1/4 262/1/4 263/1/4
f 263/1/4 262/1/4 264/1/4
f 265/4/4 266/4/4 267/4/4
f 267/4/4 266/4/4 268/4/4
f 268/4/4 266/4/4 270/4/4
f 269/4/4 270/4/4 271/4/4
f 270/4/4 266/4/4 272/4/4
f 271/4/4 270/4/4 272/4/4
f 277/4/5 274/4/5 273/4/5
f 278/4/5 274/4/5 277/4/5
f 279/4/5 276/4/5 275/4/5
f 280/4/5 276/4/5 279/4/5
f 283/4/5 282/4/5 281/4/5
f 284/4/5 282/4/5 283/4/5
f 285/4/5 282/4/5 284/4/5
f 286/4/5 282/4/5 285/4/5
f 287/4/5 285/4/5 284/4/5
f 288/4/5 285/4/5 287/4/5
f 291/4/5 290/4/5 289/4/5
f 292/4/5 290/4/5 291/4/5
f 297/1/5 294/1/5 293/1/5
f 298/1/5 294/1/5 297/1/5
f 299/1/5 296/1/5 295/1/5
f 300/1/5 296/1/5 299/1/5
f 305/1/5 302/1/5 301/1/5
f 306/1/5 302/1/5 305/1/5
f 307/1/5 304/1/5 303/1/5
f 308/1/5 304/1/5 307/1/5
f 313/1/5 310/1/5 309/1/5
f 314/1/5 310/1/5 313/1/5
f 315/1/5 312/1/5 311/1/5
f 316/1/5 312/1/5 315/1/5
f 321/1/5 318/1/5 317/1/5
f 322/1/5 318/1/5 321/1/5
f 323/1/5 320/1/5 319/1/5
f 324/1/5 320/1/5 323/1/5
f 329/1/5 326/1/5 325/1/5
f 330/1/5 326/1/5 329/1/5
f 331/1/5 328/1/5 327/1/5
f 332/1/5 328/1/5 331/1/5
f 337/1/5 334/1/5 333/1/5
f 338/1/5 334/1/5 337/1/5
f 339/1/5 336/1/5 335/1/5
f 340/1/5 336/1/5 339/1/5
f 341/4/6 342/4/6 343/4/6
f 343/4/6 342/4/6 344/4/6
f 345/4/6 346/4/6 347/4/6
f 347/4/6 346/4/6 348/4/6
f 348/4/6 346/4/6 349/4/6
f 349/4/6 346/4/6 350/4/6
f 345/4/6 347/4/6 351/4/6
f 348/4/6 349/4/6 352/4/6
f 352/4/6 349/4/6 353/4/6
f 350/4/6 346/4/6 354/4/6
f 352/4/6 353/4/6 355/4/6
f 353/4/6 354/4/6 355/4/6
f 345/4/6 351/4/6 355/4/6
f 351/4/6 352/4/6 355/4/6
f 354/4/6 346/4/6 356/4/6
f 355/4/6 354/4/6 356/4/6
f 357/1/6 358/1/6 361/1/6
f 361/1/6 358/1/6 362/1/6
f 359/1/6 360/1/6 363/1/6
f 363/1/6 360/1/6 364/1/6
f 365/1/6 366/1/6 369/1/6
f 369/1/6 366/1/6 370/1/6
f 367/1/6 368/1/6 371/1/6
f 371/1/6 368/1/6 372/1/6
f 373/1/6 374/1/6 377/1/6
f 377/1/6 374/1/6 378/1/6
f 375/1/6 376/1/6 379/1/6
f 379/1/6 376/1/6 380/1/6
f 381/1/6 382/1/6 385/1/6
f 385/1/6 382/1/6 386/1/6
f 383/1/6 384/1/6 387/1/6
f 387/1/6 384/1/6 388/1/6
f 389/1/6 390/1/6 393/1/6
f 393/1/6 390/1/6 394/1/6
f 391/1/6 392/1/6 395/1/6
f 395/1/6 392/1/6 396/1/6
f 397/1/6 398/1/6 401/1/6
f 401/1/6 398/1/6 402/1/6
f 399/1/6 400/1/6 403/1/6
f 403/1/6 400/1/6 404/1/6
f 405/1/6 406/1/6 409/1/6
f 409/1/6 406/1/6 410/1/6
f 407/1/6 408/1/6 411/1/6
f 411/1/6 408/1/6 412/1/6
