# MagicaVoxel @ Ephtracy

# group
o 

# material
mtllib Sofa.mtl
usemtl palette

# normals
vn -1 0 0
vn 1 0 0
vn 0 0 1
vn 0 0 -1
vn 0 -1 0
vn 0 1 0

# texcoords
vt 0.306641 0.5
vt 0.537109 0.5
vt 0.705078 0.5
vt 0.974609 0.5

# verts
v 0 2 0
v 0 2 -1.5
v 0 2.8 0
v 0 2.8 -1.4
v 0 2.8 -1.5
v 0 3 -1.4
v 0 3 -1.5
v 0 4 0
v 0 4 -1.5
v 3.6 3 -0.4
v 3.6 3 -1.4
v 3.6 4 -0.4
v 3.6 4 -1.4
v 3.7 2 0
v 3.7 2 -1.5
v 3.7 2.4 -0.1
v 3.7 2.4 -1.4
v 3.7 2.6 -1.4
v 3.7 2.6 -1.5
v 3.7 2.8 0
v 3.7 2.8 -0.1
v 3.8 3 -1.4
v 3.8 3 -1.5
v 3.8 4 -1.4
v 3.8 4 -1.5
v 0.2 3 -1.4
v 0.2 3 -1.5
v 0.2 4 -1.4
v 0.2 4 -1.5
v 0.3 2 0
v 0.3 2 -1.5
v 0.3 2.4 -0.1
v 0.3 2.4 -1.4
v 0.3 2.6 -1.4
v 0.3 2.6 -1.5
v 0.3 2.8 0
v 0.3 2.8 -0.1
v 0.4 3 -0.4
v 0.4 3 -1.4
v 0.4 4 -0.4
v 0.4 4 -1.4
v 4 2 0
v 4 2 -1.5
v 4 2.8 0
v 4 2.8 -1.4
v 4 2.8 -1.5
v 4 3 -1.4
v 4 3 -1.5
v 4 3.4 0
v 4 3.4 -0.1
v 4 3.5 0
v 4 3.5 -0.1
v 4 4 0
v 4 4 -1.5
v 0 2 0
v 0 2.8 0
v 0 4 0
v 0.3 2 0
v 0.3 2.8 0
v 3.7 2 0
v 3.7 2.8 0
v 3.9 3.4 0
v 3.9 3.5 0
v 4 2 0
v 4 2.8 0
v 4 3.4 0
v 4 3.5 0
v 4 4 0
v 0.3 2.4 -0.1
v 0.3 2.8 -0.1
v 3.7 2.4 -0.1
v 3.7 2.8 -0.1
v 0.4 3 -0.4
v 0.4 4 -0.4
v 3.6 3 -0.4
v 3.6 4 -0.4
v 0 2.8 -1.4
v 0 3 -1.4
v 0.2 3 -1.4
v 0.2 4 -1.4
v 0.3 2.4 -1.4
v 0.3 2.6 -1.4
v 0.4 3 -1.4
v 0.4 4 -1.4
v 3.6 3 -1.4
v 3.6 4 -1.4
v 3.7 2.4 -1.4
v 3.7 2.6 -1.4
v 3.8 3 -1.4
v 3.8 4 -1.4
v 4 2.8 -1.4
v 4 3 -1.4
v 0 2 -1.5
v 0 2.8 -1.5
v 0 3 -1.5
v 0 4 -1.5
v 0.2 3 -1.5
v 0.2 4 -1.5
v 0.3 2 -1.5
v 0.3 2.6 -1.5
v 3.7 2 -1.5
v 3.7 2.6 -1.5
v 3.8 3 -1.5
v 3.8 4 -1.5
v 4 2 -1.5
v 4 2.8 -1.5
v 4 3 -1.5
v 4 4 -1.5
v 0 2 0
v 0.3 2 0
v 3.7 2 0
v 4 2 0
v 0 2 -1.5
v 0.3 2 -1.5
v 3.7 2 -1.5
v 4 2 -1.5
v 0.3 2.4 -0.1
v 3.7 2.4 -0.1
v 0.3 2.4 -1.4
v 3.7 2.4 -1.4
v 0.3 2.6 -1.4
v 3.7 2.6 -1.4
v 0.3 2.6 -1.5
v 3.7 2.6 -1.5
v 0.3 2.8 0
v 3.7 2.8 0
v 0.3 2.8 -0.1
v 3.7 2.8 -0.1
v 0 3 -1.4
v 0.2 3 -1.4
v 3.8 3 -1.4
v 4 3 -1.4
v 0 3 -1.5
v 0.2 3 -1.5
v 3.8 3 -1.5
v 4 3 -1.5
v 0 2.8 -1.4
v 4 2.8 -1.4
v 0 2.8 -1.5
v 4 2.8 -1.5
v 0.4 3 -0.4
v 3.6 3 -0.4
v 0.4 3 -1.4
v 3.6 3 -1.4
v 0 4 0
v 4 4 0
v 0.4 4 -0.4
v 3.6 4 -0.4
v 0.2 4 -1.4
v 0.4 4 -1.4
v 3.6 4 -1.4
v 3.8 4 -1.4
v 0 4 -1.5
v 0.2 4 -1.5
v 3.8 4 -1.5
v 4 4 -1.5

# faces
f 3/2/1 2/2/1 1/2/1
f 4/2/1 2/2/1 3/2/1
f 5/2/1 2/2/1 4/2/1
f 6/3/1 4/3/1 3/3/1
f 8/3/1 6/3/1 3/3/1
f 8/3/1 7/3/1 6/3/1
f 9/3/1 7/3/1 8/3/1
f 12/3/1 11/3/1 10/3/1
f 13/3/1 11/3/1 12/3/1
f 16/2/1 15/2/1 14/2/1
f 17/2/1 15/2/1 16/2/1
f 18/2/1 15/2/1 17/2/1
f 19/2/1 15/2/1 18/2/1
f 20/2/1 16/2/1 14/2/1
f 21/2/1 16/2/1 20/2/1
f 24/3/1 23/3/1 22/3/1
f 25/3/1 23/3/1 24/3/1
f 26/3/2 27/3/2 28/3/2
f 28/3/2 27/3/2 29/3/2
f 30/2/2 31/2/2 32/2/2
f 32/2/2 31/2/2 33/2/2
f 33/2/2 31/2/2 34/2/2
f 34/2/2 31/2/2 35/2/2
f 30/2/2 32/2/2 36/2/2
f 36/2/2 32/2/2 37/2/2
f 38/3/2 39/3/2 40/3/2
f 40/3/2 39/3/2 41/3/2
f 42/2/2 43/2/2 44/2/2
f 44/2/2 43/2/2 45/2/2
f 45/2/2 43/2/2 46/2/2
f 44/3/2 45/3/2 47/3/2
f 44/3/2 47/3/2 49/3/2
f 47/3/2 48/3/2 49/3/2
f 49/3/2 48/3/2 50/3/2
f 49/1/2 50/1/2 51/1/2
f 50/3/2 48/3/2 52/3/2
f 51/1/2 50/1/2 52/1/2
f 51/3/2 52/3/2 53/3/2
f 52/3/2 48/3/2 54/3/2
f 53/3/2 52/3/2 54/3/2
f 58/2/3 56/2/3 55/2/3
f 59/3/3 57/3/3 56/3/3
f 59/2/3 56/2/3 58/2/3
f 61/3/3 57/3/3 59/3/3
f 62/3/3 57/3/3 61/3/3
f 63/3/3 57/3/3 62/3/3
f 64/2/3 61/2/3 60/2/3
f 65/3/3 62/3/3 61/3/3
f 65/2/3 61/2/3 64/2/3
f 66/1/3 63/1/3 62/1/3
f 66/3/3 62/3/3 65/3/3
f 67/3/3 57/3/3 63/3/3
f 67/1/3 63/1/3 66/1/3
f 68/3/3 57/3/3 67/3/3
f 71/4/3 70/4/3 69/4/3
f 72/4/3 70/4/3 71/4/3
f 73/3/4 74/3/4 75/3/4
f 75/3/4 74/3/4 76/3/4
f 77/3/4 78/3/4 79/3/4
f 77/3/4 79/3/4 83/3/4
f 79/3/4 80/3/4 83/3/4
f 83/3/4 80/3/4 84/3/4
f 77/3/4 83/3/4 85/3/4
f 81/4/4 82/4/4 87/4/4
f 87/4/4 82/4/4 88/4/4
f 85/3/4 86/3/4 89/3/4
f 77/3/4 85/3/4 89/3/4
f 89/3/4 86/3/4 90/3/4
f 77/3/4 89/3/4 91/3/4
f 91/3/4 89/3/4 92/3/4
f 95/3/4 96/3/4 97/3/4
f 97/3/4 96/3/4 98/3/4
f 93/2/4 94/2/4 99/2/4
f 99/2/4 94/2/4 100/2/4
f 100/2/4 94/2/4 102/2/4
f 101/2/4 102/2/4 105/2/4
f 102/2/4 94/2/4 106/2/4
f 105/2/4 102/2/4 106/2/4
f 103/3/4 104/3/4 107/3/4
f 107/3/4 104/3/4 108/3/4
f 113/2/5 110/2/5 109/2/5
f 114/2/5 110/2/5 113/2/5
f 115/2/5 112/2/5 111/2/5
f 116/2/5 112/2/5 115/2/5
f 119/4/5 118/4/5 117/4/5
f 120/4/5 118/4/5 119/4/5
f 123/2/5 122/2/5 121/2/5
f 124/2/5 122/2/5 123/2/5
f 127/3/5 126/3/5 125/3/5
f 128/3/5 126/3/5 127/3/5
f 133/3/5 130/3/5 129/3/5
f 134/3/5 130/3/5 133/3/5
f 135/3/5 132/3/5 131/3/5
f 136/3/5 132/3/5 135/3/5
f 137/2/6 138/2/6 139/2/6
f 139/2/6 138/2/6 140/2/6
f 141/3/6 142/3/6 143/3/6
f 143/3/6 142/3/6 144/3/6
f 145/3/6 146/3/6 147/3/6
f 147/3/6 146/3/6 148/3/6
f 145/3/6 147/3/6 149/3/6
f 149/3/6 147/3/6 150/3/6
f 148/3/6 146/3/6 151/3/6
f 151/3/6 146/3/6 152/3/6
f 145/3/6 149/3/6 153/3/6
f 153/3/6 149/3/6 154/3/6
f 152/3/6 146/3/6 155/3/6
f 155/3/6 146/3/6 156/3/6
