# MagicaVoxel @ Ephtracy

# group
o 

# material
mtllib collectables-1.mtl
usemtl palette

# normals
vn -1 0 0
vn 1 0 0
vn 0 0 1
vn 0 0 -1
vn 0 -1 0
vn 0 1 0

# texcoords
vt 0.939453 0.5
vt 0.943359 0.5
vt 0.970703 0.5

# verts
v -1 2.2 0
v -1 2.2 -0.1
v -1 2.6 0
v -1 2.6 -0.1
v -0.9 2.1 0
v -0.9 2.1 -0.1
v -0.9 2.2 0
v -0.9 2.2 -0.1
v -0.8 2 0
v -0.8 2 -0.1
v -0.8 2.1 0
v -0.8 2.1 -0.1
v -0.7 1.9 0
v -0.7 1.9 -0.1
v -0.7 2 0
v -0.7 2 -0.1
v -0.6 1.8 0
v -0.6 1.8 -0.1
v -0.6 1.9 0
v -0.6 1.9 -0.1
v -0.5 1.7 0
v -0.5 1.7 -0.1
v -0.5 1.8 0
v -0.5 1.8 -0.1
v -0.4 0.5 0.1
v -0.4 0.5 0
v -0.4 0.9 0.1
v -0.4 0.9 0
v -0.4 1.6 0
v -0.4 1.6 -0.1
v -0.4 1.7 0
v -0.4 1.7 -0.1
v -0.3 0.4 0.1
v -0.3 0.4 0
v -0.3 0.5 0.1
v -0.3 0.5 0
v -0.3 0.9 0.1
v -0.3 0.9 0
v -0.3 1 0.1
v -0.3 1 0
v -0.3 1.5 0
v -0.3 1.5 -0.1
v -0.3 1.6 0
v -0.3 1.6 -0.1
v -0.2 1 0.1
v -0.2 1 0
v -0.2 1.2 0.1
v -0.2 1.2 0
v -0.2 1.3 0.1
v -0.2 1.3 -0.1
v -0.2 1.5 0
v -0.2 1.5 -0.1
v -0.2 1.6 0.1
v -0.2 1.6 0
v -0.1 1.2 0.1
v -0.1 1.2 0
v -0.1 1.3 0.1
v -0.1 1.3 0
v -0.1 1.4 0.2
v -0.1 1.4 0.1
v -0.1 1.4 -0.1
v -0.1 1.4 -0.2
v -0.1 1.5 0.2
v -0.1 1.5 0.1
v -0.1 1.5 -0.1
v -0.1 1.5 -0.2
v -0.1 1.6 0.1
v -0.1 1.6 0
v -0.1 1.8 0
v -0.1 2.9 0.1
v -0.1 2.9 0
v 0 0.5 0.1
v 0 0.5 0
v 0 0.6 0.1
v 0 0.6 0
v 0 0.8 0.1
v 0 0.8 0
v 0 0.9 0.1
v 0 0.9 0
v 0 1.2 0
v 0 1.2 -0.1
v 0 1.3 0
v 0 1.3 -0.1
v 0.1 0.6 0.1
v 0.1 0.6 0
v 0.1 0.8 0.1
v 0.1 0.8 0
v 0.1 1.1 0
v 0.1 1.1 -0.1
v 0.1 1.2 0
v 0.1 1.2 -0.1
v 0.2 0.7 0
v 0.2 0.7 -0.1
v 0.2 0.9 0
v 0.2 1.1 0
v 0.2 1.1 -0.1
v 0.3 0.6 0
v 0.3 0.6 -0.1
v 0.3 0.7 0
v 0.3 0.7 -0.1
v 0.6 0.7 0
v 0.6 0.7 -0.1
v 0.6 0.8 0
v 0.6 0.8 -0.1
v 0.6 1 0
v 0.6 1 -0.1
v 0.6 1.1 0
v 0.6 1.1 -0.1
v 0.7 0.8 0
v 0.7 0.8 -0.1
v 0.7 1 0
v 0.7 1 -0.1
v -0.9 2.5 0
v -0.9 2.5 -0.1
v -0.9 2.6 0
v -0.9 2.6 -0.1
v -0.8 2.4 0
v -0.8 2.4 -0.1
v -0.8 2.5 0
v -0.8 2.5 -0.1
v -0.7 2.3 0
v -0.7 2.3 -0.1
v -0.7 2.4 0
v -0.7 2.4 -0.1
v -0.6 2.2 0
v -0.6 2.2 -0.1
v -0.6 2.3 0
v -0.6 2.3 -0.1
v -0.5 2.1 0
v -0.5 2.1 -0.1
v -0.5 2.2 0
v -0.5 2.2 -0.1
v -0.4 2 0
v -0.4 2 -0.1
v -0.4 2.1 0
v -0.4 2.1 -0.1
v -0.3 0.6 0.1
v -0.3 0.6 0
v -0.3 0.8 0.1
v -0.3 0.8 0
v -0.3 1.9 0
v -0.3 1.9 -0.1
v -0.3 2 0
v -0.3 2 -0.1
v -0.2 0.5 0.1
v -0.2 0.5 0
v -0.2 0.6 0.1
v -0.2 0.6 0
v -0.2 0.8 0.1
v -0.2 0.8 0
v -0.2 0.9 0.1
v -0.2 0.9 0
v -0.2 1.8 0
v -0.2 1.8 -0.1
v -0.2 1.9 0
v -0.2 1.9 -0.1
v -0.1 1.7 0
v -0.1 1.7 -0.1
v -0.1 1.8 0
v -0.1 1.8 -0.1
v 0 1 0.1
v 0 1 0
v 0 1.1 0.1
v 0 1.1 0
v 0 1.4 0.2
v 0 1.4 0.1
v 0 1.4 -0.1
v 0 1.4 -0.2
v 0 1.5 0.2
v 0 1.5 0.1
v 0 1.5 -0.1
v 0 1.5 -0.2
v 0 1.6 0
v 0 1.6 -0.1
v 0 1.7 0
v 0 1.7 -0.1
v 0 2.8 0.1
v 0 2.8 0
v 0 2.9 0.1
v 0 2.9 0
v 0.1 0.4 0.1
v 0.1 0.4 0
v 0.1 0.5 0.1
v 0.1 0.5 0
v 0.1 0.9 0.1
v 0.1 0.9 0
v 0.1 1 0.1
v 0.1 1 0
v 0.1 1.1 0.1
v 0.1 1.1 0
v 0.1 1.4 0.1
v 0.1 1.4 0
v 0.1 1.4 -0.1
v 0.1 1.6 0
v 0.1 1.6 -0.1
v 0.1 2.7 0.1
v 0.1 2.7 0
v 0.1 2.8 0.1
v 0.1 2.8 0
v 0.2 0.5 0.1
v 0.2 0.5 0
v 0.2 0.7 0
v 0.2 0.9 0.1
v 0.2 0.9 0
v 0.2 1.3 0
v 0.2 1.3 -0.1
v 0.2 1.4 0.1
v 0.2 1.4 0
v 0.2 1.4 -0.1
v 0.2 2.7 0.1
v 0.2 2.7 0
v 0.3 0.8 0
v 0.3 0.8 -0.1
v 0.3 1 0
v 0.3 1 -0.1
v 0.3 1.2 0
v 0.3 1.2 -0.1
v 0.3 1.3 0
v 0.3 1.3 -0.1
v 0.4 0.7 0
v 0.4 0.7 -0.1
v 0.4 0.8 0
v 0.4 0.8 -0.1
v 0.4 1 0
v 0.4 1 -0.1
v 0.4 1.1 0
v 0.4 1.1 -0.1
v 0.7 0.6 0
v 0.7 0.6 -0.1
v 0.7 0.7 0
v 0.7 0.7 -0.1
v 0.7 1.1 0
v 0.7 1.1 -0.1
v 0.7 1.2 0
v 0.7 1.2 -0.1
v 0.8 0.7 0
v 0.8 0.7 -0.1
v 0.8 1.1 0
v 0.8 1.1 -0.1
v -0.1 1.4 0.2
v -0.1 1.5 0.2
v 0 1.4 0.2
v 0 1.5 0.2
v -0.4 0.5 0.1
v -0.4 0.9 0.1
v -0.3 0.4 0.1
v -0.3 0.5 0.1
v -0.3 0.6 0.1
v -0.3 0.8 0.1
v -0.3 0.9 0.1
v -0.3 1 0.1
v -0.2 0.5 0.1
v -0.2 0.6 0.1
v -0.2 0.8 0.1
v -0.2 0.9 0.1
v -0.2 1 0.1
v -0.2 1.2 0.1
v -0.2 1.3 0.1
v -0.2 1.6 0.1
v -0.1 1.2 0.1
v -0.1 1.3 0.1
v -0.1 1.4 0.1
v -0.1 1.5 0.1
v -0.1 1.6 0.1
v -0.1 2.9 0.1
v 0 0.5 0.1
v 0 0.6 0.1
v 0 0.8 0.1
v 0 0.9 0.1
v 0 1 0.1
v 0 1.1 0.1
v 0 1.4 0.1
v 0 1.5 0.1
v 0 2.8 0.1
v 0 2.9 0.1
v 0.1 0.4 0.1
v 0.1 0.5 0.1
v 0.1 0.6 0.1
v 0.1 0.8 0.1
v 0.1 0.9 0.1
v 0.1 1 0.1
v 0.1 1.1 0.1
v 0.1 1.4 0.1
v 0.1 2.7 0.1
v 0.1 2.8 0.1
v 0.2 0.5 0.1
v 0.2 0.9 0.1
v 0.2 1.4 0.1
v 0.2 2.7 0.1
v -1 2.2 0
v -1 2.6 0
v -0.9 2.1 0
v -0.9 2.2 0
v -0.9 2.5 0
v -0.9 2.6 0
v -0.8 2 0
v -0.8 2.1 0
v -0.8 2.4 0
v -0.8 2.5 0
v -0.7 1.9 0
v -0.7 2 0
v -0.7 2.3 0
v -0.7 2.4 0
v -0.6 1.8 0
v -0.6 1.9 0
v -0.6 2.2 0
v -0.6 2.3 0
v -0.5 1.7 0
v -0.5 1.8 0
v -0.5 2.1 0
v -0.5 2.2 0
v -0.4 1.6 0
v -0.4 1.7 0
v -0.4 2 0
v -0.4 2.1 0
v -0.3 1.5 0
v -0.3 1.6 0
v -0.3 1.9 0
v -0.3 2 0
v -0.2 1.5 0
v -0.2 1.6 0
v -0.2 1.8 0
v -0.2 1.9 0
v -0.1 1.6 0
v -0.1 1.8 0
v 0.1 1.1 0
v 0.1 1.4 0
v 0.2 0.7 0
v 0.2 0.9 0
v 0.2 1.1 0
v 0.2 1.3 0
v 0.2 1.4 0
v 0.3 0.6 0
v 0.3 0.7 0
v 0.3 0.8 0
v 0.3 1 0
v 0.3 1.1 0
v 0.3 1.2 0
v 0.3 1.3 0
v 0.4 0.7 0
v 0.4 0.8 0
v 0.4 1 0
v 0.4 1.1 0
v 0.6 0.7 0
v 0.6 0.8 0
v 0.6 1 0
v 0.6 1.1 0
v 0.7 0.6 0
v 0.7 0.7 0
v 0.7 0.8 0
v 0.7 1 0
v 0.7 1.1 0
v 0.7 1.2 0
v 0.8 0.7 0
v 0.8 1.1 0
v -0.4 0.5 0
v -0.4 0.9 0
v -0.3 0.4 0
v -0.3 0.5 0
v -0.3 0.6 0
v -0.3 0.8 0
v -0.3 0.9 0
v -0.3 1 0
v -0.2 0.5 0
v -0.2 0.6 0
v -0.2 0.8 0
v -0.2 0.9 0
v -0.2 1 0
v -0.2 1.2 0
v -0.1 1.2 0
v -0.1 1.3 0
v -0.1 1.7 0
v -0.1 1.8 0
v -0.1 2.9 0
v 0 0.5 0
v 0 0.6 0
v 0 0.8 0
v 0 0.9 0
v 0 1 0
v 0 1.1 0
v 0 1.2 0
v 0 1.3 0
v 0 1.6 0
v 0 1.7 0
v 0 2.8 0
v 0 2.9 0
v 0.1 0.4 0
v 0.1 0.5 0
v 0.1 0.6 0
v 0.1 0.8 0
v 0.1 0.9 0
v 0.1 1 0
v 0.1 1.1 0
v 0.1 1.2 0
v 0.1 1.4 0
v 0.1 1.6 0
v 0.1 2.7 0
v 0.1 2.8 0
v 0.2 0.5 0
v 0.2 0.7 0
v 0.2 0.9 0
v 0.2 1.4 0
v 0.2 2.7 0
v -1 2.2 -0.1
v -1 2.6 -0.1
v -0.9 2.1 -0.1
v -0.9 2.2 -0.1
v -0.9 2.5 -0.1
v -0.9 2.6 -0.1
v -0.8 2 -0.1
v -0.8 2.1 -0.1
v -0.8 2.4 -0.1
v -0.8 2.5 -0.1
v -0.7 1.9 -0.1
v -0.7 2 -0.1
v -0.7 2.3 -0.1
v -0.7 2.4 -0.1
v -0.6 1.8 -0.1
v -0.6 1.9 -0.1
v -0.6 2.2 -0.1
v -0.6 2.3 -0.1
v -0.5 1.7 -0.1
v -0.5 1.8 -0.1
v -0.5 2.1 -0.1
v -0.5 2.2 -0.1
v -0.4 1.6 -0.1
v -0.4 1.7 -0.1
v -0.4 2 -0.1
v -0.4 2.1 -0.1
v -0.3 1.5 -0.1
v -0.3 1.6 -0.1
v -0.3 1.9 -0.1
v -0.3 2 -0.1
v -0.2 1.3 -0.1
v -0.2 1.5 -0.1
v -0.2 1.8 -0.1
v -0.2 1.9 -0.1
v -0.1 1.4 -0.1
v -0.1 1.5 -0.1
v -0.1 1.7 -0.1
v -0.1 1.8 -0.1
v 0 1.2 -0.1
v 0 1.3 -0.1
v 0 1.4 -0.1
v 0 1.5 -0.1
v 0 1.6 -0.1
v 0 1.7 -0.1
v 0.1 1.1 -0.1
v 0.1 1.2 -0.1
v 0.1 1.4 -0.1
v 0.1 1.6 -0.1
v 0.2 0.7 -0.1
v 0.2 1.1 -0.1
v 0.2 1.3 -0.1
v 0.2 1.4 -0.1
v 0.3 0.6 -0.1
v 0.3 0.7 -0.1
v 0.3 0.8 -0.1
v 0.3 1 -0.1
v 0.3 1.1 -0.1
v 0.3 1.2 -0.1
v 0.3 1.3 -0.1
v 0.4 0.7 -0.1
v 0.4 0.8 -0.1
v 0.4 1 -0.1
v 0.4 1.1 -0.1
v 0.6 0.7 -0.1
v 0.6 0.8 -0.1
v 0.6 1 -0.1
v 0.6 1.1 -0.1
v 0.7 0.6 -0.1
v 0.7 0.7 -0.1
v 0.7 0.8 -0.1
v 0.7 1 -0.1
v 0.7 1.1 -0.1
v 0.7 1.2 -0.1
v 0.8 0.7 -0.1
v 0.8 1.1 -0.1
v -0.1 1.4 -0.2
v -0.1 1.5 -0.2
v 0 1.4 -0.2
v 0 1.5 -0.2
v -0.3 0.4 0.1
v 0.1 0.4 0.1
v -0.3 0.4 0
v 0.1 0.4 0
v -0.4 0.5 0.1
v -0.3 0.5 0.1
v 0.1 0.5 0.1
v 0.2 0.5 0.1
v -0.4 0.5 0
v -0.3 0.5 0
v 0.1 0.5 0
v 0.2 0.5 0
v 0.3 0.6 0
v 0.7 0.6 0
v 0.3 0.6 -0.1
v 0.7 0.6 -0.1
v 0.2 0.7 0
v 0.3 0.7 0
v 0.7 0.7 0
v 0.8 0.7 0
v 0.2 0.7 -0.1
v 0.3 0.7 -0.1
v 0.7 0.7 -0.1
v 0.8 0.7 -0.1
v -0.3 0.8 0.1
v -0.2 0.8 0.1
v 0 0.8 0.1
v 0.1 0.8 0.1
v -0.3 0.8 0
v -0.2 0.8 0
v 0 0.8 0
v 0.1 0.8 0
v -0.2 0.9 0.1
v 0 0.9 0.1
v -0.2 0.9 0
v 0 0.9 0
v 0.3 1 0
v 0.4 1 0
v 0.6 1 0
v 0.7 1 0
v 0.3 1 -0.1
v 0.4 1 -0.1
v 0.6 1 -0.1
v 0.7 1 -0.1
v 0 1.1 0.1
v 0.1 1.1 0.1
v 0 1.1 0
v 0.1 1.1 0
v 0.2 1.1 0
v 0.4 1.1 0
v 0.6 1.1 0
v 0.1 1.1 -0.1
v 0.2 1.1 -0.1
v 0.4 1.1 -0.1
v 0.6 1.1 -0.1
v 0 1.2 0
v 0.1 1.2 0
v 0 1.2 -0.1
v 0.1 1.2 -0.1
v -0.2 1.3 0.1
v -0.1 1.3 0.1
v -0.1 1.3 0
v 0 1.3 0
v -0.2 1.3 -0.1
v 0 1.3 -0.1
v -0.1 1.4 0.2
v 0 1.4 0.2
v -0.1 1.4 0.1
v 0 1.4 0.1
v 0.1 1.4 0.1
v 0.2 1.4 0.1
v 0.1 1.4 0
v 0.2 1.4 0
v -0.1 1.4 -0.1
v 0 1.4 -0.1
v -0.1 1.4 -0.2
v 0 1.4 -0.2
v -0.3 1.5 0
v -0.2 1.5 0
v -0.3 1.5 -0.1
v -0.2 1.5 -0.1
v -0.4 1.6 0
v -0.3 1.6 0
v -0.4 1.6 -0.1
v -0.3 1.6 -0.1
v -0.5 1.7 0
v -0.4 1.7 0
v -0.5 1.7 -0.1
v -0.4 1.7 -0.1
v -0.6 1.8 0
v -0.5 1.8 0
v -0.6 1.8 -0.1
v -0.5 1.8 -0.1
v -0.7 1.9 0
v -0.6 1.9 0
v -0.7 1.9 -0.1
v -0.6 1.9 -0.1
v -0.8 2 0
v -0.7 2 0
v -0.8 2 -0.1
v -0.7 2 -0.1
v -0.9 2.1 0
v -0.8 2.1 0
v -0.9 2.1 -0.1
v -0.8 2.1 -0.1
v -1 2.2 0
v -0.9 2.2 0
v -1 2.2 -0.1
v -0.9 2.2 -0.1
v -0.2 0.5 0.1
v 0 0.5 0.1
v -0.2 0.5 0
v 0 0.5 0
v -0.3 0.6 0.1
v -0.2 0.6 0.1
v 0 0.6 0.1
v 0.1 0.6 0.1
v -0.3 0.6 0
v -0.2 0.6 0
v 0 0.6 0
v 0.1 0.6 0
v 0.4 0.7 0
v 0.6 0.7 0
v 0.4 0.7 -0.1
v 0.6 0.7 -0.1
v 0.3 0.8 0
v 0.4 0.8 0
v 0.6 0.8 0
v 0.7 0.8 0
v 0.3 0.8 -0.1
v 0.4 0.8 -0.1
v 0.6 0.8 -0.1
v 0.7 0.8 -0.1
v -0.4 0.9 0.1
v -0.3 0.9 0.1
v 0.1 0.9 0.1
v 0.2 0.9 0.1
v -0.4 0.9 0
v -0.3 0.9 0
v 0.1 0.9 0
v 0.2 0.9 0
v -0.3 1 0.1
v -0.2 1 0.1
v 0 1 0.1
v 0.1 1 0.1
v -0.3 1 0
v -0.2 1 0
v 0 1 0
v 0.1 1 0
v 0.7 1.1 0
v 0.8 1.1 0
v 0.7 1.1 -0.1
v 0.8 1.1 -0.1
v -0.2 1.2 0.1
v -0.1 1.2 0.1
v -0.2 1.2 0
v -0.1 1.2 0
v 0.3 1.2 0
v 0.7 1.2 0
v 0.3 1.2 -0.1
v 0.7 1.2 -0.1
v 0.2 1.3 0
v 0.3 1.3 0
v 0.2 1.3 -0.1
v 0.3 1.3 -0.1
v 0.1 1.4 0
v 0.2 1.4 0
v 0.1 1.4 -0.1
v 0.2 1.4 -0.1
v -0.1 1.5 0.2
v 0 1.5 0.2
v -0.1 1.5 0.1
v 0 1.5 0.1
v -0.1 1.5 -0.1
v 0 1.5 -0.1
v -0.1 1.5 -0.2
v 0 1.5 -0.2
v -0.2 1.6 0.1
v -0.1 1.6 0.1
v -0.2 1.6 0
v -0.1 1.6 0
v 0 1.6 0
v 0.1 1.6 0
v 0 1.6 -0.1
v 0.1 1.6 -0.1
v -0.1 1.7 0
v 0 1.7 0
v -0.1 1.7 -0.1
v 0 1.7 -0.1
v -0.2 1.8 0
v -0.1 1.8 0
v -0.2 1.8 -0.1
v -0.1 1.8 -0.1
v -0.3 1.9 0
v -0.2 1.9 0
v -0.3 1.9 -0.1
v -0.2 1.9 -0.1
v -0.4 2 0
v -0.3 2 0
v -0.4 2 -0.1
v -0.3 2 -0.1
v -0.5 2.1 0
v -0.4 2.1 0
v -0.5 2.1 -0.1
v -0.4 2.1 -0.1
v -0.6 2.2 0
v -0.5 2.2 0
v -0.6 2.2 -0.1
v -0.5 2.2 -0.1
v -0.7 2.3 0
v -0.6 2.3 0
v -0.7 2.3 -0.1
v -0.6 2.3 -0.1
v -0.8 2.4 0
v -0.7 2.4 0
v -0.8 2.4 -0.1
v -0.7 2.4 -0.1
v -0.9 2.5 0
v -0.8 2.5 0
v -0.9 2.5 -0.1
v -0.8 2.5 -0.1
v -1 2.6 0
v -0.9 2.6 0
v -1 2.6 -0.1
v -0.9 2.6 -0.1
v 0.1 2.7 0.1
v 0.2 2.7 0.1
v 0.1 2.7 0
v 0.2 2.7 0
v 0 2.8 0.1
v 0.1 2.8 0.1
v 0 2.8 0
v 0.1 2.8 0
v -0.1 2.9 0.1
v 0 2.9 0.1
v -0.1 2.9 0
v 0 2.9 0

# faces
f 3/1/1 2/1/1 1/1/1
f 4/1/1 2/1/1 3/1/1
f 7/1/1 6/1/1 5/1/1
f 8/1/1 6/1/1 7/1/1
f 11/1/1 10/1/1 9/1/1
f 12/1/1 10/1/1 11/1/1
f 15/1/1 14/1/1 13/1/1
f 16/1/1 14/1/1 15/1/1
f 19/1/1 18/1/1 17/1/1
f 20/1/1 18/1/1 19/1/1
f 23/1/1 22/1/1 21/1/1
f 24/1/1 22/1/1 23/1/1
f 27/2/1 26/2/1 25/2/1
f 28/2/1 26/2/1 27/2/1
f 31/1/1 30/1/1 29/1/1
f 32/1/1 30/1/1 31/1/1
f 35/2/1 34/2/1 33/2/1
f 36/2/1 34/2/1 35/2/1
f 39/2/1 38/2/1 37/2/1
f 40/2/1 38/2/1 39/2/1
f 43/1/1 42/1/1 41/1/1
f 44/1/1 42/1/1 43/1/1
f 47/1/1 46/1/1 45/1/1
f 48/1/1 46/1/1 47/1/1
f 51/1/1 50/1/1 49/1/1
f 52/1/1 50/1/1 51/1/1
f 53/1/1 51/1/1 49/1/1
f 54/1/1 51/1/1 53/1/1
f 57/1/1 56/1/1 55/1/1
f 58/1/1 56/1/1 57/1/1
f 63/3/1 60/3/1 59/3/1
f 64/3/1 60/3/1 63/3/1
f 65/3/1 62/3/1 61/3/1
f 66/3/1 62/3/1 65/3/1
f 69/1/1 68/1/1 67/1/1
f 70/1/1 69/1/1 67/1/1
f 71/1/1 69/1/1 70/1/1
f 74/2/1 73/2/1 72/2/1
f 75/2/1 73/2/1 74/2/1
f 78/2/1 77/2/1 76/2/1
f 79/2/1 77/2/1 78/2/1
f 82/1/1 81/1/1 80/1/1
f 83/1/1 81/1/1 82/1/1
f 86/2/1 85/2/1 84/2/1
f 87/2/1 85/2/1 86/2/1
f 90/1/1 89/1/1 88/1/1
f 91/1/1 89/1/1 90/1/1
f 94/2/1 93/2/1 92/2/1
f 95/2/1 93/2/1 94/2/1
f 96/2/1 93/2/1 95/2/1
f 99/2/1 98/2/1 97/2/1
f 100/2/1 98/2/1 99/2/1
f 103/2/1 102/2/1 101/2/1
f 104/2/1 102/2/1 103/2/1
f 107/2/1 106/2/1 105/2/1
f 108/2/1 106/2/1 107/2/1
f 111/2/1 110/2/1 109/2/1
f 112/2/1 110/2/1 111/2/1
f 113/1/2 114/1/2 115/1/2
f 115/1/2 114/1/2 116/1/2
f 117/1/2 118/1/2 119/1/2
f 119/1/2 118/1/2 120/1/2
f 121/1/2 122/1/2 123/1/2
f 123/1/2 122/1/2 124/1/2
f 125/1/2 126/1/2 127/1/2
f 127/1/2 126/1/2 128/1/2
f 129/1/2 130/1/2 131/1/2
f 131/1/2 130/1/2 132/1/2
f 133/1/2 134/1/2 135/1/2
f 135/1/2 134/1/2 136/1/2
f 137/2/2 138/2/2 139/2/2
f 139/2/2 138/2/2 140/2/2
f 141/1/2 142/1/2 143/1/2
f 143/1/2 142/1/2 144/1/2
f 145/2/2 146/2/2 147/2/2
f 147/2/2 146/2/2 148/2/2
f 149/2/2 150/2/2 151/2/2
f 151/2/2 150/2/2 152/2/2
f 153/1/2 154/1/2 155/1/2
f 155/1/2 154/1/2 156/1/2
f 157/1/2 158/1/2 159/1/2
f 159/1/2 158/1/2 160/1/2
f 161/1/2 162/1/2 163/1/2
f 163/1/2 162/1/2 164/1/2
f 165/3/2 166/3/2 169/3/2
f 169/3/2 166/3/2 170/3/2
f 167/3/2 168/3/2 171/3/2
f 171/3/2 168/3/2 172/3/2
f 173/1/2 174/1/2 175/1/2
f 175/1/2 174/1/2 176/1/2
f 177/1/2 178/1/2 179/1/2
f 179/1/2 178/1/2 180/1/2
f 181/2/2 182/2/2 183/2/2
f 183/2/2 182/2/2 184/2/2
f 185/2/2 186/2/2 187/2/2
f 187/2/2 186/2/2 188/2/2
f 189/1/2 190/1/2 191/1/2
f 191/1/2 190/1/2 192/1/2
f 192/1/2 193/1/2 194/1/2
f 194/1/2 193/1/2 195/1/2
f 196/1/2 197/1/2 198/1/2
f 198/1/2 197/1/2 199/1/2
f 200/2/2 201/2/2 202/2/2
f 200/2/2 202/2/2 203/2/2
f 203/2/2 202/2/2 204/2/2
f 205/1/2 206/1/2 208/1/2
f 208/1/2 206/1/2 209/1/2
f 207/1/2 208/1/2 210/1/2
f 210/1/2 208/1/2 211/1/2
f 212/2/2 213/2/2 214/2/2
f 214/2/2 213/2/2 215/2/2
f 216/1/2 217/1/2 218/1/2
f 218/1/2 217/1/2 219/1/2
f 220/2/2 221/2/2 222/2/2
f 222/2/2 221/2/2 223/2/2
f 224/2/2 225/2/2 226/2/2
f 226/2/2 225/2/2 227/2/2
f 228/2/2 229/2/2 230/2/2
f 230/2/2 229/2/2 231/2/2
f 232/2/2 233/2/2 234/2/2
f 234/2/2 233/2/2 235/2/2
f 236/2/2 237/2/2 238/2/2
f 238/2/2 237/2/2 239/2/2
f 242/3/3 241/3/3 240/3/3
f 243/3/3 241/3/3 242/3/3
f 247/2/3 245/2/3 244/2/3
f 248/2/3 245/2/3 247/2/3
f 249/2/3 245/2/3 248/2/3
f 250/2/3 245/2/3 249/2/3
f 252/2/3 247/2/3 246/2/3
f 252/2/3 248/2/3 247/2/3
f 253/2/3 248/2/3 252/2/3
f 254/2/3 251/2/3 250/2/3
f 254/2/3 250/2/3 249/2/3
f 255/2/3 251/2/3 254/2/3
f 256/2/3 251/2/3 255/2/3
f 260/1/3 257/1/3 256/1/3
f 261/1/3 259/1/3 258/1/3
f 262/1/3 259/1/3 261/1/3
f 263/1/3 259/1/3 262/1/3
f 264/1/3 259/1/3 263/1/3
f 266/2/3 252/2/3 246/2/3
f 269/2/3 256/2/3 255/2/3
f 270/1/3 260/1/3 256/1/3
f 270/1/3 261/1/3 260/1/3
f 270/2/3 256/2/3 269/2/3
f 270/1/3 262/1/3 261/1/3
f 271/1/3 262/1/3 270/1/3
f 272/1/3 262/1/3 271/1/3
f 273/1/3 265/1/3 264/1/3
f 273/1/3 264/1/3 263/1/3
f 274/1/3 265/1/3 273/1/3
f 275/1/3 265/1/3 274/1/3
f 276/2/3 267/2/3 266/2/3
f 276/2/3 266/2/3 246/2/3
f 277/2/3 267/2/3 276/2/3
f 278/2/3 267/2/3 277/2/3
f 279/2/3 269/2/3 268/2/3
f 279/2/3 270/2/3 269/2/3
f 280/2/3 270/2/3 279/2/3
f 281/2/3 270/2/3 280/2/3
f 282/1/3 272/1/3 271/1/3
f 282/1/3 274/1/3 273/1/3
f 282/1/3 273/1/3 272/1/3
f 283/1/3 274/1/3 282/1/3
f 284/1/3 274/1/3 283/1/3
f 285/1/3 274/1/3 284/1/3
f 286/2/3 278/2/3 277/2/3
f 286/2/3 280/2/3 279/2/3
f 286/2/3 279/2/3 278/2/3
f 287/2/3 280/2/3 286/2/3
f 288/1/3 284/1/3 283/1/3
f 289/1/3 284/1/3 288/1/3
f 293/1/3 291/1/3 290/1/3
f 294/1/3 291/1/3 293/1/3
f 295/1/3 291/1/3 294/1/3
f 297/1/3 293/1/3 292/1/3
f 297/1/3 294/1/3 293/1/3
f 298/1/3 294/1/3 297/1/3
f 299/1/3 294/1/3 298/1/3
f 301/1/3 297/1/3 296/1/3
f 301/1/3 298/1/3 297/1/3
f 302/1/3 298/1/3 301/1/3
f 303/1/3 298/1/3 302/1/3
f 305/1/3 301/1/3 300/1/3
f 305/1/3 302/1/3 301/1/3
f 306/1/3 302/1/3 305/1/3
f 307/1/3 302/1/3 306/1/3
f 309/1/3 305/1/3 304/1/3
f 309/1/3 306/1/3 305/1/3
f 310/1/3 306/1/3 309/1/3
f 311/1/3 306/1/3 310/1/3
f 313/1/3 309/1/3 308/1/3
f 313/1/3 310/1/3 309/1/3
f 314/1/3 310/1/3 313/1/3
f 315/1/3 310/1/3 314/1/3
f 317/1/3 313/1/3 312/1/3
f 317/1/3 314/1/3 313/1/3
f 318/1/3 314/1/3 317/1/3
f 319/1/3 314/1/3 318/1/3
f 320/1/3 317/1/3 316/1/3
f 320/1/3 318/1/3 317/1/3
f 321/1/3 318/1/3 320/1/3
f 322/1/3 318/1/3 321/1/3
f 323/1/3 318/1/3 322/1/3
f 324/1/3 322/1/3 321/1/3
f 325/1/3 322/1/3 324/1/3
f 330/1/3 327/1/3 326/1/3
f 331/1/3 327/1/3 330/1/3
f 332/1/3 327/1/3 331/1/3
f 334/2/3 329/2/3 328/2/3
f 334/2/3 330/2/3 329/2/3
f 335/2/3 330/2/3 334/2/3
f 336/2/3 330/2/3 335/2/3
f 337/1/3 331/1/3 330/1/3
f 337/2/3 330/2/3 336/2/3
f 338/1/3 331/1/3 337/1/3
f 339/1/3 331/1/3 338/1/3
f 340/2/3 334/2/3 333/2/3
f 340/2/3 335/2/3 334/2/3
f 341/2/3 335/2/3 340/2/3
f 342/2/3 338/2/3 337/2/3
f 342/2/3 337/2/3 336/2/3
f 343/2/3 338/2/3 342/2/3
f 344/2/3 340/2/3 333/2/3
f 347/2/3 338/2/3 343/2/3
f 348/2/3 345/2/3 344/2/3
f 348/2/3 344/2/3 333/2/3
f 349/2/3 345/2/3 348/2/3
f 350/2/3 345/2/3 349/2/3
f 351/2/3 347/2/3 346/2/3
f 352/2/3 338/2/3 347/2/3
f 352/2/3 347/2/3 351/2/3
f 353/2/3 338/2/3 352/2/3
f 354/2/3 350/2/3 349/2/3
f 354/2/3 351/2/3 350/2/3
f 354/2/3 352/2/3 351/2/3
f 355/2/3 352/2/3 354/2/3
f 356/2/4 357/2/4 359/2/4
f 359/2/4 357/2/4 360/2/4
f 360/2/4 357/2/4 361/2/4
f 361/2/4 357/2/4 362/2/4
f 358/2/4 359/2/4 364/2/4
f 359/2/4 360/2/4 364/2/4
f 364/2/4 360/2/4 365/2/4
f 362/2/4 363/2/4 366/2/4
f 361/2/4 362/2/4 366/2/4
f 366/2/4 363/2/4 367/2/4
f 367/2/4 363/2/4 368/2/4
f 368/1/4 369/1/4 370/1/4
f 358/2/4 364/2/4 375/2/4
f 367/2/4 368/2/4 378/2/4
f 368/1/4 370/1/4 379/1/4
f 370/1/4 371/1/4 379/1/4
f 378/2/4 368/2/4 379/2/4
f 379/1/4 371/1/4 380/1/4
f 380/1/4 371/1/4 381/1/4
f 381/1/4 371/1/4 382/1/4
f 373/1/4 374/1/4 384/1/4
f 372/1/4 373/1/4 384/1/4
f 384/1/4 374/1/4 385/1/4
f 385/1/4 374/1/4 386/1/4
f 375/2/4 376/2/4 387/2/4
f 358/2/4 375/2/4 387/2/4
f 387/2/4 376/2/4 388/2/4
f 388/2/4 376/2/4 389/2/4
f 377/2/4 378/2/4 390/2/4
f 378/2/4 379/2/4 390/2/4
f 390/2/4 379/2/4 391/2/4
f 391/2/4 379/2/4 392/2/4
f 380/1/4 381/1/4 393/1/4
f 393/1/4 381/1/4 394/1/4
f 384/1/4 385/1/4 396/1/4
f 383/1/4 384/1/4 396/1/4
f 396/1/4 385/1/4 397/1/4
f 397/1/4 385/1/4 398/1/4
f 388/2/4 389/2/4 399/2/4
f 389/2/4 390/2/4 399/2/4
f 390/2/4 391/2/4 399/2/4
f 399/2/4 391/2/4 400/2/4
f 400/2/4 391/2/4 401/2/4
f 396/1/4 397/1/4 402/1/4
f 395/1/4 396/1/4 402/1/4
f 402/1/4 397/1/4 403/1/4
f 404/1/4 405/1/4 407/1/4
f 407/1/4 405/1/4 408/1/4
f 408/1/4 405/1/4 409/1/4
f 406/1/4 407/1/4 411/1/4
f 407/1/4 408/1/4 411/1/4
f 411/1/4 408/1/4 412/1/4
f 412/1/4 408/1/4 413/1/4
f 410/1/4 411/1/4 415/1/4
f 411/1/4 412/1/4 415/1/4
f 415/1/4 412/1/4 416/1/4
f 416/1/4 412/1/4 417/1/4
f 414/1/4 415/1/4 419/1/4
f 415/1/4 416/1/4 419/1/4
f 419/1/4 416/1/4 420/1/4
f 420/1/4 416/1/4 421/1/4
f 418/1/4 419/1/4 423/1/4
f 419/1/4 420/1/4 423/1/4
f 423/1/4 420/1/4 424/1/4
f 424/1/4 420/1/4 425/1/4
f 422/1/4 423/1/4 427/1/4
f 423/1/4 424/1/4 427/1/4
f 427/1/4 424/1/4 428/1/4
f 428/1/4 424/1/4 429/1/4
f 426/1/4 427/1/4 431/1/4
f 427/1/4 428/1/4 431/1/4
f 431/1/4 428/1/4 432/1/4
f 432/1/4 428/1/4 433/1/4
f 430/1/4 431/1/4 435/1/4
f 431/1/4 432/1/4 435/1/4
f 435/1/4 432/1/4 436/1/4
f 436/1/4 432/1/4 437/1/4
f 434/1/4 435/1/4 438/1/4
f 435/1/4 436/1/4 438/1/4
f 438/1/4 436/1/4 439/1/4
f 439/1/4 436/1/4 440/1/4
f 440/1/4 436/1/4 441/1/4
f 434/1/4 438/1/4 443/1/4
f 443/1/4 438/1/4 444/1/4
f 439/1/4 440/1/4 445/1/4
f 445/1/4 440/1/4 446/1/4
f 446/1/4 440/1/4 447/1/4
f 443/1/4 444/1/4 449/1/4
f 442/1/4 443/1/4 449/1/4
f 445/1/4 446/1/4 449/1/4
f 444/1/4 445/1/4 449/1/4
f 449/1/4 446/1/4 450/1/4
f 450/1/4 446/1/4 451/1/4
f 448/1/4 449/1/4 453/1/4
f 449/1/4 450/1/4 453/1/4
f 453/1/4 450/1/4 454/1/4
f 454/1/4 450/1/4 455/1/4
f 452/2/4 453/2/4 457/2/4
f 457/2/4 453/2/4 458/2/4
f 458/2/4 453/2/4 459/2/4
f 453/1/4 454/1/4 460/1/4
f 459/2/4 453/2/4 460/2/4
f 460/1/4 454/1/4 461/1/4
f 461/1/4 454/1/4 462/1/4
f 456/2/4 457/2/4 463/2/4
f 457/2/4 458/2/4 463/2/4
f 463/2/4 458/2/4 464/2/4
f 460/2/4 461/2/4 465/2/4
f 459/2/4 460/2/4 465/2/4
f 465/2/4 461/2/4 466/2/4
f 456/2/4 463/2/4 467/2/4
f 466/2/4 461/2/4 470/2/4
f 467/2/4 468/2/4 471/2/4
f 456/2/4 467/2/4 471/2/4
f 471/2/4 468/2/4 472/2/4
f 472/2/4 468/2/4 473/2/4
f 469/2/4 470/2/4 474/2/4
f 470/2/4 461/2/4 475/2/4
f 474/2/4 470/2/4 475/2/4
f 475/2/4 461/2/4 476/2/4
f 472/2/4 473/2/4 477/2/4
f 473/2/4 474/2/4 477/2/4
f 474/2/4 475/2/4 477/2/4
f 477/2/4 475/2/4 478/2/4
f 479/3/4 480/3/4 481/3/4
f 481/3/4 480/3/4 482/3/4
f 485/2/5 484/2/5 483/2/5
f 486/2/5 484/2/5 485/2/5
f 491/2/5 488/2/5 487/2/5
f 492/2/5 488/2/5 491/2/5
f 493/2/5 490/2/5 489/2/5
f 494/2/5 490/2/5 493/2/5
f 497/2/5 496/2/5 495/2/5
f 498/2/5 496/2/5 497/2/5
f 503/2/5 500/2/5 499/2/5
f 504/2/5 500/2/5 503/2/5
f 505/2/5 502/2/5 501/2/5
f 506/2/5 502/2/5 505/2/5
f 511/2/5 508/2/5 507/2/5
f 512/2/5 508/2/5 511/2/5
f 513/2/5 510/2/5 509/2/5
f 514/2/5 510/2/5 513/2/5
f 517/2/5 516/2/5 515/2/5
f 518/2/5 516/2/5 517/2/5
f 523/2/5 520/2/5 519/2/5
f 524/2/5 520/2/5 523/2/5
f 525/2/5 522/2/5 521/2/5
f 526/2/5 522/2/5 525/2/5
f 529/1/5 528/1/5 527/1/5
f 530/1/5 528/1/5 529/1/5
f 534/1/5 531/1/5 530/1/5
f 535/1/5 531/1/5 534/1/5
f 536/2/5 533/2/5 532/2/5
f 537/2/5 533/2/5 536/2/5
f 540/1/5 539/1/5 538/1/5
f 541/1/5 539/1/5 540/1/5
f 544/1/5 543/1/5 542/1/5
f 546/1/5 544/1/5 542/1/5
f 546/1/5 545/1/5 544/1/5
f 547/1/5 545/1/5 546/1/5
f 550/3/5 549/3/5 548/3/5
f 551/3/5 549/3/5 550/3/5
f 554/1/5 553/1/5 552/1/5
f 555/1/5 553/1/5 554/1/5
f 558/3/5 557/3/5 556/3/5
f 559/3/5 557/3/5 558/3/5
f 562/1/5 561/1/5 560/1/5
f 563/1/5 561/1/5 562/1/5
f 566/1/5 565/1/5 564/1/5
f 567/1/5 565/1/5 566/1/5
f 570/1/5 569/1/5 568/1/5
f 571/1/5 569/1/5 570/1/5
f 574/1/5 573/1/5 572/1/5
f 575/1/5 573/1/5 574/1/5
f 578/1/5 577/1/5 576/1/5
f 579/1/5 577/1/5 578/1/5
f 582/1/5 581/1/5 580/1/5
f 583/1/5 581/1/5 582/1/5
f 586/1/5 585/1/5 584/1/5
f 587/1/5 585/1/5 586/1/5
f 590/1/5 589/1/5 588/1/5
f 591/1/5 589/1/5 590/1/5
f 592/2/6 593/2/6 594/2/6
f 594/2/6 593/2/6 595/2/6
f 596/2/6 597/2/6 600/2/6
f 600/2/6 597/2/6 601/2/6
f 598/2/6 599/2/6 602/2/6
f 602/2/6 599/2/6 603/2/6
f 604/2/6 605/2/6 606/2/6
f 606/2/6 605/2/6 607/2/6
f 608/2/6 609/2/6 612/2/6
f 612/2/6 609/2/6 613/2/6
f 610/2/6 611/2/6 614/2/6
f 614/2/6 611/2/6 615/2/6
f 616/2/6 617/2/6 620/2/6
f 620/2/6 617/2/6 621/2/6
f 618/2/6 619/2/6 622/2/6
f 622/2/6 619/2/6 623/2/6
f 624/2/6 625/2/6 628/2/6
f 628/2/6 625/2/6 629/2/6
f 626/2/6 627/2/6 630/2/6
f 630/2/6 627/2/6 631/2/6
f 632/2/6 633/2/6 634/2/6
f 634/2/6 633/2/6 635/2/6
f 636/1/6 637/1/6 638/1/6
f 638/1/6 637/1/6 639/1/6
f 640/2/6 641/2/6 642/2/6
f 642/2/6 641/2/6 643/2/6
f 644/1/6 645/1/6 646/1/6
f 646/1/6 645/1/6 647/1/6
f 648/1/6 649/1/6 650/1/6
f 650/1/6 649/1/6 651/1/6
f 652/3/6 653/3/6 654/3/6
f 654/3/6 653/3/6 655/3/6
f 656/3/6 657/3/6 658/3/6
f 658/3/6 657/3/6 659/3/6
f 660/1/6 661/1/6 662/1/6
f 662/1/6 661/1/6 663/1/6
f 664/1/6 665/1/6 666/1/6
f 666/1/6 665/1/6 667/1/6
f 668/1/6 669/1/6 670/1/6
f 670/1/6 669/1/6 671/1/6
f 672/1/6 673/1/6 674/1/6
f 674/1/6 673/1/6 675/1/6
f 676/1/6 677/1/6 678/1/6
f 678/1/6 677/1/6 679/1/6
f 680/1/6 681/1/6 682/1/6
f 682/1/6 681/1/6 683/1/6
f 684/1/6 685/1/6 686/1/6
f 686/1/6 685/1/6 687/1/6
f 688/1/6 689/1/6 690/1/6
f 690/1/6 689/1/6 691/1/6
f 692/1/6 693/1/6 694/1/6
f 694/1/6 693/1/6 695/1/6
f 696/1/6 697/1/6 698/1/6
f 698/1/6 697/1/6 699/1/6
f 700/1/6 701/1/6 702/1/6
f 702/1/6 701/1/6 703/1/6
f 704/1/6 705/1/6 706/1/6
f 706/1/6 705/1/6 707/1/6
f 708/1/6 709/1/6 710/1/6
f 710/1/6 709/1/6 711/1/6
f 712/1/6 713/1/6 714/1/6
f 714/1/6 713/1/6 715/1/6
f 716/1/6 717/1/6 718/1/6
f 718/1/6 717/1/6 719/1/6
