# MagicaVoxel @ Ephtracy

# group
o 

# material
mtllib floor plant.mtl
usemtl palette

# normals
vn -1 0 0
vn 1 0 0
vn 0 0 1
vn 0 0 -1
vn 0 -1 0
vn 0 1 0

# texcoords
vt 0.306641 0.5
vt 0.369141 0.5
vt 0.904297 0.5

# verts
v 1.2 2.1 -2.4
v 1.2 2.1 -2.9
v 1.2 2.7 -2.4
v 1.2 2.7 -2.9
v 1.3 2.1 -2.3
v 1.3 2.1 -2.4
v 1.3 2.1 -2.9
v 1.3 2.1 -3
v 1.3 2.7 -2.3
v 1.3 2.7 -2.4
v 1.3 2.7 -2.9
v 1.3 2.7 -3
v 1.3 4 -2.5
v 1.3 4 -2.6
v 1.3 4 -2.7
v 1.3 4 -2.8
v 1.3 4.1 -2.5
v 1.3 4.1 -2.6
v 1.3 4.1 -2.7
v 1.3 4.1 -2.8
v 1.3 4.2 -2.5
v 1.3 4.2 -2.6
v 1.3 4.2 -2.7
v 1.3 4.2 -2.8
v 1.3 4.3 -2.5
v 1.3 4.3 -2.6
v 1.3 4.3 -2.7
v 1.3 4.3 -2.8
v 1.4 2.7 -2.6
v 1.4 2.7 -2.7
v 1.4 3.9 -2.5
v 1.4 3.9 -2.6
v 1.4 3.9 -2.7
v 1.4 3.9 -2.8
v 1.4 4 -2.4
v 1.4 4 -2.5
v 1.4 4 -2.6
v 1.4 4 -2.7
v 1.4 4 -2.8
v 1.4 4 -2.9
v 1.4 4.1 -2.4
v 1.4 4.1 -2.5
v 1.4 4.1 -2.8
v 1.4 4.1 -2.9
v 1.4 4.2 -2.4
v 1.4 4.2 -2.5
v 1.4 4.2 -2.8
v 1.4 4.2 -2.9
v 1.4 4.3 -2.4
v 1.4 4.3 -2.5
v 1.4 4.3 -2.8
v 1.4 4.3 -2.9
v 1.5 2.7 -2.5
v 1.5 2.7 -2.6
v 1.5 2.7 -2.7
v 1.5 2.7 -2.8
v 1.5 3.9 -2.5
v 1.5 3.9 -2.6
v 1.5 3.9 -2.7
v 1.5 3.9 -2.8
v 1.5 4 -2.6
v 1.5 4 -2.7
v 1.5 4.1 -2.6
v 1.5 4.1 -2.7
v 1.5 4.2 -2.6
v 1.5 4.2 -2.7
v 1.5 4.3 -2.6
v 1.5 4.3 -2.7
v 1.6 4 -2.4
v 1.6 4 -2.5
v 1.6 4 -2.6
v 1.6 4 -2.7
v 1.6 4 -2.8
v 1.6 4 -2.9
v 1.6 4.1 -2.4
v 1.6 4.1 -2.6
v 1.6 4.1 -2.7
v 1.6 4.1 -2.9
v 1.6 4.2 -2.4
v 1.6 4.2 -2.6
v 1.6 4.2 -2.7
v 1.6 4.2 -2.9
v 1.6 4.3 -2.4
v 1.6 4.3 -2.6
v 1.6 4.3 -2.7
v 1.6 4.3 -2.9
v 1.5 4 -2.4
v 1.5 4 -2.5
v 1.5 4 -2.6
v 1.5 4 -2.7
v 1.5 4 -2.8
v 1.5 4 -2.9
v 1.5 4.1 -2.4
v 1.5 4.1 -2.6
v 1.5 4.1 -2.7
v 1.5 4.1 -2.9
v 1.5 4.2 -2.4
v 1.5 4.2 -2.6
v 1.5 4.2 -2.7
v 1.5 4.2 -2.9
v 1.5 4.3 -2.4
v 1.5 4.3 -2.6
v 1.5 4.3 -2.7
v 1.5 4.3 -2.9
v 1.6 2.7 -2.5
v 1.6 2.7 -2.6
v 1.6 2.7 -2.7
v 1.6 2.7 -2.8
v 1.6 3.9 -2.5
v 1.6 3.9 -2.6
v 1.6 3.9 -2.7
v 1.6 3.9 -2.8
v 1.6 4 -2.6
v 1.6 4 -2.7
v 1.6 4.1 -2.6
v 1.6 4.1 -2.7
v 1.6 4.2 -2.6
v 1.6 4.2 -2.7
v 1.6 4.3 -2.6
v 1.6 4.3 -2.7
v 1.7 2.7 -2.6
v 1.7 2.7 -2.7
v 1.7 3.9 -2.5
v 1.7 3.9 -2.6
v 1.7 3.9 -2.7
v 1.7 3.9 -2.8
v 1.7 4 -2.4
v 1.7 4 -2.5
v 1.7 4 -2.6
v 1.7 4 -2.7
v 1.7 4 -2.8
v 1.7 4 -2.9
v 1.7 4.1 -2.4
v 1.7 4.1 -2.5
v 1.7 4.1 -2.8
v 1.7 4.1 -2.9
v 1.7 4.2 -2.4
v 1.7 4.2 -2.5
v 1.7 4.2 -2.8
v 1.7 4.2 -2.9
v 1.7 4.3 -2.4
v 1.7 4.3 -2.5
v 1.7 4.3 -2.8
v 1.7 4.3 -2.9
v 1.8 2.1 -2.3
v 1.8 2.1 -2.4
v 1.8 2.1 -2.9
v 1.8 2.1 -3
v 1.8 2.7 -2.3
v 1.8 2.7 -2.4
v 1.8 2.7 -2.9
v 1.8 2.7 -3
v 1.8 4 -2.5
v 1.8 4 -2.6
v 1.8 4 -2.7
v 1.8 4 -2.8
v 1.8 4.1 -2.5
v 1.8 4.1 -2.6
v 1.8 4.1 -2.7
v 1.8 4.1 -2.8
v 1.8 4.2 -2.5
v 1.8 4.2 -2.6
v 1.8 4.2 -2.7
v 1.8 4.2 -2.8
v 1.8 4.3 -2.5
v 1.8 4.3 -2.6
v 1.8 4.3 -2.7
v 1.8 4.3 -2.8
v 1.9 2.1 -2.4
v 1.9 2.1 -2.9
v 1.9 2.7 -2.4
v 1.9 2.7 -2.9
v 1.3 2.1 -2.3
v 1.3 2.7 -2.3
v 1.8 2.1 -2.3
v 1.8 2.7 -2.3
v 1.2 2.1 -2.4
v 1.2 2.7 -2.4
v 1.3 2.1 -2.4
v 1.3 2.7 -2.4
v 1.4 4 -2.4
v 1.4 4.1 -2.4
v 1.4 4.2 -2.4
v 1.4 4.3 -2.4
v 1.5 4 -2.4
v 1.5 4.1 -2.4
v 1.5 4.2 -2.4
v 1.5 4.3 -2.4
v 1.6 4 -2.4
v 1.6 4.1 -2.4
v 1.6 4.2 -2.4
v 1.6 4.3 -2.4
v 1.7 4 -2.4
v 1.7 4.1 -2.4
v 1.7 4.2 -2.4
v 1.7 4.3 -2.4
v 1.8 2.1 -2.4
v 1.8 2.7 -2.4
v 1.9 2.1 -2.4
v 1.9 2.7 -2.4
v 1.3 4 -2.5
v 1.3 4.1 -2.5
v 1.3 4.2 -2.5
v 1.3 4.3 -2.5
v 1.4 3.9 -2.5
v 1.4 4 -2.5
v 1.4 4.1 -2.5
v 1.4 4.2 -2.5
v 1.4 4.3 -2.5
v 1.5 2.7 -2.5
v 1.5 3.9 -2.5
v 1.5 4 -2.5
v 1.6 2.7 -2.5
v 1.6 3.9 -2.5
v 1.6 4 -2.5
v 1.7 3.9 -2.5
v 1.7 4 -2.5
v 1.7 4.1 -2.5
v 1.7 4.2 -2.5
v 1.7 4.3 -2.5
v 1.8 4 -2.5
v 1.8 4.1 -2.5
v 1.8 4.2 -2.5
v 1.8 4.3 -2.5
v 1.4 2.7 -2.6
v 1.4 3.9 -2.6
v 1.5 2.7 -2.6
v 1.5 3.9 -2.6
v 1.5 4 -2.6
v 1.5 4.1 -2.6
v 1.5 4.2 -2.6
v 1.5 4.3 -2.6
v 1.6 2.7 -2.6
v 1.6 3.9 -2.6
v 1.6 4 -2.6
v 1.6 4.1 -2.6
v 1.6 4.2 -2.6
v 1.6 4.3 -2.6
v 1.7 2.7 -2.6
v 1.7 3.9 -2.6
v 1.3 4 -2.7
v 1.3 4.1 -2.7
v 1.3 4.2 -2.7
v 1.3 4.3 -2.7
v 1.4 4 -2.7
v 1.5 4 -2.7
v 1.5 4.1 -2.7
v 1.5 4.2 -2.7
v 1.5 4.3 -2.7
v 1.6 4 -2.7
v 1.6 4.1 -2.7
v 1.6 4.2 -2.7
v 1.6 4.3 -2.7
v 1.7 4 -2.7
v 1.8 4 -2.7
v 1.8 4.1 -2.7
v 1.8 4.2 -2.7
v 1.8 4.3 -2.7
v 1.3 4 -2.6
v 1.3 4.1 -2.6
v 1.3 4.2 -2.6
v 1.3 4.3 -2.6
v 1.4 4 -2.6
v 1.5 4 -2.6
v 1.5 4.1 -2.6
v 1.5 4.2 -2.6
v 1.5 4.3 -2.6
v 1.6 4 -2.6
v 1.6 4.1 -2.6
v 1.6 4.2 -2.6
v 1.6 4.3 -2.6
v 1.7 4 -2.6
v 1.8 4 -2.6
v 1.8 4.1 -2.6
v 1.8 4.2 -2.6
v 1.8 4.3 -2.6
v 1.4 2.7 -2.7
v 1.4 3.9 -2.7
v 1.5 2.7 -2.7
v 1.5 3.9 -2.7
v 1.5 4 -2.7
v 1.5 4.1 -2.7
v 1.5 4.2 -2.7
v 1.5 4.3 -2.7
v 1.6 2.7 -2.7
v 1.6 3.9 -2.7
v 1.6 4 -2.7
v 1.6 4.1 -2.7
v 1.6 4.2 -2.7
v 1.6 4.3 -2.7
v 1.7 2.7 -2.7
v 1.7 3.9 -2.7
v 1.3 4 -2.8
v 1.3 4.1 -2.8
v 1.3 4.2 -2.8
v 1.3 4.3 -2.8
v 1.4 3.9 -2.8
v 1.4 4 -2.8
v 1.4 4.1 -2.8
v 1.4 4.2 -2.8
v 1.4 4.3 -2.8
v 1.5 2.7 -2.8
v 1.5 3.9 -2.8
v 1.5 4 -2.8
v 1.6 2.7 -2.8
v 1.6 3.9 -2.8
v 1.6 4 -2.8
v 1.7 3.9 -2.8
v 1.7 4 -2.8
v 1.7 4.1 -2.8
v 1.7 4.2 -2.8
v 1.7 4.3 -2.8
v 1.8 4 -2.8
v 1.8 4.1 -2.8
v 1.8 4.2 -2.8
v 1.8 4.3 -2.8
v 1.2 2.1 -2.9
v 1.2 2.7 -2.9
v 1.3 2.1 -2.9
v 1.3 2.7 -2.9
v 1.4 4 -2.9
v 1.4 4.1 -2.9
v 1.4 4.2 -2.9
v 1.4 4.3 -2.9
v 1.5 4 -2.9
v 1.5 4.1 -2.9
v 1.5 4.2 -2.9
v 1.5 4.3 -2.9
v 1.6 4 -2.9
v 1.6 4.1 -2.9
v 1.6 4.2 -2.9
v 1.6 4.3 -2.9
v 1.7 4 -2.9
v 1.7 4.1 -2.9
v 1.7 4.2 -2.9
v 1.7 4.3 -2.9
v 1.8 2.1 -2.9
v 1.8 2.7 -2.9
v 1.9 2.1 -2.9
v 1.9 2.7 -2.9
v 1.3 2.1 -3
v 1.3 2.7 -3
v 1.8 2.1 -3
v 1.8 2.7 -3
v 1.3 2.1 -2.3
v 1.8 2.1 -2.3
v 1.2 2.1 -2.4
v 1.3 2.1 -2.4
v 1.8 2.1 -2.4
v 1.9 2.1 -2.4
v 1.2 2.1 -2.9
v 1.3 2.1 -2.9
v 1.8 2.1 -2.9
v 1.9 2.1 -2.9
v 1.3 2.1 -3
v 1.8 2.1 -3
v 1.4 3.9 -2.5
v 1.5 3.9 -2.5
v 1.6 3.9 -2.5
v 1.7 3.9 -2.5
v 1.4 3.9 -2.6
v 1.5 3.9 -2.6
v 1.6 3.9 -2.6
v 1.7 3.9 -2.6
v 1.4 3.9 -2.7
v 1.5 3.9 -2.7
v 1.6 3.9 -2.7
v 1.7 3.9 -2.7
v 1.4 3.9 -2.8
v 1.5 3.9 -2.8
v 1.6 3.9 -2.8
v 1.7 3.9 -2.8
v 1.4 4 -2.4
v 1.5 4 -2.4
v 1.6 4 -2.4
v 1.7 4 -2.4
v 1.3 4 -2.5
v 1.4 4 -2.5
v 1.5 4 -2.5
v 1.6 4 -2.5
v 1.7 4 -2.5
v 1.8 4 -2.5
v 1.3 4 -2.6
v 1.4 4 -2.6
v 1.7 4 -2.6
v 1.8 4 -2.6
v 1.3 4 -2.7
v 1.4 4 -2.7
v 1.7 4 -2.7
v 1.8 4 -2.7
v 1.3 4 -2.8
v 1.4 4 -2.8
v 1.5 4 -2.8
v 1.6 4 -2.8
v 1.7 4 -2.8
v 1.8 4 -2.8
v 1.4 4 -2.9
v 1.5 4 -2.9
v 1.6 4 -2.9
v 1.7 4 -2.9
v 1.4 4.2 -2.4
v 1.5 4.2 -2.4
v 1.6 4.2 -2.4
v 1.7 4.2 -2.4
v 1.3 4.2 -2.5
v 1.4 4.2 -2.5
v 1.7 4.2 -2.5
v 1.8 4.2 -2.5
v 1.3 4.2 -2.6
v 1.5 4.2 -2.6
v 1.6 4.2 -2.6
v 1.8 4.2 -2.6
v 1.3 4.2 -2.7
v 1.5 4.2 -2.7
v 1.6 4.2 -2.7
v 1.8 4.2 -2.7
v 1.3 4.2 -2.8
v 1.4 4.2 -2.8
v 1.7 4.2 -2.8
v 1.8 4.2 -2.8
v 1.4 4.2 -2.9
v 1.5 4.2 -2.9
v 1.6 4.2 -2.9
v 1.7 4.2 -2.9
v 1.3 2.7 -2.3
v 1.8 2.7 -2.3
v 1.2 2.7 -2.4
v 1.3 2.7 -2.4
v 1.8 2.7 -2.4
v 1.9 2.7 -2.4
v 1.4 2.7 -2.5
v 1.5 2.7 -2.5
v 1.6 2.7 -2.5
v 1.7 2.7 -2.5
v 1.4 2.7 -2.6
v 1.5 2.7 -2.6
v 1.6 2.7 -2.6
v 1.7 2.7 -2.6
v 1.4 2.7 -2.7
v 1.5 2.7 -2.7
v 1.6 2.7 -2.7
v 1.7 2.7 -2.7
v 1.4 2.7 -2.8
v 1.5 2.7 -2.8
v 1.6 2.7 -2.8
v 1.7 2.7 -2.8
v 1.2 2.7 -2.9
v 1.3 2.7 -2.9
v 1.8 2.7 -2.9
v 1.9 2.7 -2.9
v 1.3 2.7 -3
v 1.8 2.7 -3
v 1.5 4 -2.5
v 1.6 4 -2.5
v 1.4 4 -2.6
v 1.5 4 -2.6
v 1.6 4 -2.6
v 1.7 4 -2.6
v 1.4 4 -2.7
v 1.5 4 -2.7
v 1.6 4 -2.7
v 1.7 4 -2.7
v 1.5 4 -2.8
v 1.6 4 -2.8
v 1.4 4.1 -2.4
v 1.5 4.1 -2.4
v 1.6 4.1 -2.4
v 1.7 4.1 -2.4
v 1.3 4.1 -2.5
v 1.4 4.1 -2.5
v 1.7 4.1 -2.5
v 1.8 4.1 -2.5
v 1.3 4.1 -2.6
v 1.5 4.1 -2.6
v 1.6 4.1 -2.6
v 1.8 4.1 -2.6
v 1.3 4.1 -2.7
v 1.5 4.1 -2.7
v 1.6 4.1 -2.7
v 1.8 4.1 -2.7
v 1.3 4.1 -2.8
v 1.4 4.1 -2.8
v 1.7 4.1 -2.8
v 1.8 4.1 -2.8
v 1.4 4.1 -2.9
v 1.5 4.1 -2.9
v 1.6 4.1 -2.9
v 1.7 4.1 -2.9
v 1.4 4.3 -2.4
v 1.5 4.3 -2.4
v 1.6 4.3 -2.4
v 1.7 4.3 -2.4
v 1.3 4.3 -2.5
v 1.4 4.3 -2.5
v 1.7 4.3 -2.5
v 1.8 4.3 -2.5
v 1.3 4.3 -2.6
v 1.5 4.3 -2.6
v 1.6 4.3 -2.6
v 1.8 4.3 -2.6
v 1.3 4.3 -2.7
v 1.5 4.3 -2.7
v 1.6 4.3 -2.7
v 1.8 4.3 -2.7
v 1.3 4.3 -2.8
v 1.4 4.3 -2.8
v 1.7 4.3 -2.8
v 1.8 4.3 -2.8
v 1.4 4.3 -2.9
v 1.5 4.3 -2.9
v 1.6 4.3 -2.9
v 1.7 4.3 -2.9

# faces
f 3/2/1 2/2/1 1/2/1
f 4/2/1 2/2/1 3/2/1
f 9/2/1 6/2/1 5/2/1
f 10/2/1 6/2/1 9/2/1
f 11/2/1 8/2/1 7/2/1
f 12/2/1 8/2/1 11/2/1
f 17/3/1 14/3/1 13/3/1
f 18/3/1 14/3/1 17/3/1
f 19/3/1 16/3/1 15/3/1
f 20/3/1 16/3/1 19/3/1
f 25/3/1 22/3/1 21/3/1
f 26/3/1 22/3/1 25/3/1
f 27/3/1 24/3/1 23/3/1
f 28/3/1 24/3/1 27/3/1
f 32/3/1 30/3/1 29/3/1
f 33/3/1 30/3/1 32/3/1
f 36/3/1 32/3/1 31/3/1
f 36/3/1 34/3/1 33/3/1
f 36/3/1 33/3/1 32/3/1
f 37/3/1 34/3/1 36/3/1
f 38/3/1 34/3/1 37/3/1
f 39/3/1 34/3/1 38/3/1
f 41/3/1 36/3/1 35/3/1
f 42/3/1 36/3/1 41/3/1
f 43/3/1 40/3/1 39/3/1
f 44/3/1 40/3/1 43/3/1
f 49/3/1 46/3/1 45/3/1
f 50/3/1 46/3/1 49/3/1
f 51/3/1 48/3/1 47/3/1
f 52/3/1 48/3/1 51/3/1
f 57/3/1 54/3/1 53/3/1
f 58/3/1 54/3/1 57/3/1
f 59/3/1 56/3/1 55/3/1
f 60/3/1 56/3/1 59/3/1
f 63/3/1 62/3/1 61/3/1
f 64/3/1 62/3/1 63/3/1
f 65/3/1 64/3/1 63/3/1
f 66/3/1 64/3/1 65/3/1
f 67/3/1 66/3/1 65/3/1
f 68/3/1 66/3/1 67/3/1
f 75/3/1 70/3/1 69/3/1
f 75/3/1 71/3/1 70/3/1
f 76/3/1 71/3/1 75/3/1
f 77/3/1 74/3/1 73/3/1
f 77/3/1 73/3/1 72/3/1
f 78/3/1 74/3/1 77/3/1
f 83/3/1 80/3/1 79/3/1
f 84/3/1 80/3/1 83/3/1
f 85/3/1 82/3/1 81/3/1
f 86/3/1 82/3/1 85/3/1
f 87/3/2 88/3/2 93/3/2
f 88/3/2 89/3/2 93/3/2
f 93/3/2 89/3/2 94/3/2
f 91/3/2 92/3/2 95/3/2
f 90/3/2 91/3/2 95/3/2
f 95/3/2 92/3/2 96/3/2
f 97/3/2 98/3/2 101/3/2
f 101/3/2 98/3/2 102/3/2
f 99/3/2 100/3/2 103/3/2
f 103/3/2 100/3/2 104/3/2
f 105/3/2 106/3/2 109/3/2
f 109/3/2 106/3/2 110/3/2
f 107/3/2 108/3/2 111/3/2
f 111/3/2 108/3/2 112/3/2
f 113/3/2 114/3/2 115/3/2
f 115/3/2 114/3/2 116/3/2
f 115/3/2 116/3/2 117/3/2
f 117/3/2 116/3/2 118/3/2
f 117/3/2 118/3/2 119/3/2
f 119/3/2 118/3/2 120/3/2
f 121/3/2 122/3/2 124/3/2
f 124/3/2 122/3/2 125/3/2
f 123/3/2 124/3/2 128/3/2
f 125/3/2 126/3/2 128/3/2
f 124/3/2 125/3/2 128/3/2
f 128/3/2 126/3/2 129/3/2
f 129/3/2 126/3/2 130/3/2
f 130/3/2 126/3/2 131/3/2
f 127/3/2 128/3/2 133/3/2
f 133/3/2 128/3/2 134/3/2
f 131/3/2 132/3/2 135/3/2
f 135/3/2 132/3/2 136/3/2
f 137/3/2 138/3/2 141/3/2
f 141/3/2 138/3/2 142/3/2
f 139/3/2 140/3/2 143/3/2
f 143/3/2 140/3/2 144/3/2
f 145/2/2 146/2/2 149/2/2
f 149/2/2 146/2/2 150/2/2
f 147/2/2 148/2/2 151/2/2
f 151/2/2 148/2/2 152/2/2
f 153/3/2 154/3/2 157/3/2
f 157/3/2 154/3/2 158/3/2
f 155/3/2 156/3/2 159/3/2
f 159/3/2 156/3/2 160/3/2
f 161/3/2 162/3/2 165/3/2
f 165/3/2 162/3/2 166/3/2
f 163/3/2 164/3/2 167/3/2
f 167/3/2 164/3/2 168/3/2
f 169/2/2 170/2/2 171/2/2
f 171/2/2 170/2/2 172/2/2
f 175/2/3 174/2/3 173/2/3
f 176/2/3 174/2/3 175/2/3
f 179/2/3 178/2/3 177/2/3
f 180/2/3 178/2/3 179/2/3
f 185/3/3 182/3/3 181/3/3
f 186/3/3 182/3/3 185/3/3
f 187/3/3 184/3/3 183/3/3
f 188/3/3 184/3/3 187/3/3
f 193/3/3 190/3/3 189/3/3
f 194/3/3 190/3/3 193/3/3
f 195/3/3 192/3/3 191/3/3
f 196/3/3 192/3/3 195/3/3
f 199/2/3 198/2/3 197/2/3
f 200/2/3 198/2/3 199/2/3
f 206/3/3 202/3/3 201/3/3
f 207/3/3 202/3/3 206/3/3
f 208/3/3 204/3/3 203/3/3
f 209/3/3 204/3/3 208/3/3
f 211/3/3 206/3/3 205/3/3
f 212/3/3 206/3/3 211/3/3
f 213/3/3 211/3/3 210/3/3
f 213/3/3 212/3/3 211/3/3
f 214/3/3 212/3/3 213/3/3
f 215/3/3 212/3/3 214/3/3
f 216/3/3 215/3/3 214/3/3
f 217/3/3 215/3/3 216/3/3
f 221/3/3 218/3/3 217/3/3
f 222/3/3 218/3/3 221/3/3
f 223/3/3 220/3/3 219/3/3
f 224/3/3 220/3/3 223/3/3
f 227/3/3 226/3/3 225/3/3
f 228/3/3 226/3/3 227/3/3
f 235/3/3 232/3/3 231/3/3
f 235/3/3 230/3/3 229/3/3
f 235/3/3 231/3/3 230/3/3
f 236/3/3 232/3/3 235/3/3
f 237/3/3 232/3/3 236/3/3
f 238/3/3 232/3/3 237/3/3
f 239/3/3 234/3/3 233/3/3
f 240/3/3 234/3/3 239/3/3
f 245/3/3 242/3/3 241/3/3
f 246/3/3 242/3/3 245/3/3
f 247/3/3 242/3/3 246/3/3
f 248/3/3 244/3/3 243/3/3
f 249/3/3 244/3/3 248/3/3
f 254/3/3 251/3/3 250/3/3
f 255/3/3 251/3/3 254/3/3
f 256/3/3 251/3/3 255/3/3
f 257/3/3 253/3/3 252/3/3
f 258/3/3 253/3/3 257/3/3
f 259/3/4 260/3/4 263/3/4
f 263/3/4 260/3/4 264/3/4
f 264/3/4 260/3/4 265/3/4
f 261/3/4 262/3/4 266/3/4
f 266/3/4 262/3/4 267/3/4
f 268/3/4 269/3/4 272/3/4
f 272/3/4 269/3/4 273/3/4
f 273/3/4 269/3/4 274/3/4
f 270/3/4 271/3/4 275/3/4
f 275/3/4 271/3/4 276/3/4
f 277/3/4 278/3/4 279/3/4
f 279/3/4 278/3/4 280/3/4
f 283/3/4 284/3/4 287/3/4
f 281/3/4 282/3/4 287/3/4
f 282/3/4 283/3/4 287/3/4
f 287/3/4 284/3/4 288/3/4
f 288/3/4 284/3/4 289/3/4
f 289/3/4 284/3/4 290/3/4
f 285/3/4 286/3/4 291/3/4
f 291/3/4 286/3/4 292/3/4
f 293/3/4 294/3/4 298/3/4
f 298/3/4 294/3/4 299/3/4
f 295/3/4 296/3/4 300/3/4
f 300/3/4 296/3/4 301/3/4
f 297/3/4 298/3/4 303/3/4
f 303/3/4 298/3/4 304/3/4
f 302/3/4 303/3/4 305/3/4
f 303/3/4 304/3/4 305/3/4
f 305/3/4 304/3/4 306/3/4
f 306/3/4 304/3/4 307/3/4
f 306/3/4 307/3/4 308/3/4
f 308/3/4 307/3/4 309/3/4
f 309/3/4 310/3/4 313/3/4
f 313/3/4 310/3/4 314/3/4
f 311/3/4 312/3/4 315/3/4
f 315/3/4 312/3/4 316/3/4
f 317/2/4 318/2/4 319/2/4
f 319/2/4 318/2/4 320/2/4
f 321/3/4 322/3/4 325/3/4
f 325/3/4 322/3/4 326/3/4
f 323/3/4 324/3/4 327/3/4
f 327/3/4 324/3/4 328/3/4
f 329/3/4 330/3/4 333/3/4
f 333/3/4 330/3/4 334/3/4
f 331/3/4 332/3/4 335/3/4
f 335/3/4 332/3/4 336/3/4
f 337/2/4 338/2/4 339/2/4
f 339/2/4 338/2/4 340/2/4
f 341/2/4 342/2/4 343/2/4
f 343/2/4 342/2/4 344/2/4
f 348/2/5 346/2/5 345/2/5
f 349/2/5 346/2/5 348/2/5
f 351/2/5 348/2/5 347/2/5
f 351/2/5 350/2/5 349/2/5
f 351/2/5 349/2/5 348/2/5
f 352/2/5 350/2/5 351/2/5
f 353/2/5 350/2/5 352/2/5
f 354/2/5 350/2/5 353/2/5
f 355/2/5 353/2/5 352/2/5
f 356/2/5 353/2/5 355/2/5
f 361/3/5 358/3/5 357/3/5
f 362/3/5 358/3/5 361/3/5
f 363/3/5 360/3/5 359/3/5
f 364/3/5 360/3/5 363/3/5
f 369/3/5 366/3/5 365/3/5
f 370/3/5 366/3/5 369/3/5
f 371/3/5 368/3/5 367/3/5
f 372/3/5 368/3/5 371/3/5
f 378/3/5 374/3/5 373/3/5
f 379/3/5 374/3/5 378/3/5
f 380/3/5 376/3/5 375/3/5
f 381/3/5 376/3/5 380/3/5
f 383/3/5 378/3/5 377/3/5
f 384/3/5 378/3/5 383/3/5
f 385/3/5 382/3/5 381/3/5
f 386/3/5 382/3/5 385/3/5
f 391/3/5 388/3/5 387/3/5
f 392/3/5 388/3/5 391/3/5
f 395/3/5 390/3/5 389/3/5
f 396/3/5 390/3/5 395/3/5
f 397/3/5 393/3/5 392/3/5
f 398/3/5 393/3/5 397/3/5
f 399/3/5 395/3/5 394/3/5
f 400/3/5 395/3/5 399/3/5
f 406/3/5 402/3/5 401/3/5
f 407/3/5 404/3/5 403/3/5
f 409/3/5 406/3/5 405/3/5
f 410/3/5 402/3/5 406/3/5
f 410/3/5 406/3/5 409/3/5
f 411/3/5 408/3/5 407/3/5
f 411/3/5 407/3/5 403/3/5
f 412/3/5 408/3/5 411/3/5
f 417/3/5 414/3/5 413/3/5
f 418/3/5 414/3/5 417/3/5
f 419/3/5 416/3/5 415/3/5
f 420/3/5 416/3/5 419/3/5
f 421/3/5 414/3/5 418/3/5
f 422/3/5 414/3/5 421/3/5
f 423/3/5 419/3/5 415/3/5
f 424/3/5 419/3/5 423/3/5
f 425/2/6 426/2/6 428/2/6
f 428/2/6 426/2/6 429/2/6
f 427/2/6 428/2/6 431/2/6
f 429/2/6 430/2/6 431/2/6
f 428/2/6 429/2/6 431/2/6
f 431/2/6 430/2/6 432/2/6
f 432/2/6 430/2/6 433/2/6
f 433/2/6 430/2/6 434/2/6
f 427/2/6 431/2/6 435/2/6
f 431/3/6 432/3/6 435/3/6
f 435/3/6 432/3/6 436/3/6
f 433/3/6 434/3/6 437/3/6
f 434/2/6 430/2/6 438/2/6
f 437/3/6 434/3/6 438/3/6
f 427/2/6 435/2/6 439/2/6
f 438/2/6 430/2/6 442/2/6
f 439/3/6 440/3/6 443/3/6
f 427/2/6 439/2/6 443/2/6
f 443/3/6 440/3/6 444/3/6
f 441/3/6 442/3/6 445/3/6
f 442/2/6 430/2/6 446/2/6
f 445/3/6 442/3/6 446/3/6
f 443/2/6 444/2/6 447/2/6
f 444/2/6 445/2/6 447/2/6
f 445/2/6 446/2/6 447/2/6
f 427/2/6 443/2/6 447/2/6
f 447/2/6 446/2/6 448/2/6
f 446/2/6 430/2/6 449/2/6
f 448/2/6 446/2/6 449/2/6
f 449/2/6 430/2/6 450/2/6
f 448/2/6 449/2/6 451/2/6
f 451/2/6 449/2/6 452/2/6
f 453/3/6 454/3/6 456/3/6
f 456/3/6 454/3/6 457/3/6
f 455/3/6 456/3/6 459/3/6
f 459/3/6 456/3/6 460/3/6
f 457/3/6 458/3/6 461/3/6
f 461/3/6 458/3/6 462/3/6
f 460/3/6 461/3/6 463/3/6
f 463/3/6 461/3/6 464/3/6
f 465/3/6 466/3/6 470/3/6
f 467/3/6 468/3/6 471/3/6
f 469/3/6 470/3/6 473/3/6
f 470/3/6 466/3/6 474/3/6
f 473/3/6 470/3/6 474/3/6
f 471/3/6 472/3/6 475/3/6
f 467/3/6 471/3/6 475/3/6
f 475/3/6 472/3/6 476/3/6
f 477/3/6 478/3/6 481/3/6
f 481/3/6 478/3/6 482/3/6
f 479/3/6 480/3/6 483/3/6
f 483/3/6 480/3/6 484/3/6
f 482/3/6 478/3/6 485/3/6
f 485/3/6 478/3/6 486/3/6
f 479/3/6 483/3/6 487/3/6
f 487/3/6 483/3/6 488/3/6
f 489/3/6 490/3/6 494/3/6
f 491/3/6 492/3/6 495/3/6
f 493/3/6 494/3/6 497/3/6
f 494/3/6 490/3/6 498/3/6
f 497/3/6 494/3/6 498/3/6
f 495/3/6 496/3/6 499/3/6
f 491/3/6 495/3/6 499/3/6
f 499/3/6 496/3/6 500/3/6
f 498/3/6 499/3/6 502/3/6
f 502/3/6 499/3/6 503/3/6
f 501/3/6 502/3/6 505/3/6
f 505/3/6 502/3/6 506/3/6
f 503/3/6 504/3/6 507/3/6
f 507/3/6 504/3/6 508/3/6
f 506/3/6 502/3/6 509/3/6
f 509/3/6 502/3/6 510/3/6
f 503/3/6 507/3/6 511/3/6
f 511/3/6 507/3/6 512/3/6
