# MagicaVoxel @ Ephtracy

# group
o 

# material
mtllib Rose for Vase.mtl
usemtl palette

# normals
vn -1 0 0
vn 1 0 0
vn 0 0 1
vn 0 0 -1
vn 0 -1 0
vn 0 1 0

# texcoords
vt 0.658203 0.5
vt 0.662109 0.5
vt 0.666016 0.5
vt 0.888672 0.5
vt 0.919922 0.5

# verts
v 0.2 3.7 -0.5
v 0.2 3.7 -0.7
v 0.2 3.8 -0.5
v 0.2 3.8 -0.6
v 0.2 3.8 -0.7
v 0.2 3.9 -0.6
v 0.2 3.9 -0.7
v 0.3 3.1 -0.4
v 0.3 3.1 -0.5
v 0.3 3.2 -0.4
v 0.3 3.2 -0.5
v 0.3 3.6 -0.4
v 0.3 3.6 -0.7
v 0.3 3.7 -0.3
v 0.3 3.7 -0.4
v 0.3 3.7 -0.5
v 0.3 3.7 -0.7
v 0.3 3.7 -0.8
v 0.3 3.8 -0.3
v 0.3 3.8 -0.4
v 0.3 3.8 -0.5
v 0.3 3.8 -0.6
v 0.3 3.8 -0.7
v 0.3 3.9 -0.3
v 0.3 3.9 -0.4
v 0.3 3.9 -0.5
v 0.3 3.9 -0.6
v 0.3 3.9 -0.7
v 0.3 3.9 -0.8
v 0.3 4 -0.5
v 0.3 4 -0.7
v 0.4 3 -0.4
v 0.4 3 -0.6
v 0.4 3.1 -0.3
v 0.4 3.1 -0.4
v 0.4 3.1 -0.5
v 0.4 3.1 -0.6
v 0.4 3.2 -0.3
v 0.4 3.2 -0.4
v 0.4 3.5 -0.5
v 0.4 3.5 -0.6
v 0.4 3.6 -0.3
v 0.4 3.6 -0.4
v 0.4 3.6 -0.5
v 0.4 3.6 -0.6
v 0.4 3.6 -0.7
v 0.4 3.6 -0.8
v 0.4 3.7 -0.3
v 0.4 3.7 -0.4
v 0.4 3.7 -0.7
v 0.4 3.7 -0.8
v 0.4 3.7 -0.9
v 0.4 3.8 -0.8
v 0.4 3.8 -0.9
v 0.4 3.9 -0.4
v 0.4 3.9 -0.5
v 0.4 3.9 -0.7
v 0.4 3.9 -0.8
v 0.4 3.9 -0.9
v 0.4 4 -0.4
v 0.4 4 -0.5
v 0.4 4 -0.7
v 0.4 4 -0.8
v 0.5 2.6 -0.5
v 0.5 2.6 -0.6
v 0.5 3 -0.5
v 0.5 3 -0.6
v 0.5 3.1 -0.5
v 0.5 3.1 -0.6
v 0.5 3.2 -0.6
v 0.5 3.2 -0.7
v 0.5 3.3 -0.6
v 0.5 3.3 -0.7
v 0.5 3.5 -0.4
v 0.5 3.5 -0.5
v 0.5 3.5 -0.6
v 0.5 3.5 -0.7
v 0.5 3.6 -0.4
v 0.5 3.6 -0.5
v 0.5 3.6 -0.6
v 0.5 3.6 -0.7
v 0.5 3.7 -0.2
v 0.5 3.7 -0.3
v 0.5 3.8 -0.2
v 0.5 3.8 -0.3
v 0.5 3.9 -0.3
v 0.5 3.9 -0.4
v 0.5 3.9 -0.5
v 0.5 3.9 -0.6
v 0.5 3.9 -0.7
v 0.5 4 -0.3
v 0.5 4 -0.4
v 0.5 4 -0.5
v 0.5 4 -0.6
v 0.5 4 -0.7
v 0.6 3.7 -0.8
v 0.6 3.7 -0.9
v 0.6 3.8 -0.2
v 0.6 3.8 -0.3
v 0.6 3.8 -0.8
v 0.6 3.8 -0.9
v 0.6 3.9 -0.2
v 0.6 3.9 -0.3
v 0.6 3.9 -0.7
v 0.6 3.9 -0.8
v 0.6 4 -0.7
v 0.6 4 -0.8
v 0.7 3.9 -0.4
v 0.7 3.9 -0.6
v 0.7 4 -0.4
v 0.7 4 -0.6
v 0.4 3.1 -0.4
v 0.4 3.1 -0.5
v 0.4 3.2 -0.4
v 0.4 3.2 -0.5
v 0.4 3.9 -0.5
v 0.4 3.9 -0.7
v 0.4 4 -0.5
v 0.4 4 -0.7
v 0.5 3.1 -0.3
v 0.5 3.1 -0.4
v 0.5 3.2 -0.3
v 0.5 3.2 -0.4
v 0.5 3.7 -0.8
v 0.5 3.7 -0.9
v 0.5 3.8 -0.8
v 0.5 3.8 -0.9
v 0.5 3.9 -0.4
v 0.5 3.9 -0.5
v 0.5 3.9 -0.7
v 0.5 3.9 -0.8
v 0.5 4 -0.4
v 0.5 4 -0.5
v 0.5 4 -0.7
v 0.5 4 -0.8
v 0.6 2.6 -0.5
v 0.6 2.6 -0.6
v 0.6 3 -0.4
v 0.6 3 -0.5
v 0.6 3.1 -0.4
v 0.6 3.1 -0.5
v 0.6 3.2 -0.5
v 0.6 3.2 -0.6
v 0.6 3.3 -0.5
v 0.6 3.3 -0.6
v 0.6 3.5 -0.4
v 0.6 3.5 -0.5
v 0.6 3.5 -0.6
v 0.6 3.5 -0.7
v 0.6 3.6 -0.4
v 0.6 3.6 -0.5
v 0.6 3.6 -0.6
v 0.6 3.6 -0.7
v 0.6 3.8 -0.8
v 0.6 3.8 -0.9
v 0.6 3.9 -0.5
v 0.6 3.9 -0.6
v 0.6 3.9 -0.8
v 0.6 3.9 -0.9
v 0.6 4 -0.5
v 0.6 4 -0.6
v 0.7 3.2 -0.5
v 0.7 3.2 -0.7
v 0.7 3.3 -0.5
v 0.7 3.3 -0.7
v 0.7 3.5 -0.5
v 0.7 3.5 -0.6
v 0.7 3.6 -0.3
v 0.7 3.6 -0.4
v 0.7 3.6 -0.5
v 0.7 3.6 -0.6
v 0.7 3.6 -0.7
v 0.7 3.6 -0.8
v 0.7 3.7 -0.2
v 0.7 3.7 -0.3
v 0.7 3.7 -0.4
v 0.7 3.7 -0.7
v 0.7 3.7 -0.8
v 0.7 3.7 -0.9
v 0.7 3.8 -0.2
v 0.7 3.8 -0.3
v 0.7 3.8 -0.4
v 0.7 3.8 -0.8
v 0.7 3.8 -0.9
v 0.7 3.9 -0.2
v 0.7 3.9 -0.3
v 0.7 3.9 -0.4
v 0.7 3.9 -0.6
v 0.7 3.9 -0.7
v 0.7 3.9 -0.8
v 0.7 4 -0.3
v 0.7 4 -0.4
v 0.7 4 -0.6
v 0.7 4 -0.8
v 0.8 3.6 -0.4
v 0.8 3.6 -0.7
v 0.8 3.7 -0.3
v 0.8 3.7 -0.4
v 0.8 3.7 -0.5
v 0.8 3.7 -0.6
v 0.8 3.7 -0.7
v 0.8 3.7 -0.8
v 0.8 3.8 -0.3
v 0.8 3.8 -0.4
v 0.8 3.8 -0.5
v 0.8 3.8 -0.6
v 0.8 3.8 -0.7
v 0.8 3.8 -0.8
v 0.8 3.9 -0.4
v 0.8 3.9 -0.5
v 0.8 3.9 -0.6
v 0.8 3.9 -0.7
v 0.8 3.9 -0.8
v 0.8 4 -0.4
v 0.8 4 -0.6
v 0.9 3.7 -0.4
v 0.9 3.7 -0.5
v 0.9 3.7 -0.6
v 0.9 3.7 -0.7
v 0.9 3.8 -0.4
v 0.9 3.8 -0.5
v 0.9 3.8 -0.6
v 0.9 3.9 -0.5
v 0.9 3.9 -0.7
v 0.5 3.7 -0.2
v 0.5 3.8 -0.2
v 0.6 3.8 -0.2
v 0.6 3.9 -0.2
v 0.7 3.7 -0.2
v 0.7 3.8 -0.2
v 0.7 3.9 -0.2
v 0.3 3.7 -0.3
v 0.3 3.8 -0.3
v 0.3 3.9 -0.3
v 0.4 3.1 -0.3
v 0.4 3.2 -0.3
v 0.4 3.6 -0.3
v 0.4 3.7 -0.3
v 0.4 3.8 -0.3
v 0.4 3.9 -0.3
v 0.5 3.1 -0.3
v 0.5 3.2 -0.3
v 0.5 3.7 -0.3
v 0.5 3.8 -0.3
v 0.5 3.9 -0.3
v 0.5 4 -0.3
v 0.6 3.8 -0.3
v 0.6 3.9 -0.3
v 0.7 3.6 -0.3
v 0.7 3.7 -0.3
v 0.7 3.8 -0.3
v 0.7 3.9 -0.3
v 0.7 4 -0.3
v 0.8 3.7 -0.3
v 0.8 3.8 -0.3
v 0.3 3.1 -0.4
v 0.3 3.2 -0.4
v 0.3 3.6 -0.4
v 0.3 3.7 -0.4
v 0.4 3 -0.4
v 0.4 3.1 -0.4
v 0.4 3.2 -0.4
v 0.4 3.6 -0.4
v 0.4 3.7 -0.4
v 0.4 3.9 -0.4
v 0.4 4 -0.4
v 0.5 3.1 -0.4
v 0.5 3.5 -0.4
v 0.5 3.6 -0.4
v 0.5 3.9 -0.4
v 0.5 4 -0.4
v 0.6 3 -0.4
v 0.6 3.1 -0.4
v 0.6 3.5 -0.4
v 0.6 3.6 -0.4
v 0.7 3.6 -0.4
v 0.7 3.7 -0.4
v 0.7 3.8 -0.4
v 0.7 3.9 -0.4
v 0.7 4 -0.4
v 0.8 3.6 -0.4
v 0.8 3.7 -0.4
v 0.8 3.8 -0.4
v 0.8 3.9 -0.4
v 0.8 4 -0.4
v 0.9 3.7 -0.4
v 0.9 3.8 -0.4
v 0.2 3.7 -0.5
v 0.2 3.8 -0.5
v 0.3 3.7 -0.5
v 0.3 3.8 -0.5
v 0.3 3.9 -0.5
v 0.3 4 -0.5
v 0.4 3.5 -0.5
v 0.4 3.6 -0.5
v 0.4 3.9 -0.5
v 0.4 4 -0.5
v 0.5 2.6 -0.5
v 0.5 3 -0.5
v 0.5 3.1 -0.5
v 0.5 3.5 -0.5
v 0.5 3.6 -0.5
v 0.5 3.9 -0.5
v 0.5 4 -0.5
v 0.6 2.6 -0.5
v 0.6 3 -0.5
v 0.6 3.1 -0.5
v 0.6 3.2 -0.5
v 0.6 3.3 -0.5
v 0.6 3.5 -0.5
v 0.6 3.6 -0.5
v 0.6 3.9 -0.5
v 0.6 4 -0.5
v 0.7 3.2 -0.5
v 0.7 3.3 -0.5
v 0.7 3.5 -0.5
v 0.7 3.6 -0.5
v 0.8 3.8 -0.5
v 0.8 3.9 -0.5
v 0.9 3.8 -0.5
v 0.9 3.9 -0.5
v 0.2 3.8 -0.6
v 0.2 3.9 -0.6
v 0.3 3.8 -0.6
v 0.3 3.9 -0.6
v 0.6 3.9 -0.6
v 0.6 4 -0.6
v 0.7 3.9 -0.6
v 0.7 4 -0.6
v 0.8 3.7 -0.6
v 0.8 3.8 -0.6
v 0.9 3.7 -0.6
v 0.9 3.8 -0.6
v 0.4 3.9 -0.7
v 0.4 4 -0.7
v 0.5 3.9 -0.7
v 0.5 4 -0.7
v 0.4 3.1 -0.4
v 0.4 3.2 -0.4
v 0.5 3.1 -0.4
v 0.5 3.2 -0.4
v 0.5 3.9 -0.4
v 0.5 4 -0.4
v 0.7 3.9 -0.4
v 0.7 4 -0.4
v 0.3 3.1 -0.5
v 0.3 3.2 -0.5
v 0.4 3.1 -0.5
v 0.4 3.2 -0.5
v 0.4 3.9 -0.5
v 0.4 4 -0.5
v 0.5 3.9 -0.5
v 0.5 4 -0.5
v 0.8 3.7 -0.5
v 0.8 3.8 -0.5
v 0.9 3.7 -0.5
v 0.9 3.8 -0.5
v 0.4 3 -0.6
v 0.4 3.1 -0.6
v 0.4 3.5 -0.6
v 0.4 3.6 -0.6
v 0.5 2.6 -0.6
v 0.5 3 -0.6
v 0.5 3.1 -0.6
v 0.5 3.2 -0.6
v 0.5 3.3 -0.6
v 0.5 3.5 -0.6
v 0.5 3.6 -0.6
v 0.6 2.6 -0.6
v 0.6 3.2 -0.6
v 0.6 3.3 -0.6
v 0.6 3.5 -0.6
v 0.6 3.6 -0.6
v 0.7 3.5 -0.6
v 0.7 3.6 -0.6
v 0.7 3.9 -0.6
v 0.7 4 -0.6
v 0.8 3.9 -0.6
v 0.8 4 -0.6
v 0.2 3.7 -0.7
v 0.2 3.8 -0.7
v 0.2 3.9 -0.7
v 0.3 3.6 -0.7
v 0.3 3.7 -0.7
v 0.3 3.8 -0.7
v 0.3 3.9 -0.7
v 0.3 4 -0.7
v 0.4 3.6 -0.7
v 0.4 3.7 -0.7
v 0.4 3.9 -0.7
v 0.4 4 -0.7
v 0.5 3.2 -0.7
v 0.5 3.3 -0.7
v 0.5 3.5 -0.7
v 0.5 3.6 -0.7
v 0.5 3.9 -0.7
v 0.5 4 -0.7
v 0.6 3.5 -0.7
v 0.6 3.6 -0.7
v 0.6 3.9 -0.7
v 0.6 4 -0.7
v 0.7 3.2 -0.7
v 0.7 3.3 -0.7
v 0.7 3.6 -0.7
v 0.7 3.7 -0.7
v 0.8 3.6 -0.7
v 0.8 3.7 -0.7
v 0.8 3.8 -0.7
v 0.8 3.9 -0.7
v 0.9 3.7 -0.7
v 0.9 3.9 -0.7
v 0.3 3.7 -0.8
v 0.3 3.9 -0.8
v 0.4 3.6 -0.8
v 0.4 3.7 -0.8
v 0.4 3.8 -0.8
v 0.4 3.9 -0.8
v 0.4 4 -0.8
v 0.5 3.7 -0.8
v 0.5 3.8 -0.8
v 0.5 3.9 -0.8
v 0.5 4 -0.8
v 0.6 3.7 -0.8
v 0.6 3.8 -0.8
v 0.6 3.9 -0.8
v 0.6 4 -0.8
v 0.7 3.6 -0.8
v 0.7 3.7 -0.8
v 0.7 3.8 -0.8
v 0.7 3.9 -0.8
v 0.7 4 -0.8
v 0.8 3.7 -0.8
v 0.8 3.8 -0.8
v 0.8 3.9 -0.8
v 0.4 3.7 -0.9
v 0.4 3.8 -0.9
v 0.4 3.9 -0.9
v 0.5 3.7 -0.9
v 0.5 3.8 -0.9
v 0.5 3.9 -0.9
v 0.6 3.7 -0.9
v 0.6 3.8 -0.9
v 0.6 3.9 -0.9
v 0.7 3.7 -0.9
v 0.7 3.8 -0.9
v 0.5 2.6 -0.5
v 0.6 2.6 -0.5
v 0.5 2.6 -0.6
v 0.6 2.6 -0.6
v 0.4 3 -0.4
v 0.6 3 -0.4
v 0.5 3 -0.5
v 0.6 3 -0.5
v 0.4 3 -0.6
v 0.5 3 -0.6
v 0.4 3.1 -0.3
v 0.5 3.1 -0.3
v 0.3 3.1 -0.4
v 0.4 3.1 -0.4
v 0.5 3.1 -0.4
v 0.3 3.1 -0.5
v 0.4 3.1 -0.5
v 0.6 3.2 -0.5
v 0.7 3.2 -0.5
v 0.5 3.2 -0.6
v 0.6 3.2 -0.6
v 0.5 3.2 -0.7
v 0.7 3.2 -0.7
v 0.5 3.5 -0.4
v 0.6 3.5 -0.4
v 0.4 3.5 -0.5
v 0.5 3.5 -0.5
v 0.6 3.5 -0.5
v 0.7 3.5 -0.5
v 0.4 3.5 -0.6
v 0.5 3.5 -0.6
v 0.6 3.5 -0.6
v 0.7 3.5 -0.6
v 0.5 3.5 -0.7
v 0.6 3.5 -0.7
v 0.4 3.6 -0.3
v 0.7 3.6 -0.3
v 0.3 3.6 -0.4
v 0.4 3.6 -0.4
v 0.5 3.6 -0.4
v 0.6 3.6 -0.4
v 0.7 3.6 -0.4
v 0.8 3.6 -0.4
v 0.4 3.6 -0.5
v 0.5 3.6 -0.5
v 0.6 3.6 -0.5
v 0.7 3.6 -0.5
v 0.4 3.6 -0.6
v 0.5 3.6 -0.6
v 0.6 3.6 -0.6
v 0.7 3.6 -0.6
v 0.3 3.6 -0.7
v 0.4 3.6 -0.7
v 0.5 3.6 -0.7
v 0.6 3.6 -0.7
v 0.7 3.6 -0.7
v 0.8 3.6 -0.7
v 0.4 3.6 -0.8
v 0.7 3.6 -0.8
v 0.5 3.7 -0.2
v 0.7 3.7 -0.2
v 0.3 3.7 -0.3
v 0.4 3.7 -0.3
v 0.5 3.7 -0.3
v 0.7 3.7 -0.3
v 0.8 3.7 -0.3
v 0.3 3.7 -0.4
v 0.4 3.7 -0.4
v 0.7 3.7 -0.4
v 0.8 3.7 -0.4
v 0.9 3.7 -0.4
v 0.2 3.7 -0.5
v 0.3 3.7 -0.5
v 0.8 3.7 -0.5
v 0.9 3.7 -0.5
v 0.8 3.7 -0.6
v 0.9 3.7 -0.6
v 0.2 3.7 -0.7
v 0.3 3.7 -0.7
v 0.4 3.7 -0.7
v 0.7 3.7 -0.7
v 0.8 3.7 -0.7
v 0.9 3.7 -0.7
v 0.3 3.7 -0.8
v 0.4 3.7 -0.8
v 0.5 3.7 -0.8
v 0.6 3.7 -0.8
v 0.7 3.7 -0.8
v 0.8 3.7 -0.8
v 0.4 3.7 -0.9
v 0.5 3.7 -0.9
v 0.6 3.7 -0.9
v 0.7 3.7 -0.9
v 0.8 3.8 -0.5
v 0.9 3.8 -0.5
v 0.8 3.8 -0.6
v 0.9 3.8 -0.6
v 0.5 3.8 -0.8
v 0.6 3.8 -0.8
v 0.5 3.8 -0.9
v 0.6 3.8 -0.9
v 0.4 3.1 -0.4
v 0.5 3.1 -0.4
v 0.6 3.1 -0.4
v 0.4 3.1 -0.5
v 0.5 3.1 -0.5
v 0.6 3.1 -0.5
v 0.4 3.1 -0.6
v 0.5 3.1 -0.6
v 0.4 3.2 -0.3
v 0.5 3.2 -0.3
v 0.3 3.2 -0.4
v 0.4 3.2 -0.4
v 0.5 3.2 -0.4
v 0.3 3.2 -0.5
v 0.4 3.2 -0.5
v 0.6 3.3 -0.5
v 0.7 3.3 -0.5
v 0.5 3.3 -0.6
v 0.6 3.3 -0.6
v 0.5 3.3 -0.7
v 0.7 3.3 -0.7
v 0.5 3.8 -0.2
v 0.6 3.8 -0.2
v 0.5 3.8 -0.3
v 0.6 3.8 -0.3
v 0.7 3.8 -0.3
v 0.8 3.8 -0.3
v 0.7 3.8 -0.4
v 0.8 3.8 -0.4
v 0.9 3.8 -0.4
v 0.2 3.8 -0.5
v 0.3 3.8 -0.5
v 0.8 3.8 -0.5
v 0.9 3.8 -0.5
v 0.2 3.8 -0.6
v 0.3 3.8 -0.6
v 0.6 3.8 -0.8
v 0.7 3.8 -0.8
v 0.6 3.8 -0.9
v 0.7 3.8 -0.9
v 0.6 3.9 -0.2
v 0.7 3.9 -0.2
v 0.3 3.9 -0.3
v 0.4 3.9 -0.3
v 0.5 3.9 -0.3
v 0.6 3.9 -0.3
v 0.7 3.9 -0.3
v 0.3 3.9 -0.4
v 0.4 3.9 -0.4
v 0.5 3.9 -0.4
v 0.7 3.9 -0.4
v 0.3 3.9 -0.5
v 0.4 3.9 -0.5
v 0.5 3.9 -0.5
v 0.6 3.9 -0.5
v 0.8 3.9 -0.5
v 0.9 3.9 -0.5
v 0.2 3.9 -0.6
v 0.3 3.9 -0.6
v 0.5 3.9 -0.6
v 0.6 3.9 -0.6
v 0.7 3.9 -0.6
v 0.8 3.9 -0.6
v 0.2 3.9 -0.7
v 0.3 3.9 -0.7
v 0.4 3.9 -0.7
v 0.5 3.9 -0.7
v 0.6 3.9 -0.7
v 0.7 3.9 -0.7
v 0.8 3.9 -0.7
v 0.9 3.9 -0.7
v 0.3 3.9 -0.8
v 0.4 3.9 -0.8
v 0.5 3.9 -0.8
v 0.6 3.9 -0.8
v 0.7 3.9 -0.8
v 0.8 3.9 -0.8
v 0.4 3.9 -0.9
v 0.5 3.9 -0.9
v 0.6 3.9 -0.9
v 0.5 4 -0.3
v 0.7 4 -0.3
v 0.4 4 -0.4
v 0.5 4 -0.4
v 0.7 4 -0.4
v 0.8 4 -0.4
v 0.3 4 -0.5
v 0.4 4 -0.5
v 0.5 4 -0.5
v 0.6 4 -0.5
v 0.5 4 -0.6
v 0.6 4 -0.6
v 0.7 4 -0.6
v 0.8 4 -0.6
v 0.3 4 -0.7
v 0.4 4 -0.7
v 0.5 4 -0.7
v 0.6 4 -0.7
v 0.4 4 -0.8
v 0.5 4 -0.8
v 0.6 4 -0.8
v 0.7 4 -0.8

# faces
f 3/2/1 2/2/1 1/2/1
f 4/2/1 2/2/1 3/2/1
f 5/2/1 2/2/1 4/2/1
f 6/3/1 5/3/1 4/3/1
f 7/3/1 5/3/1 6/3/1
f 10/4/1 9/4/1 8/4/1
f 11/4/1 9/4/1 10/4/1
f 15/1/1 13/1/1 12/1/1
f 16/1/1 13/1/1 15/1/1
f 17/1/1 13/1/1 16/1/1
f 19/2/1 15/2/1 14/2/1
f 19/2/1 16/2/1 15/2/1
f 20/2/1 16/2/1 19/2/1
f 21/2/1 16/2/1 20/2/1
f 23/3/1 18/3/1 17/3/1
f 24/1/1 20/1/1 19/1/1
f 25/3/1 22/3/1 21/3/1
f 25/1/1 20/1/1 24/1/1
f 25/3/1 21/3/1 20/3/1
f 26/3/1 22/3/1 25/3/1
f 27/3/1 22/3/1 26/3/1
f 28/3/1 18/3/1 23/3/1
f 29/3/1 18/3/1 28/3/1
f 30/1/1 27/1/1 26/1/1
f 30/1/1 28/1/1 27/1/1
f 31/1/1 28/1/1 30/1/1
f 35/4/1 33/4/1 32/4/1
f 36/4/1 33/4/1 35/4/1
f 37/4/1 33/4/1 36/4/1
f 38/4/1 35/4/1 34/4/1
f 39/4/1 35/4/1 38/4/1
f 44/4/1 41/4/1 40/4/1
f 45/4/1 41/4/1 44/4/1
f 48/1/1 43/1/1 42/1/1
f 49/1/1 43/1/1 48/1/1
f 50/1/1 47/1/1 46/1/1
f 51/1/1 47/1/1 50/1/1
f 53/2/1 52/2/1 51/2/1
f 54/2/1 52/2/1 53/2/1
f 58/1/1 54/1/1 53/1/1
f 59/1/1 54/1/1 58/1/1
f 60/1/1 56/1/1 55/1/1
f 61/1/1 56/1/1 60/1/1
f 62/1/1 58/1/1 57/1/1
f 63/1/1 58/1/1 62/1/1
f 66/5/1 65/5/1 64/5/1
f 67/5/1 65/5/1 66/5/1
f 70/5/1 69/5/1 68/5/1
f 72/5/1 70/5/1 68/5/1
f 72/4/1 71/4/1 70/4/1
f 73/4/1 71/4/1 72/4/1
f 75/5/1 72/5/1 68/5/1
f 76/5/1 72/5/1 75/5/1
f 78/4/1 75/4/1 74/4/1
f 79/4/1 75/4/1 78/4/1
f 80/4/1 77/4/1 76/4/1
f 81/4/1 77/4/1 80/4/1
f 84/2/1 83/2/1 82/2/1
f 85/2/1 83/2/1 84/2/1
f 91/1/1 87/1/1 86/1/1
f 92/1/1 87/1/1 91/1/1
f 93/3/1 89/3/1 88/3/1
f 94/1/1 90/1/1 89/1/1
f 94/3/1 89/3/1 93/3/1
f 95/1/1 90/1/1 94/1/1
f 100/3/1 97/3/1 96/3/1
f 101/3/1 97/3/1 100/3/1
f 102/3/1 99/3/1 98/3/1
f 103/3/1 99/3/1 102/3/1
f 106/1/1 105/1/1 104/1/1
f 107/1/1 105/1/1 106/1/1
f 110/1/1 109/1/1 108/1/1
f 111/1/1 109/1/1 110/1/1
f 112/4/2 113/4/2 114/4/2
f 114/4/2 113/4/2 115/4/2
f 116/1/2 117/1/2 118/1/2
f 118/1/2 117/1/2 119/1/2
f 120/4/2 121/4/2 122/4/2
f 122/4/2 121/4/2 123/4/2
f 124/2/2 125/2/2 126/2/2
f 126/2/2 125/2/2 127/2/2
f 128/1/2 129/1/2 132/1/2
f 132/1/2 129/1/2 133/1/2
f 130/1/2 131/1/2 134/1/2
f 134/1/2 131/1/2 135/1/2
f 136/5/2 137/5/2 139/5/2
f 138/4/2 139/4/2 140/4/2
f 139/5/2 137/5/2 141/5/2
f 140/4/2 139/4/2 141/4/2
f 141/5/2 137/5/2 142/5/2
f 142/5/2 137/5/2 143/5/2
f 144/5/2 145/5/2 147/5/2
f 147/5/2 145/5/2 148/5/2
f 146/4/2 147/4/2 150/4/2
f 150/4/2 147/4/2 151/4/2
f 148/4/2 149/4/2 152/4/2
f 152/4/2 149/4/2 153/4/2
f 154/3/2 155/3/2 158/3/2
f 158/3/2 155/3/2 159/3/2
f 156/3/2 157/3/2 160/3/2
f 160/3/2 157/3/2 161/3/2
f 162/4/2 163/4/2 164/4/2
f 164/4/2 163/4/2 165/4/2
f 166/4/2 167/4/2 170/4/2
f 170/4/2 167/4/2 171/4/2
f 168/1/2 169/1/2 175/1/2
f 175/1/2 169/1/2 176/1/2
f 172/1/2 173/1/2 177/1/2
f 177/1/2 173/1/2 178/1/2
f 174/2/2 175/2/2 180/2/2
f 180/2/2 175/2/2 181/2/2
f 178/3/2 179/3/2 183/3/2
f 183/3/2 179/3/2 184/3/2
f 181/3/2 182/3/2 185/3/2
f 180/3/2 181/3/2 185/3/2
f 185/3/2 182/3/2 186/3/2
f 186/3/2 182/3/2 187/3/2
f 186/1/2 187/1/2 191/1/2
f 191/1/2 187/1/2 192/1/2
f 189/1/2 190/1/2 193/1/2
f 188/1/2 189/1/2 193/1/2
f 193/1/2 190/1/2 194/1/2
f 195/1/2 196/1/2 198/1/2
f 198/1/2 196/1/2 199/1/2
f 199/1/2 196/1/2 200/1/2
f 200/1/2 196/1/2 201/1/2
f 197/3/2 198/3/2 203/3/2
f 203/3/2 198/3/2 204/3/2
f 199/2/2 200/2/2 205/2/2
f 205/2/2 200/2/2 206/2/2
f 201/2/2 202/2/2 207/2/2
f 207/2/2 202/2/2 208/2/2
f 204/3/2 205/3/2 209/3/2
f 209/3/2 205/3/2 210/3/2
f 207/1/2 208/1/2 212/1/2
f 212/1/2 208/1/2 213/1/2
f 210/1/2 211/1/2 214/1/2
f 209/1/2 210/1/2 214/1/2
f 214/1/2 211/1/2 215/1/2
f 216/2/2 217/2/2 220/2/2
f 220/2/2 217/2/2 221/2/2
f 218/3/2 219/3/2 222/3/2
f 221/3/2 222/3/2 223/3/2
f 222/3/2 219/3/2 224/3/2
f 223/3/2 222/3/2 224/3/2
f 227/2/3 226/2/3 225/2/3
f 229/2/3 227/2/3 225/2/3
f 230/3/3 228/3/3 227/3/3
f 230/2/3 227/2/3 229/2/3
f 231/3/3 228/3/3 230/3/3
f 238/2/3 233/2/3 232/2/3
f 239/1/3 234/1/3 233/1/3
f 239/2/3 233/2/3 238/2/3
f 240/1/3 234/1/3 239/1/3
f 241/4/3 236/4/3 235/4/3
f 242/4/3 236/4/3 241/4/3
f 243/1/3 238/1/3 237/1/3
f 243/2/3 239/2/3 238/2/3
f 244/3/3 240/3/3 239/3/3
f 244/2/3 239/2/3 243/2/3
f 245/3/3 240/3/3 244/3/3
f 247/3/3 245/3/3 244/3/3
f 248/1/3 246/1/3 245/1/3
f 248/3/3 245/3/3 247/3/3
f 249/1/3 243/1/3 237/1/3
f 250/1/3 243/1/3 249/1/3
f 252/1/3 246/1/3 248/1/3
f 253/1/3 246/1/3 252/1/3
f 254/3/3 251/3/3 250/3/3
f 255/3/3 251/3/3 254/3/3
f 261/4/3 257/4/3 256/4/3
f 262/4/3 257/4/3 261/4/3
f 263/1/3 259/1/3 258/1/3
f 264/1/3 259/1/3 263/1/3
f 267/4/3 261/4/3 260/4/3
f 270/1/3 266/1/3 265/1/3
f 271/1/3 266/1/3 270/1/3
f 272/4/3 267/4/3 260/4/3
f 273/4/3 267/4/3 272/4/3
f 274/4/3 269/4/3 268/4/3
f 275/4/3 269/4/3 274/4/3
f 281/1/3 277/1/3 276/1/3
f 282/1/3 277/1/3 281/1/3
f 283/3/3 279/3/3 278/3/3
f 284/1/3 280/1/3 279/1/3
f 284/3/3 279/3/3 283/3/3
f 285/1/3 280/1/3 284/1/3
f 286/2/3 283/2/3 282/2/3
f 287/2/3 283/2/3 286/2/3
f 290/2/3 289/2/3 288/2/3
f 291/2/3 289/2/3 290/2/3
f 296/1/3 293/1/3 292/1/3
f 297/1/3 293/1/3 296/1/3
f 301/4/3 295/4/3 294/4/3
f 302/4/3 295/4/3 301/4/3
f 305/5/3 299/5/3 298/5/3
f 306/5/3 299/5/3 305/5/3
f 307/5/3 301/5/3 300/5/3
f 308/5/3 301/5/3 307/5/3
f 309/5/3 301/5/3 308/5/3
f 310/5/3 301/5/3 309/5/3
f 312/3/3 304/3/3 303/3/3
f 313/3/3 304/3/3 312/3/3
f 314/4/3 309/4/3 308/4/3
f 315/4/3 309/4/3 314/4/3
f 316/4/3 311/4/3 310/4/3
f 317/4/3 311/4/3 316/4/3
f 320/3/3 319/3/3 318/3/3
f 321/3/3 319/3/3 320/3/3
f 324/3/3 323/3/3 322/3/3
f 325/3/3 323/3/3 324/3/3
f 328/1/3 327/1/3 326/1/3
f 329/1/3 327/1/3 328/1/3
f 332/3/3 331/3/3 330/3/3
f 333/3/3 331/3/3 332/3/3
f 336/1/3 335/1/3 334/1/3
f 337/1/3 335/1/3 336/1/3
f 338/4/4 339/4/4 340/4/4
f 340/4/4 339/4/4 341/4/4
f 342/1/4 343/1/4 344/1/4
f 344/1/4 343/1/4 345/1/4
f 346/4/4 347/4/4 348/4/4
f 348/4/4 347/4/4 349/4/4
f 350/1/4 351/1/4 352/1/4
f 352/1/4 351/1/4 353/1/4
f 354/2/4 355/2/4 356/2/4
f 356/2/4 355/2/4 357/2/4
f 358/4/4 359/4/4 363/4/4
f 363/4/4 359/4/4 364/4/4
f 360/4/4 361/4/4 367/4/4
f 367/4/4 361/4/4 368/4/4
f 364/5/4 365/5/4 369/5/4
f 362/5/4 363/5/4 369/5/4
f 363/5/4 364/5/4 369/5/4
f 369/5/4 365/5/4 370/5/4
f 366/5/4 367/5/4 371/5/4
f 371/5/4 367/5/4 372/5/4
f 372/4/4 373/4/4 374/4/4
f 374/4/4 373/4/4 375/4/4
f 376/1/4 377/1/4 378/1/4
f 378/1/4 377/1/4 379/1/4
f 380/2/4 381/2/4 384/2/4
f 381/3/4 382/3/4 385/3/4
f 384/2/4 381/2/4 385/2/4
f 385/3/4 382/3/4 386/3/4
f 383/1/4 384/1/4 388/1/4
f 388/1/4 384/1/4 389/1/4
f 386/1/4 387/1/4 390/1/4
f 390/1/4 387/1/4 391/1/4
f 394/4/4 395/4/4 398/4/4
f 398/4/4 395/4/4 399/4/4
f 396/1/4 397/1/4 400/1/4
f 400/1/4 397/1/4 401/1/4
f 392/4/4 393/4/4 402/4/4
f 402/4/4 393/4/4 403/4/4
f 404/1/4 405/1/4 406/1/4
f 406/1/4 405/1/4 407/1/4
f 408/3/4 409/3/4 410/3/4
f 407/3/4 408/3/4 410/3/4
f 410/3/4 409/3/4 411/3/4
f 412/3/4 413/3/4 415/3/4
f 415/3/4 413/3/4 416/3/4
f 416/3/4 413/3/4 417/3/4
f 414/1/4 415/1/4 419/1/4
f 417/1/4 418/1/4 421/1/4
f 421/1/4 418/1/4 422/1/4
f 419/2/4 420/2/4 423/2/4
f 414/1/4 419/1/4 423/1/4
f 423/2/4 420/2/4 424/2/4
f 414/1/4 423/1/4 427/1/4
f 427/1/4 423/1/4 428/1/4
f 424/3/4 425/3/4 429/3/4
f 425/1/4 426/1/4 430/1/4
f 429/3/4 425/3/4 430/3/4
f 430/1/4 426/1/4 431/1/4
f 428/2/4 429/2/4 432/2/4
f 429/1/4 430/1/4 433/1/4
f 432/2/4 429/2/4 433/2/4
f 433/1/4 430/1/4 434/1/4
f 435/2/4 436/2/4 438/2/4
f 436/1/4 437/1/4 439/1/4
f 438/2/4 436/2/4 439/2/4
f 439/1/4 437/1/4 440/1/4
f 439/3/4 440/3/4 442/3/4
f 442/3/4 440/3/4 443/3/4
f 441/3/4 442/3/4 444/3/4
f 444/3/4 442/3/4 445/3/4
f 448/5/5 447/5/5 446/5/5
f 449/5/5 447/5/5 448/5/5
f 452/4/5 451/4/5 450/4/5
f 453/4/5 451/4/5 452/4/5
f 454/4/5 452/4/5 450/4/5
f 455/4/5 452/4/5 454/4/5
f 459/4/5 457/4/5 456/4/5
f 460/4/5 457/4/5 459/4/5
f 461/4/5 459/4/5 458/4/5
f 462/4/5 459/4/5 461/4/5
f 466/4/5 464/4/5 463/4/5
f 467/4/5 466/4/5 465/4/5
f 468/4/5 464/4/5 466/4/5
f 468/4/5 466/4/5 467/4/5
f 472/4/5 470/4/5 469/4/5
f 473/4/5 470/4/5 472/4/5
f 475/4/5 472/4/5 471/4/5
f 476/4/5 472/4/5 475/4/5
f 477/4/5 474/4/5 473/4/5
f 478/4/5 474/4/5 477/4/5
f 479/4/5 477/4/5 476/4/5
f 480/4/5 477/4/5 479/4/5
f 484/1/5 482/1/5 481/1/5
f 485/1/5 482/1/5 484/1/5
f 486/1/5 482/1/5 485/1/5
f 487/1/5 482/1/5 486/1/5
f 489/1/5 484/1/5 483/1/5
f 489/1/5 485/1/5 484/1/5
f 490/1/5 485/1/5 489/1/5
f 491/1/5 488/1/5 487/1/5
f 491/1/5 487/1/5 486/1/5
f 492/1/5 488/1/5 491/1/5
f 493/1/5 489/1/5 483/1/5
f 496/1/5 488/1/5 492/1/5
f 497/1/5 494/1/5 493/1/5
f 497/1/5 493/1/5 483/1/5
f 498/1/5 494/1/5 497/1/5
f 499/1/5 494/1/5 498/1/5
f 500/1/5 496/1/5 495/1/5
f 501/1/5 488/1/5 496/1/5
f 501/1/5 496/1/5 500/1/5
f 502/1/5 488/1/5 501/1/5
f 503/1/5 499/1/5 498/1/5
f 503/1/5 500/1/5 499/1/5
f 503/1/5 501/1/5 500/1/5
f 504/1/5 501/1/5 503/1/5
f 509/2/5 506/2/5 505/2/5
f 510/2/5 506/2/5 509/2/5
f 512/2/5 508/2/5 507/2/5
f 513/2/5 508/2/5 512/2/5
f 514/3/5 511/3/5 510/3/5
f 515/3/5 511/3/5 514/3/5
f 519/2/5 516/2/5 515/2/5
f 520/2/5 516/2/5 519/2/5
f 523/2/5 518/2/5 517/2/5
f 524/2/5 518/2/5 523/2/5
f 527/3/5 522/3/5 521/3/5
f 528/3/5 522/3/5 527/3/5
f 529/3/5 525/3/5 524/3/5
f 530/3/5 525/3/5 529/3/5
f 533/2/5 527/2/5 526/2/5
f 534/2/5 527/2/5 533/2/5
f 535/2/5 531/2/5 530/2/5
f 536/2/5 531/2/5 535/2/5
f 537/3/5 533/3/5 532/3/5
f 538/3/5 533/3/5 537/3/5
f 541/3/5 540/3/5 539/3/5
f 542/3/5 540/3/5 541/3/5
f 545/3/5 544/3/5 543/3/5
f 546/3/5 544/3/5 545/3/5
f 547/4/6 548/4/6 550/4/6
f 548/4/6 549/4/6 550/4/6
f 550/4/6 549/4/6 551/4/6
f 551/4/6 549/4/6 552/4/6
f 550/4/6 551/4/6 553/4/6
f 553/4/6 551/4/6 554/4/6
f 555/4/6 556/4/6 558/4/6
f 558/4/6 556/4/6 559/4/6
f 557/4/6 558/4/6 560/4/6
f 560/4/6 558/4/6 561/4/6
f 562/4/6 563/4/6 565/4/6
f 564/4/6 565/4/6 566/4/6
f 565/4/6 563/4/6 567/4/6
f 566/4/6 565/4/6 567/4/6
f 568/2/6 569/2/6 570/2/6
f 570/2/6 569/2/6 571/2/6
f 572/3/6 573/3/6 574/3/6
f 574/3/6 573/3/6 575/3/6
f 575/2/6 576/2/6 579/2/6
f 579/2/6 576/2/6 580/2/6
f 577/2/6 578/2/6 581/2/6
f 581/2/6 578/2/6 582/2/6
f 583/3/6 584/3/6 585/3/6
f 585/3/6 584/3/6 586/3/6
f 587/3/6 588/3/6 592/3/6
f 592/3/6 588/3/6 593/3/6
f 589/1/6 590/1/6 594/1/6
f 590/3/6 591/3/6 595/3/6
f 594/1/6 590/1/6 595/1/6
f 595/3/6 591/3/6 596/3/6
f 594/3/6 595/3/6 598/3/6
f 598/3/6 595/3/6 599/3/6
f 596/3/6 597/3/6 600/3/6
f 600/3/6 597/3/6 601/3/6
f 599/3/6 600/3/6 606/3/6
f 601/3/6 597/3/6 607/3/6
f 607/3/6 597/3/6 608/3/6
f 602/3/6 603/3/6 609/3/6
f 604/3/6 605/3/6 610/3/6
f 610/3/6 605/3/6 611/3/6
f 599/3/6 606/3/6 612/3/6
f 612/3/6 606/3/6 613/3/6
f 608/3/6 609/3/6 615/3/6
f 609/3/6 603/3/6 616/3/6
f 615/3/6 609/3/6 616/3/6
f 616/3/6 603/3/6 617/3/6
f 611/3/6 612/3/6 618/3/6
f 618/3/6 612/3/6 619/3/6
f 613/3/6 614/3/6 620/3/6
f 620/3/6 614/3/6 621/3/6
f 615/1/6 616/1/6 622/1/6
f 622/1/6 616/1/6 623/1/6
f 619/1/6 620/1/6 624/1/6
f 620/3/6 621/3/6 625/3/6
f 624/1/6 620/1/6 625/1/6
f 625/3/6 621/3/6 626/3/6
f 627/1/6 628/1/6 630/1/6
f 630/1/6 628/1/6 631/1/6
f 629/1/6 630/1/6 634/1/6
f 634/1/6 630/1/6 635/1/6
f 635/3/6 636/3/6 637/3/6
f 637/3/6 636/3/6 638/3/6
f 631/1/6 632/1/6 639/1/6
f 639/1/6 632/1/6 640/1/6
f 633/1/6 634/1/6 641/1/6
f 641/1/6 634/1/6 642/1/6
f 637/1/6 638/1/6 643/1/6
f 638/1/6 639/1/6 643/1/6
f 643/1/6 639/1/6 644/1/6
f 642/1/6 643/1/6 645/1/6
f 645/1/6 643/1/6 646/1/6
f 644/1/6 639/1/6 647/1/6
f 647/1/6 639/1/6 648/1/6
