# MagicaVoxel @ Ephtracy

# group
o 

# material
mtllib Kitchen Cabinet.mtl
usemtl palette

# normals
vn -1 0 0
vn 1 0 0
vn 0 0 1
vn 0 0 -1
vn 0 -1 0
vn 0 1 0

# texcoords
vt 0.533203 0.5
vt 0.537109 0.5
vt 0.541016 0.5

# verts
v 0 2 -0.2
v 0 2 -1.2
v 0 3.4 -0.2
v 0 3.4 -1.2
v 0.2 2.3 -0.2
v 0.2 2.3 -0.3
v 0.2 3.1 -0.2
v 0.2 3.1 -0.3
v 0.3 2.2 -0.2
v 0.3 2.2 -0.3
v 0.3 2.3 -0.2
v 0.3 2.3 -0.3
v 0.3 3.1 -0.2
v 0.3 3.1 -0.3
v 0.3 3.2 -0.2
v 0.3 3.2 -0.3
v 1 2.3 0
v 1 2.3 -0.2
v 1 2.4 -0.1
v 1 2.4 -0.2
v 1 3 -0.1
v 1 3 -0.2
v 1 3.1 0
v 1 3.1 -0.2
v 1.3 2.1 -0.2
v 1.3 2.1 -0.3
v 1.3 3.3 -0.2
v 1.3 3.3 -0.3
v 1.5 2.3 -0.2
v 1.5 2.3 -0.3
v 1.5 3.1 -0.2
v 1.5 3.1 -0.3
v 1.6 2.2 -0.2
v 1.6 2.2 -0.3
v 1.6 2.3 -0.2
v 1.6 2.3 -0.3
v 1.6 3.1 -0.2
v 1.6 3.1 -0.3
v 1.6 3.2 -0.2
v 1.6 3.2 -0.3
v 2.3 2.3 0
v 2.3 2.3 -0.2
v 2.3 2.4 -0.1
v 2.3 2.4 -0.2
v 2.3 3 -0.1
v 2.3 3 -0.2
v 2.3 3.1 0
v 2.3 3.1 -0.2
v 2.6 2.3 -0.2
v 2.6 2.3 -0.3
v 2.6 3.1 -0.2
v 2.6 3.1 -0.3
v 2.7 2.2 -0.2
v 2.7 2.2 -0.3
v 2.7 2.3 0
v 2.7 2.3 -0.2
v 2.7 2.3 -0.3
v 2.7 2.4 -0.1
v 2.7 2.4 -0.2
v 2.7 3 -0.1
v 2.7 3 -0.2
v 2.7 3.1 0
v 2.7 3.1 -0.2
v 2.7 3.1 -0.3
v 2.7 3.2 -0.2
v 2.7 3.2 -0.3
v 3.7 2.1 -0.2
v 3.7 2.1 -0.3
v 3.7 3.3 -0.2
v 3.7 3.3 -0.3
v 0.1 2.1 -0.2
v 0.1 2.1 -0.3
v 0.1 3.3 -0.2
v 0.1 3.3 -0.3
v 1.1 2.2 -0.2
v 1.1 2.2 -0.3
v 1.1 2.3 0
v 1.1 2.3 -0.2
v 1.1 2.3 -0.3
v 1.1 2.4 -0.1
v 1.1 2.4 -0.2
v 1.1 3 -0.1
v 1.1 3 -0.2
v 1.1 3.1 0
v 1.1 3.1 -0.2
v 1.1 3.1 -0.3
v 1.1 3.2 -0.2
v 1.1 3.2 -0.3
v 1.2 2.3 -0.2
v 1.2 2.3 -0.3
v 1.2 3.1 -0.2
v 1.2 3.1 -0.3
v 1.4 2.1 -0.2
v 1.4 2.1 -0.3
v 1.4 3.3 -0.2
v 1.4 3.3 -0.3
v 2.4 2.2 -0.2
v 2.4 2.2 -0.3
v 2.4 2.3 0
v 2.4 2.3 -0.2
v 2.4 2.3 -0.3
v 2.4 2.4 -0.1
v 2.4 2.4 -0.2
v 2.4 3 -0.1
v 2.4 3 -0.2
v 2.4 3.1 0
v 2.4 3.1 -0.2
v 2.4 3.1 -0.3
v 2.4 3.2 -0.2
v 2.4 3.2 -0.3
v 2.5 2.3 -0.2
v 2.5 2.3 -0.3
v 2.5 3.1 -0.2
v 2.5 3.1 -0.3
v 2.8 2.3 0
v 2.8 2.3 -0.2
v 2.8 2.4 -0.1
v 2.8 2.4 -0.2
v 2.8 3 -0.1
v 2.8 3 -0.2
v 2.8 3.1 0
v 2.8 3.1 -0.2
v 3.5 2.2 -0.2
v 3.5 2.2 -0.3
v 3.5 2.3 -0.2
v 3.5 2.3 -0.3
v 3.5 3.1 -0.2
v 3.5 3.1 -0.3
v 3.5 3.2 -0.2
v 3.5 3.2 -0.3
v 3.6 2.3 -0.2
v 3.6 2.3 -0.3
v 3.6 3.1 -0.2
v 3.6 3.1 -0.3
v 3.8 2 -0.2
v 3.8 2 -1.2
v 3.8 3.4 -0.2
v 3.8 3.4 -1.2
v 1 2.3 0
v 1 3.1 0
v 1.1 2.3 0
v 1.1 3.1 0
v 2.3 2.3 0
v 2.3 3.1 0
v 2.4 2.3 0
v 2.4 3.1 0
v 2.7 2.3 0
v 2.7 3.1 0
v 2.8 2.3 0
v 2.8 3.1 0
v 0 2 -0.2
v 0 3.4 -0.2
v 0.1 2.1 -0.2
v 0.1 3.3 -0.2
v 0.2 2.3 -0.2
v 0.2 3.1 -0.2
v 0.3 2.2 -0.2
v 0.3 2.3 -0.2
v 0.3 3.1 -0.2
v 0.3 3.2 -0.2
v 1 2.3 -0.2
v 1 2.4 -0.2
v 1 3 -0.2
v 1 3.1 -0.2
v 1.1 2.2 -0.2
v 1.1 2.3 -0.2
v 1.1 2.4 -0.2
v 1.1 3 -0.2
v 1.1 3.1 -0.2
v 1.1 3.2 -0.2
v 1.2 2.3 -0.2
v 1.2 3.1 -0.2
v 1.3 2.1 -0.2
v 1.3 3.3 -0.2
v 1.4 2.1 -0.2
v 1.4 3.3 -0.2
v 1.5 2.3 -0.2
v 1.5 3.1 -0.2
v 1.6 2.2 -0.2
v 1.6 2.3 -0.2
v 1.6 3.1 -0.2
v 1.6 3.2 -0.2
v 2.3 2.3 -0.2
v 2.3 2.4 -0.2
v 2.3 3 -0.2
v 2.3 3.1 -0.2
v 2.4 2.2 -0.2
v 2.4 2.3 -0.2
v 2.4 2.4 -0.2
v 2.4 3 -0.2
v 2.4 3.1 -0.2
v 2.4 3.2 -0.2
v 2.5 2.3 -0.2
v 2.5 3.1 -0.2
v 2.6 2.3 -0.2
v 2.6 3.1 -0.2
v 2.7 2.2 -0.2
v 2.7 2.3 -0.2
v 2.7 2.4 -0.2
v 2.7 3 -0.2
v 2.7 3.1 -0.2
v 2.7 3.2 -0.2
v 2.8 2.3 -0.2
v 2.8 2.4 -0.2
v 2.8 3 -0.2
v 2.8 3.1 -0.2
v 3.5 2.2 -0.2
v 3.5 2.3 -0.2
v 3.5 3.1 -0.2
v 3.5 3.2 -0.2
v 3.6 2.3 -0.2
v 3.6 3.1 -0.2
v 3.7 2.1 -0.2
v 3.7 3.3 -0.2
v 3.8 2 -0.2
v 3.8 3.4 -0.2
v 0.1 2.1 -0.3
v 0.1 3.3 -0.3
v 0.2 2.3 -0.3
v 0.2 3.1 -0.3
v 0.3 2.2 -0.3
v 0.3 2.3 -0.3
v 0.3 3.1 -0.3
v 0.3 3.2 -0.3
v 1.1 2.2 -0.3
v 1.1 2.3 -0.3
v 1.1 3.1 -0.3
v 1.1 3.2 -0.3
v 1.2 2.3 -0.3
v 1.2 3.1 -0.3
v 1.3 2.1 -0.3
v 1.3 3.3 -0.3
v 1.4 2.1 -0.3
v 1.4 3.3 -0.3
v 1.5 2.3 -0.3
v 1.5 3.1 -0.3
v 1.6 2.2 -0.3
v 1.6 2.3 -0.3
v 1.6 3.1 -0.3
v 1.6 3.2 -0.3
v 2.4 2.2 -0.3
v 2.4 2.3 -0.3
v 2.4 3.1 -0.3
v 2.4 3.2 -0.3
v 2.5 2.3 -0.3
v 2.5 3.1 -0.3
v 2.6 2.3 -0.3
v 2.6 3.1 -0.3
v 2.7 2.2 -0.3
v 2.7 2.3 -0.3
v 2.7 3.1 -0.3
v 2.7 3.2 -0.3
v 3.5 2.2 -0.3
v 3.5 2.3 -0.3
v 3.5 3.1 -0.3
v 3.5 3.2 -0.3
v 3.6 2.3 -0.3
v 3.6 3.1 -0.3
v 3.7 2.1 -0.3
v 3.7 3.3 -0.3
v 1 2.4 -0.1
v 1 3 -0.1
v 1.1 2.4 -0.1
v 1.1 3 -0.1
v 2.3 2.4 -0.1
v 2.3 3 -0.1
v 2.4 2.4 -0.1
v 2.4 3 -0.1
v 2.7 2.4 -0.1
v 2.7 3 -0.1
v 2.8 2.4 -0.1
v 2.8 3 -0.1
v 0 2 -1.2
v 0 3.4 -1.2
v 3.8 2 -1.2
v 3.8 3.4 -1.2
v 0 2 -0.2
v 3.8 2 -0.2
v 0 2 -1.2
v 3.8 2 -1.2
v 0.3 2.2 -0.2
v 1.1 2.2 -0.2
v 1.6 2.2 -0.2
v 2.4 2.2 -0.2
v 2.7 2.2 -0.2
v 3.5 2.2 -0.2
v 0.3 2.2 -0.3
v 1.1 2.2 -0.3
v 1.6 2.2 -0.3
v 2.4 2.2 -0.3
v 2.7 2.2 -0.3
v 3.5 2.2 -0.3
v 1 2.3 0
v 1.1 2.3 0
v 2.3 2.3 0
v 2.4 2.3 0
v 2.7 2.3 0
v 2.8 2.3 0
v 0.2 2.3 -0.2
v 0.3 2.3 -0.2
v 1 2.3 -0.2
v 1.1 2.3 -0.2
v 1.2 2.3 -0.2
v 1.5 2.3 -0.2
v 1.6 2.3 -0.2
v 2.3 2.3 -0.2
v 2.4 2.3 -0.2
v 2.5 2.3 -0.2
v 2.6 2.3 -0.2
v 2.7 2.3 -0.2
v 2.8 2.3 -0.2
v 3.5 2.3 -0.2
v 3.6 2.3 -0.2
v 0.2 2.3 -0.3
v 0.3 2.3 -0.3
v 1.1 2.3 -0.3
v 1.2 2.3 -0.3
v 1.5 2.3 -0.3
v 1.6 2.3 -0.3
v 2.4 2.3 -0.3
v 2.5 2.3 -0.3
v 2.6 2.3 -0.3
v 2.7 2.3 -0.3
v 3.5 2.3 -0.3
v 3.6 2.3 -0.3
v 1 3 -0.1
v 1.1 3 -0.1
v 2.3 3 -0.1
v 2.4 3 -0.1
v 2.7 3 -0.1
v 2.8 3 -0.1
v 1 3 -0.2
v 1.1 3 -0.2
v 2.3 3 -0.2
v 2.4 3 -0.2
v 2.7 3 -0.2
v 2.8 3 -0.2
v 0.1 3.3 -0.2
v 1.3 3.3 -0.2
v 1.4 3.3 -0.2
v 3.7 3.3 -0.2
v 0.1 3.3 -0.3
v 1.3 3.3 -0.3
v 1.4 3.3 -0.3
v 3.7 3.3 -0.3
v 0.1 2.1 -0.2
v 1.3 2.1 -0.2
v 1.4 2.1 -0.2
v 3.7 2.1 -0.2
v 0.1 2.1 -0.3
v 1.3 2.1 -0.3
v 1.4 2.1 -0.3
v 3.7 2.1 -0.3
v 1 2.4 -0.1
v 1.1 2.4 -0.1
v 2.3 2.4 -0.1
v 2.4 2.4 -0.1
v 2.7 2.4 -0.1
v 2.8 2.4 -0.1
v 1 2.4 -0.2
v 1.1 2.4 -0.2
v 2.3 2.4 -0.2
v 2.4 2.4 -0.2
v 2.7 2.4 -0.2
v 2.8 2.4 -0.2
v 1 3.1 0
v 1.1 3.1 0
v 2.3 3.1 0
v 2.4 3.1 0
v 2.7 3.1 0
v 2.8 3.1 0
v 0.2 3.1 -0.2
v 0.3 3.1 -0.2
v 1 3.1 -0.2
v 1.1 3.1 -0.2
v 1.2 3.1 -0.2
v 1.5 3.1 -0.2
v 1.6 3.1 -0.2
v 2.3 3.1 -0.2
v 2.4 3.1 -0.2
v 2.5 3.1 -0.2
v 2.6 3.1 -0.2
v 2.7 3.1 -0.2
v 2.8 3.1 -0.2
v 3.5 3.1 -0.2
v 3.6 3.1 -0.2
v 0.2 3.1 -0.3
v 0.3 3.1 -0.3
v 1.1 3.1 -0.3
v 1.2 3.1 -0.3
v 1.5 3.1 -0.3
v 1.6 3.1 -0.3
v 2.4 3.1 -0.3
v 2.5 3.1 -0.3
v 2.6 3.1 -0.3
v 2.7 3.1 -0.3
v 3.5 3.1 -0.3
v 3.6 3.1 -0.3
v 0.3 3.2 -0.2
v 1.1 3.2 -0.2
v 1.6 3.2 -0.2
v 2.4 3.2 -0.2
v 2.7 3.2 -0.2
v 3.5 3.2 -0.2
v 0.3 3.2 -0.3
v 1.1 3.2 -0.3
v 1.6 3.2 -0.3
v 2.4 3.2 -0.3
v 2.7 3.2 -0.3
v 3.5 3.2 -0.3
v 0 3.4 -0.2
v 3.8 3.4 -0.2
v 0 3.4 -1.2
v 3.8 3.4 -1.2

# faces
f 3/3/1 2/3/1 1/3/1
f 4/3/1 2/3/1 3/3/1
f 7/1/1 6/1/1 5/1/1
f 8/1/1 6/1/1 7/1/1
f 11/1/1 10/1/1 9/1/1
f 12/1/1 10/1/1 11/1/1
f 15/1/1 14/1/1 13/1/1
f 16/1/1 14/1/1 15/1/1
f 19/2/1 18/2/1 17/2/1
f 20/2/1 18/2/1 19/2/1
f 21/2/1 19/2/1 17/2/1
f 23/2/1 21/2/1 17/2/1
f 23/2/1 22/2/1 21/2/1
f 24/2/1 22/2/1 23/2/1
f 27/3/1 26/3/1 25/3/1
f 28/3/1 26/3/1 27/3/1
f 31/1/1 30/1/1 29/1/1
f 32/1/1 30/1/1 31/1/1
f 35/1/1 34/1/1 33/1/1
f 36/1/1 34/1/1 35/1/1
f 39/1/1 38/1/1 37/1/1
f 40/1/1 38/1/1 39/1/1
f 43/2/1 42/2/1 41/2/1
f 44/2/1 42/2/1 43/2/1
f 45/2/1 43/2/1 41/2/1
f 47/2/1 45/2/1 41/2/1
f 47/2/1 46/2/1 45/2/1
f 48/2/1 46/2/1 47/2/1
f 51/1/1 50/1/1 49/1/1
f 52/1/1 50/1/1 51/1/1
f 56/1/1 54/1/1 53/1/1
f 57/1/1 54/1/1 56/1/1
f 58/2/1 56/2/1 55/2/1
f 59/2/1 56/2/1 58/2/1
f 60/2/1 58/2/1 55/2/1
f 62/2/1 60/2/1 55/2/1
f 62/2/1 61/2/1 60/2/1
f 63/2/1 61/2/1 62/2/1
f 65/1/1 64/1/1 63/1/1
f 66/1/1 64/1/1 65/1/1
f 69/3/1 68/3/1 67/3/1
f 70/3/1 68/3/1 69/3/1
f 71/3/2 72/3/2 73/3/2
f 73/3/2 72/3/2 74/3/2
f 75/1/2 76/1/2 78/1/2
f 78/1/2 76/1/2 79/1/2
f 77/2/2 78/2/2 80/2/2
f 80/2/2 78/2/2 81/2/2
f 77/2/2 80/2/2 82/2/2
f 77/2/2 82/2/2 84/2/2
f 82/2/2 83/2/2 84/2/2
f 84/2/2 83/2/2 85/2/2
f 85/1/2 86/1/2 87/1/2
f 87/1/2 86/1/2 88/1/2
f 89/1/2 90/1/2 91/1/2
f 91/1/2 90/1/2 92/1/2
f 93/3/2 94/3/2 95/3/2
f 95/3/2 94/3/2 96/3/2
f 97/1/2 98/1/2 100/1/2
f 100/1/2 98/1/2 101/1/2
f 99/2/2 100/2/2 102/2/2
f 102/2/2 100/2/2 103/2/2
f 99/2/2 102/2/2 104/2/2
f 99/2/2 104/2/2 106/2/2
f 104/2/2 105/2/2 106/2/2
f 106/2/2 105/2/2 107/2/2
f 107/1/2 108/1/2 109/1/2
f 109/1/2 108/1/2 110/1/2
f 111/1/2 112/1/2 113/1/2
f 113/1/2 112/1/2 114/1/2
f 115/2/2 116/2/2 117/2/2
f 117/2/2 116/2/2 118/2/2
f 115/2/2 117/2/2 119/2/2
f 115/2/2 119/2/2 121/2/2
f 119/2/2 120/2/2 121/2/2
f 121/2/2 120/2/2 122/2/2
f 123/1/2 124/1/2 125/1/2
f 125/1/2 124/1/2 126/1/2
f 127/1/2 128/1/2 129/1/2
f 129/1/2 128/1/2 130/1/2
f 131/1/2 132/1/2 133/1/2
f 133/1/2 132/1/2 134/1/2
f 135/3/2 136/3/2 137/3/2
f 137/3/2 136/3/2 138/3/2
f 141/2/3 140/2/3 139/2/3
f 142/2/3 140/2/3 141/2/3
f 145/2/3 144/2/3 143/2/3
f 146/2/3 144/2/3 145/2/3
f 149/2/3 148/2/3 147/2/3
f 150/2/3 148/2/3 149/2/3
f 153/3/3 152/3/3 151/3/3
f 154/3/3 152/3/3 153/3/3
f 158/1/3 156/1/3 155/1/3
f 159/1/3 156/1/3 158/1/3
f 161/1/3 158/1/3 157/1/3
f 161/1/3 160/1/3 159/1/3
f 161/1/3 159/1/3 158/1/3
f 162/1/3 160/1/3 161/1/3
f 163/1/3 160/1/3 162/1/3
f 164/1/3 160/1/3 163/1/3
f 165/1/3 161/1/3 157/1/3
f 166/1/3 161/1/3 165/1/3
f 167/1/3 163/1/3 162/1/3
f 168/1/3 163/1/3 167/1/3
f 169/1/3 160/1/3 164/1/3
f 170/1/3 160/1/3 169/1/3
f 171/1/3 168/1/3 167/1/3
f 171/1/3 169/1/3 168/1/3
f 171/1/3 167/1/3 166/1/3
f 172/1/3 169/1/3 171/1/3
f 173/3/3 153/3/3 151/3/3
f 174/3/3 152/3/3 154/3/3
f 175/3/3 173/3/3 151/3/3
f 175/3/3 174/3/3 173/3/3
f 176/3/3 152/3/3 174/3/3
f 176/3/3 174/3/3 175/3/3
f 180/1/3 178/1/3 177/1/3
f 181/1/3 178/1/3 180/1/3
f 183/1/3 180/1/3 179/1/3
f 183/1/3 182/1/3 181/1/3
f 183/1/3 181/1/3 180/1/3
f 184/1/3 182/1/3 183/1/3
f 185/1/3 182/1/3 184/1/3
f 186/1/3 182/1/3 185/1/3
f 187/1/3 183/1/3 179/1/3
f 188/1/3 183/1/3 187/1/3
f 189/1/3 185/1/3 184/1/3
f 190/1/3 185/1/3 189/1/3
f 191/1/3 182/1/3 186/1/3
f 192/1/3 182/1/3 191/1/3
f 193/1/3 190/1/3 189/1/3
f 193/1/3 191/1/3 190/1/3
f 193/1/3 189/1/3 188/1/3
f 194/1/3 191/1/3 193/1/3
f 198/1/3 196/1/3 195/1/3
f 199/1/3 196/1/3 198/1/3
f 200/1/3 196/1/3 199/1/3
f 201/1/3 196/1/3 200/1/3
f 203/1/3 198/1/3 197/1/3
f 204/1/3 200/1/3 199/1/3
f 205/1/3 200/1/3 204/1/3
f 206/1/3 202/1/3 201/1/3
f 207/1/3 205/1/3 204/1/3
f 207/1/3 206/1/3 205/1/3
f 207/1/3 203/1/3 197/1/3
f 207/1/3 204/1/3 203/1/3
f 208/1/3 206/1/3 207/1/3
f 209/1/3 202/1/3 206/1/3
f 209/1/3 206/1/3 208/1/3
f 210/1/3 202/1/3 209/1/3
f 211/1/3 209/1/3 208/1/3
f 212/1/3 209/1/3 211/1/3
f 213/3/3 175/3/3 151/3/3
f 214/3/3 152/3/3 176/3/3
f 215/3/3 213/3/3 151/3/3
f 215/3/3 214/3/3 213/3/3
f 216/3/3 152/3/3 214/3/3
f 216/3/3 214/3/3 215/3/3
f 219/1/3 218/1/3 217/1/3
f 220/1/3 218/1/3 219/1/3
f 221/1/3 219/1/3 217/1/3
f 222/1/3 219/1/3 221/1/3
f 223/1/3 218/1/3 220/1/3
f 224/1/3 218/1/3 223/1/3
f 225/1/3 221/1/3 217/1/3
f 228/1/3 218/1/3 224/1/3
f 229/1/3 226/1/3 225/1/3
f 230/1/3 228/1/3 227/1/3
f 231/1/3 229/1/3 225/1/3
f 231/1/3 230/1/3 229/1/3
f 231/1/3 225/1/3 217/1/3
f 232/1/3 228/1/3 230/1/3
f 232/1/3 230/1/3 231/1/3
f 232/1/3 218/1/3 228/1/3
f 235/1/3 234/1/3 233/1/3
f 236/1/3 234/1/3 235/1/3
f 237/1/3 235/1/3 233/1/3
f 238/1/3 235/1/3 237/1/3
f 239/1/3 234/1/3 236/1/3
f 240/1/3 234/1/3 239/1/3
f 241/1/3 237/1/3 233/1/3
f 244/1/3 234/1/3 240/1/3
f 245/1/3 242/1/3 241/1/3
f 246/1/3 244/1/3 243/1/3
f 247/1/3 245/1/3 241/1/3
f 247/1/3 246/1/3 245/1/3
f 248/1/3 244/1/3 246/1/3
f 248/1/3 246/1/3 247/1/3
f 249/1/3 247/1/3 241/1/3
f 249/1/3 241/1/3 233/1/3
f 250/1/3 247/1/3 249/1/3
f 251/1/3 244/1/3 248/1/3
f 252/1/3 234/1/3 244/1/3
f 252/1/3 244/1/3 251/1/3
f 253/1/3 249/1/3 233/1/3
f 256/1/3 234/1/3 252/1/3
f 257/1/3 254/1/3 253/1/3
f 258/1/3 256/1/3 255/1/3
f 259/1/3 257/1/3 253/1/3
f 259/1/3 258/1/3 257/1/3
f 259/1/3 253/1/3 233/1/3
f 260/1/3 256/1/3 258/1/3
f 260/1/3 258/1/3 259/1/3
f 260/1/3 234/1/3 256/1/3
f 261/2/4 262/2/4 263/2/4
f 263/2/4 262/2/4 264/2/4
f 265/2/4 266/2/4 267/2/4
f 267/2/4 266/2/4 268/2/4
f 269/2/4 270/2/4 271/2/4
f 271/2/4 270/2/4 272/2/4
f 273/3/4 274/3/4 275/3/4
f 275/3/4 274/3/4 276/3/4
f 279/3/5 278/3/5 277/3/5
f 280/3/5 278/3/5 279/3/5
f 287/1/5 282/1/5 281/1/5
f 288/1/5 282/1/5 287/1/5
f 289/1/5 284/1/5 283/1/5
f 290/1/5 284/1/5 289/1/5
f 291/1/5 286/1/5 285/1/5
f 292/1/5 286/1/5 291/1/5
f 301/2/5 294/2/5 293/2/5
f 302/2/5 294/2/5 301/2/5
f 306/2/5 296/2/5 295/2/5
f 307/2/5 296/2/5 306/2/5
f 310/2/5 298/2/5 297/2/5
f 311/2/5 298/2/5 310/2/5
f 314/1/5 300/1/5 299/1/5
f 315/1/5 300/1/5 314/1/5
f 316/1/5 303/1/5 302/1/5
f 317/1/5 303/1/5 316/1/5
f 318/1/5 305/1/5 304/1/5
f 319/1/5 305/1/5 318/1/5
f 320/1/5 308/1/5 307/1/5
f 321/1/5 308/1/5 320/1/5
f 322/1/5 310/1/5 309/1/5
f 323/1/5 310/1/5 322/1/5
f 324/1/5 313/1/5 312/1/5
f 325/1/5 313/1/5 324/1/5
f 332/2/5 327/2/5 326/2/5
f 333/2/5 327/2/5 332/2/5
f 334/2/5 329/2/5 328/2/5
f 335/2/5 329/2/5 334/2/5
f 336/2/5 331/2/5 330/2/5
f 337/2/5 331/2/5 336/2/5
f 342/3/5 339/3/5 338/3/5
f 343/3/5 339/3/5 342/3/5
f 344/3/5 341/3/5 340/3/5
f 345/3/5 341/3/5 344/3/5
f 346/3/6 347/3/6 350/3/6
f 350/3/6 347/3/6 351/3/6
f 348/3/6 349/3/6 352/3/6
f 352/3/6 349/3/6 353/3/6
f 354/2/6 355/2/6 360/2/6
f 360/2/6 355/2/6 361/2/6
f 356/2/6 357/2/6 362/2/6
f 362/2/6 357/2/6 363/2/6
f 358/2/6 359/2/6 364/2/6
f 364/2/6 359/2/6 365/2/6
f 366/2/6 367/2/6 374/2/6
f 374/2/6 367/2/6 375/2/6
f 368/2/6 369/2/6 379/2/6
f 379/2/6 369/2/6 380/2/6
f 370/2/6 371/2/6 383/2/6
f 383/2/6 371/2/6 384/2/6
f 372/1/6 373/1/6 387/1/6
f 387/1/6 373/1/6 388/1/6
f 375/1/6 376/1/6 389/1/6
f 389/1/6 376/1/6 390/1/6
f 377/1/6 378/1/6 391/1/6
f 391/1/6 378/1/6 392/1/6
f 380/1/6 381/1/6 393/1/6
f 393/1/6 381/1/6 394/1/6
f 382/1/6 383/1/6 395/1/6
f 395/1/6 383/1/6 396/1/6
f 385/1/6 386/1/6 397/1/6
f 397/1/6 386/1/6 398/1/6
f 399/1/6 400/1/6 405/1/6
f 405/1/6 400/1/6 406/1/6
f 401/1/6 402/1/6 407/1/6
f 407/1/6 402/1/6 408/1/6
f 403/1/6 404/1/6 409/1/6
f 409/1/6 404/1/6 410/1/6
f 411/3/6 412/3/6 413/3/6
f 413/3/6 412/3/6 414/3/6
