# MagicaVoxel @ Ephtracy

# group
o 

# material
mtllib Kitchen Window.mtl
usemtl palette

# normals
vn -1 0 0
vn 1 0 0
vn 0 0 1
vn 0 0 -1
vn 0 -1 0
vn 0 1 0

# texcoords
vt 0.00976563 0.5
vt 0.283203 0.5
vt 0.373047 0.5
vt 0.841797 0.5
vt 0.958984 0.5

# verts
v 0 2 -0.1
v 0 2 -0.2
v 0 2 -0.3
v 0 2 -0.5
v 0 2 -1.5
v 0 2 -1.7
v 0 2 -1.8
v 0 2 -1.9
v 0 4 -0.1
v 0 4 -0.2
v 0 4 -0.3
v 0 4 -0.5
v 0 4 -1.5
v 0 4 -1.7
v 0 4 -1.8
v 0 4 -1.9
v 0.1 2 0
v 0.1 2 -0.1
v 0.1 2 -0.2
v 0.1 2 -0.3
v 0.1 2 -0.5
v 0.1 2 -0.6
v 0.1 2 -1.4
v 0.1 2 -1.5
v 0.1 2 -1.7
v 0.1 2 -1.8
v 0.1 2 -1.9
v 0.1 2 -2
v 0.1 4 0
v 0.1 4 -0.1
v 0.1 4 -0.2
v 0.1 4 -0.3
v 0.1 4 -0.5
v 0.1 4 -0.6
v 0.1 4 -1.4
v 0.1 4 -1.5
v 0.1 4 -1.7
v 0.1 4 -1.8
v 0.1 4 -1.9
v 0.1 4 -2
v 0.2 2 -0.6
v 0.2 2 -1.4
v 0.2 2.1 -0.6
v 0.2 2.1 -0.9
v 0.2 2.1 -1.1
v 0.2 2.1 -1.4
v 0.2 2.9 -0.9
v 0.2 2.9 -1.1
v 0.2 3 -0.9
v 0.2 3 -1.1
v 0.2 3.9 -0.6
v 0.2 3.9 -0.9
v 0.2 3.9 -1.1
v 0.2 3.9 -1.4
v 0.2 4 -0.6
v 0.2 4 -1.4
v 0.3 2.1 -0.1
v 0.3 2.1 -0.9
v 0.3 2.1 -1.1
v 0.3 2.1 -1.9
v 0.3 2.9 -0.9
v 0.3 2.9 -1.1
v 0.3 3 -0.9
v 0.3 3 -1.1
v 0.3 3.9 -0.1
v 0.3 3.9 -0.9
v 0.3 3.9 -1.1
v 0.3 3.9 -1.9
v 0.2 2.1 -0.1
v 0.2 2.1 -0.2
v 0.2 2.1 -0.3
v 0.2 2.1 -0.5
v 0.2 2.1 -0.6
v 0.2 2.1 -1.4
v 0.2 2.1 -1.5
v 0.2 2.1 -1.7
v 0.2 2.1 -1.8
v 0.2 2.1 -1.9
v 0.2 3.9 -0.1
v 0.2 3.9 -0.2
v 0.2 3.9 -0.3
v 0.2 3.9 -0.5
v 0.2 3.9 -0.6
v 0.2 3.9 -1.4
v 0.2 3.9 -1.5
v 0.2 3.9 -1.7
v 0.2 3.9 -1.8
v 0.2 3.9 -1.9
v 0.5 2 0
v 0.5 2 -2
v 0.5 4 0
v 0.5 4 -2
v 0.1 2 0
v 0.1 4 0
v 0.2 2 0
v 0.2 4 0
v 0.5 2 0
v 0.5 4 0
v 0 2 -0.1
v 0 4 -0.1
v 0.1 2 -0.1
v 0.1 4 -0.1
v 0 2 -0.3
v 0 4 -0.3
v 0.1 2 -0.3
v 0.1 4 -0.3
v 0.2 2.1 -0.9
v 0.2 2.9 -0.9
v 0.2 3 -0.9
v 0.2 3.9 -0.9
v 0.3 2.1 -0.9
v 0.3 2.9 -0.9
v 0.3 3 -0.9
v 0.3 3.9 -0.9
v 0.1 2 -1.4
v 0.1 4 -1.4
v 0.2 2 -1.4
v 0.2 2.1 -1.4
v 0.2 3.9 -1.4
v 0.2 4 -1.4
v 0 2 -1.5
v 0 4 -1.5
v 0.1 2 -1.5
v 0.1 4 -1.5
v 0 2 -1.8
v 0 4 -1.8
v 0.1 2 -1.8
v 0.1 4 -1.8
v 0.2 2.1 -1.9
v 0.2 3.9 -1.9
v 0.3 2.1 -1.9
v 0.3 3.9 -1.9
v 0.2 2.1 -0.1
v 0.2 3.9 -0.1
v 0.3 2.1 -0.1
v 0.3 3.9 -0.1
v 0 2 -0.2
v 0 4 -0.2
v 0.1 2 -0.2
v 0.1 4 -0.2
v 0 2 -0.5
v 0 4 -0.5
v 0.1 2 -0.5
v 0.1 4 -0.5
v 0.1 2 -0.6
v 0.1 4 -0.6
v 0.2 2 -0.6
v 0.2 2.1 -0.6
v 0.2 3.9 -0.6
v 0.2 4 -0.6
v 0.2 2.1 -1.1
v 0.2 2.9 -1.1
v 0.2 3 -1.1
v 0.2 3.9 -1.1
v 0.3 2.1 -1.1
v 0.3 2.9 -1.1
v 0.3 3 -1.1
v 0.3 3.9 -1.1
v 0 2 -1.7
v 0 4 -1.7
v 0.1 2 -1.7
v 0.1 4 -1.7
v 0 2 -1.9
v 0 4 -1.9
v 0.1 2 -1.9
v 0.1 4 -1.9
v 0.1 2 -2
v 0.1 4 -2
v 0.2 2 -2
v 0.2 4 -2
v 0.5 2 -2
v 0.5 4 -2
v 0.1 2 0
v 0.2 2 0
v 0.5 2 0
v 0 2 -0.1
v 0.1 2 -0.1
v 0.2 2 -0.1
v 0 2 -0.2
v 0.1 2 -0.2
v 0.2 2 -0.2
v 0 2 -0.3
v 0.1 2 -0.3
v 0.2 2 -0.3
v 0 2 -0.5
v 0.1 2 -0.5
v 0.2 2 -0.5
v 0.1 2 -0.6
v 0.2 2 -0.6
v 0.1 2 -1.4
v 0.2 2 -1.4
v 0 2 -1.5
v 0.1 2 -1.5
v 0.2 2 -1.5
v 0 2 -1.7
v 0.1 2 -1.7
v 0.2 2 -1.7
v 0 2 -1.8
v 0.1 2 -1.8
v 0.2 2 -1.8
v 0 2 -1.9
v 0.1 2 -1.9
v 0.2 2 -1.9
v 0.1 2 -2
v 0.2 2 -2
v 0.5 2 -2
v 0.2 3.9 -0.1
v 0.3 3.9 -0.1
v 0.2 3.9 -0.2
v 0.2 3.9 -0.3
v 0.2 3.9 -0.5
v 0.2 3.9 -0.6
v 0.2 3.9 -0.9
v 0.3 3.9 -0.9
v 0.2 3.9 -1.1
v 0.3 3.9 -1.1
v 0.2 3.9 -1.4
v 0.2 3.9 -1.5
v 0.2 3.9 -1.7
v 0.2 3.9 -1.8
v 0.2 3.9 -1.9
v 0.3 3.9 -1.9
v 0.2 2.1 -0.1
v 0.3 2.1 -0.1
v 0.2 2.1 -0.2
v 0.2 2.1 -0.3
v 0.2 2.1 -0.5
v 0.2 2.1 -0.6
v 0.2 2.1 -0.9
v 0.3 2.1 -0.9
v 0.2 2.1 -1.1
v 0.3 2.1 -1.1
v 0.2 2.1 -1.4
v 0.2 2.1 -1.5
v 0.2 2.1 -1.7
v 0.2 2.1 -1.8
v 0.2 2.1 -1.9
v 0.3 2.1 -1.9
v 0.1 4 0
v 0.2 4 0
v 0.5 4 0
v 0 4 -0.1
v 0.1 4 -0.1
v 0.2 4 -0.1
v 0 4 -0.2
v 0.1 4 -0.2
v 0.2 4 -0.2
v 0 4 -0.3
v 0.1 4 -0.3
v 0.2 4 -0.3
v 0 4 -0.5
v 0.1 4 -0.5
v 0.2 4 -0.5
v 0.1 4 -0.6
v 0.2 4 -0.6
v 0.1 4 -1.4
v 0.2 4 -1.4
v 0 4 -1.5
v 0.1 4 -1.5
v 0.2 4 -1.5
v 0 4 -1.7
v 0.1 4 -1.7
v 0.2 4 -1.7
v 0 4 -1.8
v 0.1 4 -1.8
v 0.2 4 -1.8
v 0 4 -1.9
v 0.1 4 -1.9
v 0.2 4 -1.9
v 0.1 4 -2
v 0.2 4 -2
v 0.5 4 -2

# faces
f 9/3/1 2/3/1 1/3/1
f 10/3/1 2/3/1 9/3/1
f 11/1/1 4/1/1 3/1/1
f 12/1/1 4/1/1 11/1/1
f 13/1/1 6/1/1 5/1/1
f 14/1/1 6/1/1 13/1/1
f 15/3/1 8/3/1 7/3/1
f 16/3/1 8/3/1 15/3/1
f 29/2/1 18/2/1 17/2/1
f 30/2/1 18/2/1 29/2/1
f 31/2/1 20/2/1 19/2/1
f 32/2/1 20/2/1 31/2/1
f 33/2/1 22/2/1 21/2/1
f 34/2/1 22/2/1 33/2/1
f 35/2/1 24/2/1 23/2/1
f 36/2/1 24/2/1 35/2/1
f 37/2/1 26/2/1 25/2/1
f 38/2/1 26/2/1 37/2/1
f 39/2/1 28/2/1 27/2/1
f 40/2/1 28/2/1 39/2/1
f 43/5/1 42/5/1 41/5/1
f 44/5/1 42/5/1 43/5/1
f 45/5/1 42/5/1 44/5/1
f 46/5/1 42/5/1 45/5/1
f 47/5/1 45/5/1 44/5/1
f 48/5/1 45/5/1 47/5/1
f 49/4/1 48/4/1 47/4/1
f 50/4/1 48/4/1 49/4/1
f 52/5/1 50/5/1 49/5/1
f 53/5/1 50/5/1 52/5/1
f 55/5/1 53/5/1 52/5/1
f 55/5/1 54/5/1 53/5/1
f 55/5/1 52/5/1 51/5/1
f 56/5/1 54/5/1 55/5/1
f 61/5/1 58/5/1 57/5/1
f 62/5/1 60/5/1 59/5/1
f 63/5/1 61/5/1 57/5/1
f 64/5/1 60/5/1 62/5/1
f 65/5/1 63/5/1 57/5/1
f 66/5/1 63/5/1 65/5/1
f 67/5/1 60/5/1 64/5/1
f 68/5/1 60/5/1 67/5/1
f 69/5/2 70/5/2 79/5/2
f 70/2/2 71/2/2 80/2/2
f 79/5/2 70/5/2 80/5/2
f 71/5/2 72/5/2 81/5/2
f 80/2/2 71/2/2 81/2/2
f 72/2/2 73/2/2 82/2/2
f 81/5/2 72/5/2 82/5/2
f 82/2/2 73/2/2 83/2/2
f 74/2/2 75/2/2 84/2/2
f 75/5/2 76/5/2 85/5/2
f 84/2/2 75/2/2 85/2/2
f 76/2/2 77/2/2 86/2/2
f 85/5/2 76/5/2 86/5/2
f 77/5/2 78/5/2 87/5/2
f 86/2/2 77/2/2 87/2/2
f 87/5/2 78/5/2 88/5/2
f 89/5/2 90/5/2 91/5/2
f 91/5/2 90/5/2 92/5/2
f 95/2/3 94/2/3 93/2/3
f 96/2/3 94/2/3 95/2/3
f 97/5/3 96/5/3 95/5/3
f 98/5/3 96/5/3 97/5/3
f 101/3/3 100/3/3 99/3/3
f 102/3/3 100/3/3 101/3/3
f 105/1/3 104/1/3 103/1/3
f 106/1/3 104/1/3 105/1/3
f 111/5/3 108/5/3 107/5/3
f 112/4/3 109/4/3 108/4/3
f 112/5/3 108/5/3 111/5/3
f 113/5/3 110/5/3 109/5/3
f 113/4/3 109/4/3 112/4/3
f 114/5/3 110/5/3 113/5/3
f 117/2/3 116/2/3 115/2/3
f 118/2/3 116/2/3 117/2/3
f 119/2/3 116/2/3 118/2/3
f 120/2/3 116/2/3 119/2/3
f 123/1/3 122/1/3 121/1/3
f 124/1/3 122/1/3 123/1/3
f 127/3/3 126/3/3 125/3/3
f 128/3/3 126/3/3 127/3/3
f 131/5/3 130/5/3 129/5/3
f 132/5/3 130/5/3 131/5/3
f 133/5/4 134/5/4 135/5/4
f 135/5/4 134/5/4 136/5/4
f 137/3/4 138/3/4 139/3/4
f 139/3/4 138/3/4 140/3/4
f 141/1/4 142/1/4 143/1/4
f 143/1/4 142/1/4 144/1/4
f 145/2/4 146/2/4 147/2/4
f 147/2/4 146/2/4 148/2/4
f 148/2/4 146/2/4 149/2/4
f 149/2/4 146/2/4 150/2/4
f 151/5/4 152/5/4 155/5/4
f 152/4/4 153/4/4 156/4/4
f 155/5/4 152/5/4 156/5/4
f 153/5/4 154/5/4 157/5/4
f 156/4/4 153/4/4 157/4/4
f 157/5/4 154/5/4 158/5/4
f 159/1/4 160/1/4 161/1/4
f 161/1/4 160/1/4 162/1/4
f 163/3/4 164/3/4 165/3/4
f 165/3/4 164/3/4 166/3/4
f 167/2/4 168/2/4 169/2/4
f 169/2/4 168/2/4 170/2/4
f 169/5/4 170/5/4 171/5/4
f 171/5/4 170/5/4 172/5/4
f 177/2/5 174/2/5 173/2/5
f 178/5/5 175/5/5 174/5/5
f 178/2/5 174/2/5 177/2/5
f 179/3/5 177/3/5 176/3/5
f 180/5/5 178/5/5 177/5/5
f 180/3/5 177/3/5 179/3/5
f 181/5/5 175/5/5 178/5/5
f 181/5/5 178/5/5 180/5/5
f 183/2/5 181/2/5 180/2/5
f 184/5/5 175/5/5 181/5/5
f 184/2/5 181/2/5 183/2/5
f 185/1/5 183/1/5 182/1/5
f 186/5/5 184/5/5 183/5/5
f 186/1/5 183/1/5 185/1/5
f 187/5/5 175/5/5 184/5/5
f 187/5/5 184/5/5 186/5/5
f 188/2/5 187/2/5 186/2/5
f 189/5/5 175/5/5 187/5/5
f 189/2/5 187/2/5 188/2/5
f 191/5/5 175/5/5 189/5/5
f 193/2/5 191/2/5 190/2/5
f 194/5/5 175/5/5 191/5/5
f 194/2/5 191/2/5 193/2/5
f 195/1/5 193/1/5 192/1/5
f 196/5/5 194/5/5 193/5/5
f 196/1/5 193/1/5 195/1/5
f 197/5/5 175/5/5 194/5/5
f 197/5/5 194/5/5 196/5/5
f 199/2/5 197/2/5 196/2/5
f 200/5/5 175/5/5 197/5/5
f 200/2/5 197/2/5 199/2/5
f 201/3/5 199/3/5 198/3/5
f 202/5/5 200/5/5 199/5/5
f 202/3/5 199/3/5 201/3/5
f 203/5/5 175/5/5 200/5/5
f 203/5/5 200/5/5 202/5/5
f 204/2/5 203/2/5 202/2/5
f 205/5/5 175/5/5 203/5/5
f 205/2/5 203/2/5 204/2/5
f 206/5/5 175/5/5 205/5/5
f 209/5/5 208/5/5 207/5/5
f 210/5/5 208/5/5 209/5/5
f 211/5/5 208/5/5 210/5/5
f 212/5/5 208/5/5 211/5/5
f 213/5/5 208/5/5 212/5/5
f 214/5/5 208/5/5 213/5/5
f 217/5/5 216/5/5 215/5/5
f 218/5/5 216/5/5 217/5/5
f 219/5/5 216/5/5 218/5/5
f 220/5/5 216/5/5 219/5/5
f 221/5/5 216/5/5 220/5/5
f 222/5/5 216/5/5 221/5/5
f 223/5/6 224/5/6 225/5/6
f 225/5/6 224/5/6 226/5/6
f 226/5/6 224/5/6 227/5/6
f 227/5/6 224/5/6 228/5/6
f 228/5/6 224/5/6 229/5/6
f 229/5/6 224/5/6 230/5/6
f 231/5/6 232/5/6 233/5/6
f 233/5/6 232/5/6 234/5/6
f 234/5/6 232/5/6 235/5/6
f 235/5/6 232/5/6 236/5/6
f 236/5/6 232/5/6 237/5/6
f 237/5/6 232/5/6 238/5/6
f 239/2/6 240/2/6 243/2/6
f 240/5/6 241/5/6 244/5/6
f 243/2/6 240/2/6 244/2/6
f 242/3/6 243/3/6 245/3/6
f 243/5/6 244/5/6 246/5/6
f 245/3/6 243/3/6 246/3/6
f 244/5/6 241/5/6 247/5/6
f 246/5/6 244/5/6 247/5/6
f 246/2/6 247/2/6 249/2/6
f 247/5/6 241/5/6 250/5/6
f 249/2/6 247/2/6 250/2/6
f 248/1/6 249/1/6 251/1/6
f 249/5/6 250/5/6 252/5/6
f 251/1/6 249/1/6 252/1/6
f 250/5/6 241/5/6 253/5/6
f 252/5/6 250/5/6 253/5/6
f 252/2/6 253/2/6 254/2/6
f 253/5/6 241/5/6 255/5/6
f 254/2/6 253/2/6 255/2/6
f 255/5/6 241/5/6 257/5/6
f 256/2/6 257/2/6 259/2/6
f 257/5/6 241/5/6 260/5/6
f 259/2/6 257/2/6 260/2/6
f 258/1/6 259/1/6 261/1/6
f 259/5/6 260/5/6 262/5/6
f 261/1/6 259/1/6 262/1/6
f 260/5/6 241/5/6 263/5/6
f 262/5/6 260/5/6 263/5/6
f 262/2/6 263/2/6 265/2/6
f 263/5/6 241/5/6 266/5/6
f 265/2/6 263/2/6 266/2/6
f 264/3/6 265/3/6 267/3/6
f 265/5/6 266/5/6 268/5/6
f 267/3/6 265/3/6 268/3/6
f 266/5/6 241/5/6 269/5/6
f 268/5/6 266/5/6 269/5/6
f 268/2/6 269/2/6 270/2/6
f 269/5/6 241/5/6 271/5/6
f 270/2/6 269/2/6 271/2/6
f 271/5/6 241/5/6 272/5/6
