# MagicaVoxel @ Ephtracy

# group
o 

# material
mtllib Broomy (brown).mtl
usemtl palette

# normals
vn -1 0 0
vn 1 0 0
vn 0 0 1
vn 0 0 -1
vn 0 -1 0
vn 0 1 0

# texcoords
vt 0.849609 0.5
vt 0.876953 0.5
vt 0.880859 0.5
vt 0.884766 0.5

# verts
v 1.4 2 -1.9
v 1.4 2 -2.2
v 1.4 2.7 -1.9
v 1.4 2.7 -2.2
v 1.5 2 -1.7
v 1.5 2 -1.9
v 1.5 2 -2.2
v 1.5 2 -2.4
v 1.5 2.7 -1.7
v 1.5 2.7 -1.9
v 1.5 2.7 -2.2
v 1.5 2.7 -2.4
v 1.5 3 -1.9
v 1.5 3 -2.2
v 1.5 3.1 -1.9
v 1.5 3.1 -2.2
v 1.5 3.2 -1.9
v 1.5 3.2 -2.2
v 1.6 2.7 -1.7
v 1.6 2.7 -1.9
v 1.6 2.7 -2.2
v 1.6 2.7 -2.4
v 1.6 3 -1.7
v 1.6 3 -1.9
v 1.6 3 -2.2
v 1.6 3 -2.4
v 1.6 3.1 -1.7
v 1.6 3.1 -1.9
v 1.6 3.1 -2.2
v 1.6 3.1 -2.4
v 1.6 3.2 -1.7
v 1.6 3.2 -1.9
v 1.6 3.2 -2.2
v 1.6 3.2 -2.4
v 1.6 3.3 -1.9
v 1.6 3.3 -2.2
v 1.6 3.5 -1.9
v 1.6 3.5 -2.2
v 1.7 2 -1.6
v 1.7 2 -1.7
v 1.7 2 -2.4
v 1.7 2 -2.5
v 1.7 2.7 -1.6
v 1.7 2.7 -1.7
v 1.7 2.7 -2.4
v 1.7 2.7 -2.5
v 1.7 3.2 -1.8
v 1.7 3.2 -1.9
v 1.7 3.2 -2.2
v 1.7 3.2 -2.3
v 1.7 3.3 -1.8
v 1.7 3.3 -1.9
v 1.7 3.3 -2.2
v 1.7 3.3 -2.3
v 1.7 3.5 -1.8
v 1.7 3.5 -1.9
v 1.7 3.5 -2.2
v 1.7 3.5 -2.3
v 1.7 3.6 -1.9
v 1.7 3.6 -2.2
v 1.8 2.7 -1.6
v 1.8 2.7 -1.7
v 1.8 2.7 -2.4
v 1.8 2.7 -2.5
v 1.8 3 -1.6
v 1.8 3 -1.7
v 1.8 3 -2.4
v 1.8 3 -2.5
v 1.8 3.1 -1.6
v 1.8 3.1 -1.7
v 1.8 3.1 -2.4
v 1.8 3.1 -2.5
v 1.8 3.2 -1.6
v 1.8 3.2 -1.7
v 1.8 3.2 -1.8
v 1.8 3.2 -2.3
v 1.8 3.2 -2.4
v 1.8 3.2 -2.5
v 1.8 3.3 -1.7
v 1.8 3.3 -1.8
v 1.8 3.3 -2.3
v 1.8 3.3 -2.4
v 1.8 3.5 -1.7
v 1.8 3.5 -1.8
v 1.8 3.5 -1.9
v 1.8 3.5 -2.2
v 1.8 3.5 -2.3
v 1.8 3.5 -2.4
v 1.8 3.6 -1.8
v 1.8 3.6 -1.9
v 1.8 3.6 -2.2
v 1.8 3.6 -2.3
v 1.8 3.7 -1.9
v 1.8 3.7 -2
v 1.8 3.7 -2.1
v 1.8 3.7 -2.2
v 1.8 7 -2
v 1.8 7 -2.1
v 1.9 3.7 -1.9
v 1.9 3.7 -2
v 1.9 3.7 -2.1
v 1.9 3.7 -2.2
v 1.9 7 -1.9
v 1.9 7 -2
v 1.9 7 -2.1
v 1.9 7 -2.2
v 2 3.7 -1.9
v 2 3.7 -2
v 2 3.7 -2.1
v 2 3.7 -2.2
v 2 7 -1.9
v 2 7 -2
v 2 7 -2.1
v 2 7 -2.2
v 2.1 2.7 -1.6
v 2.1 2.7 -1.7
v 2.1 2.7 -2.4
v 2.1 2.7 -2.5
v 2.1 3 -1.6
v 2.1 3 -1.7
v 2.1 3 -2.4
v 2.1 3 -2.5
v 2.1 3.1 -1.6
v 2.1 3.1 -1.7
v 2.1 3.1 -2.4
v 2.1 3.1 -2.5
v 2.1 3.2 -1.6
v 2.1 3.2 -1.7
v 2.1 3.2 -1.8
v 2.1 3.2 -2.3
v 2.1 3.2 -2.4
v 2.1 3.2 -2.5
v 2.1 3.3 -1.7
v 2.1 3.3 -1.8
v 2.1 3.3 -2.3
v 2.1 3.3 -2.4
v 2.1 3.5 -1.7
v 2.1 3.5 -1.8
v 2.1 3.5 -1.9
v 2.1 3.5 -2.2
v 2.1 3.5 -2.3
v 2.1 3.5 -2.4
v 2.1 3.6 -1.8
v 2.1 3.6 -1.9
v 2.1 3.6 -2.2
v 2.1 3.6 -2.3
v 2.1 3.7 -1.9
v 2.1 3.7 -2
v 2.1 3.7 -2.1
v 2.1 3.7 -2.2
v 2.1 7 -2
v 2.1 7 -2.1
v 2.2 2 -1.6
v 2.2 2 -1.7
v 2.2 2 -2.4
v 2.2 2 -2.5
v 2.2 2.7 -1.6
v 2.2 2.7 -1.7
v 2.2 2.7 -2.4
v 2.2 2.7 -2.5
v 2.2 3.2 -1.8
v 2.2 3.2 -1.9
v 2.2 3.2 -2.2
v 2.2 3.2 -2.3
v 2.2 3.3 -1.8
v 2.2 3.3 -1.9
v 2.2 3.3 -2.2
v 2.2 3.3 -2.3
v 2.2 3.5 -1.8
v 2.2 3.5 -1.9
v 2.2 3.5 -2.2
v 2.2 3.5 -2.3
v 2.2 3.6 -1.9
v 2.2 3.6 -2.2
v 2.3 2.7 -1.7
v 2.3 2.7 -1.9
v 2.3 2.7 -2.2
v 2.3 2.7 -2.4
v 2.3 3 -1.7
v 2.3 3 -1.9
v 2.3 3 -2.2
v 2.3 3 -2.4
v 2.3 3.1 -1.7
v 2.3 3.1 -1.9
v 2.3 3.1 -2.2
v 2.3 3.1 -2.4
v 2.3 3.2 -1.7
v 2.3 3.2 -1.9
v 2.3 3.2 -2.2
v 2.3 3.2 -2.4
v 2.3 3.3 -1.9
v 2.3 3.3 -2.2
v 2.3 3.5 -1.9
v 2.3 3.5 -2.2
v 2.4 2 -1.7
v 2.4 2 -1.9
v 2.4 2 -2.2
v 2.4 2 -2.4
v 2.4 2.7 -1.7
v 2.4 2.7 -1.9
v 2.4 2.7 -2.2
v 2.4 2.7 -2.4
v 2.4 3 -1.9
v 2.4 3 -2.2
v 2.4 3.1 -1.9
v 2.4 3.1 -2.2
v 2.4 3.2 -1.9
v 2.4 3.2 -2.2
v 2.5 2 -1.9
v 2.5 2 -2.2
v 2.5 2.7 -1.9
v 2.5 2.7 -2.2
v 1.7 2 -1.6
v 1.7 2.7 -1.6
v 1.8 2.7 -1.6
v 1.8 3 -1.6
v 1.8 3.1 -1.6
v 1.8 3.2 -1.6
v 2.1 2.7 -1.6
v 2.1 3 -1.6
v 2.1 3.1 -1.6
v 2.1 3.2 -1.6
v 2.2 2 -1.6
v 2.2 2.7 -1.6
v 1.5 2 -1.7
v 1.5 2.7 -1.7
v 1.6 2.7 -1.7
v 1.6 3 -1.7
v 1.6 3.1 -1.7
v 1.6 3.2 -1.7
v 1.7 2 -1.7
v 1.7 2.7 -1.7
v 1.8 2.7 -1.7
v 1.8 3 -1.7
v 1.8 3.1 -1.7
v 1.8 3.2 -1.7
v 1.8 3.3 -1.7
v 1.8 3.5 -1.7
v 2.1 2.7 -1.7
v 2.1 3 -1.7
v 2.1 3.1 -1.7
v 2.1 3.2 -1.7
v 2.1 3.3 -1.7
v 2.1 3.5 -1.7
v 2.2 2 -1.7
v 2.2 2.7 -1.7
v 2.3 2.7 -1.7
v 2.3 3 -1.7
v 2.3 3.1 -1.7
v 2.3 3.2 -1.7
v 2.4 2 -1.7
v 2.4 2.7 -1.7
v 1.7 3.2 -1.8
v 1.7 3.3 -1.8
v 1.7 3.5 -1.8
v 1.8 3.2 -1.8
v 1.8 3.3 -1.8
v 1.8 3.5 -1.8
v 1.8 3.6 -1.8
v 2.1 3.2 -1.8
v 2.1 3.3 -1.8
v 2.1 3.5 -1.8
v 2.1 3.6 -1.8
v 2.2 3.2 -1.8
v 2.2 3.3 -1.8
v 2.2 3.5 -1.8
v 1.4 2 -1.9
v 1.4 2.7 -1.9
v 1.5 2 -1.9
v 1.5 2.7 -1.9
v 1.5 3 -1.9
v 1.5 3.1 -1.9
v 1.5 3.2 -1.9
v 1.6 2.7 -1.9
v 1.6 3 -1.9
v 1.6 3.1 -1.9
v 1.6 3.2 -1.9
v 1.6 3.3 -1.9
v 1.6 3.5 -1.9
v 1.7 3.2 -1.9
v 1.7 3.3 -1.9
v 1.7 3.5 -1.9
v 1.7 3.6 -1.9
v 1.8 3.5 -1.9
v 1.8 3.6 -1.9
v 1.8 3.7 -1.9
v 1.9 3.7 -1.9
v 1.9 7 -1.9
v 2 3.7 -1.9
v 2 7 -1.9
v 2.1 3.5 -1.9
v 2.1 3.6 -1.9
v 2.1 3.7 -1.9
v 2.2 3.2 -1.9
v 2.2 3.3 -1.9
v 2.2 3.5 -1.9
v 2.2 3.6 -1.9
v 2.3 2.7 -1.9
v 2.3 3 -1.9
v 2.3 3.1 -1.9
v 2.3 3.2 -1.9
v 2.3 3.3 -1.9
v 2.3 3.5 -1.9
v 2.4 2 -1.9
v 2.4 2.7 -1.9
v 2.4 3 -1.9
v 2.4 3.1 -1.9
v 2.4 3.2 -1.9
v 2.5 2 -1.9
v 2.5 2.7 -1.9
v 1.8 3.7 -2
v 1.8 7 -2
v 1.9 3.7 -2
v 1.9 7 -2
v 2 3.7 -2
v 2 7 -2
v 2.1 3.7 -2
v 2.1 7 -2
v 1.8 3.7 -2.1
v 1.8 7 -2.1
v 1.9 3.7 -2.1
v 1.9 7 -2.1
v 2 3.7 -2.1
v 2 7 -2.1
v 2.1 3.7 -2.1
v 2.1 7 -2.1
v 1.4 2 -2.2
v 1.4 2.7 -2.2
v 1.5 2 -2.2
v 1.5 2.7 -2.2
v 1.5 3 -2.2
v 1.5 3.1 -2.2
v 1.5 3.2 -2.2
v 1.6 2.7 -2.2
v 1.6 3 -2.2
v 1.6 3.1 -2.2
v 1.6 3.2 -2.2
v 1.6 3.3 -2.2
v 1.6 3.5 -2.2
v 1.7 3.2 -2.2
v 1.7 3.3 -2.2
v 1.7 3.5 -2.2
v 1.7 3.6 -2.2
v 1.8 3.5 -2.2
v 1.8 3.6 -2.2
v 1.8 3.7 -2.2
v 1.9 3.7 -2.2
v 1.9 7 -2.2
v 2 3.7 -2.2
v 2 7 -2.2
v 2.1 3.5 -2.2
v 2.1 3.6 -2.2
v 2.1 3.7 -2.2
v 2.2 3.2 -2.2
v 2.2 3.3 -2.2
v 2.2 3.5 -2.2
v 2.2 3.6 -2.2
v 2.3 2.7 -2.2
v 2.3 3 -2.2
v 2.3 3.1 -2.2
v 2.3 3.2 -2.2
v 2.3 3.3 -2.2
v 2.3 3.5 -2.2
v 2.4 2 -2.2
v 2.4 2.7 -2.2
v 2.4 3 -2.2
v 2.4 3.1 -2.2
v 2.4 3.2 -2.2
v 2.5 2 -2.2
v 2.5 2.7 -2.2
v 1.7 3.2 -2.3
v 1.7 3.3 -2.3
v 1.7 3.5 -2.3
v 1.8 3.2 -2.3
v 1.8 3.3 -2.3
v 1.8 3.5 -2.3
v 1.8 3.6 -2.3
v 2.1 3.2 -2.3
v 2.1 3.3 -2.3
v 2.1 3.5 -2.3
v 2.1 3.6 -2.3
v 2.2 3.2 -2.3
v 2.2 3.3 -2.3
v 2.2 3.5 -2.3
v 1.5 2 -2.4
v 1.5 2.7 -2.4
v 1.6 2.7 -2.4
v 1.6 3 -2.4
v 1.6 3.1 -2.4
v 1.6 3.2 -2.4
v 1.7 2 -2.4
v 1.7 2.7 -2.4
v 1.8 2.7 -2.4
v 1.8 3 -2.4
v 1.8 3.1 -2.4
v 1.8 3.2 -2.4
v 1.8 3.3 -2.4
v 1.8 3.5 -2.4
v 2.1 2.7 -2.4
v 2.1 3 -2.4
v 2.1 3.1 -2.4
v 2.1 3.2 -2.4
v 2.1 3.3 -2.4
v 2.1 3.5 -2.4
v 2.2 2 -2.4
v 2.2 2.7 -2.4
v 2.3 2.7 -2.4
v 2.3 3 -2.4
v 2.3 3.1 -2.4
v 2.3 3.2 -2.4
v 2.4 2 -2.4
v 2.4 2.7 -2.4
v 1.7 2 -2.5
v 1.7 2.7 -2.5
v 1.8 2.7 -2.5
v 1.8 3 -2.5
v 1.8 3.1 -2.5
v 1.8 3.2 -2.5
v 2.1 2.7 -2.5
v 2.1 3 -2.5
v 2.1 3.1 -2.5
v 2.1 3.2 -2.5
v 2.2 2 -2.5
v 2.2 2.7 -2.5
v 1.7 2 -1.6
v 2.2 2 -1.6
v 1.5 2 -1.7
v 1.7 2 -1.7
v 2.2 2 -1.7
v 2.4 2 -1.7
v 1.4 2 -1.9
v 1.5 2 -1.9
v 2.4 2 -1.9
v 2.5 2 -1.9
v 1.4 2 -2.2
v 1.5 2 -2.2
v 2.4 2 -2.2
v 2.5 2 -2.2
v 1.5 2 -2.4
v 1.7 2 -2.4
v 2.2 2 -2.4
v 2.4 2 -2.4
v 1.7 2 -2.5
v 2.2 2 -2.5
v 1.7 2.7 -1.6
v 1.8 2.7 -1.6
v 2.1 2.7 -1.6
v 2.2 2.7 -1.6
v 1.5 2.7 -1.7
v 1.6 2.7 -1.7
v 1.7 2.7 -1.7
v 1.8 2.7 -1.7
v 2.1 2.7 -1.7
v 2.2 2.7 -1.7
v 2.3 2.7 -1.7
v 2.4 2.7 -1.7
v 1.4 2.7 -1.9
v 1.5 2.7 -1.9
v 1.6 2.7 -1.9
v 2.3 2.7 -1.9
v 2.4 2.7 -1.9
v 2.5 2.7 -1.9
v 1.4 2.7 -2.2
v 1.5 2.7 -2.2
v 1.6 2.7 -2.2
v 2.3 2.7 -2.2
v 2.4 2.7 -2.2
v 2.5 2.7 -2.2
v 1.5 2.7 -2.4
v 1.6 2.7 -2.4
v 1.7 2.7 -2.4
v 1.8 2.7 -2.4
v 2.1 2.7 -2.4
v 2.2 2.7 -2.4
v 2.3 2.7 -2.4
v 2.4 2.7 -2.4
v 1.7 2.7 -2.5
v 1.8 2.7 -2.5
v 2.1 2.7 -2.5
v 2.2 2.7 -2.5
v 1.8 3.2 -1.6
v 2.1 3.2 -1.6
v 1.6 3.2 -1.7
v 1.8 3.2 -1.7
v 2.1 3.2 -1.7
v 2.3 3.2 -1.7
v 1.7 3.2 -1.8
v 1.8 3.2 -1.8
v 2.1 3.2 -1.8
v 2.2 3.2 -1.8
v 1.5 3.2 -1.9
v 1.6 3.2 -1.9
v 1.7 3.2 -1.9
v 2.2 3.2 -1.9
v 2.3 3.2 -1.9
v 2.4 3.2 -1.9
v 1.5 3.2 -2.2
v 1.6 3.2 -2.2
v 1.7 3.2 -2.2
v 2.2 3.2 -2.2
v 2.3 3.2 -2.2
v 2.4 3.2 -2.2
v 1.7 3.2 -2.3
v 1.8 3.2 -2.3
v 2.1 3.2 -2.3
v 2.2 3.2 -2.3
v 1.6 3.2 -2.4
v 1.8 3.2 -2.4
v 2.1 3.2 -2.4
v 2.3 3.2 -2.4
v 1.8 3.2 -2.5
v 2.1 3.2 -2.5
v 1.8 3.5 -1.7
v 2.1 3.5 -1.7
v 1.7 3.5 -1.8
v 1.8 3.5 -1.8
v 2.1 3.5 -1.8
v 2.2 3.5 -1.8
v 1.6 3.5 -1.9
v 1.7 3.5 -1.9
v 1.8 3.5 -1.9
v 2.1 3.5 -1.9
v 2.2 3.5 -1.9
v 2.3 3.5 -1.9
v 1.6 3.5 -2.2
v 1.7 3.5 -2.2
v 1.8 3.5 -2.2
v 2.1 3.5 -2.2
v 2.2 3.5 -2.2
v 2.3 3.5 -2.2
v 1.7 3.5 -2.3
v 1.8 3.5 -2.3
v 2.1 3.5 -2.3
v 2.2 3.5 -2.3
v 1.8 3.5 -2.4
v 2.1 3.5 -2.4
v 1.8 3.6 -1.8
v 2.1 3.6 -1.8
v 1.7 3.6 -1.9
v 1.8 3.6 -1.9
v 2.1 3.6 -1.9
v 2.2 3.6 -1.9
v 1.7 3.6 -2.2
v 1.8 3.6 -2.2
v 2.1 3.6 -2.2
v 2.2 3.6 -2.2
v 1.8 3.6 -2.3
v 2.1 3.6 -2.3
v 1.8 3.7 -1.9
v 1.9 3.7 -1.9
v 2 3.7 -1.9
v 2.1 3.7 -1.9
v 1.8 3.7 -2
v 1.9 3.7 -2
v 2 3.7 -2
v 2.1 3.7 -2
v 1.8 3.7 -2.1
v 1.9 3.7 -2.1
v 2 3.7 -2.1
v 2.1 3.7 -2.1
v 1.8 3.7 -2.2
v 1.9 3.7 -2.2
v 2 3.7 -2.2
v 2.1 3.7 -2.2
v 1.9 7 -1.9
v 2 7 -1.9
v 1.8 7 -2
v 1.9 7 -2
v 2 7 -2
v 2.1 7 -2
v 1.8 7 -2.1
v 1.9 7 -2.1
v 2 7 -2.1
v 2.1 7 -2.1
v 1.9 7 -2.2
v 2 7 -2.2

# faces
f 3/3/1 2/3/1 1/3/1
f 4/3/1 2/3/1 3/3/1
f 9/3/1 6/3/1 5/3/1
f 10/3/1 6/3/1 9/3/1
f 11/3/1 8/3/1 7/3/1
f 12/3/1 8/3/1 11/3/1
f 13/3/1 11/3/1 10/3/1
f 14/3/1 11/3/1 13/3/1
f 15/4/1 14/4/1 13/4/1
f 16/4/1 14/4/1 15/4/1
f 17/3/1 16/3/1 15/3/1
f 18/3/1 16/3/1 17/3/1
f 23/3/1 20/3/1 19/3/1
f 24/3/1 20/3/1 23/3/1
f 25/3/1 22/3/1 21/3/1
f 26/3/1 22/3/1 25/3/1
f 27/4/1 24/4/1 23/4/1
f 28/4/1 24/4/1 27/4/1
f 29/4/1 26/4/1 25/4/1
f 30/4/1 26/4/1 29/4/1
f 31/3/1 28/3/1 27/3/1
f 32/3/1 28/3/1 31/3/1
f 33/3/1 30/3/1 29/3/1
f 34/3/1 30/3/1 33/3/1
f 35/4/1 33/4/1 32/4/1
f 36/4/1 33/4/1 35/4/1
f 37/3/1 36/3/1 35/3/1
f 38/3/1 36/3/1 37/3/1
f 43/3/1 40/3/1 39/3/1
f 44/3/1 40/3/1 43/3/1
f 45/3/1 42/3/1 41/3/1
f 46/3/1 42/3/1 45/3/1
f 51/4/1 48/4/1 47/4/1
f 52/4/1 48/4/1 51/4/1
f 53/4/1 50/4/1 49/4/1
f 54/4/1 50/4/1 53/4/1
f 55/3/1 52/3/1 51/3/1
f 56/3/1 52/3/1 55/3/1
f 57/3/1 54/3/1 53/3/1
f 58/3/1 54/3/1 57/3/1
f 59/1/1 57/1/1 56/1/1
f 60/1/1 57/1/1 59/1/1
f 65/3/1 62/3/1 61/3/1
f 66/3/1 62/3/1 65/3/1
f 67/3/1 64/3/1 63/3/1
f 68/3/1 64/3/1 67/3/1
f 69/4/1 66/4/1 65/4/1
f 70/4/1 66/4/1 69/4/1
f 71/4/1 68/4/1 67/4/1
f 72/4/1 68/4/1 71/4/1
f 73/3/1 70/3/1 69/3/1
f 74/3/1 70/3/1 73/3/1
f 77/3/1 72/3/1 71/3/1
f 78/3/1 72/3/1 77/3/1
f 79/4/1 75/4/1 74/4/1
f 80/4/1 75/4/1 79/4/1
f 81/4/1 77/4/1 76/4/1
f 82/4/1 77/4/1 81/4/1
f 83/3/1 80/3/1 79/3/1
f 84/3/1 80/3/1 83/3/1
f 87/3/1 82/3/1 81/3/1
f 88/3/1 82/3/1 87/3/1
f 89/1/1 85/1/1 84/1/1
f 90/1/1 85/1/1 89/1/1
f 91/1/1 87/1/1 86/1/1
f 92/1/1 87/1/1 91/1/1
f 93/1/1 91/1/1 90/1/1
f 94/1/1 91/1/1 93/1/1
f 95/1/1 91/1/1 94/1/1
f 96/1/1 91/1/1 95/1/1
f 97/2/1 95/2/1 94/2/1
f 98/2/1 95/2/1 97/2/1
f 103/2/1 100/2/1 99/2/1
f 104/2/1 100/2/1 103/2/1
f 105/2/1 102/2/1 101/2/1
f 106/2/1 102/2/1 105/2/1
f 107/2/2 108/2/2 111/2/2
f 111/2/2 108/2/2 112/2/2
f 109/2/2 110/2/2 113/2/2
f 113/2/2 110/2/2 114/2/2
f 115/3/2 116/3/2 119/3/2
f 119/3/2 116/3/2 120/3/2
f 117/3/2 118/3/2 121/3/2
f 121/3/2 118/3/2 122/3/2
f 119/4/2 120/4/2 123/4/2
f 123/4/2 120/4/2 124/4/2
f 121/4/2 122/4/2 125/4/2
f 125/4/2 122/4/2 126/4/2
f 123/3/2 124/3/2 127/3/2
f 127/3/2 124/3/2 128/3/2
f 125/3/2 126/3/2 131/3/2
f 131/3/2 126/3/2 132/3/2
f 128/4/2 129/4/2 133/4/2
f 133/4/2 129/4/2 134/4/2
f 130/4/2 131/4/2 135/4/2
f 135/4/2 131/4/2 136/4/2
f 133/3/2 134/3/2 137/3/2
f 137/3/2 134/3/2 138/3/2
f 135/3/2 136/3/2 141/3/2
f 141/3/2 136/3/2 142/3/2
f 138/1/2 139/1/2 143/1/2
f 143/1/2 139/1/2 144/1/2
f 140/1/2 141/1/2 145/1/2
f 145/1/2 141/1/2 146/1/2
f 144/1/2 145/1/2 147/1/2
f 147/1/2 145/1/2 148/1/2
f 148/1/2 145/1/2 149/1/2
f 149/1/2 145/1/2 150/1/2
f 148/2/2 149/2/2 151/2/2
f 151/2/2 149/2/2 152/2/2
f 153/3/2 154/3/2 157/3/2
f 157/3/2 154/3/2 158/3/2
f 155/3/2 156/3/2 159/3/2
f 159/3/2 156/3/2 160/3/2
f 161/4/2 162/4/2 165/4/2
f 165/4/2 162/4/2 166/4/2
f 163/4/2 164/4/2 167/4/2
f 167/4/2 164/4/2 168/4/2
f 165/3/2 166/3/2 169/3/2
f 169/3/2 166/3/2 170/3/2
f 167/3/2 168/3/2 171/3/2
f 171/3/2 168/3/2 172/3/2
f 170/1/2 171/1/2 173/1/2
f 173/1/2 171/1/2 174/1/2
f 175/3/2 176/3/2 179/3/2
f 179/3/2 176/3/2 180/3/2
f 177/3/2 178/3/2 181/3/2
f 181/3/2 178/3/2 182/3/2
f 179/4/2 180/4/2 183/4/2
f 183/4/2 180/4/2 184/4/2
f 181/4/2 182/4/2 185/4/2
f 185/4/2 182/4/2 186/4/2
f 183/3/2 184/3/2 187/3/2
f 187/3/2 184/3/2 188/3/2
f 185/3/2 186/3/2 189/3/2
f 189/3/2 186/3/2 190/3/2
f 188/4/2 189/4/2 191/4/2
f 191/4/2 189/4/2 192/4/2
f 191/3/2 192/3/2 193/3/2
f 193/3/2 192/3/2 194/3/2
f 195/3/2 196/3/2 199/3/2
f 199/3/2 196/3/2 200/3/2
f 197/3/2 198/3/2 201/3/2
f 201/3/2 198/3/2 202/3/2
f 200/3/2 201/3/2 203/3/2
f 203/3/2 201/3/2 204/3/2
f 203/4/2 204/4/2 205/4/2
f 205/4/2 204/4/2 206/4/2
f 205/3/2 206/3/2 207/3/2
f 207/3/2 206/3/2 208/3/2
f 209/3/2 210/3/2 211/3/2
f 211/3/2 210/3/2 212/3/2
f 215/3/3 214/3/3 213/3/3
f 219/3/3 215/3/3 213/3/3
f 219/3/3 216/3/3 215/3/3
f 220/4/3 217/4/3 216/4/3
f 220/3/3 216/3/3 219/3/3
f 221/3/3 218/3/3 217/3/3
f 221/4/3 217/4/3 220/4/3
f 222/3/3 218/3/3 221/3/3
f 223/3/3 219/3/3 213/3/3
f 224/3/3 219/3/3 223/3/3
f 227/3/3 226/3/3 225/3/3
f 231/3/3 227/3/3 225/3/3
f 231/3/3 228/3/3 227/3/3
f 232/3/3 228/3/3 231/3/3
f 233/3/3 228/3/3 232/3/3
f 234/4/3 229/4/3 228/4/3
f 234/3/3 228/3/3 233/3/3
f 235/3/3 230/3/3 229/3/3
f 235/4/3 229/4/3 234/4/3
f 236/3/3 230/3/3 235/3/3
f 242/4/3 237/4/3 236/4/3
f 243/3/3 238/3/3 237/3/3
f 243/4/3 237/4/3 242/4/3
f 244/3/3 238/3/3 243/3/3
f 246/3/3 240/3/3 239/3/3
f 247/3/3 240/3/3 246/3/3
f 247/3/3 246/3/3 245/3/3
f 248/4/3 241/4/3 240/4/3
f 248/3/3 240/3/3 247/3/3
f 249/3/3 242/3/3 241/3/3
f 249/4/3 241/4/3 248/4/3
f 250/3/3 242/3/3 249/3/3
f 251/3/3 247/3/3 245/3/3
f 252/3/3 247/3/3 251/3/3
f 256/4/3 254/4/3 253/4/3
f 257/3/3 255/3/3 254/3/3
f 257/4/3 254/4/3 256/4/3
f 258/3/3 255/3/3 257/3/3
f 262/1/3 259/1/3 258/1/3
f 263/1/3 259/1/3 262/1/3
f 264/4/3 261/4/3 260/4/3
f 265/3/3 262/3/3 261/3/3
f 265/4/3 261/4/3 264/4/3
f 266/3/3 262/3/3 265/3/3
f 269/3/3 268/3/3 267/3/3
f 270/3/3 268/3/3 269/3/3
f 274/3/3 271/3/3 270/3/3
f 275/4/3 272/4/3 271/4/3
f 275/3/3 271/3/3 274/3/3
f 276/3/3 273/3/3 272/3/3
f 276/4/3 272/4/3 275/4/3
f 277/3/3 273/3/3 276/3/3
f 280/4/3 278/4/3 277/4/3
f 281/3/3 279/3/3 278/3/3
f 281/4/3 278/4/3 280/4/3
f 282/3/3 279/3/3 281/3/3
f 284/1/3 283/1/3 282/1/3
f 285/1/3 283/1/3 284/1/3
f 287/1/3 286/1/3 285/1/3
f 289/1/3 287/1/3 285/1/3
f 289/2/3 288/2/3 287/2/3
f 290/2/3 288/2/3 289/2/3
f 292/1/3 289/1/3 285/1/3
f 293/1/3 289/1/3 292/1/3
f 296/1/3 292/1/3 291/1/3
f 297/1/3 292/1/3 296/1/3
f 301/4/3 295/4/3 294/4/3
f 302/3/3 296/3/3 295/3/3
f 302/4/3 295/4/3 301/4/3
f 303/3/3 296/3/3 302/3/3
f 305/3/3 299/3/3 298/3/3
f 306/4/3 300/4/3 299/4/3
f 306/3/3 299/3/3 305/3/3
f 307/3/3 301/3/3 300/3/3
f 307/4/3 300/4/3 306/4/3
f 308/3/3 301/3/3 307/3/3
f 309/3/3 305/3/3 304/3/3
f 310/3/3 305/3/3 309/3/3
f 313/2/3 312/2/3 311/2/3
f 314/2/3 312/2/3 313/2/3
f 317/2/3 316/2/3 315/2/3
f 318/2/3 316/2/3 317/2/3
f 319/2/4 320/2/4 321/2/4
f 321/2/4 320/2/4 322/2/4
f 323/2/4 324/2/4 325/2/4
f 325/2/4 324/2/4 326/2/4
f 327/3/4 328/3/4 329/3/4
f 329/3/4 328/3/4 330/3/4
f 330/3/4 331/3/4 334/3/4
f 331/4/4 332/4/4 335/4/4
f 334/3/4 331/3/4 335/3/4
f 332/3/4 333/3/4 336/3/4
f 335/4/4 332/4/4 336/4/4
f 336/3/4 333/3/4 337/3/4
f 337/4/4 338/4/4 340/4/4
f 338/3/4 339/3/4 341/3/4
f 340/4/4 338/4/4 341/4/4
f 341/3/4 339/3/4 342/3/4
f 342/1/4 343/1/4 344/1/4
f 344/1/4 343/1/4 345/1/4
f 345/1/4 346/1/4 347/1/4
f 345/1/4 347/1/4 349/1/4
f 347/2/4 348/2/4 349/2/4
f 349/2/4 348/2/4 350/2/4
f 345/1/4 349/1/4 352/1/4
f 352/1/4 349/1/4 353/1/4
f 351/1/4 352/1/4 356/1/4
f 356/1/4 352/1/4 357/1/4
f 354/4/4 355/4/4 361/4/4
f 355/3/4 356/3/4 362/3/4
f 361/4/4 355/4/4 362/4/4
f 362/3/4 356/3/4 363/3/4
f 358/3/4 359/3/4 365/3/4
f 359/4/4 360/4/4 366/4/4
f 365/3/4 359/3/4 366/3/4
f 360/3/4 361/3/4 367/3/4
f 366/4/4 360/4/4 367/4/4
f 367/3/4 361/3/4 368/3/4
f 364/3/4 365/3/4 369/3/4
f 369/3/4 365/3/4 370/3/4
f 371/4/4 372/4/4 374/4/4
f 372/3/4 373/3/4 375/3/4
f 374/4/4 372/4/4 375/4/4
f 375/3/4 373/3/4 376/3/4
f 376/1/4 377/1/4 380/1/4
f 380/1/4 377/1/4 381/1/4
f 378/4/4 379/4/4 382/4/4
f 379/3/4 380/3/4 383/3/4
f 382/4/4 379/4/4 383/4/4
f 383/3/4 380/3/4 384/3/4
f 385/3/4 386/3/4 387/3/4
f 385/3/4 387/3/4 391/3/4
f 387/3/4 388/3/4 391/3/4
f 391/3/4 388/3/4 392/3/4
f 392/3/4 388/3/4 393/3/4
f 388/4/4 389/4/4 394/4/4
f 393/3/4 388/3/4 394/3/4
f 389/3/4 390/3/4 395/3/4
f 394/4/4 389/4/4 395/4/4
f 395/3/4 390/3/4 396/3/4
f 396/4/4 397/4/4 402/4/4
f 397/3/4 398/3/4 403/3/4
f 402/4/4 397/4/4 403/4/4
f 403/3/4 398/3/4 404/3/4
f 399/3/4 400/3/4 406/3/4
f 406/3/4 400/3/4 407/3/4
f 405/3/4 406/3/4 407/3/4
f 400/4/4 401/4/4 408/4/4
f 407/3/4 400/3/4 408/3/4
f 401/3/4 402/3/4 409/3/4
f 408/4/4 401/4/4 409/4/4
f 409/3/4 402/3/4 410/3/4
f 405/3/4 407/3/4 411/3/4
f 411/3/4 407/3/4 412/3/4
f 413/3/4 414/3/4 415/3/4
f 413/3/4 415/3/4 419/3/4
f 415/3/4 416/3/4 419/3/4
f 416/4/4 417/4/4 420/4/4
f 419/3/4 416/3/4 420/3/4
f 417/3/4 418/3/4 421/3/4
f 420/4/4 417/4/4 421/4/4
f 421/3/4 418/3/4 422/3/4
f 413/3/4 419/3/4 423/3/4
f 423/3/4 419/3/4 424/3/4
f 428/3/5 426/3/5 425/3/5
f 429/3/5 426/3/5 428/3/5
f 432/3/5 428/3/5 427/3/5
f 432/3/5 430/3/5 429/3/5
f 432/3/5 429/3/5 428/3/5
f 433/3/5 430/3/5 432/3/5
f 435/3/5 432/3/5 431/3/5
f 435/3/5 434/3/5 433/3/5
f 435/3/5 433/3/5 432/3/5
f 436/3/5 434/3/5 435/3/5
f 437/3/5 434/3/5 436/3/5
f 438/3/5 434/3/5 437/3/5
f 439/3/5 437/3/5 436/3/5
f 440/3/5 437/3/5 439/3/5
f 441/3/5 437/3/5 440/3/5
f 442/3/5 437/3/5 441/3/5
f 443/3/5 441/3/5 440/3/5
f 444/3/5 441/3/5 443/3/5
f 445/3/6 446/3/6 451/3/6
f 451/3/6 446/3/6 452/3/6
f 447/3/6 448/3/6 453/3/6
f 453/3/6 448/3/6 454/3/6
f 449/3/6 450/3/6 458/3/6
f 458/3/6 450/3/6 459/3/6
f 455/3/6 456/3/6 460/3/6
f 460/3/6 456/3/6 461/3/6
f 457/3/6 458/3/6 463/3/6
f 463/3/6 458/3/6 464/3/6
f 461/3/6 462/3/6 467/3/6
f 467/3/6 462/3/6 468/3/6
f 464/3/6 465/3/6 469/3/6
f 469/3/6 465/3/6 470/3/6
f 466/3/6 467/3/6 475/3/6
f 475/3/6 467/3/6 476/3/6
f 471/3/6 472/3/6 477/3/6
f 477/3/6 472/3/6 478/3/6
f 473/3/6 474/3/6 479/3/6
f 479/3/6 474/3/6 480/3/6
f 481/3/6 482/3/6 484/3/6
f 484/3/6 482/3/6 485/3/6
f 483/3/6 484/3/6 487/3/6
f 487/3/6 484/3/6 488/3/6
f 485/3/6 486/3/6 489/3/6
f 489/3/6 486/3/6 490/3/6
f 483/3/6 487/3/6 492/3/6
f 492/3/6 487/3/6 493/3/6
f 490/3/6 486/3/6 494/3/6
f 494/3/6 486/3/6 495/3/6
f 491/3/6 492/3/6 497/3/6
f 497/3/6 492/3/6 498/3/6
f 495/3/6 496/3/6 501/3/6
f 501/3/6 496/3/6 502/3/6
f 498/3/6 499/3/6 503/3/6
f 500/3/6 501/3/6 506/3/6
f 503/3/6 504/3/6 507/3/6
f 498/3/6 503/3/6 507/3/6
f 507/3/6 504/3/6 508/3/6
f 505/3/6 506/3/6 509/3/6
f 506/3/6 501/3/6 510/3/6
f 509/3/6 506/3/6 510/3/6
f 508/3/6 509/3/6 511/3/6
f 511/3/6 509/3/6 512/3/6
f 513/3/6 514/3/6 516/3/6
f 516/3/6 514/3/6 517/3/6
f 515/3/6 516/3/6 520/3/6
f 520/3/6 516/3/6 521/3/6
f 517/3/6 518/3/6 522/3/6
f 522/3/6 518/3/6 523/3/6
f 519/3/6 520/3/6 525/3/6
f 525/3/6 520/3/6 526/3/6
f 523/3/6 524/3/6 529/3/6
f 529/3/6 524/3/6 530/3/6
f 526/3/6 527/3/6 531/3/6
f 531/3/6 527/3/6 532/3/6
f 528/3/6 529/3/6 533/3/6
f 533/3/6 529/3/6 534/3/6
f 532/3/6 533/3/6 535/3/6
f 535/3/6 533/3/6 536/3/6
f 537/1/6 538/1/6 540/1/6
f 540/1/6 538/1/6 541/1/6
f 539/1/6 540/1/6 543/1/6
f 543/1/6 540/1/6 544/1/6
f 541/1/6 542/1/6 545/1/6
f 545/1/6 542/1/6 546/1/6
f 544/1/6 545/1/6 547/1/6
f 547/1/6 545/1/6 548/1/6
f 549/1/6 550/1/6 553/1/6
f 553/1/6 550/1/6 554/1/6
f 551/1/6 552/1/6 555/1/6
f 555/1/6 552/1/6 556/1/6
f 557/1/6 558/1/6 561/1/6
f 561/1/6 558/1/6 562/1/6
f 559/1/6 560/1/6 563/1/6
f 563/1/6 560/1/6 564/1/6
f 565/2/6 566/2/6 568/2/6
f 568/2/6 566/2/6 569/2/6
f 567/2/6 568/2/6 571/2/6
f 569/2/6 570/2/6 571/2/6
f 568/2/6 569/2/6 571/2/6
f 571/2/6 570/2/6 572/2/6
f 572/2/6 570/2/6 573/2/6
f 573/2/6 570/2/6 574/2/6
f 572/2/6 573/2/6 575/2/6
f 575/2/6 573/2/6 576/2/6
