# MagicaVoxel @ Ephtracy

# group
o 

# material
mtllib Small Hammer.mtl
usemtl palette

# normals
vn -1 0 0
vn 1 0 0
vn 0 0 1
vn 0 0 -1
vn 0 -1 0
vn 0 1 0

# texcoords
vt 0.142578 0.5
vt 0.537109 0.5
vt 0.970703 0.5
vt 0.990234 0.5

# verts
v 0 2 -0.6
v 0 2 -1
v 0 2.5 -0.9
v 0 2.5 -1
v 0 2.6 -0.9
v 0 2.6 -1
v 0 3 -0.9
v 0 3 -1
v 0 3.1 -0.9
v 0 3.1 -1
v 0 3.5 -0.9
v 0 3.5 -1
v 0 3.6 -0.9
v 0 3.6 -1
v 0 3.8 -0.6
v 0 3.8 -1
v 0 4.5 -1.1
v 0 4.5 -1.5
v 0 4.6 0
v 0 4.6 -0.1
v 0 4.6 -0.5
v 0 4.6 -0.6
v 0 4.6 -1
v 0 4.6 -1.1
v 0 4.7 -0.1
v 0 4.7 -0.5
v 0 4.8 0
v 0 4.8 -0.1
v 0 4.9 -0.1
v 0 4.9 -0.3
v 0 4.9 -1
v 0 4.9 -1.1
v 0 5 -0.3
v 0 5 -1
v 0 5 -1.1
v 0 5 -1.5
v 0.3 4.6 0
v 0.3 4.6 -0.1
v 0.3 4.7 -0.1
v 0.3 4.7 -0.5
v 0.3 4.8 0
v 0.3 4.8 -0.1
v 0.3 4.9 -0.1
v 0.3 4.9 -0.3
v 0.3 5 -0.3
v 0.3 5 -0.5
v 0.2 4.6 0
v 0.2 4.6 -0.1
v 0.2 4.7 -0.1
v 0.2 4.7 -0.5
v 0.2 4.8 0
v 0.2 4.8 -0.1
v 0.2 4.9 -0.1
v 0.2 4.9 -0.3
v 0.2 5 -0.3
v 0.2 5 -0.5
v 0.5 2 -0.6
v 0.5 2 -1
v 0.5 2.5 -0.9
v 0.5 2.5 -1
v 0.5 2.6 -0.9
v 0.5 2.6 -1
v 0.5 3 -0.9
v 0.5 3 -1
v 0.5 3.1 -0.9
v 0.5 3.1 -1
v 0.5 3.5 -0.9
v 0.5 3.5 -1
v 0.5 3.6 -0.9
v 0.5 3.6 -1
v 0.5 3.8 -0.6
v 0.5 3.8 -1
v 0.5 4.5 -1.1
v 0.5 4.5 -1.5
v 0.5 4.6 0
v 0.5 4.6 -0.1
v 0.5 4.6 -0.5
v 0.5 4.6 -0.6
v 0.5 4.6 -1
v 0.5 4.6 -1.1
v 0.5 4.7 -0.1
v 0.5 4.7 -0.5
v 0.5 4.8 0
v 0.5 4.8 -0.1
v 0.5 4.9 -0.1
v 0.5 4.9 -0.3
v 0.5 4.9 -1
v 0.5 4.9 -1.1
v 0.5 5 -0.3
v 0.5 5 -1
v 0.5 5 -1.1
v 0.5 5 -1.5
v 0 4.6 0
v 0 4.8 0
v 0.2 4.6 0
v 0.2 4.8 0
v 0.3 4.6 0
v 0.3 4.8 0
v 0.5 4.6 0
v 0.5 4.8 0
v 0 4.8 -0.1
v 0 4.9 -0.1
v 0.2 4.8 -0.1
v 0.2 4.9 -0.1
v 0.3 4.8 -0.1
v 0.3 4.9 -0.1
v 0.5 4.8 -0.1
v 0.5 4.9 -0.1
v 0 4.9 -0.3
v 0 5 -0.3
v 0.2 4.9 -0.3
v 0.2 5 -0.3
v 0.3 4.9 -0.3
v 0.3 5 -0.3
v 0.5 4.9 -0.3
v 0.5 5 -0.3
v 0 4.6 -0.5
v 0 4.7 -0.5
v 0.2 4.7 -0.5
v 0.2 5 -0.5
v 0.3 4.7 -0.5
v 0.3 5 -0.5
v 0.5 4.6 -0.5
v 0.5 4.7 -0.5
v 0 2 -0.6
v 0 3.8 -0.6
v 0 4.6 -0.6
v 0.5 2 -0.6
v 0.5 3.8 -0.6
v 0.5 4.6 -0.6
v 0 4.5 -1.1
v 0 4.6 -1.1
v 0 4.9 -1.1
v 0 5 -1.1
v 0.5 4.5 -1.1
v 0.5 4.6 -1.1
v 0.5 4.9 -1.1
v 0.5 5 -1.1
v 0 4.6 -0.1
v 0 4.7 -0.1
v 0.2 4.6 -0.1
v 0.2 4.7 -0.1
v 0.3 4.6 -0.1
v 0.3 4.7 -0.1
v 0.5 4.6 -0.1
v 0.5 4.7 -0.1
v 0 2.5 -0.9
v 0 2.6 -0.9
v 0 3 -0.9
v 0 3.1 -0.9
v 0 3.5 -0.9
v 0 3.6 -0.9
v 0.5 2.5 -0.9
v 0.5 2.6 -0.9
v 0.5 3 -0.9
v 0.5 3.1 -0.9
v 0.5 3.5 -0.9
v 0.5 3.6 -0.9
v 0 2 -1
v 0 2.5 -1
v 0 2.6 -1
v 0 3 -1
v 0 3.1 -1
v 0 3.5 -1
v 0 3.6 -1
v 0 3.8 -1
v 0 4.6 -1
v 0 4.9 -1
v 0 5 -1
v 0.5 2 -1
v 0.5 2.5 -1
v 0.5 2.6 -1
v 0.5 3 -1
v 0.5 3.1 -1
v 0.5 3.5 -1
v 0.5 3.6 -1
v 0.5 3.8 -1
v 0.5 4.6 -1
v 0.5 4.9 -1
v 0.5 5 -1
v 0 4.5 -1.5
v 0 5 -1.5
v 0.5 4.5 -1.5
v 0.5 5 -1.5
v 0 2 -0.6
v 0.5 2 -0.6
v 0 2 -1
v 0.5 2 -1
v 0 2.6 -0.9
v 0.5 2.6 -0.9
v 0 2.6 -1
v 0.5 2.6 -1
v 0 3.1 -0.9
v 0.5 3.1 -0.9
v 0 3.1 -1
v 0.5 3.1 -1
v 0 3.6 -0.9
v 0.5 3.6 -0.9
v 0 3.6 -1
v 0.5 3.6 -1
v 0 4.5 -1.1
v 0.5 4.5 -1.1
v 0 4.5 -1.5
v 0.5 4.5 -1.5
v 0 4.6 0
v 0.2 4.6 0
v 0.3 4.6 0
v 0.5 4.6 0
v 0 4.6 -0.1
v 0.2 4.6 -0.1
v 0.3 4.6 -0.1
v 0.5 4.6 -0.1
v 0 4.6 -0.5
v 0.5 4.6 -0.5
v 0 4.6 -0.6
v 0.5 4.6 -0.6
v 0 4.6 -1
v 0.5 4.6 -1
v 0 4.6 -1.1
v 0.5 4.6 -1.1
v 0 4.7 -0.1
v 0.2 4.7 -0.1
v 0.3 4.7 -0.1
v 0.5 4.7 -0.1
v 0 4.7 -0.5
v 0.2 4.7 -0.5
v 0.3 4.7 -0.5
v 0.5 4.7 -0.5
v 0 2.5 -0.9
v 0.5 2.5 -0.9
v 0 2.5 -1
v 0.5 2.5 -1
v 0 3 -0.9
v 0.5 3 -0.9
v 0 3 -1
v 0.5 3 -1
v 0 3.5 -0.9
v 0.5 3.5 -0.9
v 0 3.5 -1
v 0.5 3.5 -1
v 0 4.8 0
v 0.2 4.8 0
v 0.3 4.8 0
v 0.5 4.8 0
v 0 4.8 -0.1
v 0.2 4.8 -0.1
v 0.3 4.8 -0.1
v 0.5 4.8 -0.1
v 0 4.9 -0.1
v 0.2 4.9 -0.1
v 0.3 4.9 -0.1
v 0.5 4.9 -0.1
v 0 4.9 -0.3
v 0.2 4.9 -0.3
v 0.3 4.9 -0.3
v 0.5 4.9 -0.3
v 0 4.9 -1
v 0.5 4.9 -1
v 0 4.9 -1.1
v 0.5 4.9 -1.1
v 0 5 -0.3
v 0.2 5 -0.3
v 0.3 5 -0.3
v 0.5 5 -0.3
v 0.2 5 -0.5
v 0.3 5 -0.5
v 0 5 -1
v 0.5 5 -1
v 0 5 -1.1
v 0.5 5 -1.1
v 0 5 -1.5
v 0.5 5 -1.5

# faces
f 3/2/1 2/2/1 1/2/1
f 4/2/1 2/2/1 3/2/1
f 5/2/1 3/2/1 1/2/1
f 7/2/1 5/2/1 1/2/1
f 7/2/1 6/2/1 5/2/1
f 8/2/1 6/2/1 7/2/1
f 9/2/1 7/2/1 1/2/1
f 11/2/1 9/2/1 1/2/1
f 11/2/1 10/2/1 9/2/1
f 12/2/1 10/2/1 11/2/1
f 13/2/1 11/2/1 1/2/1
f 15/2/1 13/2/1 1/2/1
f 15/2/1 14/2/1 13/2/1
f 16/2/1 14/2/1 15/2/1
f 22/3/1 16/3/1 15/3/1
f 23/3/1 16/3/1 22/3/1
f 24/4/1 18/4/1 17/4/1
f 25/4/1 20/4/1 19/4/1
f 26/4/1 24/4/1 23/4/1
f 26/4/1 23/4/1 22/4/1
f 26/4/1 22/4/1 21/4/1
f 27/4/1 25/4/1 19/4/1
f 27/4/1 26/4/1 25/4/1
f 28/4/1 26/4/1 27/4/1
f 29/4/1 26/4/1 28/4/1
f 30/4/1 26/4/1 29/4/1
f 31/4/1 24/4/1 26/4/1
f 31/4/1 26/4/1 30/4/1
f 32/4/1 18/4/1 24/4/1
f 32/4/1 24/4/1 31/4/1
f 33/4/1 31/4/1 30/4/1
f 34/4/1 31/4/1 33/4/1
f 35/4/1 18/4/1 32/4/1
f 36/4/1 18/4/1 35/4/1
f 39/4/1 38/4/1 37/4/1
f 41/4/1 39/4/1 37/4/1
f 41/4/1 40/4/1 39/4/1
f 42/4/1 40/4/1 41/4/1
f 43/4/1 40/4/1 42/4/1
f 44/4/1 40/4/1 43/4/1
f 45/4/1 40/4/1 44/4/1
f 46/4/1 40/4/1 45/4/1
f 47/4/2 48/4/2 49/4/2
f 47/4/2 49/4/2 51/4/2
f 49/4/2 50/4/2 51/4/2
f 51/4/2 50/4/2 52/4/2
f 52/4/2 50/4/2 53/4/2
f 53/4/2 50/4/2 54/4/2
f 54/4/2 50/4/2 55/4/2
f 55/4/2 50/4/2 56/4/2
f 57/2/2 58/2/2 59/2/2
f 59/2/2 58/2/2 60/2/2
f 57/2/2 59/2/2 61/2/2
f 57/2/2 61/2/2 63/2/2
f 61/2/2 62/2/2 63/2/2
f 63/2/2 62/2/2 64/2/2
f 57/2/2 63/2/2 65/2/2
f 57/2/2 65/2/2 67/2/2
f 65/2/2 66/2/2 67/2/2
f 67/2/2 66/2/2 68/2/2
f 57/2/2 67/2/2 69/2/2
f 57/2/2 69/2/2 71/2/2
f 69/2/2 70/2/2 71/2/2
f 71/2/2 70/2/2 72/2/2
f 71/3/2 72/3/2 78/3/2
f 78/3/2 72/3/2 79/3/2
f 73/4/2 74/4/2 80/4/2
f 75/4/2 76/4/2 81/4/2
f 79/4/2 80/4/2 82/4/2
f 78/4/2 79/4/2 82/4/2
f 77/4/2 78/4/2 82/4/2
f 75/4/2 81/4/2 83/4/2
f 81/4/2 82/4/2 83/4/2
f 83/4/2 82/4/2 84/4/2
f 84/4/2 82/4/2 85/4/2
f 85/4/2 82/4/2 86/4/2
f 82/4/2 80/4/2 87/4/2
f 86/4/2 82/4/2 87/4/2
f 80/4/2 74/4/2 88/4/2
f 87/4/2 80/4/2 88/4/2
f 86/4/2 87/4/2 89/4/2
f 89/4/2 87/4/2 90/4/2
f 88/4/2 74/4/2 91/4/2
f 91/4/2 74/4/2 92/4/2
f 95/4/3 94/4/3 93/4/3
f 96/4/3 94/4/3 95/4/3
f 99/4/3 98/4/3 97/4/3
f 100/4/3 98/4/3 99/4/3
f 103/4/3 102/4/3 101/4/3
f 104/4/3 102/4/3 103/4/3
f 107/4/3 106/4/3 105/4/3
f 108/4/3 106/4/3 107/4/3
f 111/4/3 110/4/3 109/4/3
f 112/4/3 110/4/3 111/4/3
f 115/4/3 114/4/3 113/4/3
f 116/4/3 114/4/3 115/4/3
f 119/4/3 118/4/3 117/4/3
f 121/4/3 119/4/3 117/4/3
f 121/4/3 120/4/3 119/4/3
f 122/4/3 120/4/3 121/4/3
f 123/4/3 121/4/3 117/4/3
f 124/4/3 121/4/3 123/4/3
f 128/2/3 126/2/3 125/2/3
f 129/3/3 127/3/3 126/3/3
f 129/2/3 126/2/3 128/2/3
f 130/3/3 127/3/3 129/3/3
f 135/4/3 132/4/3 131/4/3
f 136/4/3 132/4/3 135/4/3
f 137/4/3 134/4/3 133/4/3
f 138/4/3 134/4/3 137/4/3
f 139/4/4 140/4/4 141/4/4
f 141/4/4 140/4/4 142/4/4
f 143/4/4 144/4/4 145/4/4
f 145/4/4 144/4/4 146/4/4
f 147/2/4 148/2/4 153/2/4
f 153/2/4 148/2/4 154/2/4
f 149/2/4 150/2/4 155/2/4
f 155/2/4 150/2/4 156/2/4
f 151/2/4 152/2/4 157/2/4
f 157/2/4 152/2/4 158/2/4
f 159/2/4 160/2/4 170/2/4
f 170/2/4 160/2/4 171/2/4
f 161/2/4 162/2/4 172/2/4
f 172/2/4 162/2/4 173/2/4
f 163/2/4 164/2/4 174/2/4
f 174/2/4 164/2/4 175/2/4
f 165/2/4 166/2/4 176/2/4
f 166/3/4 167/3/4 177/3/4
f 176/2/4 166/2/4 177/2/4
f 177/3/4 167/3/4 178/3/4
f 168/4/4 169/4/4 179/4/4
f 179/4/4 169/4/4 180/4/4
f 181/4/4 182/4/4 183/4/4
f 183/4/4 182/4/4 184/4/4
f 187/2/5 186/2/5 185/2/5
f 188/2/5 186/2/5 187/2/5
f 191/2/5 190/2/5 189/2/5
f 192/2/5 190/2/5 191/2/5
f 195/2/5 194/2/5 193/2/5
f 196/2/5 194/2/5 195/2/5
f 199/2/5 198/2/5 197/2/5
f 200/2/5 198/2/5 199/2/5
f 203/4/5 202/4/5 201/4/5
f 204/4/5 202/4/5 203/4/5
f 209/4/5 206/4/5 205/4/5
f 210/4/5 206/4/5 209/4/5
f 211/4/5 208/4/5 207/4/5
f 212/4/5 208/4/5 211/4/5
f 215/4/5 214/4/5 213/4/5
f 216/4/5 214/4/5 215/4/5
f 219/4/5 218/4/5 217/4/5
f 220/4/5 218/4/5 219/4/5
f 225/4/5 222/4/5 221/4/5
f 226/4/5 222/4/5 225/4/5
f 227/4/5 224/4/5 223/4/5
f 228/4/5 224/4/5 227/4/5
f 229/2/6 230/2/6 231/2/6
f 231/2/6 230/2/6 232/2/6
f 233/2/6 234/2/6 235/2/6
f 235/2/6 234/2/6 236/2/6
f 237/2/6 238/2/6 239/2/6
f 239/2/6 238/2/6 240/2/6
f 241/4/6 242/4/6 245/4/6
f 245/4/6 242/4/6 246/4/6
f 243/4/6 244/4/6 247/4/6
f 247/4/6 244/4/6 248/4/6
f 249/4/6 250/4/6 253/4/6
f 253/4/6 250/4/6 254/4/6
f 251/4/6 252/4/6 255/4/6
f 255/4/6 252/4/6 256/4/6
f 257/4/6 258/4/6 259/4/6
f 259/4/6 258/4/6 260/4/6
f 261/4/6 262/4/6 265/4/6
f 263/4/6 264/4/6 266/4/6
f 261/4/6 265/4/6 267/4/6
f 265/4/6 266/4/6 267/4/6
f 266/4/6 264/4/6 268/4/6
f 267/4/6 266/4/6 268/4/6
f 269/4/6 270/4/6 271/4/6
f 271/4/6 270/4/6 272/4/6
