# MagicaVoxel @ Ephtracy

# group
o 

# material
mtllib kitchentbenches-1.mtl
usemtl palette

# normals
vn -1 0 0
vn 1 0 0
vn 0 0 1
vn 0 0 -1
vn 0 -1 0
vn 0 1 0

# texcoords
vt 0.970703 0.5
vt 0.974609 0.5
vt 0.978516 0.5
vt 0.982422 0.5
vt 0.986328 0.5
vt 0.990234 0.5

# verts
v -2.5 1.7 -11.1
v -2.5 1.7 -11.4
v -2.5 1.7 -12
v -2.5 1.7 -12.3
v -2.5 3.5 -11.1
v -2.5 3.5 -11.4
v -2.5 3.5 -12
v -2.5 3.5 -12.3
v -2.3 4.6 -7.2
v -2.3 4.6 -16.1
v -2.3 5 -7.2
v -2.3 5 -16.1
v -2.2 4.5 -7.2
v -2.2 4.5 -16.1
v -2.2 4.6 -7.1
v -2.2 4.6 -7.2
v -2.2 4.6 -16.1
v -2.2 4.6 -16.2
v -2.2 5 -7.1
v -2.2 5 -7.2
v -2.2 5 -16.1
v -2.2 5 -16.2
v -2 0 -7.4
v -2 0 -7.6
v -2 0 -15.7
v -2 0 -15.9
v -2 4.5 -7.4
v -2 4.5 -7.6
v -2 4.5 -15.7
v -2 4.5 -15.9
v -1.9 0.1 -7.9
v -1.9 0.1 -11.5
v -1.9 0.1 -11.9
v -1.9 0.1 -15.5
v -1.9 0.2 -7.8
v -1.9 0.2 -7.9
v -1.9 0.2 -11.5
v -1.9 0.2 -11.6
v -1.9 0.2 -11.8
v -1.9 0.2 -11.9
v -1.9 0.2 -15.5
v -1.9 0.2 -15.6
v -1.9 1.7 -11.1
v -1.9 1.7 -11.4
v -1.9 1.7 -12
v -1.9 1.7 -12.3
v -1.9 2 -11.1
v -1.9 2 -11.4
v -1.9 2 -12
v -1.9 2 -12.3
v -1.9 3.2 -11.1
v -1.9 3.2 -11.4
v -1.9 3.2 -12
v -1.9 3.2 -12.3
v -1.9 3.5 -11.1
v -1.9 3.5 -11.4
v -1.9 3.5 -12
v -1.9 3.5 -12.3
v -1.9 4.3 -7.8
v -1.9 4.3 -7.9
v -1.9 4.3 -11.5
v -1.9 4.3 -11.6
v -1.9 4.3 -11.8
v -1.9 4.3 -11.9
v -1.9 4.3 -15.5
v -1.9 4.3 -15.6
v -1.9 4.4 -7.9
v -1.9 4.4 -11.5
v -1.9 4.4 -11.9
v -1.9 4.4 -15.5
v -1.8 0 -7.6
v -1.8 0 -15.7
v -1.8 0.1 -7.9
v -1.8 0.1 -11.5
v -1.8 0.1 -11.9
v -1.8 0.1 -15.5
v -1.8 0.2 -7.8
v -1.8 0.2 -7.9
v -1.8 0.2 -11.5
v -1.8 0.2 -11.6
v -1.8 0.2 -11.8
v -1.8 0.2 -11.9
v -1.8 0.2 -15.5
v -1.8 0.2 -15.6
v -1.8 4.3 -7.8
v -1.8 4.3 -7.9
v -1.8 4.3 -11.5
v -1.8 4.3 -11.6
v -1.8 4.3 -11.8
v -1.8 4.3 -11.9
v -1.8 4.3 -15.5
v -1.8 4.3 -15.6
v -1.8 4.4 -7.9
v -1.8 4.4 -11.5
v -1.8 4.4 -11.9
v -1.8 4.4 -15.5
v -1.8 4.5 -7.6
v -1.8 4.5 -15.7
v -1.4 3.2 -10
v -1.4 3.2 -10.1
v -1.4 3.4 -10
v -1.4 3.4 -10.1
v -1.3 3.1 -13.5
v -1.3 3.1 -13.6
v -1.3 3.2 -9.9
v -1.3 3.2 -10
v -1.3 3.2 -13.5
v -1.3 3.2 -13.6
v -1.3 4.9 -9.9
v -1.3 4.9 -10
v -1.2 3.1 -13.4
v -1.2 3.1 -13.5
v -1.2 3.2 -13.4
v -1.2 3.2 -13.5
v 1 3.2 -10.2
v 1 3.2 -13.7
v 1 4.5 -10.2
v 1 4.5 -13.7
v 1 4.6 -10.2
v 1 4.6 -13.7
v 1.4 4.8 -7.9
v 1.4 4.8 -8
v 1.4 4.8 -8.2
v 1.4 4.8 -8.3
v 1.4 4.9 -7.9
v 1.4 4.9 -8
v 1.4 4.9 -8.2
v 1.4 4.9 -8.3
v 1.5 4.8 -8
v 1.5 4.8 -8.2
v 1.5 4.9 -8
v 1.5 4.9 -8.2
v -2.2 2 -11.1
v -2.2 2 -11.4
v -2.2 2 -12
v -2.2 2 -12.3
v -2.2 3.2 -11.1
v -2.2 3.2 -11.4
v -2.2 3.2 -12
v -2.2 3.2 -12.3
v -1.5 3.2 -9.9
v -1.5 3.2 -10
v -1.5 3.2 -10.1
v -1.5 3.2 -10.2
v -1.5 3.2 -13.7
v -1.5 3.3 -10
v -1.5 3.3 -10.1
v -1.5 3.4 -10
v -1.5 3.4 -10.1
v -1.5 4.5 -10.2
v -1.5 4.5 -13.7
v -1.5 4.6 -10.2
v -1.5 4.6 -13.7
v -1.5 4.9 -9.9
v -1.5 4.9 -10
v -1.4 3.1 -13.5
v -1.4 3.1 -13.6
v -1.4 3.2 -13.5
v -1.4 3.2 -13.6
v -1.3 3.1 -13.4
v -1.3 3.1 -13.5
v -1.3 3.2 -13.4
v -1.3 3.2 -13.5
v 1.1 4.8 -8
v 1.1 4.8 -8.2
v 1.1 4.9 -8
v 1.1 4.9 -8.2
v 1.2 0 -7.4
v 1.2 0 -15.9
v 1.2 4.5 -7.4
v 1.2 4.5 -15.9
v 1.2 4.8 -7.9
v 1.2 4.8 -8
v 1.2 4.8 -8.2
v 1.2 4.8 -8.3
v 1.2 4.9 -7.9
v 1.2 4.9 -8
v 1.2 4.9 -8.2
v 1.2 4.9 -8.3
v 2.4 4.5 -7.2
v 2.4 4.5 -16.1
v 2.4 4.6 -7.1
v 2.4 4.6 -7.2
v 2.4 4.6 -16.1
v 2.4 4.6 -16.2
v 2.4 5 -7.1
v 2.4 5 -7.2
v 2.4 5 -16.1
v 2.4 5 -16.2
v 2.5 4.6 -7.2
v 2.5 4.6 -16.1
v 2.5 5 -7.2
v 2.5 5 -16.1
v -2.2 4.6 -7.1
v -2.2 5 -7.1
v 2.4 4.6 -7.1
v 2.4 5 -7.1
v -2.3 4.6 -7.2
v -2.3 5 -7.2
v -2.2 4.5 -7.2
v -2.2 4.6 -7.2
v -2.2 5 -7.2
v 2.4 4.5 -7.2
v 2.4 4.6 -7.2
v 2.4 5 -7.2
v 2.5 4.6 -7.2
v 2.5 5 -7.2
v -2 0 -7.4
v -2 4.5 -7.4
v 1.2 0 -7.4
v 1.2 4.5 -7.4
v -1.9 0.2 -7.8
v -1.9 4.3 -7.8
v -1.8 0.2 -7.8
v -1.8 4.3 -7.8
v -1.9 0.1 -7.9
v -1.9 0.2 -7.9
v -1.9 4.3 -7.9
v -1.9 4.4 -7.9
v -1.8 0.1 -7.9
v -1.8 0.2 -7.9
v -1.8 4.3 -7.9
v -1.8 4.4 -7.9
v 1.1 4.8 -8.2
v 1.1 4.9 -8.2
v 1.2 4.8 -8.2
v 1.2 4.9 -8.2
v 1.4 4.8 -8.2
v 1.4 4.9 -8.2
v 1.5 4.8 -8.2
v 1.5 4.9 -8.2
v 1.2 4.8 -8.3
v 1.2 4.9 -8.3
v 1.4 4.8 -8.3
v 1.4 4.9 -8.3
v -1.5 3.4 -10
v -1.5 4.9 -10
v -1.4 3.2 -10
v -1.4 3.4 -10
v -1.3 3.2 -10
v -1.3 4.9 -10
v -1.5 3.2 -10.1
v -1.5 3.3 -10.1
v -1.5 3.4 -10.1
v -1.4 3.2 -10.1
v -1.4 3.4 -10.1
v -2.5 1.7 -11.1
v -2.5 3.5 -11.1
v -2.2 2 -11.1
v -2.2 3.2 -11.1
v -1.9 1.7 -11.1
v -1.9 2 -11.1
v -1.9 3.2 -11.1
v -1.9 3.5 -11.1
v -1.9 0.2 -11.8
v -1.9 4.3 -11.8
v -1.8 0.2 -11.8
v -1.8 4.3 -11.8
v -1.9 0.1 -11.9
v -1.9 0.2 -11.9
v -1.9 4.3 -11.9
v -1.9 4.4 -11.9
v -1.8 0.1 -11.9
v -1.8 0.2 -11.9
v -1.8 4.3 -11.9
v -1.8 4.4 -11.9
v -2.5 1.7 -12
v -2.5 3.5 -12
v -2.2 2 -12
v -2.2 3.2 -12
v -1.9 1.7 -12
v -1.9 2 -12
v -1.9 3.2 -12
v -1.9 3.5 -12
v -1.3 3.1 -13.5
v -1.3 3.2 -13.5
v -1.2 3.1 -13.5
v -1.2 3.2 -13.5
v -1.4 3.1 -13.6
v -1.4 3.2 -13.6
v -1.3 3.1 -13.6
v -1.3 3.2 -13.6
v -1.5 3.2 -13.7
v -1.5 4.5 -13.7
v -1.5 4.6 -13.7
v 1 3.2 -13.7
v 1 4.5 -13.7
v 1 4.6 -13.7
v -2 0 -15.7
v -2 4.5 -15.7
v -1.8 0 -15.7
v -1.8 4.5 -15.7
v -2 0 -7.6
v -2 4.5 -7.6
v -1.8 0 -7.6
v -1.8 4.5 -7.6
v 1.2 4.8 -7.9
v 1.2 4.9 -7.9
v 1.4 4.8 -7.9
v 1.4 4.9 -7.9
v 1.1 4.8 -8
v 1.1 4.9 -8
v 1.2 4.8 -8
v 1.2 4.9 -8
v 1.4 4.8 -8
v 1.4 4.9 -8
v 1.5 4.8 -8
v 1.5 4.9 -8
v -1.5 3.2 -9.9
v -1.5 4.9 -9.9
v -1.3 3.2 -9.9
v -1.3 4.9 -9.9
v -1.5 3.2 -10.2
v -1.5 4.5 -10.2
v -1.5 4.6 -10.2
v 1 3.2 -10.2
v 1 4.5 -10.2
v 1 4.6 -10.2
v -2.5 1.7 -11.4
v -2.5 3.5 -11.4
v -2.2 2 -11.4
v -2.2 3.2 -11.4
v -1.9 1.7 -11.4
v -1.9 2 -11.4
v -1.9 3.2 -11.4
v -1.9 3.5 -11.4
v -1.9 0.1 -11.5
v -1.9 0.2 -11.5
v -1.9 4.3 -11.5
v -1.9 4.4 -11.5
v -1.8 0.1 -11.5
v -1.8 0.2 -11.5
v -1.8 4.3 -11.5
v -1.8 4.4 -11.5
v -1.9 0.2 -11.6
v -1.9 4.3 -11.6
v -1.8 0.2 -11.6
v -1.8 4.3 -11.6
v -2.5 1.7 -12.3
v -2.5 3.5 -12.3
v -2.2 2 -12.3
v -2.2 3.2 -12.3
v -1.9 1.7 -12.3
v -1.9 2 -12.3
v -1.9 3.2 -12.3
v -1.9 3.5 -12.3
v -1.3 3.1 -13.4
v -1.3 3.2 -13.4
v -1.2 3.1 -13.4
v -1.2 3.2 -13.4
v -1.4 3.1 -13.5
v -1.4 3.2 -13.5
v -1.3 3.1 -13.5
v -1.3 3.2 -13.5
v -1.9 0.1 -15.5
v -1.9 0.2 -15.5
v -1.9 4.3 -15.5
v -1.9 4.4 -15.5
v -1.8 0.1 -15.5
v -1.8 0.2 -15.5
v -1.8 4.3 -15.5
v -1.8 4.4 -15.5
v -1.9 0.2 -15.6
v -1.9 4.3 -15.6
v -1.8 0.2 -15.6
v -1.8 4.3 -15.6
v -2 0 -15.9
v -2 4.5 -15.9
v 1.2 0 -15.9
v 1.2 4.5 -15.9
v -2.3 4.6 -16.1
v -2.3 5 -16.1
v -2.2 4.5 -16.1
v -2.2 4.6 -16.1
v -2.2 5 -16.1
v 2.4 4.5 -16.1
v 2.4 4.6 -16.1
v 2.4 5 -16.1
v 2.5 4.6 -16.1
v 2.5 5 -16.1
v -2.2 4.6 -16.2
v -2.2 5 -16.2
v 2.4 4.6 -16.2
v 2.4 5 -16.2
v -2 0 -7.4
v 1.2 0 -7.4
v -2 0 -7.6
v -1.8 0 -7.6
v -1.7 0 -7.6
v -2 0 -15.7
v -1.8 0 -15.7
v -1.7 0 -15.7
v -2 0 -15.9
v 1.2 0 -15.9
v -1.9 0.1 -7.9
v -1.8 0.1 -7.9
v -1.9 0.1 -11.5
v -1.8 0.1 -11.5
v -1.9 0.1 -11.9
v -1.8 0.1 -11.9
v -1.9 0.1 -15.5
v -1.8 0.1 -15.5
v -1.9 0.2 -7.8
v -1.8 0.2 -7.8
v -1.9 0.2 -7.9
v -1.8 0.2 -7.9
v -1.9 0.2 -11.5
v -1.8 0.2 -11.5
v -1.9 0.2 -11.6
v -1.8 0.2 -11.6
v -1.9 0.2 -11.8
v -1.8 0.2 -11.8
v -1.9 0.2 -11.9
v -1.8 0.2 -11.9
v -1.9 0.2 -15.5
v -1.8 0.2 -15.5
v -1.9 0.2 -15.6
v -1.8 0.2 -15.6
v -2.5 1.7 -11.1
v -1.9 1.7 -11.1
v -2.5 1.7 -11.4
v -1.9 1.7 -11.4
v -2.5 1.7 -12
v -1.9 1.7 -12
v -2.5 1.7 -12.3
v -1.9 1.7 -12.3
v -2.2 3.2 -11.1
v -1.9 3.2 -11.1
v -2.2 3.2 -11.4
v -1.9 3.2 -11.4
v -2.2 3.2 -12
v -1.9 3.2 -12
v -2.2 3.2 -12.3
v -1.9 3.2 -12.3
v -1.5 3.4 -10
v -1.4 3.4 -10
v -1.5 3.4 -10.1
v -1.4 3.4 -10.1
v -2.2 4.5 -7.2
v 2.4 4.5 -7.2
v -2 4.5 -7.4
v 1.2 4.5 -7.4
v -2 4.5 -7.6
v -1.8 4.5 -7.6
v -2 4.5 -15.7
v -1.8 4.5 -15.7
v -2 4.5 -15.9
v 1.2 4.5 -15.9
v -2.2 4.5 -16.1
v 2.4 4.5 -16.1
v -2.2 4.6 -7.1
v 2.4 4.6 -7.1
v -2.3 4.6 -7.2
v -2.2 4.6 -7.2
v 2.4 4.6 -7.2
v 2.5 4.6 -7.2
v -1.5 4.6 -10.2
v 1 4.6 -10.2
v -1.5 4.6 -13.7
v 1 4.6 -13.7
v -2.3 4.6 -16.1
v -2.2 4.6 -16.1
v 2.4 4.6 -16.1
v 2.5 4.6 -16.1
v -2.2 4.6 -16.2
v 2.4 4.6 -16.2
v 1.2 4.9 -7.9
v 1.4 4.9 -7.9
v 1.1 4.9 -8
v 1.2 4.9 -8
v 1.4 4.9 -8
v 1.5 4.9 -8
v 1.1 4.9 -8.2
v 1.2 4.9 -8.2
v 1.4 4.9 -8.2
v 1.5 4.9 -8.2
v 1.2 4.9 -8.3
v 1.4 4.9 -8.3
v -1.5 4.9 -9.9
v -1.3 4.9 -9.9
v -1.5 4.9 -10
v -1.3 4.9 -10
v -2.2 2 -11.1
v -1.9 2 -11.1
v -2.2 2 -11.4
v -1.9 2 -11.4
v -2.2 2 -12
v -1.9 2 -12
v -2.2 2 -12.3
v -1.9 2 -12.3
v -1.3 3.1 -13.4
v -1.2 3.1 -13.4
v -1.4 3.1 -13.5
v -1.3 3.1 -13.5
v -1.2 3.1 -13.5
v -1.4 3.1 -13.6
v -1.3 3.1 -13.6
v -1.5 3.2 -9.9
v -1.3 3.2 -9.9
v -1.5 3.2 -10
v -1.4 3.2 -10
v -1.3 3.2 -10
v -1.5 3.2 -10.1
v -1.4 3.2 -10.1
v -1.5 3.2 -10.2
v 1 3.2 -10.2
v -1.3 3.2 -13.4
v -1.2 3.2 -13.4
v -1.4 3.2 -13.5
v -1.3 3.2 -13.5
v -1.2 3.2 -13.5
v -1.4 3.2 -13.6
v -1.3 3.2 -13.6
v -1.5 3.2 -13.7
v 1 3.2 -13.7
v -2.5 3.5 -11.1
v -1.9 3.5 -11.1
v -2.5 3.5 -11.4
v -1.9 3.5 -11.4
v -2.5 3.5 -12
v -1.9 3.5 -12
v -2.5 3.5 -12.3
v -1.9 3.5 -12.3
v -1.9 4.3 -7.8
v -1.8 4.3 -7.8
v -1.9 4.3 -7.9
v -1.8 4.3 -7.9
v -1.9 4.3 -11.5
v -1.8 4.3 -11.5
v -1.9 4.3 -11.6
v -1.8 4.3 -11.6
v -1.9 4.3 -11.8
v -1.8 4.3 -11.8
v -1.9 4.3 -11.9
v -1.8 4.3 -11.9
v -1.9 4.3 -15.5
v -1.8 4.3 -15.5
v -1.9 4.3 -15.6
v -1.8 4.3 -15.6
v -1.9 4.4 -7.9
v -1.8 4.4 -7.9
v -1.9 4.4 -11.5
v -1.8 4.4 -11.5
v -1.9 4.4 -11.9
v -1.8 4.4 -11.9
v -1.9 4.4 -15.5
v -1.8 4.4 -15.5
v 1.2 4.8 -7.9
v 1.4 4.8 -7.9
v 1.1 4.8 -8
v 1.2 4.8 -8
v 1.4 4.8 -8
v 1.5 4.8 -8
v 1.1 4.8 -8.2
v 1.2 4.8 -8.2
v 1.4 4.8 -8.2
v 1.5 4.8 -8.2
v 1.2 4.8 -8.3
v 1.4 4.8 -8.3
v -2.2 5 -7.1
v 2.4 5 -7.1
v -2.3 5 -7.2
v -2.2 5 -7.2
v 2.4 5 -7.2
v 2.5 5 -7.2
v -2.3 5 -16.1
v -2.2 5 -16.1
v 2.4 5 -16.1
v 2.5 5 -16.1
v -2.2 5 -16.2
v 2.4 5 -16.2

# faces
f 5/5/1 2/5/1 1/5/1
f 6/5/1 2/5/1 5/5/1
f 7/5/1 4/5/1 3/5/1
f 8/5/1 4/5/1 7/5/1
f 11/2/1 10/2/1 9/2/1
f 12/2/1 10/2/1 11/2/1
f 16/2/1 14/2/1 13/2/1
f 17/2/1 14/2/1 16/2/1
f 19/2/1 16/2/1 15/2/1
f 20/2/1 16/2/1 19/2/1
f 21/2/1 18/2/1 17/2/1
f 22/2/1 18/2/1 21/2/1
f 27/1/1 24/1/1 23/1/1
f 28/1/1 24/1/1 27/1/1
f 29/1/1 26/1/1 25/1/1
f 30/1/1 26/1/1 29/1/1
f 36/3/1 32/3/1 31/3/1
f 37/3/1 32/3/1 36/3/1
f 40/3/1 34/3/1 33/3/1
f 41/3/1 34/3/1 40/3/1
f 43/3/1 38/3/1 37/3/1
f 43/3/1 36/3/1 35/3/1
f 43/3/1 37/3/1 36/3/1
f 44/3/1 38/3/1 43/3/1
f 45/3/1 42/3/1 41/3/1
f 45/3/1 41/3/1 40/3/1
f 45/3/1 40/3/1 39/3/1
f 46/3/1 42/3/1 45/3/1
f 47/3/1 43/3/1 35/3/1
f 48/3/1 38/3/1 44/3/1
f 49/3/1 45/3/1 39/3/1
f 50/3/1 42/3/1 46/3/1
f 51/3/1 47/3/1 35/3/1
f 51/3/1 48/3/1 47/3/1
f 52/3/1 38/3/1 48/3/1
f 52/3/1 48/3/1 51/3/1
f 53/3/1 50/3/1 49/3/1
f 53/3/1 49/3/1 39/3/1
f 54/3/1 42/3/1 50/3/1
f 54/3/1 50/3/1 53/3/1
f 55/3/1 51/3/1 35/3/1
f 56/3/1 38/3/1 52/3/1
f 57/3/1 53/3/1 39/3/1
f 58/3/1 42/3/1 54/3/1
f 59/3/1 55/3/1 35/3/1
f 59/3/1 56/3/1 55/3/1
f 60/3/1 56/3/1 59/3/1
f 61/3/1 38/3/1 56/3/1
f 61/3/1 56/3/1 60/3/1
f 62/3/1 38/3/1 61/3/1
f 63/3/1 58/3/1 57/3/1
f 63/3/1 57/3/1 39/3/1
f 64/3/1 58/3/1 63/3/1
f 65/3/1 42/3/1 58/3/1
f 65/3/1 58/3/1 64/3/1
f 66/3/1 42/3/1 65/3/1
f 67/3/1 61/3/1 60/3/1
f 68/3/1 61/3/1 67/3/1
f 69/3/1 65/3/1 64/3/1
f 70/3/1 65/3/1 69/3/1
f 73/4/1 72/4/1 71/4/1
f 74/4/1 72/4/1 73/4/1
f 75/4/1 72/4/1 74/4/1
f 76/4/1 72/4/1 75/4/1
f 77/4/1 73/4/1 71/4/1
f 78/4/1 73/4/1 77/4/1
f 79/4/1 75/4/1 74/4/1
f 80/4/1 75/4/1 79/4/1
f 81/4/1 75/4/1 80/4/1
f 82/4/1 75/4/1 81/4/1
f 83/4/1 72/4/1 76/4/1
f 84/4/1 72/4/1 83/4/1
f 85/4/1 77/4/1 71/4/1
f 88/4/1 81/4/1 80/4/1
f 89/4/1 81/4/1 88/4/1
f 92/4/1 72/4/1 84/4/1
f 93/4/1 86/4/1 85/4/1
f 94/4/1 90/4/1 89/4/1
f 94/4/1 88/4/1 87/4/1
f 94/4/1 89/4/1 88/4/1
f 95/4/1 90/4/1 94/4/1
f 96/4/1 92/4/1 91/4/1
f 97/4/1 93/4/1 85/4/1
f 97/4/1 96/4/1 95/4/1
f 97/4/1 95/4/1 94/4/1
f 97/4/1 85/4/1 71/4/1
f 97/4/1 94/4/1 93/4/1
f 98/4/1 92/4/1 96/4/1
f 98/4/1 96/4/1 97/4/1
f 98/4/1 72/4/1 92/4/1
f 101/6/1 100/6/1 99/6/1
f 102/6/1 100/6/1 101/6/1
f 107/6/1 104/6/1 103/6/1
f 108/6/1 104/6/1 107/6/1
f 109/6/1 106/6/1 105/6/1
f 110/6/1 106/6/1 109/6/1
f 113/6/1 112/6/1 111/6/1
f 114/6/1 112/6/1 113/6/1
f 117/1/1 116/1/1 115/1/1
f 118/1/1 116/1/1 117/1/1
f 119/2/1 118/2/1 117/2/1
f 120/2/1 118/2/1 119/2/1
f 125/6/1 122/6/1 121/6/1
f 126/6/1 122/6/1 125/6/1
f 127/6/1 124/6/1 123/6/1
f 128/6/1 124/6/1 127/6/1
f 131/6/1 130/6/1 129/6/1
f 132/6/1 130/6/1 131/6/1
f 133/5/2 134/5/2 137/5/2
f 137/5/2 134/5/2 138/5/2
f 135/5/2 136/5/2 139/5/2
f 139/5/2 136/5/2 140/5/2
f 141/6/2 142/6/2 146/6/2
f 142/1/2 143/1/2 146/1/2
f 146/1/2 143/1/2 147/1/2
f 141/6/2 146/6/2 148/6/2
f 146/6/2 147/6/2 148/6/2
f 148/6/2 147/6/2 149/6/2
f 144/1/2 145/1/2 150/1/2
f 150/1/2 145/1/2 151/1/2
f 150/2/2 151/2/2 152/2/2
f 152/2/2 151/2/2 153/2/2
f 141/6/2 148/6/2 154/6/2
f 154/6/2 148/6/2 155/6/2
f 156/6/2 157/6/2 158/6/2
f 158/6/2 157/6/2 159/6/2
f 160/6/2 161/6/2 162/6/2
f 162/6/2 161/6/2 163/6/2
f 164/6/2 165/6/2 166/6/2
f 166/6/2 165/6/2 167/6/2
f 168/1/2 169/1/2 170/1/2
f 170/1/2 169/1/2 171/1/2
f 172/6/2 173/6/2 176/6/2
f 176/6/2 173/6/2 177/6/2
f 174/6/2 175/6/2 178/6/2
f 178/6/2 175/6/2 179/6/2
f 180/2/2 181/2/2 183/2/2
f 183/2/2 181/2/2 184/2/2
f 182/2/2 183/2/2 186/2/2
f 186/2/2 183/2/2 187/2/2
f 184/2/2 185/2/2 188/2/2
f 188/2/2 185/2/2 189/2/2
f 190/2/2 191/2/2 192/2/2
f 192/2/2 191/2/2 193/2/2
f 196/2/3 195/2/3 194/2/3
f 197/2/3 195/2/3 196/2/3
f 201/2/3 199/2/3 198/2/3
f 202/2/3 199/2/3 201/2/3
f 203/2/3 201/2/3 200/2/3
f 204/2/3 201/2/3 203/2/3
f 206/2/3 205/2/3 204/2/3
f 207/2/3 205/2/3 206/2/3
f 210/1/3 209/1/3 208/1/3
f 211/1/3 209/1/3 210/1/3
f 214/3/3 213/3/3 212/3/3
f 215/3/3 213/3/3 214/3/3
f 220/3/3 217/3/3 216/3/3
f 221/3/3 217/3/3 220/3/3
f 222/3/3 219/3/3 218/3/3
f 223/3/3 219/3/3 222/3/3
f 226/6/3 225/6/3 224/6/3
f 227/6/3 225/6/3 226/6/3
f 230/6/3 229/6/3 228/6/3
f 231/6/3 229/6/3 230/6/3
f 234/6/3 233/6/3 232/6/3
f 235/6/3 233/6/3 234/6/3
f 239/6/3 237/6/3 236/6/3
f 240/6/3 239/6/3 238/6/3
f 241/6/3 237/6/3 239/6/3
f 241/6/3 239/6/3 240/6/3
f 245/6/3 243/6/3 242/6/3
f 245/6/3 244/6/3 243/6/3
f 246/6/3 244/6/3 245/6/3
f 249/5/3 248/5/3 247/5/3
f 250/5/3 248/5/3 249/5/3
f 251/5/3 249/5/3 247/5/3
f 252/5/3 249/5/3 251/5/3
f 253/5/3 248/5/3 250/5/3
f 254/5/3 248/5/3 253/5/3
f 257/3/3 256/3/3 255/3/3
f 258/3/3 256/3/3 257/3/3
f 263/3/3 260/3/3 259/3/3
f 264/3/3 260/3/3 263/3/3
f 265/3/3 262/3/3 261/3/3
f 266/3/3 262/3/3 265/3/3
f 269/5/3 268/5/3 267/5/3
f 270/5/3 268/5/3 269/5/3
f 271/5/3 269/5/3 267/5/3
f 272/5/3 269/5/3 271/5/3
f 273/5/3 268/5/3 270/5/3
f 274/5/3 268/5/3 273/5/3
f 277/6/3 276/6/3 275/6/3
f 278/6/3 276/6/3 277/6/3
f 281/6/3 280/6/3 279/6/3
f 282/6/3 280/6/3 281/6/3
f 286/1/3 284/1/3 283/1/3
f 287/2/3 285/2/3 284/2/3
f 287/1/3 284/1/3 286/1/3
f 288/2/3 285/2/3 287/2/3
f 291/1/3 290/1/3 289/1/3
f 292/1/3 290/1/3 291/1/3
f 293/1/4 294/1/4 295/1/4
f 295/1/4 294/1/4 296/1/4
f 297/6/4 298/6/4 299/6/4
f 299/6/4 298/6/4 300/6/4
f 301/6/4 302/6/4 303/6/4
f 303/6/4 302/6/4 304/6/4
f 305/6/4 306/6/4 307/6/4
f 307/6/4 306/6/4 308/6/4
f 309/6/4 310/6/4 311/6/4
f 311/6/4 310/6/4 312/6/4
f 313/6/4 314/6/4 316/6/4
f 314/6/4 315/6/4 316/6/4
f 316/6/4 315/6/4 317/6/4
f 317/6/4 315/6/4 318/6/4
f 319/5/4 320/5/4 321/5/4
f 321/5/4 320/5/4 322/5/4
f 319/5/4 321/5/4 323/5/4
f 323/5/4 321/5/4 324/5/4
f 322/5/4 320/5/4 325/5/4
f 325/5/4 320/5/4 326/5/4
f 327/3/4 328/3/4 331/3/4
f 331/3/4 328/3/4 332/3/4
f 329/3/4 330/3/4 333/3/4
f 333/3/4 330/3/4 334/3/4
f 335/3/4 336/3/4 337/3/4
f 337/3/4 336/3/4 338/3/4
f 339/5/4 340/5/4 341/5/4
f 341/5/4 340/5/4 342/5/4
f 339/5/4 341/5/4 343/5/4
f 343/5/4 341/5/4 344/5/4
f 342/5/4 340/5/4 345/5/4
f 345/5/4 340/5/4 346/5/4
f 347/6/4 348/6/4 349/6/4
f 349/6/4 348/6/4 350/6/4
f 351/6/4 352/6/4 353/6/4
f 353/6/4 352/6/4 354/6/4
f 355/3/4 356/3/4 359/3/4
f 359/3/4 356/3/4 360/3/4
f 357/3/4 358/3/4 361/3/4
f 361/3/4 358/3/4 362/3/4
f 363/3/4 364/3/4 365/3/4
f 365/3/4 364/3/4 366/3/4
f 367/1/4 368/1/4 369/1/4
f 369/1/4 368/1/4 370/1/4
f 371/2/4 372/2/4 374/2/4
f 374/2/4 372/2/4 375/2/4
f 373/2/4 374/2/4 376/2/4
f 376/2/4 374/2/4 377/2/4
f 377/2/4 378/2/4 379/2/4
f 379/2/4 378/2/4 380/2/4
f 381/2/4 382/2/4 383/2/4
f 383/2/4 382/2/4 384/2/4
f 387/1/5 386/1/5 385/1/5
f 388/1/5 386/1/5 387/1/5
f 389/1/5 386/1/5 388/1/5
f 391/4/5 389/4/5 388/4/5
f 392/1/5 386/1/5 389/1/5
f 392/4/5 389/4/5 391/4/5
f 393/1/5 391/1/5 390/1/5
f 393/1/5 392/1/5 391/1/5
f 394/1/5 386/1/5 392/1/5
f 394/1/5 392/1/5 393/1/5
f 397/3/5 396/3/5 395/3/5
f 398/3/5 396/3/5 397/3/5
f 401/3/5 400/3/5 399/3/5
f 402/3/5 400/3/5 401/3/5
f 405/3/5 404/3/5 403/3/5
f 406/3/5 404/3/5 405/3/5
f 409/3/5 408/3/5 407/3/5
f 410/3/5 408/3/5 409/3/5
f 413/3/5 412/3/5 411/3/5
f 414/3/5 412/3/5 413/3/5
f 417/3/5 416/3/5 415/3/5
f 418/3/5 416/3/5 417/3/5
f 421/5/5 420/5/5 419/5/5
f 422/5/5 420/5/5 421/5/5
f 425/5/5 424/5/5 423/5/5
f 426/5/5 424/5/5 425/5/5
f 429/5/5 428/5/5 427/5/5
f 430/5/5 428/5/5 429/5/5
f 433/5/5 432/5/5 431/5/5
f 434/5/5 432/5/5 433/5/5
f 437/6/5 436/6/5 435/6/5
f 438/6/5 436/6/5 437/6/5
f 441/2/5 440/2/5 439/2/5
f 442/2/5 440/2/5 441/2/5
f 443/2/5 441/2/5 439/2/5
f 445/2/5 443/2/5 439/2/5
f 445/2/5 444/2/5 443/2/5
f 446/2/5 444/2/5 445/2/5
f 447/2/5 445/2/5 439/2/5
f 448/2/5 440/2/5 442/2/5
f 449/2/5 447/2/5 439/2/5
f 449/2/5 448/2/5 447/2/5
f 450/2/5 440/2/5 448/2/5
f 450/2/5 448/2/5 449/2/5
f 454/2/5 452/2/5 451/2/5
f 455/2/5 452/2/5 454/2/5
f 459/2/5 458/2/5 457/2/5
f 460/2/5 458/2/5 459/2/5
f 461/2/5 454/2/5 453/2/5
f 462/2/5 454/2/5 461/2/5
f 463/2/5 456/2/5 455/2/5
f 464/2/5 456/2/5 463/2/5
f 465/2/5 463/2/5 462/2/5
f 466/2/5 463/2/5 465/2/5
f 470/2/5 468/2/5 467/2/5
f 471/2/5 468/2/5 470/2/5
f 473/2/5 470/2/5 469/2/5
f 473/2/5 472/2/5 471/2/5
f 473/2/5 471/2/5 470/2/5
f 474/2/5 472/2/5 473/2/5
f 475/2/5 472/2/5 474/2/5
f 476/2/5 472/2/5 475/2/5
f 477/2/5 475/2/5 474/2/5
f 478/2/5 475/2/5 477/2/5
f 481/2/5 480/2/5 479/2/5
f 482/2/5 480/2/5 481/2/5
f 483/5/6 484/5/6 485/5/6
f 485/5/6 484/5/6 486/5/6
f 487/5/6 488/5/6 489/5/6
f 489/5/6 488/5/6 490/5/6
f 491/1/6 492/1/6 494/1/6
f 494/1/6 492/1/6 495/1/6
f 493/1/6 494/1/6 496/1/6
f 496/1/6 494/1/6 497/1/6
f 498/6/6 499/6/6 500/6/6
f 500/6/6 499/6/6 501/6/6
f 501/6/6 499/6/6 502/6/6
f 500/6/6 501/6/6 503/6/6
f 503/6/6 501/6/6 504/6/6
f 505/6/6 506/6/6 507/6/6
f 507/6/6 506/6/6 508/6/6
f 505/6/6 507/6/6 509/6/6
f 509/6/6 507/6/6 510/6/6
f 508/6/6 506/6/6 511/6/6
f 505/6/6 509/6/6 512/6/6
f 510/6/6 511/6/6 513/6/6
f 505/6/6 512/6/6 514/6/6
f 512/6/6 513/6/6 514/6/6
f 513/6/6 511/6/6 515/6/6
f 514/6/6 513/6/6 515/6/6
f 511/6/6 506/6/6 515/6/6
f 516/5/6 517/5/6 518/5/6
f 518/5/6 517/5/6 519/5/6
f 520/5/6 521/5/6 522/5/6
f 522/5/6 521/5/6 523/5/6
f 524/3/6 525/3/6 526/3/6
f 526/3/6 525/3/6 527/3/6
f 528/3/6 529/3/6 530/3/6
f 530/3/6 529/3/6 531/3/6
f 532/3/6 533/3/6 534/3/6
f 534/3/6 533/3/6 535/3/6
f 536/3/6 537/3/6 538/3/6
f 538/3/6 537/3/6 539/3/6
f 540/3/6 541/3/6 542/3/6
f 542/3/6 541/3/6 543/3/6
f 544/3/6 545/3/6 546/3/6
f 546/3/6 545/3/6 547/3/6
f 548/6/6 549/6/6 551/6/6
f 551/6/6 549/6/6 552/6/6
f 550/6/6 551/6/6 554/6/6
f 552/6/6 553/6/6 554/6/6
f 551/6/6 552/6/6 554/6/6
f 554/6/6 553/6/6 555/6/6
f 555/6/6 553/6/6 556/6/6
f 556/6/6 553/6/6 557/6/6
f 555/6/6 556/6/6 558/6/6
f 558/6/6 556/6/6 559/6/6
f 560/2/6 561/2/6 563/2/6
f 563/2/6 561/2/6 564/2/6
f 562/2/6 563/2/6 566/2/6
f 564/2/6 565/2/6 566/2/6
f 563/2/6 564/2/6 566/2/6
f 566/2/6 565/2/6 567/2/6
f 567/2/6 565/2/6 568/2/6
f 568/2/6 565/2/6 569/2/6
f 567/2/6 568/2/6 570/2/6
f 570/2/6 568/2/6 571/2/6
