# MagicaVoxel @ Ephtracy

# group
o 

# material
mtllib Shovel.mtl
usemtl palette

# normals
vn -1 0 0
vn 1 0 0
vn 0 0 1
vn 0 0 -1
vn 0 -1 0
vn 0 1 0

# texcoords
vt 0.845703 0.5
vt 0.970703 0.5
vt 0.994141 0.5

# verts
v 0 2 -0.4
v 0 2 -0.6
v 0 2.1 -0.3
v 0 2.1 -0.4
v 0 2.1 -0.6
v 0 2.1 -0.7
v 0 2.2 -0.2
v 0 2.2 -0.3
v 0 2.2 -0.4
v 0 2.2 -0.6
v 0 2.2 -0.7
v 0 2.2 -0.8
v 0 2.4 -0.1
v 0 2.4 -0.2
v 0 2.4 -0.3
v 0 2.4 -0.7
v 0 2.4 -0.8
v 0 2.4 -0.9
v 0 2.6 0
v 0 2.6 -0.1
v 0 2.6 -0.2
v 0 2.6 -0.8
v 0 2.6 -0.9
v 0 2.6 -1
v 0 2.9 0
v 0 2.9 -0.1
v 0 2.9 -0.9
v 0 2.9 -1
v 0 3 -0.1
v 0 3 -0.4
v 0 3 -0.6
v 0 3 -0.9
v 0 3.2 -0.4
v 0 3.2 -0.6
v 0 3.4 -0.4
v 0 3.4 -0.6
v 0 5.1 -0.4
v 0 5.1 -0.6
v 0 5.2 -0.3
v 0 5.2 -0.4
v 0 5.2 -0.6
v 0 5.2 -0.7
v 0 5.3 -0.4
v 0 5.3 -0.6
v 0 5.4 -0.2
v 0 5.4 -0.3
v 0 5.4 -0.7
v 0 5.4 -0.8
v 0 5.5 -0.3
v 0 5.5 -0.4
v 0 5.5 -0.6
v 0 5.5 -0.7
v 0 5.7 -0.3
v 0 5.7 -0.7
v 0 5.8 -0.2
v 0 5.8 -0.8
v 0.2 2.1 -0.4
v 0.2 2.1 -0.6
v 0.2 2.2 -0.3
v 0.2 2.2 -0.4
v 0.2 2.2 -0.6
v 0.2 2.2 -0.7
v 0.2 2.4 -0.2
v 0.2 2.4 -0.3
v 0.2 2.4 -0.7
v 0.2 2.4 -0.8
v 0.2 2.6 -0.1
v 0.2 2.6 -0.2
v 0.2 2.6 -0.8
v 0.2 2.6 -0.9
v 0.2 2.9 -0.1
v 0.2 2.9 -0.9
v 0.1 3.4 -0.4
v 0.1 3.4 -0.6
v 0.1 5.1 -0.4
v 0.1 5.1 -0.6
v 0.1 5.2 -0.3
v 0.1 5.2 -0.4
v 0.1 5.2 -0.6
v 0.1 5.2 -0.7
v 0.1 5.3 -0.4
v 0.1 5.3 -0.6
v 0.1 5.4 -0.2
v 0.1 5.4 -0.3
v 0.1 5.4 -0.7
v 0.1 5.4 -0.8
v 0.1 5.5 -0.3
v 0.1 5.5 -0.4
v 0.1 5.5 -0.6
v 0.1 5.5 -0.7
v 0.1 5.7 -0.3
v 0.1 5.7 -0.7
v 0.1 5.8 -0.2
v 0.1 5.8 -0.8
v 0.2 2 -0.4
v 0.2 2 -0.6
v 0.2 2.1 -0.3
v 0.2 2.1 -0.4
v 0.2 2.1 -0.6
v 0.2 2.1 -0.7
v 0.2 2.2 -0.2
v 0.2 2.2 -0.3
v 0.2 2.2 -0.4
v 0.2 2.2 -0.6
v 0.2 2.2 -0.7
v 0.2 2.2 -0.8
v 0.2 2.4 -0.1
v 0.2 2.4 -0.2
v 0.2 2.4 -0.3
v 0.2 2.4 -0.7
v 0.2 2.4 -0.8
v 0.2 2.4 -0.9
v 0.2 2.6 0
v 0.2 2.6 -0.1
v 0.2 2.6 -0.2
v 0.2 2.6 -0.8
v 0.2 2.6 -0.9
v 0.2 2.6 -1
v 0.2 2.9 0
v 0.2 2.9 -0.1
v 0.2 2.9 -0.2
v 0.2 2.9 -0.8
v 0.2 2.9 -0.9
v 0.2 2.9 -1
v 0.2 3 -0.1
v 0.2 3 -0.2
v 0.2 3 -0.8
v 0.2 3 -0.9
v 0.2 3.2 -0.4
v 0.2 3.2 -0.6
v 0.2 3.4 -0.4
v 0.2 3.4 -0.6
v 0.3 2.1 -0.4
v 0.3 2.1 -0.6
v 0.3 2.2 -0.3
v 0.3 2.2 -0.4
v 0.3 2.2 -0.6
v 0.3 2.2 -0.7
v 0.3 2.4 -0.2
v 0.3 2.4 -0.3
v 0.3 2.4 -0.7
v 0.3 2.4 -0.8
v 0.3 2.6 -0.1
v 0.3 2.6 -0.2
v 0.3 2.6 -0.8
v 0.3 2.6 -0.9
v 0.3 2.9 -0.1
v 0.3 2.9 -0.2
v 0.3 2.9 -0.8
v 0.3 2.9 -0.9
v 0.3 3 -0.2
v 0.3 3 -0.4
v 0.3 3 -0.6
v 0.3 3 -0.8
v 0.3 3.2 -0.4
v 0.3 3.2 -0.6
v 0 2.6 0
v 0 2.9 0
v 0.2 2.6 0
v 0.2 2.9 0
v 0 2.4 -0.1
v 0 2.6 -0.1
v 0 2.9 -0.1
v 0 3 -0.1
v 0.2 2.4 -0.1
v 0.2 2.6 -0.1
v 0.2 2.9 -0.1
v 0.2 3 -0.1
v 0.3 2.6 -0.1
v 0.3 2.9 -0.1
v 0 2.2 -0.2
v 0 2.4 -0.2
v 0 5.4 -0.2
v 0 5.8 -0.2
v 0.1 5.4 -0.2
v 0.1 5.8 -0.2
v 0.2 2.2 -0.2
v 0.2 2.4 -0.2
v 0.2 2.6 -0.2
v 0.2 2.9 -0.2
v 0.2 3 -0.2
v 0.3 2.4 -0.2
v 0.3 2.6 -0.2
v 0.3 2.9 -0.2
v 0.3 3 -0.2
v 0 2.1 -0.3
v 0 2.2 -0.3
v 0 5.2 -0.3
v 0 5.4 -0.3
v 0.1 5.2 -0.3
v 0.1 5.4 -0.3
v 0.2 2.1 -0.3
v 0.2 2.2 -0.3
v 0.2 2.4 -0.3
v 0.3 2.2 -0.3
v 0.3 2.4 -0.3
v 0 2 -0.4
v 0 2.1 -0.4
v 0 3 -0.4
v 0 3.2 -0.4
v 0 3.4 -0.4
v 0 5.1 -0.4
v 0 5.2 -0.4
v 0.1 3.4 -0.4
v 0.1 5.1 -0.4
v 0.1 5.2 -0.4
v 0.2 2 -0.4
v 0.2 2.1 -0.4
v 0.2 2.2 -0.4
v 0.2 3.2 -0.4
v 0.2 3.4 -0.4
v 0.3 2.1 -0.4
v 0.3 2.2 -0.4
v 0.3 3 -0.4
v 0.3 3.2 -0.4
v 0 2.1 -0.6
v 0 2.2 -0.6
v 0 5.3 -0.6
v 0 5.5 -0.6
v 0.1 5.3 -0.6
v 0.1 5.5 -0.6
v 0.2 2.1 -0.6
v 0.2 2.2 -0.6
v 0 2.2 -0.7
v 0 2.4 -0.7
v 0 5.5 -0.7
v 0 5.7 -0.7
v 0.1 5.5 -0.7
v 0.1 5.7 -0.7
v 0.2 2.2 -0.7
v 0.2 2.4 -0.7
v 0 2.4 -0.8
v 0 2.6 -0.8
v 0.2 2.4 -0.8
v 0.2 2.6 -0.8
v 0 2.6 -0.9
v 0 2.9 -0.9
v 0.2 2.6 -0.9
v 0.2 2.9 -0.9
v 0 2.6 -0.1
v 0 2.9 -0.1
v 0.2 2.6 -0.1
v 0.2 2.9 -0.1
v 0 2.4 -0.2
v 0 2.6 -0.2
v 0.2 2.4 -0.2
v 0.2 2.6 -0.2
v 0 2.2 -0.3
v 0 2.4 -0.3
v 0 5.5 -0.3
v 0 5.7 -0.3
v 0.1 5.5 -0.3
v 0.1 5.7 -0.3
v 0.2 2.2 -0.3
v 0.2 2.4 -0.3
v 0 2.1 -0.4
v 0 2.2 -0.4
v 0 5.3 -0.4
v 0 5.5 -0.4
v 0.1 5.3 -0.4
v 0.1 5.5 -0.4
v 0.2 2.1 -0.4
v 0.2 2.2 -0.4
v 0 2 -0.6
v 0 2.1 -0.6
v 0 3 -0.6
v 0 3.2 -0.6
v 0 3.4 -0.6
v 0 5.1 -0.6
v 0 5.2 -0.6
v 0.1 3.4 -0.6
v 0.1 5.1 -0.6
v 0.1 5.2 -0.6
v 0.2 2 -0.6
v 0.2 2.1 -0.6
v 0.2 2.2 -0.6
v 0.2 3.2 -0.6
v 0.2 3.4 -0.6
v 0.3 2.1 -0.6
v 0.3 2.2 -0.6
v 0.3 3 -0.6
v 0.3 3.2 -0.6
v 0 2.1 -0.7
v 0 2.2 -0.7
v 0 5.2 -0.7
v 0 5.4 -0.7
v 0.1 5.2 -0.7
v 0.1 5.4 -0.7
v 0.2 2.1 -0.7
v 0.2 2.2 -0.7
v 0.2 2.4 -0.7
v 0.3 2.2 -0.7
v 0.3 2.4 -0.7
v 0 2.2 -0.8
v 0 2.4 -0.8
v 0 5.4 -0.8
v 0 5.8 -0.8
v 0.1 5.4 -0.8
v 0.1 5.8 -0.8
v 0.2 2.2 -0.8
v 0.2 2.4 -0.8
v 0.2 2.6 -0.8
v 0.2 2.9 -0.8
v 0.2 3 -0.8
v 0.3 2.4 -0.8
v 0.3 2.6 -0.8
v 0.3 2.9 -0.8
v 0.3 3 -0.8
v 0 2.4 -0.9
v 0 2.6 -0.9
v 0 2.9 -0.9
v 0 3 -0.9
v 0.2 2.4 -0.9
v 0.2 2.6 -0.9
v 0.2 2.9 -0.9
v 0.2 3 -0.9
v 0.3 2.6 -0.9
v 0.3 2.9 -0.9
v 0 2.6 -1
v 0 2.9 -1
v 0.2 2.6 -1
v 0.2 2.9 -1
v 0 2 -0.4
v 0.2 2 -0.4
v 0 2 -0.6
v 0.2 2 -0.6
v 0 2.1 -0.3
v 0.2 2.1 -0.3
v 0 2.1 -0.4
v 0.2 2.1 -0.4
v 0.3 2.1 -0.4
v 0 2.1 -0.6
v 0.2 2.1 -0.6
v 0.3 2.1 -0.6
v 0 2.1 -0.7
v 0.2 2.1 -0.7
v 0 2.2 -0.2
v 0.2 2.2 -0.2
v 0 2.2 -0.3
v 0.2 2.2 -0.3
v 0.3 2.2 -0.3
v 0.2 2.2 -0.4
v 0.3 2.2 -0.4
v 0.2 2.2 -0.6
v 0.3 2.2 -0.6
v 0 2.2 -0.7
v 0.2 2.2 -0.7
v 0.3 2.2 -0.7
v 0 2.2 -0.8
v 0.2 2.2 -0.8
v 0 2.4 -0.1
v 0.2 2.4 -0.1
v 0 2.4 -0.2
v 0.2 2.4 -0.2
v 0.3 2.4 -0.2
v 0.2 2.4 -0.3
v 0.3 2.4 -0.3
v 0.2 2.4 -0.7
v 0.3 2.4 -0.7
v 0 2.4 -0.8
v 0.2 2.4 -0.8
v 0.3 2.4 -0.8
v 0 2.4 -0.9
v 0.2 2.4 -0.9
v 0 2.6 0
v 0.2 2.6 0
v 0 2.6 -0.1
v 0.2 2.6 -0.1
v 0.3 2.6 -0.1
v 0.2 2.6 -0.2
v 0.3 2.6 -0.2
v 0.2 2.6 -0.8
v 0.3 2.6 -0.8
v 0 2.6 -0.9
v 0.2 2.6 -0.9
v 0.3 2.6 -0.9
v 0 2.6 -1
v 0.2 2.6 -1
v 0 2.9 -0.1
v 0.2 2.9 -0.1
v 0 2.9 -0.9
v 0.2 2.9 -0.9
v 0 5.2 -0.3
v 0.1 5.2 -0.3
v 0 5.2 -0.4
v 0.1 5.2 -0.4
v 0 5.2 -0.6
v 0.1 5.2 -0.6
v 0 5.2 -0.7
v 0.1 5.2 -0.7
v 0 5.4 -0.2
v 0.1 5.4 -0.2
v 0 5.4 -0.3
v 0.1 5.4 -0.3
v 0 5.4 -0.7
v 0.1 5.4 -0.7
v 0 5.4 -0.8
v 0.1 5.4 -0.8
v 0 5.7 -0.3
v 0.1 5.7 -0.3
v 0 5.7 -0.7
v 0.1 5.7 -0.7
v 0 2.1 -0.4
v 0.2 2.1 -0.4
v 0 2.1 -0.6
v 0.2 2.1 -0.6
v 0 2.2 -0.3
v 0.2 2.2 -0.3
v 0 2.2 -0.4
v 0.2 2.2 -0.4
v 0 2.2 -0.6
v 0.2 2.2 -0.6
v 0 2.2 -0.7
v 0.2 2.2 -0.7
v 0 2.4 -0.2
v 0.2 2.4 -0.2
v 0 2.4 -0.3
v 0.2 2.4 -0.3
v 0 2.4 -0.7
v 0.2 2.4 -0.7
v 0 2.4 -0.8
v 0.2 2.4 -0.8
v 0 2.6 -0.1
v 0.2 2.6 -0.1
v 0 2.6 -0.2
v 0.2 2.6 -0.2
v 0 2.6 -0.8
v 0.2 2.6 -0.8
v 0 2.6 -0.9
v 0.2 2.6 -0.9
v 0 2.9 0
v 0.2 2.9 0
v 0 2.9 -0.1
v 0.2 2.9 -0.1
v 0.3 2.9 -0.1
v 0.2 2.9 -0.2
v 0.3 2.9 -0.2
v 0.2 2.9 -0.8
v 0.3 2.9 -0.8
v 0 2.9 -0.9
v 0.2 2.9 -0.9
v 0.3 2.9 -0.9
v 0 2.9 -1
v 0.2 2.9 -1
v 0 3 -0.1
v 0.2 3 -0.1
v 0.2 3 -0.2
v 0.3 3 -0.2
v 0 3 -0.4
v 0.3 3 -0.4
v 0 3 -0.6
v 0.3 3 -0.6
v 0.2 3 -0.8
v 0.3 3 -0.8
v 0 3 -0.9
v 0.2 3 -0.9
v 0.2 3.2 -0.4
v 0.3 3.2 -0.4
v 0.2 3.2 -0.6
v 0.3 3.2 -0.6
v 0.1 3.4 -0.4
v 0.2 3.4 -0.4
v 0.1 3.4 -0.6
v 0.2 3.4 -0.6
v 0 5.3 -0.4
v 0.1 5.3 -0.4
v 0 5.3 -0.6
v 0.1 5.3 -0.6
v 0 5.5 -0.3
v 0.1 5.5 -0.3
v 0 5.5 -0.4
v 0.1 5.5 -0.4
v 0 5.5 -0.6
v 0.1 5.5 -0.6
v 0 5.5 -0.7
v 0.1 5.5 -0.7
v 0 5.8 -0.2
v 0.1 5.8 -0.2
v 0 5.8 -0.8
v 0.1 5.8 -0.8

# faces
f 4/3/1 2/3/1 1/3/1
f 5/3/1 2/3/1 4/3/1
f 8/3/1 4/3/1 3/3/1
f 9/3/1 4/3/1 8/3/1
f 10/3/1 6/3/1 5/3/1
f 11/3/1 6/3/1 10/3/1
f 14/3/1 8/3/1 7/3/1
f 15/3/1 8/3/1 14/3/1
f 16/3/1 12/3/1 11/3/1
f 17/3/1 12/3/1 16/3/1
f 20/3/1 14/3/1 13/3/1
f 21/3/1 14/3/1 20/3/1
f 22/3/1 18/3/1 17/3/1
f 23/3/1 18/3/1 22/3/1
f 25/3/1 20/3/1 19/3/1
f 26/3/1 20/3/1 25/3/1
f 27/3/1 24/3/1 23/3/1
f 28/3/1 24/3/1 27/3/1
f 29/3/1 27/3/1 26/3/1
f 30/3/1 27/3/1 29/3/1
f 31/3/1 27/3/1 30/3/1
f 32/3/1 27/3/1 31/3/1
f 33/3/1 31/3/1 30/3/1
f 34/3/1 31/3/1 33/3/1
f 35/2/1 34/2/1 33/2/1
f 36/2/1 34/2/1 35/2/1
f 37/1/1 36/1/1 35/1/1
f 38/1/1 36/1/1 37/1/1
f 40/3/1 38/3/1 37/3/1
f 41/3/1 38/3/1 40/3/1
f 43/3/1 41/3/1 40/3/1
f 43/3/1 42/3/1 41/3/1
f 43/3/1 40/3/1 39/3/1
f 44/3/1 42/3/1 43/3/1
f 46/3/1 43/3/1 39/3/1
f 47/3/1 42/3/1 44/3/1
f 49/3/1 46/3/1 45/3/1
f 49/3/1 43/3/1 46/3/1
f 50/3/1 43/3/1 49/3/1
f 51/3/1 48/3/1 47/3/1
f 51/3/1 47/3/1 44/3/1
f 52/3/1 48/3/1 51/3/1
f 53/3/1 49/3/1 45/3/1
f 54/3/1 48/3/1 52/3/1
f 55/3/1 53/3/1 45/3/1
f 55/3/1 54/3/1 53/3/1
f 56/3/1 48/3/1 54/3/1
f 56/3/1 54/3/1 55/3/1
f 60/3/1 58/3/1 57/3/1
f 61/3/1 58/3/1 60/3/1
f 64/3/1 60/3/1 59/3/1
f 64/3/1 62/3/1 61/3/1
f 64/3/1 61/3/1 60/3/1
f 65/3/1 62/3/1 64/3/1
f 68/3/1 64/3/1 63/3/1
f 68/3/1 66/3/1 65/3/1
f 68/3/1 65/3/1 64/3/1
f 69/3/1 66/3/1 68/3/1
f 71/3/1 68/3/1 67/3/1
f 71/3/1 70/3/1 69/3/1
f 71/3/1 69/3/1 68/3/1
f 72/3/1 70/3/1 71/3/1
f 73/1/2 74/1/2 75/1/2
f 75/1/2 74/1/2 76/1/2
f 75/3/2 76/3/2 78/3/2
f 78/3/2 76/3/2 79/3/2
f 78/3/2 79/3/2 81/3/2
f 79/3/2 80/3/2 81/3/2
f 77/3/2 78/3/2 81/3/2
f 81/3/2 80/3/2 82/3/2
f 77/3/2 81/3/2 84/3/2
f 82/3/2 80/3/2 85/3/2
f 83/3/2 84/3/2 87/3/2
f 84/3/2 81/3/2 87/3/2
f 87/3/2 81/3/2 88/3/2
f 85/3/2 86/3/2 89/3/2
f 82/3/2 85/3/2 89/3/2
f 89/3/2 86/3/2 90/3/2
f 83/3/2 87/3/2 91/3/2
f 90/3/2 86/3/2 92/3/2
f 83/3/2 91/3/2 93/3/2
f 91/3/2 92/3/2 93/3/2
f 92/3/2 86/3/2 94/3/2
f 93/3/2 92/3/2 94/3/2
f 95/3/2 96/3/2 98/3/2
f 98/3/2 96/3/2 99/3/2
f 97/3/2 98/3/2 102/3/2
f 102/3/2 98/3/2 103/3/2
f 99/3/2 100/3/2 104/3/2
f 104/3/2 100/3/2 105/3/2
f 101/3/2 102/3/2 108/3/2
f 108/3/2 102/3/2 109/3/2
f 105/3/2 106/3/2 110/3/2
f 110/3/2 106/3/2 111/3/2
f 107/3/2 108/3/2 114/3/2
f 114/3/2 108/3/2 115/3/2
f 111/3/2 112/3/2 116/3/2
f 116/3/2 112/3/2 117/3/2
f 113/3/2 114/3/2 119/3/2
f 119/3/2 114/3/2 120/3/2
f 117/3/2 118/3/2 123/3/2
f 123/3/2 118/3/2 124/3/2
f 120/3/2 121/3/2 125/3/2
f 125/3/2 121/3/2 126/3/2
f 122/3/2 123/3/2 127/3/2
f 127/3/2 123/3/2 128/3/2
f 129/2/2 130/2/2 131/2/2
f 131/2/2 130/2/2 132/2/2
f 133/3/2 134/3/2 136/3/2
f 136/3/2 134/3/2 137/3/2
f 135/3/2 136/3/2 140/3/2
f 137/3/2 138/3/2 140/3/2
f 136/3/2 137/3/2 140/3/2
f 140/3/2 138/3/2 141/3/2
f 139/3/2 140/3/2 144/3/2
f 141/3/2 142/3/2 144/3/2
f 140/3/2 141/3/2 144/3/2
f 144/3/2 142/3/2 145/3/2
f 143/3/2 144/3/2 147/3/2
f 145/3/2 146/3/2 147/3/2
f 144/3/2 145/3/2 147/3/2
f 147/3/2 146/3/2 148/3/2
f 148/3/2 146/3/2 149/3/2
f 149/3/2 146/3/2 150/3/2
f 148/3/2 149/3/2 151/3/2
f 151/3/2 149/3/2 152/3/2
f 152/3/2 149/3/2 153/3/2
f 153/3/2 149/3/2 154/3/2
f 152/3/2 153/3/2 155/3/2
f 155/3/2 153/3/2 156/3/2
f 159/3/3 158/3/3 157/3/3
f 160/3/3 158/3/3 159/3/3
f 165/3/3 162/3/3 161/3/3
f 166/3/3 162/3/3 165/3/3
f 167/3/3 164/3/3 163/3/3
f 168/3/3 164/3/3 167/3/3
f 169/3/3 167/3/3 166/3/3
f 170/3/3 167/3/3 169/3/3
f 175/3/3 174/3/3 173/3/3
f 176/3/3 174/3/3 175/3/3
f 177/3/3 172/3/3 171/3/3
f 178/3/3 172/3/3 177/3/3
f 182/3/3 179/3/3 178/3/3
f 183/3/3 179/3/3 182/3/3
f 184/3/3 181/3/3 180/3/3
f 185/3/3 181/3/3 184/3/3
f 190/3/3 189/3/3 188/3/3
f 191/3/3 189/3/3 190/3/3
f 192/3/3 187/3/3 186/3/3
f 193/3/3 187/3/3 192/3/3
f 195/3/3 194/3/3 193/3/3
f 196/3/3 194/3/3 195/3/3
f 204/2/3 201/2/3 200/2/3
f 204/1/3 202/1/3 201/1/3
f 205/3/3 203/3/3 202/3/3
f 205/1/3 202/1/3 204/1/3
f 206/3/3 203/3/3 205/3/3
f 207/3/3 198/3/3 197/3/3
f 208/3/3 198/3/3 207/3/3
f 210/3/3 200/3/3 199/3/3
f 210/2/3 204/2/3 200/2/3
f 211/2/3 204/2/3 210/2/3
f 212/3/3 209/3/3 208/3/3
f 213/3/3 209/3/3 212/3/3
f 214/3/3 210/3/3 199/3/3
f 215/3/3 210/3/3 214/3/3
f 220/3/3 219/3/3 218/3/3
f 221/3/3 219/3/3 220/3/3
f 222/3/3 217/3/3 216/3/3
f 223/3/3 217/3/3 222/3/3
f 228/3/3 227/3/3 226/3/3
f 229/3/3 227/3/3 228/3/3
f 230/3/3 225/3/3 224/3/3
f 231/3/3 225/3/3 230/3/3
f 234/3/3 233/3/3 232/3/3
f 235/3/3 233/3/3 234/3/3
f 238/3/3 237/3/3 236/3/3
f 239/3/3 237/3/3 238/3/3
f 240/3/4 241/3/4 242/3/4
f 242/3/4 241/3/4 243/3/4
f 244/3/4 245/3/4 246/3/4
f 246/3/4 245/3/4 247/3/4
f 250/3/4 251/3/4 252/3/4
f 252/3/4 251/3/4 253/3/4
f 248/3/4 249/3/4 254/3/4
f 254/3/4 249/3/4 255/3/4
f 258/3/4 259/3/4 260/3/4
f 260/3/4 259/3/4 261/3/4
f 256/3/4 257/3/4 262/3/4
f 262/3/4 257/3/4 263/3/4
f 267/2/4 268/2/4 271/2/4
f 268/1/4 269/1/4 271/1/4
f 269/3/4 270/3/4 272/3/4
f 271/1/4 269/1/4 272/1/4
f 272/3/4 270/3/4 273/3/4
f 264/3/4 265/3/4 274/3/4
f 274/3/4 265/3/4 275/3/4
f 266/3/4 267/3/4 277/3/4
f 267/2/4 271/2/4 277/2/4
f 277/2/4 271/2/4 278/2/4
f 275/3/4 276/3/4 279/3/4
f 279/3/4 276/3/4 280/3/4
f 266/3/4 277/3/4 281/3/4
f 281/3/4 277/3/4 282/3/4
f 285/3/4 286/3/4 287/3/4
f 287/3/4 286/3/4 288/3/4
f 283/3/4 284/3/4 289/3/4
f 289/3/4 284/3/4 290/3/4
f 290/3/4 291/3/4 292/3/4
f 292/3/4 291/3/4 293/3/4
f 296/3/4 297/3/4 298/3/4
f 298/3/4 297/3/4 299/3/4
f 294/3/4 295/3/4 300/3/4
f 300/3/4 295/3/4 301/3/4
f 301/3/4 302/3/4 305/3/4
f 305/3/4 302/3/4 306/3/4
f 303/3/4 304/3/4 307/3/4
f 307/3/4 304/3/4 308/3/4
f 309/3/4 310/3/4 313/3/4
f 313/3/4 310/3/4 314/3/4
f 311/3/4 312/3/4 315/3/4
f 315/3/4 312/3/4 316/3/4
f 314/3/4 315/3/4 317/3/4
f 317/3/4 315/3/4 318/3/4
f 319/3/4 320/3/4 321/3/4
f 321/3/4 320/3/4 322/3/4
f 325/3/5 324/3/5 323/3/5
f 326/3/5 324/3/5 325/3/5
f 329/3/5 328/3/5 327/3/5
f 330/3/5 328/3/5 329/3/5
f 333/3/5 331/3/5 330/3/5
f 334/3/5 331/3/5 333/3/5
f 335/3/5 333/3/5 332/3/5
f 336/3/5 333/3/5 335/3/5
f 339/3/5 338/3/5 337/3/5
f 340/3/5 338/3/5 339/3/5
f 342/3/5 341/3/5 340/3/5
f 343/3/5 341/3/5 342/3/5
f 347/3/5 345/3/5 344/3/5
f 348/3/5 345/3/5 347/3/5
f 349/3/5 347/3/5 346/3/5
f 350/3/5 347/3/5 349/3/5
f 353/3/5 352/3/5 351/3/5
f 354/3/5 352/3/5 353/3/5
f 356/3/5 355/3/5 354/3/5
f 357/3/5 355/3/5 356/3/5
f 361/3/5 359/3/5 358/3/5
f 362/3/5 359/3/5 361/3/5
f 363/3/5 361/3/5 360/3/5
f 364/3/5 361/3/5 363/3/5
f 367/3/5 366/3/5 365/3/5
f 368/3/5 366/3/5 367/3/5
f 370/3/5 369/3/5 368/3/5
f 371/3/5 369/3/5 370/3/5
f 375/3/5 373/3/5 372/3/5
f 376/3/5 373/3/5 375/3/5
f 377/3/5 375/3/5 374/3/5
f 378/3/5 375/3/5 377/3/5
f 381/3/5 380/3/5 379/3/5
f 382/3/5 380/3/5 381/3/5
f 385/3/5 384/3/5 383/3/5
f 386/3/5 384/3/5 385/3/5
f 389/3/5 388/3/5 387/3/5
f 390/3/5 388/3/5 389/3/5
f 393/3/5 392/3/5 391/3/5
f 394/3/5 392/3/5 393/3/5
f 397/3/5 396/3/5 395/3/5
f 398/3/5 396/3/5 397/3/5
f 401/3/5 400/3/5 399/3/5
f 402/3/5 400/3/5 401/3/5
f 403/3/6 404/3/6 405/3/6
f 405/3/6 404/3/6 406/3/6
f 407/3/6 408/3/6 409/3/6
f 409/3/6 408/3/6 410/3/6
f 411/3/6 412/3/6 413/3/6
f 413/3/6 412/3/6 414/3/6
f 415/3/6 416/3/6 417/3/6
f 417/3/6 416/3/6 418/3/6
f 419/3/6 420/3/6 421/3/6
f 421/3/6 420/3/6 422/3/6
f 423/3/6 424/3/6 425/3/6
f 425/3/6 424/3/6 426/3/6
f 427/3/6 428/3/6 429/3/6
f 429/3/6 428/3/6 430/3/6
f 431/3/6 432/3/6 433/3/6
f 433/3/6 432/3/6 434/3/6
f 434/3/6 435/3/6 436/3/6
f 436/3/6 435/3/6 437/3/6
f 438/3/6 439/3/6 441/3/6
f 441/3/6 439/3/6 442/3/6
f 440/3/6 441/3/6 443/3/6
f 443/3/6 441/3/6 444/3/6
f 445/3/6 446/3/6 447/3/6
f 445/3/6 447/3/6 449/3/6
f 447/3/6 448/3/6 449/3/6
f 449/3/6 448/3/6 450/3/6
f 451/3/6 452/3/6 453/3/6
f 453/3/6 452/3/6 454/3/6
f 451/3/6 453/3/6 455/3/6
f 455/3/6 453/3/6 456/3/6
f 457/3/6 458/3/6 459/3/6
f 459/3/6 458/3/6 460/3/6
f 461/2/6 462/2/6 463/2/6
f 463/2/6 462/2/6 464/2/6
f 465/3/6 466/3/6 467/3/6
f 467/3/6 466/3/6 468/3/6
f 469/3/6 470/3/6 471/3/6
f 471/3/6 470/3/6 472/3/6
f 473/3/6 474/3/6 475/3/6
f 475/3/6 474/3/6 476/3/6
f 477/3/6 478/3/6 479/3/6
f 479/3/6 478/3/6 480/3/6
