# MagicaVoxel @ Ephtracy

# group
o 

# material
mtllib tv cabinet.mtl
usemtl palette

# normals
vn -1 0 0
vn 1 0 0
vn 0 0 1
vn 0 0 -1
vn 0 -1 0
vn 0 1 0

# texcoords
vt 0.970703 0.5
vt 0.974609 0.5

# verts
v 0 3.8 -3
v 0 3.8 -3.3
v 0 3.8 -6.8
v 0 3.8 -7.1
v 0 5.4 -3
v 0 5.4 -3.3
v 0 5.4 -6.8
v 0 5.4 -7.1
v 0.3 3.6 -4.9
v 0.3 3.6 -5.2
v 0.3 3.9 -4.9
v 0.3 3.9 -5.2
v 0.3 5.4 -4.9
v 0.3 5.4 -5.2
v 0.3 5.7 -4.9
v 0.3 5.7 -5.2
v 0.3 6.8 0
v 0.3 6.8 -10.1
v 0.3 7 0
v 0.3 7 -10.1
v 0.5 2.4 -0.2
v 0.5 2.4 -9.8
v 0.5 2.7 -0.5
v 0.5 2.7 -9.5
v 0.5 6.5 -0.5
v 0.5 6.5 -9.5
v 0.5 6.8 -0.2
v 0.5 6.8 -9.8
v 0.6 2 -0.3
v 0.6 2 -0.6
v 0.6 2 -9.4
v 0.6 2 -9.7
v 0.6 2.4 -0.3
v 0.6 2.4 -0.6
v 0.6 2.4 -9.4
v 0.6 2.4 -9.7
v 0.6 2.8 -0.7
v 0.6 2.8 -3.4
v 0.6 2.8 -3.7
v 0.6 2.8 -6.4
v 0.6 2.8 -6.7
v 0.6 2.8 -9.3
v 0.6 2.9 -0.6
v 0.6 2.9 -0.7
v 0.6 2.9 -3.4
v 0.6 2.9 -3.5
v 0.6 2.9 -3.6
v 0.6 2.9 -3.7
v 0.6 2.9 -6.4
v 0.6 2.9 -6.5
v 0.6 2.9 -6.6
v 0.6 2.9 -6.7
v 0.6 2.9 -9.3
v 0.6 2.9 -9.4
v 0.6 3.6 -4.9
v 0.6 3.6 -5.2
v 0.6 3.8 -3
v 0.6 3.8 -3.3
v 0.6 3.8 -6.8
v 0.6 3.8 -7.1
v 0.6 3.9 -4.9
v 0.6 3.9 -5.2
v 0.6 4.1 -3
v 0.6 4.1 -3.3
v 0.6 4.1 -6.8
v 0.6 4.1 -7.1
v 0.6 4.5 -3.6
v 0.6 4.5 -3.7
v 0.6 4.5 -6.4
v 0.6 4.5 -6.5
v 0.6 4.6 -3.7
v 0.6 4.6 -6.4
v 0.6 4.7 -3.7
v 0.6 4.7 -6.4
v 0.6 4.8 -3.6
v 0.6 4.8 -3.7
v 0.6 4.8 -6.4
v 0.6 4.8 -6.5
v 0.6 5.1 -3
v 0.6 5.1 -3.3
v 0.6 5.1 -6.8
v 0.6 5.1 -7.1
v 0.6 5.4 -3
v 0.6 5.4 -3.3
v 0.6 5.4 -4.9
v 0.6 5.4 -5.2
v 0.6 5.4 -6.8
v 0.6 5.4 -7.1
v 0.6 5.7 -4.9
v 0.6 5.7 -5.2
v 0.6 6.3 -0.6
v 0.6 6.3 -0.7
v 0.6 6.3 -3.4
v 0.6 6.3 -3.5
v 0.6 6.3 -3.6
v 0.6 6.3 -3.7
v 0.6 6.3 -6.4
v 0.6 6.3 -6.5
v 0.6 6.3 -6.6
v 0.6 6.3 -6.7
v 0.6 6.3 -9.3
v 0.6 6.3 -9.4
v 0.6 6.4 -0.7
v 0.6 6.4 -3.4
v 0.6 6.4 -3.7
v 0.6 6.4 -6.4
v 0.6 6.4 -6.7
v 0.6 6.4 -9.3
v 0.7 2.7 -0.5
v 0.7 2.7 -9.5
v 0.7 2.8 -0.7
v 0.7 2.8 -3.4
v 0.7 2.8 -3.7
v 0.7 2.8 -6.4
v 0.7 2.8 -6.7
v 0.7 2.8 -9.3
v 0.7 2.9 -0.6
v 0.7 2.9 -0.7
v 0.7 2.9 -3.4
v 0.7 2.9 -3.5
v 0.7 2.9 -3.6
v 0.7 2.9 -3.7
v 0.7 2.9 -6.4
v 0.7 2.9 -6.5
v 0.7 2.9 -6.6
v 0.7 2.9 -6.7
v 0.7 2.9 -9.3
v 0.7 2.9 -9.4
v 0.7 4.5 -3.6
v 0.7 4.5 -3.7
v 0.7 4.5 -6.4
v 0.7 4.5 -6.5
v 0.7 4.6 -3.7
v 0.7 4.6 -6.4
v 0.7 4.7 -3.7
v 0.7 4.7 -6.4
v 0.7 4.8 -3.6
v 0.7 4.8 -3.7
v 0.7 4.8 -6.4
v 0.7 4.8 -6.5
v 0.7 6.3 -0.6
v 0.7 6.3 -0.7
v 0.7 6.3 -3.4
v 0.7 6.3 -3.5
v 0.7 6.3 -3.6
v 0.7 6.3 -3.7
v 0.7 6.3 -6.4
v 0.7 6.3 -6.5
v 0.7 6.3 -6.6
v 0.7 6.3 -6.7
v 0.7 6.3 -9.3
v 0.7 6.3 -9.4
v 0.7 6.4 -0.7
v 0.7 6.4 -3.4
v 0.7 6.4 -3.7
v 0.7 6.4 -6.4
v 0.7 6.4 -6.7
v 0.7 6.4 -9.3
v 0.7 6.5 -0.5
v 0.7 6.5 -9.5
v 4.6 2 -0.3
v 4.6 2 -0.6
v 4.6 2 -9.4
v 4.6 2 -9.7
v 4.6 2.4 -0.3
v 4.6 2.4 -0.6
v 4.6 2.4 -9.4
v 4.6 2.4 -9.7
v 0.3 4.1 -3
v 0.3 4.1 -3.3
v 0.3 4.1 -6.8
v 0.3 4.1 -7.1
v 0.3 5.1 -3
v 0.3 5.1 -3.3
v 0.3 5.1 -6.8
v 0.3 5.1 -7.1
v 0.9 2 -0.3
v 0.9 2 -0.6
v 0.9 2 -9.4
v 0.9 2 -9.7
v 0.9 2.4 -0.3
v 0.9 2.4 -0.6
v 0.9 2.4 -9.4
v 0.9 2.4 -9.7
v 4.9 2 -0.3
v 4.9 2 -0.6
v 4.9 2 -9.4
v 4.9 2 -9.7
v 4.9 2.4 -0.3
v 4.9 2.4 -0.6
v 4.9 2.4 -9.4
v 4.9 2.4 -9.7
v 5 2.4 -0.2
v 5 2.4 -9.8
v 5 6.8 -0.2
v 5 6.8 -9.8
v 5.3 6.8 0
v 5.3 6.8 -10.1
v 5.3 7 0
v 5.3 7 -10.1
v 0.3 6.8 0
v 0.3 7 0
v 5.3 6.8 0
v 5.3 7 0
v 0.5 2.4 -0.2
v 0.5 6.8 -0.2
v 5 2.4 -0.2
v 5 6.8 -0.2
v 0.6 2 -0.3
v 0.6 2.4 -0.3
v 0.9 2 -0.3
v 0.9 2.4 -0.3
v 4.6 2 -0.3
v 4.6 2.4 -0.3
v 4.9 2 -0.3
v 4.9 2.4 -0.3
v 0.6 2.9 -0.6
v 0.6 6.3 -0.6
v 0.7 2.9 -0.6
v 0.7 6.3 -0.6
v 0.6 2.8 -0.7
v 0.6 2.9 -0.7
v 0.6 6.3 -0.7
v 0.6 6.4 -0.7
v 0.7 2.8 -0.7
v 0.7 2.9 -0.7
v 0.7 6.3 -0.7
v 0.7 6.4 -0.7
v 0 3.8 -3
v 0 5.4 -3
v 0.3 4.1 -3
v 0.3 5.1 -3
v 0.6 3.8 -3
v 0.6 4.1 -3
v 0.6 5.1 -3
v 0.6 5.4 -3
v 0.6 2.9 -3.6
v 0.6 4.5 -3.6
v 0.6 4.8 -3.6
v 0.6 6.3 -3.6
v 0.7 2.9 -3.6
v 0.7 4.5 -3.6
v 0.7 4.8 -3.6
v 0.7 6.3 -3.6
v 0.6 2.8 -3.7
v 0.6 2.9 -3.7
v 0.6 4.5 -3.7
v 0.6 4.6 -3.7
v 0.6 4.7 -3.7
v 0.6 4.8 -3.7
v 0.6 6.3 -3.7
v 0.6 6.4 -3.7
v 0.7 2.8 -3.7
v 0.7 2.9 -3.7
v 0.7 4.5 -3.7
v 0.7 4.6 -3.7
v 0.7 4.7 -3.7
v 0.7 4.8 -3.7
v 0.7 6.3 -3.7
v 0.7 6.4 -3.7
v 0.3 3.6 -4.9
v 0.3 3.9 -4.9
v 0.3 5.4 -4.9
v 0.3 5.7 -4.9
v 0.6 3.6 -4.9
v 0.6 3.9 -4.9
v 0.6 5.4 -4.9
v 0.6 5.7 -4.9
v 0.6 2.9 -6.6
v 0.6 6.3 -6.6
v 0.7 2.9 -6.6
v 0.7 6.3 -6.6
v 0.6 2.8 -6.7
v 0.6 2.9 -6.7
v 0.6 6.3 -6.7
v 0.6 6.4 -6.7
v 0.7 2.8 -6.7
v 0.7 2.9 -6.7
v 0.7 6.3 -6.7
v 0.7 6.4 -6.7
v 0 3.8 -6.8
v 0 5.4 -6.8
v 0.3 4.1 -6.8
v 0.3 5.1 -6.8
v 0.6 3.8 -6.8
v 0.6 4.1 -6.8
v 0.6 5.1 -6.8
v 0.6 5.4 -6.8
v 0.6 2 -9.4
v 0.6 2.4 -9.4
v 0.9 2 -9.4
v 0.9 2.4 -9.4
v 4.6 2 -9.4
v 4.6 2.4 -9.4
v 4.9 2 -9.4
v 4.9 2.4 -9.4
v 0.5 2.7 -9.5
v 0.5 6.5 -9.5
v 0.7 2.7 -9.5
v 0.7 6.5 -9.5
v 0.5 2.7 -0.5
v 0.5 6.5 -0.5
v 0.7 2.7 -0.5
v 0.7 6.5 -0.5
v 0.6 2 -0.6
v 0.6 2.4 -0.6
v 0.9 2 -0.6
v 0.9 2.4 -0.6
v 4.6 2 -0.6
v 4.6 2.4 -0.6
v 4.9 2 -0.6
v 4.9 2.4 -0.6
v 0 3.8 -3.3
v 0 5.4 -3.3
v 0.3 4.1 -3.3
v 0.3 5.1 -3.3
v 0.6 3.8 -3.3
v 0.6 4.1 -3.3
v 0.6 5.1 -3.3
v 0.6 5.4 -3.3
v 0.6 2.8 -3.4
v 0.6 2.9 -3.4
v 0.6 6.3 -3.4
v 0.6 6.4 -3.4
v 0.7 2.8 -3.4
v 0.7 2.9 -3.4
v 0.7 6.3 -3.4
v 0.7 6.4 -3.4
v 0.6 2.9 -3.5
v 0.6 6.3 -3.5
v 0.7 2.9 -3.5
v 0.7 6.3 -3.5
v 0.3 3.6 -5.2
v 0.3 3.9 -5.2
v 0.3 5.4 -5.2
v 0.3 5.7 -5.2
v 0.6 3.6 -5.2
v 0.6 3.9 -5.2
v 0.6 5.4 -5.2
v 0.6 5.7 -5.2
v 0.6 2.8 -6.4
v 0.6 2.9 -6.4
v 0.6 4.5 -6.4
v 0.6 4.6 -6.4
v 0.6 4.7 -6.4
v 0.6 4.8 -6.4
v 0.6 6.3 -6.4
v 0.6 6.4 -6.4
v 0.7 2.8 -6.4
v 0.7 2.9 -6.4
v 0.7 4.5 -6.4
v 0.7 4.6 -6.4
v 0.7 4.7 -6.4
v 0.7 4.8 -6.4
v 0.7 6.3 -6.4
v 0.7 6.4 -6.4
v 0.6 2.9 -6.5
v 0.6 4.5 -6.5
v 0.6 4.8 -6.5
v 0.6 6.3 -6.5
v 0.7 2.9 -6.5
v 0.7 4.5 -6.5
v 0.7 4.8 -6.5
v 0.7 6.3 -6.5
v 0 3.8 -7.1
v 0 5.4 -7.1
v 0.3 4.1 -7.1
v 0.3 5.1 -7.1
v 0.6 3.8 -7.1
v 0.6 4.1 -7.1
v 0.6 5.1 -7.1
v 0.6 5.4 -7.1
v 0.6 2.8 -9.3
v 0.6 2.9 -9.3
v 0.6 6.3 -9.3
v 0.6 6.4 -9.3
v 0.7 2.8 -9.3
v 0.7 2.9 -9.3
v 0.7 6.3 -9.3
v 0.7 6.4 -9.3
v 0.6 2.9 -9.4
v 0.6 6.3 -9.4
v 0.7 2.9 -9.4
v 0.7 6.3 -9.4
v 0.6 2 -9.7
v 0.6 2.4 -9.7
v 0.9 2 -9.7
v 0.9 2.4 -9.7
v 4.6 2 -9.7
v 4.6 2.4 -9.7
v 4.9 2 -9.7
v 4.9 2.4 -9.7
v 0.5 2.4 -9.8
v 0.5 6.8 -9.8
v 5 2.4 -9.8
v 5 6.8 -9.8
v 0.3 6.8 -10.1
v 0.3 7 -10.1
v 5.3 6.8 -10.1
v 5.3 7 -10.1
v 0.6 2 -0.3
v 0.9 2 -0.3
v 4.6 2 -0.3
v 4.9 2 -0.3
v 0.6 2 -0.6
v 0.9 2 -0.6
v 4.6 2 -0.6
v 4.9 2 -0.6
v 0.6 2 -9.4
v 0.9 2 -9.4
v 4.6 2 -9.4
v 4.9 2 -9.4
v 0.6 2 -9.7
v 0.9 2 -9.7
v 4.6 2 -9.7
v 4.9 2 -9.7
v 0.5 2.4 -0.2
v 5 2.4 -0.2
v 0.6 2.4 -0.3
v 0.9 2.4 -0.3
v 4.6 2.4 -0.3
v 4.9 2.4 -0.3
v 0.6 2.4 -0.6
v 0.9 2.4 -0.6
v 4.6 2.4 -0.6
v 4.9 2.4 -0.6
v 0.6 2.4 -9.4
v 0.9 2.4 -9.4
v 4.6 2.4 -9.4
v 4.9 2.4 -9.4
v 0.6 2.4 -9.7
v 0.9 2.4 -9.7
v 4.6 2.4 -9.7
v 4.9 2.4 -9.7
v 0.5 2.4 -9.8
v 5 2.4 -9.8
v 0.6 2.8 -0.7
v 0.7 2.8 -0.7
v 0.6 2.8 -3.4
v 0.7 2.8 -3.4
v 0.6 2.8 -3.7
v 0.7 2.8 -3.7
v 0.6 2.8 -6.4
v 0.7 2.8 -6.4
v 0.6 2.8 -6.7
v 0.7 2.8 -6.7
v 0.6 2.8 -9.3
v 0.7 2.8 -9.3
v 0.6 2.9 -0.6
v 0.7 2.9 -0.6
v 0.6 2.9 -0.7
v 0.7 2.9 -0.7
v 0.6 2.9 -3.4
v 0.7 2.9 -3.4
v 0.6 2.9 -3.5
v 0.7 2.9 -3.5
v 0.6 2.9 -3.6
v 0.7 2.9 -3.6
v 0.6 2.9 -3.7
v 0.7 2.9 -3.7
v 0.6 2.9 -6.4
v 0.7 2.9 -6.4
v 0.6 2.9 -6.5
v 0.7 2.9 -6.5
v 0.6 2.9 -6.6
v 0.7 2.9 -6.6
v 0.6 2.9 -6.7
v 0.7 2.9 -6.7
v 0.6 2.9 -9.3
v 0.7 2.9 -9.3
v 0.6 2.9 -9.4
v 0.7 2.9 -9.4
v 0.3 3.6 -4.9
v 0.6 3.6 -4.9
v 0.3 3.6 -5.2
v 0.6 3.6 -5.2
v 0 3.8 -3
v 0.6 3.8 -3
v 0 3.8 -3.3
v 0.6 3.8 -3.3
v 0 3.8 -6.8
v 0.6 3.8 -6.8
v 0 3.8 -7.1
v 0.6 3.8 -7.1
v 0.6 4.7 -3.7
v 0.7 4.7 -3.7
v 0.6 4.7 -6.4
v 0.7 4.7 -6.4
v 0.6 4.8 -3.6
v 0.7 4.8 -3.6
v 0.6 4.8 -3.7
v 0.7 4.8 -3.7
v 0.6 4.8 -6.4
v 0.7 4.8 -6.4
v 0.6 4.8 -6.5
v 0.7 4.8 -6.5
v 0.3 5.1 -3
v 0.6 5.1 -3
v 0.3 5.1 -3.3
v 0.6 5.1 -3.3
v 0.3 5.1 -6.8
v 0.6 5.1 -6.8
v 0.3 5.1 -7.1
v 0.6 5.1 -7.1
v 0.3 5.4 -4.9
v 0.6 5.4 -4.9
v 0.3 5.4 -5.2
v 0.6 5.4 -5.2
v 0.5 6.5 -0.5
v 0.7 6.5 -0.5
v 0.5 6.5 -9.5
v 0.7 6.5 -9.5
v 0.3 6.8 0
v 5.3 6.8 0
v 0.5 6.8 -0.2
v 5 6.8 -0.2
v 0.5 6.8 -9.8
v 5 6.8 -9.8
v 0.3 6.8 -10.1
v 5.3 6.8 -10.1
v 0.5 2.7 -0.5
v 0.7 2.7 -0.5
v 0.5 2.7 -9.5
v 0.7 2.7 -9.5
v 0.3 3.9 -4.9
v 0.6 3.9 -4.9
v 0.3 3.9 -5.2
v 0.6 3.9 -5.2
v 0.3 4.1 -3
v 0.6 4.1 -3
v 0.3 4.1 -3.3
v 0.6 4.1 -3.3
v 0.3 4.1 -6.8
v 0.6 4.1 -6.8
v 0.3 4.1 -7.1
v 0.6 4.1 -7.1
v 0.6 4.5 -3.6
v 0.7 4.5 -3.6
v 0.6 4.5 -3.7
v 0.7 4.5 -3.7
v 0.6 4.5 -6.4
v 0.7 4.5 -6.4
v 0.6 4.5 -6.5
v 0.7 4.5 -6.5
v 0.6 4.6 -3.7
v 0.7 4.6 -3.7
v 0.6 4.6 -6.4
v 0.7 4.6 -6.4
v 0 5.4 -3
v 0.6 5.4 -3
v 0 5.4 -3.3
v 0.6 5.4 -3.3
v 0 5.4 -6.8
v 0.6 5.4 -6.8
v 0 5.4 -7.1
v 0.6 5.4 -7.1
v 0.3 5.7 -4.9
v 0.6 5.7 -4.9
v 0.3 5.7 -5.2
v 0.6 5.7 -5.2
v 0.6 6.3 -0.6
v 0.7 6.3 -0.6
v 0.6 6.3 -0.7
v 0.7 6.3 -0.7
v 0.6 6.3 -3.4
v 0.7 6.3 -3.4
v 0.6 6.3 -3.5
v 0.7 6.3 -3.5
v 0.6 6.3 -3.6
v 0.7 6.3 -3.6
v 0.6 6.3 -3.7
v 0.7 6.3 -3.7
v 0.6 6.3 -6.4
v 0.7 6.3 -6.4
v 0.6 6.3 -6.5
v 0.7 6.3 -6.5
v 0.6 6.3 -6.6
v 0.7 6.3 -6.6
v 0.6 6.3 -6.7
v 0.7 6.3 -6.7
v 0.6 6.3 -9.3
v 0.7 6.3 -9.3
v 0.6 6.3 -9.4
v 0.7 6.3 -9.4
v 0.6 6.4 -0.7
v 0.7 6.4 -0.7
v 0.6 6.4 -3.4
v 0.7 6.4 -3.4
v 0.6 6.4 -3.7
v 0.7 6.4 -3.7
v 0.6 6.4 -6.4
v 0.7 6.4 -6.4
v 0.6 6.4 -6.7
v 0.7 6.4 -6.7
v 0.6 6.4 -9.3
v 0.7 6.4 -9.3
v 0.3 7 0
v 5.3 7 0
v 0.3 7 -10.1
v 5.3 7 -10.1

# faces
f 5/2/1 2/2/1 1/2/1
f 6/2/1 2/2/1 5/2/1
f 7/2/1 4/2/1 3/2/1
f 8/2/1 4/2/1 7/2/1
f 11/2/1 10/2/1 9/2/1
f 12/2/1 10/2/1 11/2/1
f 15/2/1 14/2/1 13/2/1
f 16/2/1 14/2/1 15/2/1
f 19/1/1 18/1/1 17/1/1
f 20/1/1 18/1/1 19/1/1
f 23/1/1 22/1/1 21/1/1
f 24/1/1 22/1/1 23/1/1
f 25/1/1 23/1/1 21/1/1
f 26/1/1 22/1/1 24/1/1
f 27/1/1 25/1/1 21/1/1
f 27/1/1 26/1/1 25/1/1
f 28/1/1 22/1/1 26/1/1
f 28/1/1 26/1/1 27/1/1
f 33/1/1 30/1/1 29/1/1
f 34/1/1 30/1/1 33/1/1
f 35/1/1 32/1/1 31/1/1
f 36/1/1 32/1/1 35/1/1
f 44/1/1 38/1/1 37/1/1
f 45/1/1 38/1/1 44/1/1
f 48/1/1 40/1/1 39/1/1
f 49/1/1 40/1/1 48/1/1
f 52/1/1 42/1/1 41/1/1
f 53/1/1 42/1/1 52/1/1
f 55/1/1 50/1/1 49/1/1
f 55/1/1 48/1/1 47/1/1
f 55/1/1 49/1/1 48/1/1
f 56/1/1 50/1/1 55/1/1
f 57/1/1 46/1/1 45/1/1
f 57/1/1 44/1/1 43/1/1
f 57/1/1 45/1/1 44/1/1
f 58/1/1 46/1/1 57/1/1
f 59/1/1 54/1/1 53/1/1
f 59/1/1 53/1/1 52/1/1
f 59/1/1 52/1/1 51/1/1
f 60/1/1 54/1/1 59/1/1
f 61/1/1 55/1/1 47/1/1
f 62/1/1 50/1/1 56/1/1
f 63/1/1 57/1/1 43/1/1
f 64/1/1 46/1/1 58/1/1
f 65/1/1 59/1/1 51/1/1
f 66/1/1 54/1/1 60/1/1
f 67/1/1 61/1/1 47/1/1
f 67/1/1 62/1/1 61/1/1
f 68/1/1 62/1/1 67/1/1
f 69/1/1 50/1/1 62/1/1
f 69/1/1 62/1/1 68/1/1
f 70/1/1 50/1/1 69/1/1
f 71/1/1 69/1/1 68/1/1
f 72/1/1 69/1/1 71/1/1
f 76/1/1 74/1/1 73/1/1
f 77/1/1 74/1/1 76/1/1
f 79/1/1 63/1/1 43/1/1
f 79/1/1 64/1/1 63/1/1
f 80/1/1 46/1/1 64/1/1
f 80/1/1 64/1/1 79/1/1
f 81/1/1 66/1/1 65/1/1
f 81/1/1 65/1/1 51/1/1
f 82/1/1 54/1/1 66/1/1
f 82/1/1 66/1/1 81/1/1
f 83/1/1 79/1/1 43/1/1
f 84/1/1 46/1/1 80/1/1
f 85/1/1 78/1/1 77/1/1
f 85/1/1 76/1/1 75/1/1
f 85/1/1 77/1/1 76/1/1
f 86/1/1 78/1/1 85/1/1
f 87/1/1 81/1/1 51/1/1
f 88/1/1 54/1/1 82/1/1
f 89/1/1 85/1/1 75/1/1
f 90/1/1 78/1/1 86/1/1
f 91/1/1 84/1/1 83/1/1
f 91/1/1 83/1/1 43/1/1
f 92/1/1 84/1/1 91/1/1
f 93/1/1 46/1/1 84/1/1
f 93/1/1 84/1/1 92/1/1
f 94/1/1 46/1/1 93/1/1
f 95/1/1 90/1/1 89/1/1
f 95/1/1 89/1/1 75/1/1
f 96/1/1 90/1/1 95/1/1
f 97/1/1 78/1/1 90/1/1
f 97/1/1 90/1/1 96/1/1
f 98/1/1 78/1/1 97/1/1
f 99/1/1 87/1/1 51/1/1
f 99/1/1 88/1/1 87/1/1
f 100/1/1 88/1/1 99/1/1
f 101/1/1 54/1/1 88/1/1
f 101/1/1 88/1/1 100/1/1
f 102/1/1 54/1/1 101/1/1
f 103/1/1 93/1/1 92/1/1
f 104/1/1 93/1/1 103/1/1
f 105/1/1 97/1/1 96/1/1
f 106/1/1 97/1/1 105/1/1
f 107/1/1 101/1/1 100/1/1
f 108/1/1 101/1/1 107/1/1
f 111/2/1 110/2/1 109/2/1
f 112/2/1 110/2/1 111/2/1
f 113/2/1 110/2/1 112/2/1
f 114/2/1 110/2/1 113/2/1
f 115/2/1 110/2/1 114/2/1
f 116/2/1 110/2/1 115/2/1
f 117/2/1 111/2/1 109/2/1
f 118/2/1 111/2/1 117/2/1
f 119/2/1 113/2/1 112/2/1
f 120/2/1 113/2/1 119/2/1
f 121/2/1 113/2/1 120/2/1
f 122/2/1 113/2/1 121/2/1
f 123/2/1 115/2/1 114/2/1
f 124/2/1 115/2/1 123/2/1
f 125/2/1 115/2/1 124/2/1
f 126/2/1 115/2/1 125/2/1
f 127/2/1 110/2/1 116/2/1
f 128/2/1 110/2/1 127/2/1
f 129/2/1 121/2/1 120/2/1
f 132/2/1 125/2/1 124/2/1
f 133/2/1 130/2/1 129/2/1
f 134/2/1 132/2/1 131/2/1
f 135/2/1 133/2/1 129/2/1
f 135/2/1 134/2/1 133/2/1
f 136/2/1 132/2/1 134/2/1
f 136/2/1 134/2/1 135/2/1
f 137/2/1 135/2/1 129/2/1
f 137/2/1 129/2/1 120/2/1
f 138/2/1 135/2/1 137/2/1
f 139/2/1 132/2/1 136/2/1
f 140/2/1 125/2/1 132/2/1
f 140/2/1 132/2/1 139/2/1
f 141/2/1 117/2/1 109/2/1
f 144/2/1 137/2/1 120/2/1
f 145/2/1 137/2/1 144/2/1
f 148/2/1 125/2/1 140/2/1
f 149/2/1 125/2/1 148/2/1
f 152/2/1 110/2/1 128/2/1
f 153/2/1 142/2/1 141/2/1
f 154/2/1 146/2/1 145/2/1
f 154/2/1 144/2/1 143/2/1
f 154/2/1 145/2/1 144/2/1
f 155/2/1 146/2/1 154/2/1
f 156/2/1 150/2/1 149/2/1
f 156/2/1 148/2/1 147/2/1
f 156/2/1 149/2/1 148/2/1
f 157/2/1 150/2/1 156/2/1
f 158/2/1 152/2/1 151/2/1
f 159/2/1 155/2/1 154/2/1
f 159/2/1 158/2/1 157/2/1
f 159/2/1 153/2/1 141/2/1
f 159/2/1 157/2/1 156/2/1
f 159/2/1 156/2/1 155/2/1
f 159/2/1 141/2/1 109/2/1
f 159/2/1 154/2/1 153/2/1
f 160/2/1 152/2/1 158/2/1
f 160/2/1 158/2/1 159/2/1
f 160/2/1 110/2/1 152/2/1
f 165/1/1 162/1/1 161/1/1
f 166/1/1 162/1/1 165/1/1
f 167/1/1 164/1/1 163/1/1
f 168/1/1 164/1/1 167/1/1
f 169/2/2 170/2/2 173/2/2
f 173/2/2 170/2/2 174/2/2
f 171/2/2 172/2/2 175/2/2
f 175/2/2 172/2/2 176/2/2
f 177/1/2 178/1/2 181/1/2
f 181/1/2 178/1/2 182/1/2
f 179/1/2 180/1/2 183/1/2
f 183/1/2 180/1/2 184/1/2
f 185/1/2 186/1/2 189/1/2
f 189/1/2 186/1/2 190/1/2
f 187/1/2 188/1/2 191/1/2
f 191/1/2 188/1/2 192/1/2
f 193/1/2 194/1/2 195/1/2
f 195/1/2 194/1/2 196/1/2
f 197/1/2 198/1/2 199/1/2
f 199/1/2 198/1/2 200/1/2
f 203/1/3 202/1/3 201/1/3
f 204/1/3 202/1/3 203/1/3
f 207/1/3 206/1/3 205/1/3
f 208/1/3 206/1/3 207/1/3
f 211/1/3 210/1/3 209/1/3
f 212/1/3 210/1/3 211/1/3
f 215/1/3 214/1/3 213/1/3
f 216/1/3 214/1/3 215/1/3
f 219/1/3 218/1/3 217/1/3
f 220/1/3 218/1/3 219/1/3
f 225/1/3 222/1/3 221/1/3
f 226/1/3 222/1/3 225/1/3
f 227/1/3 224/1/3 223/1/3
f 228/1/3 224/1/3 227/1/3
f 231/2/3 230/2/3 229/2/3
f 232/2/3 230/2/3 231/2/3
f 233/2/3 231/2/3 229/2/3
f 234/2/3 231/2/3 233/2/3
f 235/2/3 230/2/3 232/2/3
f 236/2/3 230/2/3 235/2/3
f 241/1/3 238/1/3 237/1/3
f 242/1/3 238/1/3 241/1/3
f 243/1/3 240/1/3 239/1/3
f 244/1/3 240/1/3 243/1/3
f 253/1/3 246/1/3 245/1/3
f 254/1/3 246/1/3 253/1/3
f 255/1/3 248/1/3 247/1/3
f 256/1/3 248/1/3 255/1/3
f 257/1/3 250/1/3 249/1/3
f 258/1/3 250/1/3 257/1/3
f 259/1/3 252/1/3 251/1/3
f 260/1/3 252/1/3 259/1/3
f 265/2/3 262/2/3 261/2/3
f 266/2/3 262/2/3 265/2/3
f 267/2/3 264/2/3 263/2/3
f 268/2/3 264/2/3 267/2/3
f 271/1/3 270/1/3 269/1/3
f 272/1/3 270/1/3 271/1/3
f 277/1/3 274/1/3 273/1/3
f 278/1/3 274/1/3 277/1/3
f 279/1/3 276/1/3 275/1/3
f 280/1/3 276/1/3 279/1/3
f 283/2/3 282/2/3 281/2/3
f 284/2/3 282/2/3 283/2/3
f 285/2/3 283/2/3 281/2/3
f 286/2/3 283/2/3 285/2/3
f 287/2/3 282/2/3 284/2/3
f 288/2/3 282/2/3 287/2/3
f 291/1/3 290/1/3 289/1/3
f 292/1/3 290/1/3 291/1/3
f 295/1/3 294/1/3 293/1/3
f 296/1/3 294/1/3 295/1/3
f 299/1/3 298/1/3 297/1/3
f 300/1/3 298/1/3 299/1/3
f 301/1/4 302/1/4 303/1/4
f 303/1/4 302/1/4 304/1/4
f 305/1/4 306/1/4 307/1/4
f 307/1/4 306/1/4 308/1/4
f 309/1/4 310/1/4 311/1/4
f 311/1/4 310/1/4 312/1/4
f 313/2/4 314/2/4 315/2/4
f 315/2/4 314/2/4 316/2/4
f 313/2/4 315/2/4 317/2/4
f 317/2/4 315/2/4 318/2/4
f 316/2/4 314/2/4 319/2/4
f 319/2/4 314/2/4 320/2/4
f 321/1/4 322/1/4 325/1/4
f 325/1/4 322/1/4 326/1/4
f 323/1/4 324/1/4 327/1/4
f 327/1/4 324/1/4 328/1/4
f 329/1/4 330/1/4 331/1/4
f 331/1/4 330/1/4 332/1/4
f 333/2/4 334/2/4 337/2/4
f 337/2/4 334/2/4 338/2/4
f 335/2/4 336/2/4 339/2/4
f 339/2/4 336/2/4 340/2/4
f 341/1/4 342/1/4 349/1/4
f 349/1/4 342/1/4 350/1/4
f 343/1/4 344/1/4 351/1/4
f 351/1/4 344/1/4 352/1/4
f 345/1/4 346/1/4 353/1/4
f 353/1/4 346/1/4 354/1/4
f 347/1/4 348/1/4 355/1/4
f 355/1/4 348/1/4 356/1/4
f 357/1/4 358/1/4 361/1/4
f 361/1/4 358/1/4 362/1/4
f 359/1/4 360/1/4 363/1/4
f 363/1/4 360/1/4 364/1/4
f 365/2/4 366/2/4 367/2/4
f 367/2/4 366/2/4 368/2/4
f 365/2/4 367/2/4 369/2/4
f 369/2/4 367/2/4 370/2/4
f 368/2/4 366/2/4 371/2/4
f 371/2/4 366/2/4 372/2/4
f 373/1/4 374/1/4 377/1/4
f 377/1/4 374/1/4 378/1/4
f 375/1/4 376/1/4 379/1/4
f 379/1/4 376/1/4 380/1/4
f 381/1/4 382/1/4 383/1/4
f 383/1/4 382/1/4 384/1/4
f 385/1/4 386/1/4 387/1/4
f 387/1/4 386/1/4 388/1/4
f 389/1/4 390/1/4 391/1/4
f 391/1/4 390/1/4 392/1/4
f 393/1/4 394/1/4 395/1/4
f 395/1/4 394/1/4 396/1/4
f 397/1/4 398/1/4 399/1/4
f 399/1/4 398/1/4 400/1/4
f 405/1/5 402/1/5 401/1/5
f 406/1/5 402/1/5 405/1/5
f 407/1/5 404/1/5 403/1/5
f 408/1/5 404/1/5 407/1/5
f 413/1/5 410/1/5 409/1/5
f 414/1/5 410/1/5 413/1/5
f 415/1/5 412/1/5 411/1/5
f 416/1/5 412/1/5 415/1/5
f 419/1/5 418/1/5 417/1/5
f 420/1/5 418/1/5 419/1/5
f 421/1/5 418/1/5 420/1/5
f 422/1/5 418/1/5 421/1/5
f 423/1/5 419/1/5 417/1/5
f 424/1/5 421/1/5 420/1/5
f 425/1/5 421/1/5 424/1/5
f 426/1/5 418/1/5 422/1/5
f 427/1/5 425/1/5 424/1/5
f 427/1/5 426/1/5 425/1/5
f 427/1/5 423/1/5 417/1/5
f 427/1/5 424/1/5 423/1/5
f 428/1/5 426/1/5 427/1/5
f 429/1/5 426/1/5 428/1/5
f 430/1/5 418/1/5 426/1/5
f 430/1/5 426/1/5 429/1/5
f 431/1/5 427/1/5 417/1/5
f 432/1/5 429/1/5 428/1/5
f 433/1/5 429/1/5 432/1/5
f 434/1/5 418/1/5 430/1/5
f 435/1/5 431/1/5 417/1/5
f 435/1/5 434/1/5 433/1/5
f 435/1/5 433/1/5 432/1/5
f 435/1/5 432/1/5 431/1/5
f 436/1/5 418/1/5 434/1/5
f 436/1/5 434/1/5 435/1/5
f 439/1/5 438/1/5 437/1/5
f 440/1/5 438/1/5 439/1/5
f 443/1/5 442/1/5 441/1/5
f 444/1/5 442/1/5 443/1/5
f 447/1/5 446/1/5 445/1/5
f 448/1/5 446/1/5 447/1/5
f 451/1/5 450/1/5 449/1/5
f 452/1/5 450/1/5 451/1/5
f 455/1/5 454/1/5 453/1/5
f 456/1/5 454/1/5 455/1/5
f 459/1/5 458/1/5 457/1/5
f 460/1/5 458/1/5 459/1/5
f 463/1/5 462/1/5 461/1/5
f 464/1/5 462/1/5 463/1/5
f 467/1/5 466/1/5 465/1/5
f 468/1/5 466/1/5 467/1/5
f 471/1/5 470/1/5 469/1/5
f 472/1/5 470/1/5 471/1/5
f 475/2/5 474/2/5 473/2/5
f 476/2/5 474/2/5 475/2/5
f 479/2/5 478/2/5 477/2/5
f 480/2/5 478/2/5 479/2/5
f 483/2/5 482/2/5 481/2/5
f 484/2/5 482/2/5 483/2/5
f 487/1/5 486/1/5 485/1/5
f 488/1/5 486/1/5 487/1/5
f 491/1/5 490/1/5 489/1/5
f 492/1/5 490/1/5 491/1/5
f 495/1/5 494/1/5 493/1/5
f 496/1/5 494/1/5 495/1/5
f 499/2/5 498/2/5 497/2/5
f 500/2/5 498/2/5 499/2/5
f 503/2/5 502/2/5 501/2/5
f 504/2/5 502/2/5 503/2/5
f 507/2/5 506/2/5 505/2/5
f 508/2/5 506/2/5 507/2/5
f 511/1/5 510/1/5 509/1/5
f 512/1/5 510/1/5 511/1/5
f 515/1/5 514/1/5 513/1/5
f 516/1/5 514/1/5 515/1/5
f 517/1/5 515/1/5 513/1/5
f 518/1/5 514/1/5 516/1/5
f 519/1/5 517/1/5 513/1/5
f 519/1/5 518/1/5 517/1/5
f 520/1/5 514/1/5 518/1/5
f 520/1/5 518/1/5 519/1/5
f 521/1/6 522/1/6 523/1/6
f 523/1/6 522/1/6 524/1/6
f 525/2/6 526/2/6 527/2/6
f 527/2/6 526/2/6 528/2/6
f 529/2/6 530/2/6 531/2/6
f 531/2/6 530/2/6 532/2/6
f 533/2/6 534/2/6 535/2/6
f 535/2/6 534/2/6 536/2/6
f 537/1/6 538/1/6 539/1/6
f 539/1/6 538/1/6 540/1/6
f 541/1/6 542/1/6 543/1/6
f 543/1/6 542/1/6 544/1/6
f 545/1/6 546/1/6 547/1/6
f 547/1/6 546/1/6 548/1/6
f 549/2/6 550/2/6 551/2/6
f 551/2/6 550/2/6 552/2/6
f 553/2/6 554/2/6 555/2/6
f 555/2/6 554/2/6 556/2/6
f 557/2/6 558/2/6 559/2/6
f 559/2/6 558/2/6 560/2/6
f 561/1/6 562/1/6 563/1/6
f 563/1/6 562/1/6 564/1/6
f 565/1/6 566/1/6 567/1/6
f 567/1/6 566/1/6 568/1/6
f 569/1/6 570/1/6 571/1/6
f 571/1/6 570/1/6 572/1/6
f 573/1/6 574/1/6 575/1/6
f 575/1/6 574/1/6 576/1/6
f 577/1/6 578/1/6 579/1/6
f 579/1/6 578/1/6 580/1/6
f 581/1/6 582/1/6 583/1/6
f 583/1/6 582/1/6 584/1/6
f 585/1/6 586/1/6 587/1/6
f 587/1/6 586/1/6 588/1/6
f 589/1/6 590/1/6 591/1/6
f 591/1/6 590/1/6 592/1/6
f 593/1/6 594/1/6 595/1/6
f 595/1/6 594/1/6 596/1/6
f 597/1/6 598/1/6 599/1/6
f 599/1/6 598/1/6 600/1/6
