# MagicaVoxel @ Ephtracy

# group
o 

# material
mtllib Small Pot Plant.mtl
usemtl palette

# normals
vn -1 0 0
vn 1 0 0
vn 0 0 1
vn 0 0 -1
vn 0 -1 0
vn 0 1 0

# texcoords
vt 0.373047 0.5
vt 0.900391 0.5
vt 0.958984 0.5
vt 0.986328 0.5

# verts
v 0 2.6 -0.3
v 0 2.6 -0.7
v 0 2.9 -0.3
v 0 2.9 -0.7
v 0.1 2 -0.3
v 0.1 2 -0.7
v 0.1 2.6 -0.1
v 0.1 2.6 -0.3
v 0.1 2.6 -0.7
v 0.1 2.6 -0.9
v 0.1 2.9 -0.1
v 0.1 2.9 -0.3
v 0.1 2.9 -0.7
v 0.1 2.9 -0.9
v 0.1 3.2 -0.1
v 0.1 3.2 -0.9
v 0.1 3.4 -0.1
v 0.1 3.4 -0.9
v 0.2 2 -0.2
v 0.2 2 -0.3
v 0.2 2 -0.7
v 0.2 2 -0.8
v 0.2 2.6 -0.2
v 0.2 2.6 -0.3
v 0.2 2.6 -0.7
v 0.2 2.6 -0.8
v 0.2 3.4 -0.2
v 0.2 3.4 -0.8
v 0.2 3.6 -0.2
v 0.2 3.6 -0.8
v 0.3 2 -0.1
v 0.3 2 -0.2
v 0.3 2 -0.8
v 0.3 2 -0.9
v 0.3 2.6 0
v 0.3 2.6 -0.1
v 0.3 2.6 -0.2
v 0.3 2.6 -0.8
v 0.3 2.6 -0.9
v 0.3 2.6 -1
v 0.3 2.9 0
v 0.3 2.9 -0.1
v 0.3 2.9 -0.9
v 0.3 2.9 -1
v 0.3 3.6 -0.3
v 0.3 3.6 -0.7
v 0.3 3.8 -0.3
v 0.3 3.8 -0.7
v 0.4 2.6 -0.4
v 0.4 2.6 -0.6
v 0.4 3.2 -0.4
v 0.4 3.2 -0.6
v 0.4 3.8 -0.4
v 0.4 3.8 -0.6
v 0.4 4 -0.4
v 0.4 4 -0.6
v 0.6 2.6 -0.1
v 0.6 2.6 -0.2
v 0.6 2.6 -0.8
v 0.6 2.6 -0.9
v 0.6 2.9 -0.1
v 0.6 2.9 -0.2
v 0.6 2.9 -0.8
v 0.6 2.9 -0.9
v 0.8 2.6 -0.2
v 0.8 2.6 -0.4
v 0.8 2.6 -0.6
v 0.8 2.6 -0.8
v 0.8 2.9 -0.2
v 0.8 2.9 -0.4
v 0.8 2.9 -0.6
v 0.8 2.9 -0.8
v 0.9 2.6 -0.4
v 0.9 2.6 -0.6
v 0.9 2.9 -0.4
v 0.9 2.9 -0.6
v 0.1 2.6 -0.4
v 0.1 2.6 -0.6
v 0.1 2.9 -0.4
v 0.1 2.9 -0.6
v 0.2 2.6 -0.2
v 0.2 2.6 -0.4
v 0.2 2.6 -0.6
v 0.2 2.6 -0.8
v 0.2 2.9 -0.2
v 0.2 2.9 -0.4
v 0.2 2.9 -0.6
v 0.2 2.9 -0.8
v 0.4 2.6 -0.1
v 0.4 2.6 -0.2
v 0.4 2.6 -0.8
v 0.4 2.6 -0.9
v 0.4 2.9 -0.1
v 0.4 2.9 -0.2
v 0.4 2.9 -0.8
v 0.4 2.9 -0.9
v 0.6 2.6 -0.4
v 0.6 2.6 -0.6
v 0.6 3.2 -0.4
v 0.6 3.2 -0.6
v 0.6 3.8 -0.4
v 0.6 3.8 -0.6
v 0.6 4 -0.4
v 0.6 4 -0.6
v 0.7 2 -0.1
v 0.7 2 -0.2
v 0.7 2 -0.8
v 0.7 2 -0.9
v 0.7 2.6 0
v 0.7 2.6 -0.1
v 0.7 2.6 -0.2
v 0.7 2.6 -0.8
v 0.7 2.6 -0.9
v 0.7 2.6 -1
v 0.7 2.9 0
v 0.7 2.9 -0.1
v 0.7 2.9 -0.9
v 0.7 2.9 -1
v 0.7 3.6 -0.3
v 0.7 3.6 -0.7
v 0.7 3.8 -0.3
v 0.7 3.8 -0.7
v 0.8 2 -0.2
v 0.8 2 -0.3
v 0.8 2 -0.7
v 0.8 2 -0.8
v 0.8 2.6 -0.2
v 0.8 2.6 -0.3
v 0.8 2.6 -0.7
v 0.8 2.6 -0.8
v 0.8 3.4 -0.2
v 0.8 3.4 -0.8
v 0.8 3.6 -0.2
v 0.8 3.6 -0.8
v 0.9 2 -0.3
v 0.9 2 -0.7
v 0.9 2.6 -0.1
v 0.9 2.6 -0.3
v 0.9 2.6 -0.7
v 0.9 2.6 -0.9
v 0.9 2.9 -0.1
v 0.9 2.9 -0.3
v 0.9 2.9 -0.7
v 0.9 2.9 -0.9
v 0.9 3.2 -0.1
v 0.9 3.2 -0.9
v 0.9 3.4 -0.1
v 0.9 3.4 -0.9
v 1 2.6 -0.3
v 1 2.6 -0.7
v 1 2.9 -0.3
v 1 2.9 -0.7
v 0.3 2.6 0
v 0.3 2.9 0
v 0.7 2.6 0
v 0.7 2.9 0
v 0.1 2.6 -0.1
v 0.1 2.9 -0.1
v 0.1 3.2 -0.1
v 0.1 3.4 -0.1
v 0.3 2 -0.1
v 0.3 2.6 -0.1
v 0.3 2.9 -0.1
v 0.7 2 -0.1
v 0.7 2.6 -0.1
v 0.7 2.9 -0.1
v 0.9 2.6 -0.1
v 0.9 2.9 -0.1
v 0.9 3.2 -0.1
v 0.9 3.4 -0.1
v 0.2 2 -0.2
v 0.2 2.6 -0.2
v 0.2 3.4 -0.2
v 0.2 3.6 -0.2
v 0.3 2 -0.2
v 0.3 2.6 -0.2
v 0.7 2 -0.2
v 0.7 2.6 -0.2
v 0.8 2 -0.2
v 0.8 2.6 -0.2
v 0.8 3.4 -0.2
v 0.8 3.6 -0.2
v 0 2.6 -0.3
v 0 2.9 -0.3
v 0.1 2 -0.3
v 0.1 2.6 -0.3
v 0.1 2.9 -0.3
v 0.2 2 -0.3
v 0.2 2.6 -0.3
v 0.3 3.6 -0.3
v 0.3 3.8 -0.3
v 0.7 3.6 -0.3
v 0.7 3.8 -0.3
v 0.8 2 -0.3
v 0.8 2.6 -0.3
v 0.9 2 -0.3
v 0.9 2.6 -0.3
v 0.9 2.9 -0.3
v 1 2.6 -0.3
v 1 2.9 -0.3
v 0.4 2.6 -0.4
v 0.4 3.2 -0.4
v 0.4 3.8 -0.4
v 0.4 4 -0.4
v 0.6 2.6 -0.4
v 0.6 3.2 -0.4
v 0.6 3.8 -0.4
v 0.6 4 -0.4
v 0.1 2.6 -0.6
v 0.1 2.9 -0.6
v 0.2 2.6 -0.6
v 0.2 2.9 -0.6
v 0.8 2.6 -0.6
v 0.8 2.9 -0.6
v 0.9 2.6 -0.6
v 0.9 2.9 -0.6
v 0.2 2.6 -0.8
v 0.2 2.9 -0.8
v 0.4 2.6 -0.8
v 0.4 2.9 -0.8
v 0.6 2.6 -0.8
v 0.6 2.9 -0.8
v 0.8 2.6 -0.8
v 0.8 2.9 -0.8
v 0.4 2.6 -0.9
v 0.4 2.9 -0.9
v 0.6 2.6 -0.9
v 0.6 2.9 -0.9
v 0.4 2.6 -0.1
v 0.4 2.9 -0.1
v 0.6 2.6 -0.1
v 0.6 2.9 -0.1
v 0.2 2.6 -0.2
v 0.2 2.9 -0.2
v 0.4 2.6 -0.2
v 0.4 2.9 -0.2
v 0.6 2.6 -0.2
v 0.6 2.9 -0.2
v 0.8 2.6 -0.2
v 0.8 2.9 -0.2
v 0.1 2.6 -0.4
v 0.1 2.9 -0.4
v 0.2 2.6 -0.4
v 0.2 2.9 -0.4
v 0.8 2.6 -0.4
v 0.8 2.9 -0.4
v 0.9 2.6 -0.4
v 0.9 2.9 -0.4
v 0.4 2.6 -0.6
v 0.4 3.2 -0.6
v 0.4 3.8 -0.6
v 0.4 4 -0.6
v 0.6 2.6 -0.6
v 0.6 3.2 -0.6
v 0.6 3.8 -0.6
v 0.6 4 -0.6
v 0 2.6 -0.7
v 0 2.9 -0.7
v 0.1 2 -0.7
v 0.1 2.6 -0.7
v 0.1 2.9 -0.7
v 0.2 2 -0.7
v 0.2 2.6 -0.7
v 0.3 3.6 -0.7
v 0.3 3.8 -0.7
v 0.7 3.6 -0.7
v 0.7 3.8 -0.7
v 0.8 2 -0.7
v 0.8 2.6 -0.7
v 0.9 2 -0.7
v 0.9 2.6 -0.7
v 0.9 2.9 -0.7
v 1 2.6 -0.7
v 1 2.9 -0.7
v 0.2 2 -0.8
v 0.2 2.6 -0.8
v 0.2 3.4 -0.8
v 0.2 3.6 -0.8
v 0.3 2 -0.8
v 0.3 2.6 -0.8
v 0.7 2 -0.8
v 0.7 2.6 -0.8
v 0.8 2 -0.8
v 0.8 2.6 -0.8
v 0.8 3.4 -0.8
v 0.8 3.6 -0.8
v 0.1 2.6 -0.9
v 0.1 2.9 -0.9
v 0.1 3.2 -0.9
v 0.1 3.4 -0.9
v 0.3 2 -0.9
v 0.3 2.6 -0.9
v 0.3 2.9 -0.9
v 0.7 2 -0.9
v 0.7 2.6 -0.9
v 0.7 2.9 -0.9
v 0.9 2.6 -0.9
v 0.9 2.9 -0.9
v 0.9 3.2 -0.9
v 0.9 3.4 -0.9
v 0.3 2.6 -1
v 0.3 2.9 -1
v 0.7 2.6 -1
v 0.7 2.9 -1
v 0.3 2 -0.1
v 0.7 2 -0.1
v 0.2 2 -0.2
v 0.3 2 -0.2
v 0.7 2 -0.2
v 0.8 2 -0.2
v 0.1 2 -0.3
v 0.2 2 -0.3
v 0.8 2 -0.3
v 0.9 2 -0.3
v 0.1 2 -0.7
v 0.2 2 -0.7
v 0.8 2 -0.7
v 0.9 2 -0.7
v 0.2 2 -0.8
v 0.3 2 -0.8
v 0.7 2 -0.8
v 0.8 2 -0.8
v 0.3 2 -0.9
v 0.7 2 -0.9
v 0.3 2.6 0
v 0.7 2.6 0
v 0.1 2.6 -0.1
v 0.3 2.6 -0.1
v 0.7 2.6 -0.1
v 0.9 2.6 -0.1
v 0.2 2.6 -0.2
v 0.3 2.6 -0.2
v 0.7 2.6 -0.2
v 0.8 2.6 -0.2
v 0 2.6 -0.3
v 0.1 2.6 -0.3
v 0.2 2.6 -0.3
v 0.8 2.6 -0.3
v 0.9 2.6 -0.3
v 1 2.6 -0.3
v 0 2.6 -0.7
v 0.1 2.6 -0.7
v 0.2 2.6 -0.7
v 0.8 2.6 -0.7
v 0.9 2.6 -0.7
v 1 2.6 -0.7
v 0.2 2.6 -0.8
v 0.3 2.6 -0.8
v 0.7 2.6 -0.8
v 0.8 2.6 -0.8
v 0.1 2.6 -0.9
v 0.3 2.6 -0.9
v 0.7 2.6 -0.9
v 0.9 2.6 -0.9
v 0.3 2.6 -1
v 0.7 2.6 -1
v 0.1 3.2 -0.1
v 0.9 3.2 -0.1
v 0.4 3.2 -0.4
v 0.6 3.2 -0.4
v 0.4 3.2 -0.6
v 0.6 3.2 -0.6
v 0.1 3.2 -0.9
v 0.9 3.2 -0.9
v 0.4 2.6 -0.1
v 0.6 2.6 -0.1
v 0.2 2.6 -0.2
v 0.4 2.6 -0.2
v 0.6 2.6 -0.2
v 0.8 2.6 -0.2
v 0.1 2.6 -0.4
v 0.2 2.6 -0.4
v 0.4 2.6 -0.4
v 0.6 2.6 -0.4
v 0.8 2.6 -0.4
v 0.9 2.6 -0.4
v 0.1 2.6 -0.6
v 0.2 2.6 -0.6
v 0.4 2.6 -0.6
v 0.6 2.6 -0.6
v 0.8 2.6 -0.6
v 0.9 2.6 -0.6
v 0.2 2.6 -0.8
v 0.4 2.6 -0.8
v 0.6 2.6 -0.8
v 0.8 2.6 -0.8
v 0.4 2.6 -0.9
v 0.6 2.6 -0.9
v 0.3 2.9 0
v 0.7 2.9 0
v 0.1 2.9 -0.1
v 0.3 2.9 -0.1
v 0.4 2.9 -0.1
v 0.6 2.9 -0.1
v 0.7 2.9 -0.1
v 0.9 2.9 -0.1
v 0.2 2.9 -0.2
v 0.4 2.9 -0.2
v 0.6 2.9 -0.2
v 0.8 2.9 -0.2
v 0 2.9 -0.3
v 0.1 2.9 -0.3
v 0.9 2.9 -0.3
v 1 2.9 -0.3
v 0.1 2.9 -0.4
v 0.2 2.9 -0.4
v 0.8 2.9 -0.4
v 0.9 2.9 -0.4
v 0.1 2.9 -0.6
v 0.2 2.9 -0.6
v 0.8 2.9 -0.6
v 0.9 2.9 -0.6
v 0 2.9 -0.7
v 0.1 2.9 -0.7
v 0.9 2.9 -0.7
v 1 2.9 -0.7
v 0.2 2.9 -0.8
v 0.4 2.9 -0.8
v 0.6 2.9 -0.8
v 0.8 2.9 -0.8
v 0.1 2.9 -0.9
v 0.3 2.9 -0.9
v 0.4 2.9 -0.9
v 0.6 2.9 -0.9
v 0.7 2.9 -0.9
v 0.9 2.9 -0.9
v 0.3 2.9 -1
v 0.7 2.9 -1
v 0.1 3.4 -0.1
v 0.9 3.4 -0.1
v 0.2 3.4 -0.2
v 0.8 3.4 -0.2
v 0.2 3.4 -0.8
v 0.8 3.4 -0.8
v 0.1 3.4 -0.9
v 0.9 3.4 -0.9
v 0.2 3.6 -0.2
v 0.8 3.6 -0.2
v 0.3 3.6 -0.3
v 0.7 3.6 -0.3
v 0.3 3.6 -0.7
v 0.7 3.6 -0.7
v 0.2 3.6 -0.8
v 0.8 3.6 -0.8
v 0.3 3.8 -0.3
v 0.7 3.8 -0.3
v 0.4 3.8 -0.4
v 0.6 3.8 -0.4
v 0.4 3.8 -0.6
v 0.6 3.8 -0.6
v 0.3 3.8 -0.7
v 0.7 3.8 -0.7
v 0.4 4 -0.4
v 0.6 4 -0.4
v 0.4 4 -0.6
v 0.6 4 -0.6

# faces
f 3/4/1 2/4/1 1/4/1
f 4/4/1 2/4/1 3/4/1
f 8/4/1 6/4/1 5/4/1
f 9/4/1 6/4/1 8/4/1
f 11/4/1 8/4/1 7/4/1
f 12/4/1 8/4/1 11/4/1
f 13/4/1 10/4/1 9/4/1
f 14/4/1 10/4/1 13/4/1
f 17/2/1 16/2/1 15/2/1
f 18/2/1 16/2/1 17/2/1
f 23/4/1 20/4/1 19/4/1
f 24/4/1 20/4/1 23/4/1
f 25/4/1 22/4/1 21/4/1
f 26/4/1 22/4/1 25/4/1
f 29/2/1 28/2/1 27/2/1
f 30/2/1 28/2/1 29/2/1
f 36/4/1 32/4/1 31/4/1
f 37/4/1 32/4/1 36/4/1
f 38/4/1 34/4/1 33/4/1
f 39/4/1 34/4/1 38/4/1
f 41/4/1 36/4/1 35/4/1
f 42/4/1 36/4/1 41/4/1
f 43/4/1 40/4/1 39/4/1
f 44/4/1 40/4/1 43/4/1
f 47/2/1 46/2/1 45/2/1
f 48/2/1 46/2/1 47/2/1
f 51/1/1 50/1/1 49/1/1
f 52/1/1 50/1/1 51/1/1
f 55/2/1 54/2/1 53/2/1
f 56/2/1 54/2/1 55/2/1
f 61/4/1 58/4/1 57/4/1
f 62/4/1 58/4/1 61/4/1
f 63/4/1 60/4/1 59/4/1
f 64/4/1 60/4/1 63/4/1
f 69/4/1 66/4/1 65/4/1
f 70/4/1 66/4/1 69/4/1
f 71/4/1 68/4/1 67/4/1
f 72/4/1 68/4/1 71/4/1
f 75/4/1 74/4/1 73/4/1
f 76/4/1 74/4/1 75/4/1
f 77/4/2 78/4/2 79/4/2
f 79/4/2 78/4/2 80/4/2
f 81/4/2 82/4/2 85/4/2
f 85/4/2 82/4/2 86/4/2
f 83/4/2 84/4/2 87/4/2
f 87/4/2 84/4/2 88/4/2
f 89/4/2 90/4/2 93/4/2
f 93/4/2 90/4/2 94/4/2
f 91/4/2 92/4/2 95/4/2
f 95/4/2 92/4/2 96/4/2
f 97/1/2 98/1/2 99/1/2
f 99/1/2 98/1/2 100/1/2
f 101/2/2 102/2/2 103/2/2
f 103/2/2 102/2/2 104/2/2
f 105/4/2 106/4/2 110/4/2
f 110/4/2 106/4/2 111/4/2
f 107/4/2 108/4/2 112/4/2
f 112/4/2 108/4/2 113/4/2
f 109/4/2 110/4/2 115/4/2
f 115/4/2 110/4/2 116/4/2
f 113/4/2 114/4/2 117/4/2
f 117/4/2 114/4/2 118/4/2
f 119/2/2 120/2/2 121/2/2
f 121/2/2 120/2/2 122/2/2
f 123/4/2 124/4/2 127/4/2
f 127/4/2 124/4/2 128/4/2
f 125/4/2 126/4/2 129/4/2
f 129/4/2 126/4/2 130/4/2
f 131/2/2 132/2/2 133/2/2
f 133/2/2 132/2/2 134/2/2
f 135/4/2 136/4/2 138/4/2
f 138/4/2 136/4/2 139/4/2
f 137/4/2 138/4/2 141/4/2
f 141/4/2 138/4/2 142/4/2
f 139/4/2 140/4/2 143/4/2
f 143/4/2 140/4/2 144/4/2
f 145/2/2 146/2/2 147/2/2
f 147/2/2 146/2/2 148/2/2
f 149/4/2 150/4/2 151/4/2
f 151/4/2 150/4/2 152/4/2
f 155/4/3 154/4/3 153/4/3
f 156/4/3 154/4/3 155/4/3
f 162/4/3 158/4/3 157/4/3
f 163/4/3 158/4/3 162/4/3
f 164/4/3 162/4/3 161/4/3
f 165/4/3 162/4/3 164/4/3
f 167/4/3 166/4/3 165/4/3
f 168/4/3 166/4/3 167/4/3
f 169/2/3 160/2/3 159/2/3
f 170/2/3 160/2/3 169/2/3
f 175/4/3 172/4/3 171/4/3
f 176/4/3 172/4/3 175/4/3
f 179/4/3 178/4/3 177/4/3
f 180/4/3 178/4/3 179/4/3
f 181/2/3 174/2/3 173/2/3
f 182/2/3 174/2/3 181/2/3
f 186/4/3 184/4/3 183/4/3
f 187/4/3 184/4/3 186/4/3
f 188/4/3 186/4/3 185/4/3
f 189/4/3 186/4/3 188/4/3
f 192/2/3 191/2/3 190/2/3
f 193/2/3 191/2/3 192/2/3
f 196/4/3 195/4/3 194/4/3
f 197/4/3 195/4/3 196/4/3
f 199/4/3 198/4/3 197/4/3
f 200/4/3 198/4/3 199/4/3
f 205/1/3 202/1/3 201/1/3
f 206/1/3 202/1/3 205/1/3
f 207/2/3 204/2/3 203/2/3
f 208/2/3 204/2/3 207/2/3
f 211/4/3 210/4/3 209/4/3
f 212/4/3 210/4/3 211/4/3
f 215/4/3 214/4/3 213/4/3
f 216/4/3 214/4/3 215/4/3
f 219/4/3 218/4/3 217/4/3
f 220/4/3 218/4/3 219/4/3
f 223/4/3 222/4/3 221/4/3
f 224/4/3 222/4/3 223/4/3
f 227/4/3 226/4/3 225/4/3
f 228/4/3 226/4/3 227/4/3
f 229/4/4 230/4/4 231/4/4
f 231/4/4 230/4/4 232/4/4
f 233/4/4 234/4/4 235/4/4
f 235/4/4 234/4/4 236/4/4
f 237/4/4 238/4/4 239/4/4
f 239/4/4 238/4/4 240/4/4
f 241/4/4 242/4/4 243/4/4
f 243/4/4 242/4/4 244/4/4
f 245/4/4 246/4/4 247/4/4
f 247/4/4 246/4/4 248/4/4
f 249/1/4 250/1/4 253/1/4
f 253/1/4 250/1/4 254/1/4
f 251/2/4 252/2/4 255/2/4
f 255/2/4 252/2/4 256/2/4
f 257/4/4 258/4/4 260/4/4
f 260/4/4 258/4/4 261/4/4
f 259/4/4 260/4/4 262/4/4
f 262/4/4 260/4/4 263/4/4
f 264/2/4 265/2/4 266/2/4
f 266/2/4 265/2/4 267/2/4
f 268/4/4 269/4/4 270/4/4
f 270/4/4 269/4/4 271/4/4
f 271/4/4 272/4/4 273/4/4
f 273/4/4 272/4/4 274/4/4
f 275/4/4 276/4/4 279/4/4
f 279/4/4 276/4/4 280/4/4
f 281/4/4 282/4/4 283/4/4
f 283/4/4 282/4/4 284/4/4
f 277/2/4 278/2/4 285/2/4
f 285/2/4 278/2/4 286/2/4
f 287/4/4 288/4/4 292/4/4
f 292/4/4 288/4/4 293/4/4
f 291/4/4 292/4/4 294/4/4
f 294/4/4 292/4/4 295/4/4
f 295/4/4 296/4/4 297/4/4
f 297/4/4 296/4/4 298/4/4
f 289/2/4 290/2/4 299/2/4
f 299/2/4 290/2/4 300/2/4
f 301/4/4 302/4/4 303/4/4
f 303/4/4 302/4/4 304/4/4
f 308/4/5 306/4/5 305/4/5
f 309/4/5 306/4/5 308/4/5
f 312/4/5 308/4/5 307/4/5
f 312/4/5 310/4/5 309/4/5
f 312/4/5 309/4/5 308/4/5
f 313/4/5 310/4/5 312/4/5
f 315/4/5 312/4/5 311/4/5
f 315/4/5 314/4/5 313/4/5
f 315/4/5 313/4/5 312/4/5
f 316/4/5 314/4/5 315/4/5
f 317/4/5 314/4/5 316/4/5
f 318/4/5 314/4/5 317/4/5
f 319/4/5 317/4/5 316/4/5
f 320/4/5 317/4/5 319/4/5
f 321/4/5 317/4/5 320/4/5
f 322/4/5 317/4/5 321/4/5
f 323/4/5 321/4/5 320/4/5
f 324/4/5 321/4/5 323/4/5
f 328/4/5 326/4/5 325/4/5
f 329/4/5 326/4/5 328/4/5
f 331/4/5 328/4/5 327/4/5
f 332/4/5 328/4/5 331/4/5
f 333/4/5 330/4/5 329/4/5
f 334/4/5 330/4/5 333/4/5
f 336/4/5 331/4/5 327/4/5
f 337/4/5 331/4/5 336/4/5
f 338/4/5 330/4/5 334/4/5
f 339/4/5 330/4/5 338/4/5
f 341/4/5 336/4/5 335/4/5
f 342/4/5 336/4/5 341/4/5
f 345/4/5 340/4/5 339/4/5
f 346/4/5 340/4/5 345/4/5
f 347/4/5 343/4/5 342/4/5
f 350/4/5 345/4/5 344/4/5
f 351/4/5 348/4/5 347/4/5
f 351/4/5 347/4/5 342/4/5
f 352/4/5 348/4/5 351/4/5
f 353/4/5 350/4/5 349/4/5
f 354/4/5 345/4/5 350/4/5
f 354/4/5 350/4/5 353/4/5
f 355/4/5 353/4/5 352/4/5
f 356/4/5 353/4/5 355/4/5
f 359/2/5 358/2/5 357/2/5
f 360/2/5 358/2/5 359/2/5
f 361/2/5 359/2/5 357/2/5
f 362/2/5 358/2/5 360/2/5
f 363/2/5 361/2/5 357/2/5
f 363/2/5 362/2/5 361/2/5
f 364/2/5 358/2/5 362/2/5
f 364/2/5 362/2/5 363/2/5
f 365/4/6 366/4/6 368/4/6
f 368/4/6 366/4/6 369/4/6
f 367/4/6 368/4/6 372/4/6
f 369/4/6 370/4/6 372/4/6
f 368/4/6 369/4/6 372/4/6
f 372/4/6 370/4/6 373/4/6
f 373/4/6 370/4/6 374/4/6
f 374/4/6 370/4/6 375/4/6
f 371/4/6 372/4/6 377/4/6
f 372/4/6 373/4/6 377/4/6
f 377/4/6 373/4/6 378/4/6
f 378/4/6 373/4/6 379/4/6
f 375/4/6 376/4/6 380/4/6
f 374/4/6 375/4/6 380/4/6
f 380/4/6 376/4/6 381/4/6
f 381/4/6 376/4/6 382/4/6
f 378/4/6 379/4/6 383/4/6
f 380/4/6 381/4/6 383/4/6
f 379/4/6 380/4/6 383/4/6
f 383/4/6 381/4/6 384/4/6
f 384/4/6 381/4/6 385/4/6
f 385/4/6 381/4/6 386/4/6
f 384/4/6 385/4/6 387/4/6
f 387/4/6 385/4/6 388/4/6
f 389/4/6 390/4/6 392/4/6
f 392/4/6 390/4/6 393/4/6
f 393/4/6 390/4/6 394/4/6
f 394/4/6 390/4/6 395/4/6
f 391/4/6 392/4/6 397/4/6
f 392/4/6 393/4/6 397/4/6
f 397/4/6 393/4/6 398/4/6
f 395/4/6 396/4/6 399/4/6
f 394/4/6 395/4/6 399/4/6
f 399/4/6 396/4/6 400/4/6
f 391/4/6 397/4/6 402/4/6
f 400/4/6 396/4/6 403/4/6
f 401/4/6 402/4/6 405/4/6
f 402/4/6 397/4/6 405/4/6
f 405/4/6 397/4/6 406/4/6
f 403/4/6 404/4/6 407/4/6
f 400/4/6 403/4/6 407/4/6
f 407/4/6 404/4/6 408/4/6
f 401/4/6 405/4/6 409/4/6
f 408/4/6 404/4/6 412/4/6
f 409/4/6 410/4/6 413/4/6
f 401/4/6 409/4/6 413/4/6
f 413/4/6 410/4/6 414/4/6
f 411/4/6 412/4/6 415/4/6
f 412/4/6 404/4/6 415/4/6
f 415/4/6 404/4/6 416/4/6
f 414/4/6 410/4/6 417/4/6
f 411/4/6 415/4/6 420/4/6
f 417/4/6 418/4/6 421/4/6
f 414/4/6 417/4/6 421/4/6
f 421/4/6 418/4/6 422/4/6
f 422/4/6 418/4/6 423/4/6
f 419/4/6 420/4/6 424/4/6
f 424/4/6 420/4/6 425/4/6
f 420/4/6 415/4/6 426/4/6
f 425/4/6 420/4/6 426/4/6
f 422/4/6 423/4/6 427/4/6
f 424/4/6 425/4/6 427/4/6
f 423/4/6 424/4/6 427/4/6
f 427/4/6 425/4/6 428/4/6
f 429/2/6 430/2/6 431/2/6
f 431/2/6 430/2/6 432/2/6
f 429/2/6 431/2/6 433/2/6
f 432/2/6 430/2/6 434/2/6
f 429/2/6 433/2/6 435/2/6
f 433/2/6 434/2/6 435/2/6
f 434/2/6 430/2/6 436/2/6
f 435/2/6 434/2/6 436/2/6
f 437/2/6 438/2/6 439/2/6
f 439/2/6 438/2/6 440/2/6
f 437/2/6 439/2/6 441/2/6
f 440/2/6 438/2/6 442/2/6
f 437/2/6 441/2/6 443/2/6
f 441/2/6 442/2/6 443/2/6
f 442/2/6 438/2/6 444/2/6
f 443/2/6 442/2/6 444/2/6
f 445/2/6 446/2/6 447/2/6
f 447/2/6 446/2/6 448/2/6
f 445/2/6 447/2/6 449/2/6
f 448/2/6 446/2/6 450/2/6
f 445/2/6 449/2/6 451/2/6
f 449/2/6 450/2/6 451/2/6
f 450/2/6 446/2/6 452/2/6
f 451/2/6 450/2/6 452/2/6
f 453/2/6 454/2/6 455/2/6
f 455/2/6 454/2/6 456/2/6
