# MagicaVoxel @ Ephtracy

# group
o 

# material
mtllib flowers-1.mtl
usemtl palette

# normals
vn -1 0 0
vn 1 0 0
vn 0 0 1
vn 0 0 -1
vn 0 -1 0
vn 0 1 0

# texcoords
vt 0.970703 0.5
vt 0.974609 0.5
vt 0.978516 0.5
vt 0.986328 0.5

# verts
v 1.6 2.3 0.4
v 1.6 2.3 0.2
v 1.6 2.5 0.4
v 1.6 2.5 0.3
v 1.6 2.6 0.3
v 1.6 2.6 0.2
v 1.7 1.5 -0.1
v 1.7 1.5 -0.2
v 1.7 1.7 -0.1
v 1.7 1.7 -0.2
v 1.7 2.2 0.4
v 1.7 2.2 0.2
v 1.7 2.3 0.5
v 1.7 2.3 0.4
v 1.7 2.3 0.2
v 1.7 2.3 0.1
v 1.7 2.5 0.5
v 1.7 2.5 0.4
v 1.7 2.6 0.2
v 1.7 2.6 0.1
v 1.8 2.2 0.2
v 1.8 2.2 0.1
v 1.8 2.3 0.2
v 1.8 2.3 0.1
v 1.8 2.4 0.4
v 1.8 2.4 0.3
v 1.8 2.5 0.5
v 1.8 2.5 0.4
v 1.8 2.5 0.3
v 1.8 2.5 0.2
v 1.8 2.6 0.5
v 1.8 2.6 0.4
v 1.8 2.6 0.2
v 1.8 2.6 0.1
v 1.8 2.7 0.3
v 1.8 2.7 0.1
v 1.9 2.1 0.1
v 1.9 2.1 0
v 1.9 2.2 0.1
v 1.9 2.3 0.1
v 1.9 2.3 0
v 1.9 2.5 0.4
v 1.9 2.5 0.3
v 1.9 2.6 0.4
v 1.9 2.6 0.3
v 2 1 0.1
v 2 1 -0.2
v 2 1.1 -0.1
v 2 1.1 -0.2
v 2 1.2 0.1
v 2 1.2 0
v 2 1.4 -0.1
v 2 1.4 -0.2
v 2 1.5 0
v 2 1.5 -0.1
v 2 1.6 -0.1
v 2 1.6 -0.2
v 2 1.6 -0.3
v 2 1.7 -0.2
v 2 1.7 -0.3
v 2 2 0
v 2 2 -0.1
v 2 2.1 0
v 2 2.2 0
v 2 2.2 -0.1
v 2.1 1.1 -0.1
v 2.1 1.1 -0.2
v 2.1 1.4 -0.1
v 2.1 1.4 -0.2
v 2.1 1.7 -0.2
v 2.1 1.7 -0.3
v 2.1 1.8 -0.1
v 2.1 1.8 -0.2
v 2.1 1.9 0
v 2.1 1.9 -0.1
v 2.1 1.9 -0.2
v 2.1 1.9 -0.3
v 2.1 2 0
v 2.1 2 -0.1
v 2.1 2 -0.2
v 2.2 1 -0.2
v 2.2 1 -0.3
v 2.2 1.1 -0.2
v 2.2 1.1 -0.3
v 2.3 1.9 0
v 2.3 1.9 -0.1
v 2.3 2 0
v 2.3 2 -0.1
v 1.7 2.4 0.4
v 1.7 2.4 0.3
v 1.7 2.5 0.4
v 1.7 2.5 0.3
v 1.7 2.5 0.2
v 1.7 2.6 0.3
v 1.7 2.6 0.2
v 1.9 1.5 -0.1
v 1.9 1.5 -0.2
v 1.9 1.6 -0.1
v 1.9 1.6 -0.2
v 1.9 2.2 0.4
v 1.9 2.2 0.2
v 1.9 2.3 0.5
v 1.9 2.3 0.4
v 1.9 2.3 0.3
v 1.9 2.3 0.2
v 1.9 2.3 0.1
v 1.9 2.4 0.3
v 1.9 2.4 0.2
v 1.9 2.4 0.1
v 1.9 2.6 0.5
v 1.9 2.6 0.4
v 1.9 2.7 0.2
v 1.9 2.7 0.1
v 2 2.2 0.2
v 2 2.2 0.1
v 2 2.2 0
v 2 2.3 0.4
v 2 2.3 0.3
v 2 2.3 0.2
v 2 2.3 0
v 2 2.4 0.3
v 2 2.4 0.2
v 2 2.6 0.4
v 2 2.6 0.3
v 2 2.7 0.3
v 2 2.7 0.2
v 2.1 1.1 0.1
v 2.1 1.1 0
v 2.1 1.2 0.1
v 2.1 1.2 0
v 2.1 1.3 0
v 2.1 1.3 -0.1
v 2.1 1.4 -0.1
v 2.1 1.4 -0.2
v 2.1 1.5 0
v 2.1 1.5 -0.1
v 2.1 1.6 -0.2
v 2.1 1.7 -0.1
v 2.1 1.7 -0.2
v 2.1 2.1 0.1
v 2.1 2.1 0
v 2.1 2.1 -0.1
v 2.1 2.2 0.1
v 2.1 2.2 -0.1
v 2.2 1 0.1
v 2.2 1 0
v 2.2 1.1 0.1
v 2.2 1.1 0
v 2.2 1.1 -0.1
v 2.2 1.2 -0.1
v 2.2 1.2 -0.2
v 2.2 1.3 0
v 2.2 1.3 -0.1
v 2.2 1.4 -0.1
v 2.2 1.4 -0.2
v 2.2 1.6 -0.2
v 2.2 1.6 -0.3
v 2.2 1.8 -0.1
v 2.2 1.8 -0.2
v 2.2 1.9 0
v 2.2 1.9 -0.1
v 2.2 1.9 -0.2
v 2.2 1.9 -0.3
v 2.2 2 0
v 2.2 2 -0.1
v 2.2 2 -0.2
v 2.3 1 0
v 2.3 1 -0.1
v 2.3 1 -0.2
v 2.3 1 -0.3
v 2.3 1.1 0
v 2.3 1.1 -0.1
v 2.3 1.1 -0.2
v 2.3 1.1 -0.3
v 2.3 1.2 -0.1
v 2.3 1.2 -0.2
v 2.4 1 -0.1
v 2.4 1 -0.2
v 2.4 1.1 -0.1
v 2.4 1.1 -0.2
v 2.5 1.9 0
v 2.5 1.9 -0.1
v 2.5 2.1 0
v 2.5 2.1 -0.1
v 1.7 2.3 0.5
v 1.7 2.5 0.5
v 1.8 2.5 0.5
v 1.8 2.6 0.5
v 1.9 2.3 0.5
v 1.9 2.6 0.5
v 1.6 2.3 0.4
v 1.6 2.5 0.4
v 1.7 2.2 0.4
v 1.7 2.3 0.4
v 1.7 2.5 0.4
v 1.9 2.2 0.4
v 1.9 2.3 0.4
v 1.9 2.6 0.4
v 2 2.3 0.4
v 2 2.6 0.4
v 1.6 2.5 0.3
v 1.6 2.6 0.3
v 1.7 2.4 0.3
v 1.7 2.5 0.3
v 1.7 2.6 0.3
v 1.8 2.4 0.3
v 1.8 2.5 0.3
v 1.8 2.7 0.3
v 1.9 2.5 0.3
v 1.9 2.6 0.3
v 2 2.6 0.3
v 2 2.7 0.3
v 1.7 2.5 0.2
v 1.7 2.6 0.2
v 1.8 2.5 0.2
v 1.8 2.6 0.2
v 1.9 2.2 0.2
v 1.9 2.3 0.2
v 2 2.2 0.2
v 2 2.3 0.2
v 1.9 2.1 0.1
v 1.9 2.2 0.1
v 2 1 0.1
v 2 1.2 0.1
v 2 2.2 0.1
v 2.1 1.1 0.1
v 2.1 1.2 0.1
v 2.1 2.1 0.1
v 2.1 2.2 0.1
v 2.2 1 0.1
v 2.2 1.1 0.1
v 2 1.2 0
v 2 1.5 0
v 2 2 0
v 2 2.1 0
v 2.1 1.1 0
v 2.1 1.2 0
v 2.1 1.3 0
v 2.1 1.5 0
v 2.1 1.9 0
v 2.1 2 0
v 2.1 2.1 0
v 2.2 1 0
v 2.2 1.1 0
v 2.2 1.3 0
v 2.2 1.9 0
v 2.2 2 0
v 2.2 2.1 0
v 2.3 1 0
v 2.3 1.1 0
v 2.3 1.9 0
v 2.3 2 0
v 2.5 1.9 0
v 2.5 2.1 0
v 1.7 1.5 -0.1
v 1.7 1.7 -0.1
v 1.9 1.5 -0.1
v 1.9 1.6 -0.1
v 2 1.5 -0.1
v 2 1.6 -0.1
v 2 1.7 -0.1
v 2.1 1.3 -0.1
v 2.1 1.4 -0.1
v 2.1 1.5 -0.1
v 2.1 1.7 -0.1
v 2.1 1.8 -0.1
v 2.1 1.9 -0.1
v 2.2 1.1 -0.1
v 2.2 1.2 -0.1
v 2.2 1.3 -0.1
v 2.2 1.4 -0.1
v 2.2 1.8 -0.1
v 2.2 1.9 -0.1
v 2.3 1 -0.1
v 2.3 1.1 -0.1
v 2.3 1.2 -0.1
v 2.4 1 -0.1
v 2.4 1.1 -0.1
v 2.1 1.6 -0.2
v 2.1 1.7 -0.2
v 2.1 1.8 -0.2
v 2.2 1.6 -0.2
v 2.2 1.8 -0.2
v 1.7 2.4 0.4
v 1.7 2.5 0.4
v 1.8 2.4 0.4
v 1.8 2.5 0.4
v 1.8 2.6 0.4
v 1.9 2.5 0.4
v 1.9 2.6 0.4
v 1.9 2.3 0.3
v 1.9 2.4 0.3
v 2 2.3 0.3
v 2 2.4 0.3
v 1.6 2.3 0.2
v 1.6 2.6 0.2
v 1.7 2.2 0.2
v 1.7 2.3 0.2
v 1.7 2.6 0.2
v 1.8 2.2 0.2
v 1.8 2.3 0.2
v 1.9 2.4 0.2
v 1.9 2.7 0.2
v 2 2.4 0.2
v 2 2.7 0.2
v 1.7 2.3 0.1
v 1.7 2.6 0.1
v 1.8 2.2 0.1
v 1.8 2.3 0.1
v 1.8 2.4 0.1
v 1.8 2.6 0.1
v 1.8 2.7 0.1
v 1.9 2.2 0.1
v 1.9 2.3 0.1
v 1.9 2.4 0.1
v 1.9 2.7 0.1
v 1.9 2.1 0
v 1.9 2.3 0
v 2 2.1 0
v 2 2.2 0
v 2 2.3 0
v 2 1.1 -0.1
v 2 1.4 -0.1
v 2 2 -0.1
v 2 2.2 -0.1
v 2.1 1.1 -0.1
v 2.1 1.4 -0.1
v 2.1 2 -0.1
v 2.1 2.1 -0.1
v 2.1 2.2 -0.1
v 2.2 2 -0.1
v 2.2 2.1 -0.1
v 2.3 1.9 -0.1
v 2.3 2 -0.1
v 2.5 1.9 -0.1
v 2.5 2.1 -0.1
v 1.7 1.5 -0.2
v 1.7 1.7 -0.2
v 1.9 1.5 -0.2
v 1.9 1.6 -0.2
v 2 1 -0.2
v 2 1.1 -0.2
v 2 1.4 -0.2
v 2 1.6 -0.2
v 2 1.7 -0.2
v 2.1 1.1 -0.2
v 2.1 1.4 -0.2
v 2.1 1.6 -0.2
v 2.1 1.9 -0.2
v 2.1 2 -0.2
v 2.2 1 -0.2
v 2.2 1.1 -0.2
v 2.2 1.2 -0.2
v 2.2 1.4 -0.2
v 2.2 1.9 -0.2
v 2.2 2 -0.2
v 2.3 1 -0.2
v 2.3 1.1 -0.2
v 2.3 1.2 -0.2
v 2.4 1 -0.2
v 2.4 1.1 -0.2
v 2 1.6 -0.3
v 2 1.7 -0.3
v 2.1 1.7 -0.3
v 2.1 1.9 -0.3
v 2.2 1 -0.3
v 2.2 1.1 -0.3
v 2.2 1.6 -0.3
v 2.2 1.9 -0.3
v 2.3 1 -0.3
v 2.3 1.1 -0.3
v 2 1 0.1
v 2.2 1 0.1
v 2.2 1 0
v 2.3 1 0
v 2.3 1 -0.1
v 2.4 1 -0.1
v 2 1 -0.2
v 2.2 1 -0.2
v 2.3 1 -0.2
v 2.4 1 -0.2
v 2.2 1 -0.3
v 2.3 1 -0.3
v 2 1.4 -0.1
v 2.1 1.4 -0.1
v 2 1.4 -0.2
v 2.1 1.4 -0.2
v 1.7 1.5 -0.1
v 1.9 1.5 -0.1
v 1.7 1.5 -0.2
v 1.9 1.5 -0.2
v 1.9 1.6 -0.1
v 2 1.6 -0.1
v 1.9 1.6 -0.2
v 2 1.6 -0.2
v 2.1 1.6 -0.2
v 2.2 1.6 -0.2
v 2 1.6 -0.3
v 2.2 1.6 -0.3
v 2.1 1.8 -0.1
v 2.2 1.8 -0.1
v 2.1 1.8 -0.2
v 2.2 1.8 -0.2
v 2.1 1.9 0
v 2.2 1.9 0
v 2.3 1.9 0
v 2.5 1.9 0
v 2.1 1.9 -0.1
v 2.2 1.9 -0.1
v 2.3 1.9 -0.1
v 2.5 1.9 -0.1
v 2 2 0
v 2.1 2 0
v 2.2 2 0
v 2.3 2 0
v 2 2 -0.1
v 2.1 2 -0.1
v 2.2 2 -0.1
v 2.3 2 -0.1
v 1.9 2.1 0.1
v 2.1 2.1 0.1
v 1.9 2.1 0
v 2 2.1 0
v 2.1 2.1 0
v 1.7 2.2 0.4
v 1.9 2.2 0.4
v 1.7 2.2 0.2
v 1.8 2.2 0.2
v 1.9 2.2 0.2
v 2 2.2 0.2
v 1.8 2.2 0.1
v 1.9 2.2 0.1
v 2 2.2 0.1
v 1.7 2.3 0.5
v 1.9 2.3 0.5
v 1.6 2.3 0.4
v 1.7 2.3 0.4
v 1.9 2.3 0.4
v 2 2.3 0.4
v 1.9 2.3 0.3
v 2 2.3 0.3
v 1.6 2.3 0.2
v 1.7 2.3 0.2
v 1.8 2.3 0.2
v 1.7 2.3 0.1
v 1.8 2.3 0.1
v 1.9 2.4 0.3
v 2 2.4 0.3
v 1.9 2.4 0.2
v 2 2.4 0.2
v 2.1 1.1 0.1
v 2.2 1.1 0.1
v 2.1 1.1 0
v 2.2 1.1 0
v 2.3 1.1 0
v 2 1.1 -0.1
v 2.1 1.1 -0.1
v 2.2 1.1 -0.1
v 2.3 1.1 -0.1
v 2.4 1.1 -0.1
v 2 1.1 -0.2
v 2.1 1.1 -0.2
v 2.2 1.1 -0.2
v 2.3 1.1 -0.2
v 2.4 1.1 -0.2
v 2.2 1.1 -0.3
v 2.3 1.1 -0.3
v 2 1.2 0.1
v 2.1 1.2 0.1
v 2 1.2 0
v 2.1 1.2 0
v 2.2 1.2 -0.1
v 2.3 1.2 -0.1
v 2.2 1.2 -0.2
v 2.3 1.2 -0.2
v 2.1 1.3 0
v 2.2 1.3 0
v 2.1 1.3 -0.1
v 2.2 1.3 -0.1
v 2.1 1.4 -0.1
v 2.2 1.4 -0.1
v 2.1 1.4 -0.2
v 2.2 1.4 -0.2
v 2 1.5 0
v 2.1 1.5 0
v 2 1.5 -0.1
v 2.1 1.5 -0.1
v 1.7 1.7 -0.1
v 2 1.7 -0.1
v 2.1 1.7 -0.1
v 1.7 1.7 -0.2
v 2 1.7 -0.2
v 2.1 1.7 -0.2
v 2 1.7 -0.3
v 2.1 1.7 -0.3
v 2.1 1.9 -0.2
v 2.2 1.9 -0.2
v 2.1 1.9 -0.3
v 2.2 1.9 -0.3
v 2.1 2 -0.1
v 2.2 2 -0.1
v 2.1 2 -0.2
v 2.2 2 -0.2
v 2.1 2.1 0
v 2.2 2.1 0
v 2.5 2.1 0
v 2.1 2.1 -0.1
v 2.2 2.1 -0.1
v 2.5 2.1 -0.1
v 2 2.2 0.1
v 2.1 2.2 0.1
v 2 2.2 0
v 2 2.2 -0.1
v 2.1 2.2 -0.1
v 1.9 2.3 0.2
v 2 2.3 0.2
v 1.9 2.3 0.1
v 1.9 2.3 0
v 2 2.3 0
v 1.7 2.4 0.4
v 1.8 2.4 0.4
v 1.7 2.4 0.3
v 1.8 2.4 0.3
v 1.7 2.5 0.5
v 1.8 2.5 0.5
v 1.6 2.5 0.4
v 1.7 2.5 0.4
v 1.8 2.5 0.4
v 1.9 2.5 0.4
v 1.6 2.5 0.3
v 1.7 2.5 0.3
v 1.8 2.5 0.3
v 1.9 2.5 0.3
v 1.7 2.5 0.2
v 1.8 2.5 0.2
v 1.8 2.6 0.5
v 1.9 2.6 0.5
v 1.8 2.6 0.4
v 1.9 2.6 0.4
v 2 2.6 0.4
v 1.6 2.6 0.3
v 1.7 2.6 0.3
v 1.9 2.6 0.3
v 2 2.6 0.3
v 1.6 2.6 0.2
v 1.7 2.6 0.2
v 1.8 2.6 0.2
v 1.7 2.6 0.1
v 1.8 2.6 0.1
v 1.8 2.7 0.3
v 2 2.7 0.3
v 1.9 2.7 0.2
v 2 2.7 0.2
v 1.8 2.7 0.1
v 1.9 2.7 0.1

# faces
f 3/4/1 2/4/1 1/4/1
f 4/4/1 2/4/1 3/4/1
f 5/4/1 2/4/1 4/4/1
f 6/4/1 2/4/1 5/4/1
f 9/2/1 8/2/1 7/2/1
f 10/2/1 8/2/1 9/2/1
f 14/4/1 12/4/1 11/4/1
f 15/4/1 12/4/1 14/4/1
f 17/4/1 14/4/1 13/4/1
f 18/4/1 14/4/1 17/4/1
f 19/4/1 16/4/1 15/4/1
f 20/4/1 16/4/1 19/4/1
f 23/1/1 22/1/1 21/1/1
f 24/1/1 22/1/1 23/1/1
f 28/3/1 26/3/1 25/3/1
f 29/3/1 26/3/1 28/3/1
f 31/4/1 28/4/1 27/4/1
f 32/4/1 28/4/1 31/4/1
f 33/4/1 30/4/1 29/4/1
f 35/4/1 34/4/1 33/4/1
f 35/4/1 33/4/1 29/4/1
f 36/4/1 34/4/1 35/4/1
f 39/1/1 38/1/1 37/1/1
f 40/1/1 38/1/1 39/1/1
f 41/1/1 38/1/1 40/1/1
f 44/4/1 43/4/1 42/4/1
f 45/4/1 43/4/1 44/4/1
f 48/1/1 47/1/1 46/1/1
f 49/1/1 47/1/1 48/1/1
f 50/1/1 48/1/1 46/1/1
f 51/1/1 48/1/1 50/1/1
f 52/1/1 48/1/1 51/1/1
f 54/1/1 52/1/1 51/1/1
f 54/1/1 53/1/1 52/1/1
f 55/1/1 53/1/1 54/1/1
f 56/1/1 53/1/1 55/1/1
f 57/1/1 53/1/1 56/1/1
f 59/1/1 58/1/1 57/1/1
f 60/1/1 58/1/1 59/1/1
f 63/1/1 62/1/1 61/1/1
f 64/1/1 62/1/1 63/1/1
f 65/1/1 62/1/1 64/1/1
f 68/1/1 67/1/1 66/1/1
f 69/1/1 67/1/1 68/1/1
f 73/1/1 71/1/1 70/1/1
f 75/1/1 73/1/1 72/1/1
f 76/1/1 71/1/1 73/1/1
f 76/1/1 73/1/1 75/1/1
f 77/1/1 71/1/1 76/1/1
f 78/1/1 75/1/1 74/1/1
f 78/1/1 76/1/1 75/1/1
f 79/1/1 76/1/1 78/1/1
f 80/1/1 76/1/1 79/1/1
f 83/1/1 82/1/1 81/1/1
f 84/1/1 82/1/1 83/1/1
f 87/2/1 86/2/1 85/2/1
f 88/2/1 86/2/1 87/2/1
f 89/4/2 90/4/2 91/4/2
f 91/4/2 90/4/2 92/4/2
f 92/4/2 93/4/2 94/4/2
f 94/4/2 93/4/2 95/4/2
f 96/2/2 97/2/2 98/2/2
f 98/2/2 97/2/2 99/2/2
f 100/4/2 101/4/2 103/4/2
f 103/4/2 101/4/2 104/4/2
f 104/4/2 101/4/2 105/4/2
f 105/1/2 106/1/2 107/1/2
f 104/1/2 105/1/2 107/1/2
f 107/1/2 106/1/2 108/1/2
f 108/1/2 106/1/2 109/1/2
f 102/4/2 103/4/2 110/4/2
f 110/4/2 103/4/2 111/4/2
f 108/4/2 109/4/2 112/4/2
f 112/4/2 109/4/2 113/4/2
f 114/1/2 115/1/2 119/1/2
f 115/1/2 116/1/2 119/1/2
f 119/1/2 116/1/2 120/1/2
f 117/4/2 118/4/2 121/4/2
f 117/4/2 121/4/2 123/4/2
f 121/4/2 122/4/2 123/4/2
f 123/4/2 122/4/2 124/4/2
f 124/4/2 122/4/2 125/4/2
f 125/4/2 122/4/2 126/4/2
f 127/1/2 128/1/2 129/1/2
f 129/1/2 128/1/2 130/1/2
f 131/1/2 132/1/2 133/1/2
f 131/1/2 133/1/2 135/1/2
f 133/1/2 134/1/2 135/1/2
f 135/1/2 134/1/2 136/1/2
f 136/1/2 134/1/2 137/1/2
f 136/1/2 137/1/2 138/1/2
f 138/1/2 137/1/2 139/1/2
f 140/1/2 141/1/2 143/1/2
f 141/1/2 142/1/2 143/1/2
f 143/1/2 142/1/2 144/1/2
f 145/1/2 146/1/2 147/1/2
f 147/1/2 146/1/2 148/1/2
f 148/1/2 149/1/2 150/1/2
f 148/1/2 150/1/2 152/1/2
f 150/1/2 151/1/2 152/1/2
f 152/1/2 151/1/2 153/1/2
f 153/1/2 151/1/2 154/1/2
f 154/1/2 151/1/2 155/1/2
f 156/1/2 157/1/2 159/1/2
f 158/1/2 159/1/2 161/1/2
f 159/1/2 157/1/2 162/1/2
f 161/1/2 159/1/2 162/1/2
f 162/1/2 157/1/2 163/1/2
f 160/1/2 161/1/2 164/1/2
f 161/1/2 162/1/2 164/1/2
f 164/1/2 162/1/2 165/1/2
f 165/1/2 162/1/2 166/1/2
f 167/1/2 168/1/2 171/1/2
f 171/1/2 168/1/2 172/1/2
f 169/1/2 170/1/2 173/1/2
f 173/1/2 170/1/2 174/1/2
f 172/1/2 173/1/2 175/1/2
f 175/1/2 173/1/2 176/1/2
f 177/1/2 178/1/2 179/1/2
f 179/1/2 178/1/2 180/1/2
f 181/2/2 182/2/2 183/2/2
f 183/2/2 182/2/2 184/2/2
f 187/4/3 186/4/3 185/4/3
f 189/4/3 187/4/3 185/4/3
f 189/4/3 188/4/3 187/4/3
f 190/4/3 188/4/3 189/4/3
f 194/4/3 192/4/3 191/4/3
f 195/4/3 192/4/3 194/4/3
f 196/4/3 194/4/3 193/4/3
f 197/4/3 194/4/3 196/4/3
f 199/4/3 198/4/3 197/4/3
f 200/4/3 198/4/3 199/4/3
f 204/4/3 202/4/3 201/4/3
f 205/4/3 202/4/3 204/4/3
f 206/3/3 204/3/3 203/3/3
f 207/3/3 204/3/3 206/3/3
f 209/4/3 208/4/3 207/4/3
f 210/4/3 208/4/3 209/4/3
f 211/4/3 208/4/3 210/4/3
f 212/4/3 208/4/3 211/4/3
f 215/4/3 214/4/3 213/4/3
f 216/4/3 214/4/3 215/4/3
f 219/1/3 218/1/3 217/1/3
f 220/1/3 218/1/3 219/1/3
f 225/1/3 222/1/3 221/1/3
f 226/1/3 224/1/3 223/1/3
f 227/1/3 224/1/3 226/1/3
f 228/1/3 225/1/3 221/1/3
f 229/1/3 225/1/3 228/1/3
f 230/1/3 226/1/3 223/1/3
f 231/1/3 226/1/3 230/1/3
f 237/1/3 233/1/3 232/1/3
f 238/1/3 233/1/3 237/1/3
f 239/1/3 233/1/3 238/1/3
f 241/1/3 235/1/3 234/1/3
f 242/1/3 235/1/3 241/1/3
f 244/1/3 237/1/3 236/1/3
f 244/1/3 238/1/3 237/1/3
f 245/1/3 238/1/3 244/1/3
f 246/1/3 242/1/3 241/1/3
f 246/1/3 241/1/3 240/1/3
f 247/1/3 242/1/3 246/1/3
f 248/1/3 242/1/3 247/1/3
f 249/1/3 244/1/3 243/1/3
f 250/1/3 244/1/3 249/1/3
f 252/2/3 248/2/3 247/2/3
f 253/2/3 252/2/3 251/2/3
f 254/2/3 248/2/3 252/2/3
f 254/2/3 252/2/3 253/2/3
f 257/2/3 256/2/3 255/2/3
f 258/2/3 256/2/3 257/2/3
f 260/2/3 256/2/3 258/2/3
f 261/2/3 256/2/3 260/2/3
f 264/1/3 260/1/3 259/1/3
f 264/1/3 261/1/3 260/1/3
f 265/1/3 261/1/3 264/1/3
f 270/1/3 263/1/3 262/1/3
f 271/1/3 263/1/3 270/1/3
f 272/1/3 267/1/3 266/1/3
f 273/1/3 267/1/3 272/1/3
f 275/1/3 269/1/3 268/1/3
f 276/1/3 269/1/3 275/1/3
f 277/1/3 275/1/3 274/1/3
f 278/1/3 275/1/3 277/1/3
f 282/1/3 280/1/3 279/1/3
f 282/1/3 281/1/3 280/1/3
f 283/1/3 281/1/3 282/1/3
f 284/4/4 285/4/4 286/4/4
f 286/4/4 285/4/4 287/4/4
f 287/4/4 288/4/4 289/4/4
f 289/4/4 288/4/4 290/4/4
f 291/4/4 292/4/4 293/4/4
f 293/4/4 292/4/4 294/4/4
f 295/4/4 296/4/4 298/4/4
f 298/4/4 296/4/4 299/4/4
f 297/4/4 298/4/4 300/4/4
f 300/4/4 298/4/4 301/4/4
f 302/4/4 303/4/4 304/4/4
f 304/4/4 303/4/4 305/4/4
f 306/4/4 307/4/4 309/4/4
f 309/4/4 307/4/4 310/4/4
f 310/4/4 307/4/4 311/4/4
f 308/1/4 309/1/4 313/1/4
f 309/1/4 310/1/4 313/1/4
f 313/1/4 310/1/4 314/1/4
f 311/4/4 312/4/4 315/4/4
f 314/1/4 310/1/4 315/1/4
f 310/4/4 311/4/4 315/4/4
f 315/4/4 312/4/4 316/4/4
f 317/1/4 318/1/4 319/1/4
f 319/1/4 318/1/4 320/1/4
f 320/1/4 318/1/4 321/1/4
f 322/1/4 323/1/4 326/1/4
f 326/1/4 323/1/4 327/1/4
f 324/1/4 325/1/4 328/1/4
f 328/1/4 325/1/4 329/1/4
f 329/1/4 325/1/4 330/1/4
f 328/1/4 329/1/4 331/1/4
f 331/1/4 329/1/4 332/1/4
f 331/2/4 332/2/4 334/2/4
f 333/2/4 334/2/4 335/2/4
f 334/2/4 332/2/4 336/2/4
f 335/2/4 334/2/4 336/2/4
f 337/2/4 338/2/4 339/2/4
f 339/2/4 338/2/4 340/2/4
f 340/2/4 338/2/4 344/2/4
f 344/2/4 338/2/4 345/2/4
f 341/1/4 342/1/4 346/1/4
f 343/1/4 344/1/4 347/1/4
f 347/1/4 344/1/4 348/1/4
f 341/1/4 346/1/4 351/1/4
f 346/1/4 347/1/4 351/1/4
f 351/1/4 347/1/4 352/1/4
f 352/1/4 347/1/4 353/1/4
f 353/1/4 347/1/4 354/1/4
f 349/1/4 350/1/4 355/1/4
f 355/1/4 350/1/4 356/1/4
f 352/1/4 353/1/4 358/1/4
f 358/1/4 353/1/4 359/1/4
f 357/1/4 358/1/4 360/1/4
f 360/1/4 358/1/4 361/1/4
f 362/1/4 363/1/4 364/1/4
f 362/1/4 364/1/4 368/1/4
f 364/1/4 365/1/4 368/1/4
f 368/1/4 365/1/4 369/1/4
f 366/1/4 367/1/4 370/1/4
f 370/1/4 367/1/4 371/1/4
f 374/1/5 373/1/5 372/1/5
f 376/1/5 375/1/5 374/1/5
f 378/1/5 374/1/5 372/1/5
f 378/1/5 377/1/5 376/1/5
f 378/1/5 376/1/5 374/1/5
f 379/1/5 377/1/5 378/1/5
f 380/1/5 377/1/5 379/1/5
f 381/1/5 377/1/5 380/1/5
f 382/1/5 380/1/5 379/1/5
f 383/1/5 380/1/5 382/1/5
f 386/1/5 385/1/5 384/1/5
f 387/1/5 385/1/5 386/1/5
f 390/2/5 389/2/5 388/2/5
f 391/2/5 389/2/5 390/2/5
f 394/2/5 393/2/5 392/2/5
f 395/2/5 393/2/5 394/2/5
f 398/1/5 397/1/5 396/1/5
f 398/1/5 396/1/5 395/1/5
f 399/1/5 397/1/5 398/1/5
f 402/1/5 401/1/5 400/1/5
f 403/1/5 401/1/5 402/1/5
f 408/1/5 405/1/5 404/1/5
f 409/1/5 405/1/5 408/1/5
f 410/2/5 407/2/5 406/2/5
f 411/2/5 407/2/5 410/2/5
f 416/1/5 413/1/5 412/1/5
f 417/1/5 413/1/5 416/1/5
f 418/2/5 415/2/5 414/2/5
f 419/2/5 415/2/5 418/2/5
f 422/1/5 421/1/5 420/1/5
f 423/1/5 421/1/5 422/1/5
f 424/1/5 421/1/5 423/1/5
f 427/4/5 426/4/5 425/4/5
f 428/4/5 426/4/5 427/4/5
f 429/4/5 426/4/5 428/4/5
f 431/1/5 430/1/5 429/1/5
f 431/1/5 429/1/5 428/1/5
f 432/1/5 430/1/5 431/1/5
f 433/1/5 430/1/5 432/1/5
f 437/4/5 435/4/5 434/4/5
f 438/4/5 435/4/5 437/4/5
f 440/4/5 439/4/5 438/4/5
f 441/4/5 439/4/5 440/4/5
f 442/4/5 437/4/5 436/4/5
f 443/4/5 437/4/5 442/4/5
f 445/4/5 444/4/5 443/4/5
f 446/4/5 444/4/5 445/4/5
f 449/4/5 448/4/5 447/4/5
f 450/4/5 448/4/5 449/4/5
f 451/1/6 452/1/6 453/1/6
f 453/1/6 452/1/6 454/1/6
f 454/1/6 455/1/6 458/1/6
f 458/1/6 455/1/6 459/1/6
f 456/1/6 457/1/6 461/1/6
f 461/1/6 457/1/6 462/1/6
f 459/1/6 460/1/6 464/1/6
f 464/1/6 460/1/6 465/1/6
f 463/1/6 464/1/6 466/1/6
f 466/1/6 464/1/6 467/1/6
f 468/1/6 469/1/6 470/1/6
f 470/1/6 469/1/6 471/1/6
f 472/1/6 473/1/6 474/1/6
f 474/1/6 473/1/6 475/1/6
f 476/1/6 477/1/6 478/1/6
f 478/1/6 477/1/6 479/1/6
f 480/1/6 481/1/6 482/1/6
f 482/1/6 481/1/6 483/1/6
f 484/1/6 485/1/6 486/1/6
f 486/1/6 485/1/6 487/1/6
f 488/2/6 489/2/6 491/2/6
f 489/1/6 490/1/6 492/1/6
f 491/2/6 489/2/6 492/2/6
f 492/1/6 490/1/6 493/1/6
f 492/1/6 493/1/6 494/1/6
f 494/1/6 493/1/6 495/1/6
f 496/1/6 497/1/6 498/1/6
f 498/1/6 497/1/6 499/1/6
f 500/1/6 501/1/6 502/1/6
f 502/1/6 501/1/6 503/1/6
f 504/1/6 505/1/6 507/1/6
f 505/2/6 506/2/6 508/2/6
f 507/1/6 505/1/6 508/1/6
f 508/2/6 506/2/6 509/2/6
f 510/1/6 511/1/6 512/1/6
f 512/1/6 511/1/6 513/1/6
f 513/1/6 511/1/6 514/1/6
f 515/1/6 516/1/6 517/1/6
f 517/1/6 516/1/6 518/1/6
f 518/1/6 516/1/6 519/1/6
f 520/3/6 521/3/6 522/3/6
f 522/3/6 521/3/6 523/3/6
f 524/4/6 525/4/6 527/4/6
f 527/4/6 525/4/6 528/4/6
f 526/4/6 527/4/6 530/4/6
f 530/4/6 527/4/6 531/4/6
f 528/3/6 529/3/6 532/3/6
f 532/3/6 529/3/6 533/3/6
f 531/3/6 532/3/6 534/3/6
f 534/3/6 532/3/6 535/3/6
f 536/4/6 537/4/6 538/4/6
f 538/4/6 537/4/6 539/4/6
f 539/4/6 540/4/6 543/4/6
f 543/4/6 540/4/6 544/4/6
f 541/4/6 542/4/6 545/4/6
f 545/4/6 542/4/6 546/4/6
f 546/4/6 547/4/6 548/4/6
f 548/4/6 547/4/6 549/4/6
f 550/4/6 551/4/6 552/4/6
f 552/4/6 551/4/6 553/4/6
f 550/4/6 552/4/6 554/4/6
f 554/4/6 552/4/6 555/4/6
