# MagicaVoxel @ Ephtracy

# group
o 

# material
mtllib Hose.mtl
usemtl palette

# normals
vn -1 0 0
vn 1 0 0
vn 0 0 1
vn 0 0 -1
vn 0 -1 0
vn 0 1 0

# texcoords
vt 0.115234 0.5
vt 0.884766 0.5
vt 0.888672 0.5
vt 0.982422 0.5

# verts
v 0 2.8 -2.6
v 0 2.8 -2.7
v 0 2.9 -2.6
v 0 2.9 -2.7
v 0.1 2.1 -2.6
v 0.1 2.1 -2.7
v 0.1 2.7 -2.6
v 0.1 2.7 -2.7
v 0.1 2.8 -2.6
v 0.1 2.8 -2.7
v 0.1 2.9 -2.5
v 0.1 2.9 -2.6
v 0.1 2.9 -2.7
v 0.1 2.9 -2.8
v 0.1 3 -2.5
v 0.1 3 -2.8
v 0.2 2 -2.6
v 0.2 2 -2.7
v 0.2 2.1 -2.6
v 0.2 2.1 -2.7
v 0.6 2 -1.1
v 0.6 2 -1.3
v 0.6 2.1 -1.1
v 0.6 2.1 -1.3
v 0.7 2 -0.9
v 0.7 2 -1.1
v 0.7 2 -1.3
v 0.7 2 -1.5
v 0.7 2.1 -0.9
v 0.7 2.1 -1.1
v 0.7 2.1 -1.3
v 0.7 2.1 -1.5
v 0.8 2 -0.7
v 0.8 2 -0.9
v 0.8 2 -1.5
v 0.8 2 -1.8
v 0.8 2.1 -0.7
v 0.8 2.1 -0.9
v 0.8 2.1 -1.5
v 0.8 2.1 -1.8
v 0.9 2 -0.6
v 0.9 2 -0.7
v 0.9 2 -1.8
v 0.9 2 -2.6
v 0.9 2.1 -0.6
v 0.9 2.1 -0.7
v 0.9 2.1 -1.8
v 0.9 2.1 -2.6
v 1 2 -0.5
v 1 2 -0.6
v 1 2.1 -0.5
v 1 2.1 -0.6
v 1.3 2 -0.4
v 1.3 2 -0.5
v 1.3 2.1 -0.4
v 1.3 2.1 -0.5
v 1.7 2 -0.5
v 1.7 2 -0.6
v 1.7 2.1 -0.5
v 1.7 2.1 -0.6
v 2.1 2 -0.6
v 2.1 2 -0.9
v 2.1 2 -1
v 2.1 2.1 -0.6
v 2.1 2.1 -0.9
v 2.1 2.1 -1
v 0.2 2.1 -2.6
v 0.2 2.1 -2.7
v 0.2 2.7 -2.6
v 0.2 2.7 -2.7
v 0.2 2.9 -2.5
v 0.2 2.9 -2.6
v 0.2 2.9 -2.7
v 0.2 2.9 -2.8
v 0.2 3 -2.5
v 0.2 3 -2.8
v 0.7 2 -1.1
v 0.7 2 -1.3
v 0.7 2.1 -1.1
v 0.7 2.1 -1.3
v 0.8 2 -0.9
v 0.8 2 -1.1
v 0.8 2 -1.3
v 0.8 2 -1.5
v 0.8 2.1 -0.9
v 0.8 2.1 -1.1
v 0.8 2.1 -1.3
v 0.8 2.1 -1.5
v 0.9 2 -0.7
v 0.9 2 -0.9
v 0.9 2 -1.5
v 0.9 2 -1.8
v 0.9 2 -2.6
v 0.9 2 -2.7
v 0.9 2.1 -0.7
v 0.9 2.1 -0.9
v 0.9 2.1 -1.5
v 0.9 2.1 -1.8
v 0.9 2.1 -2.6
v 0.9 2.1 -2.7
v 1 2 -0.6
v 1 2 -0.7
v 1 2 -1.8
v 1 2 -2.6
v 1 2.1 -0.6
v 1 2.1 -0.7
v 1 2.1 -1.8
v 1 2.1 -2.6
v 1.3 2 -0.5
v 1.3 2 -0.6
v 1.3 2.1 -0.5
v 1.3 2.1 -0.6
v 1.7 2 -0.4
v 1.7 2 -0.5
v 1.7 2.1 -0.4
v 1.7 2.1 -0.5
v 2.1 2 -0.5
v 2.1 2 -0.6
v 2.1 2.1 -0.5
v 2.1 2.1 -0.6
v 2.2 2 -0.6
v 2.2 2 -0.9
v 2.2 2 -1
v 2.2 2.1 -0.6
v 2.2 2.1 -0.9
v 2.2 2.1 -1
v 1.3 2 -0.4
v 1.3 2.1 -0.4
v 1.7 2 -0.4
v 1.7 2.1 -0.4
v 1 2 -0.5
v 1 2.1 -0.5
v 1.3 2 -0.5
v 1.3 2.1 -0.5
v 1.7 2 -0.5
v 1.7 2.1 -0.5
v 2.1 2 -0.5
v 2.1 2.1 -0.5
v 0.9 2 -0.6
v 0.9 2.1 -0.6
v 1 2 -0.6
v 1 2.1 -0.6
v 2.1 2 -0.6
v 2.1 2.1 -0.6
v 2.2 2 -0.6
v 2.2 2.1 -0.6
v 0.8 2 -0.7
v 0.8 2.1 -0.7
v 0.9 2 -0.7
v 0.9 2.1 -0.7
v 0.7 2 -0.9
v 0.7 2.1 -0.9
v 0.8 2 -0.9
v 0.8 2.1 -0.9
v 0.6 2 -1.1
v 0.6 2.1 -1.1
v 0.7 2 -1.1
v 0.7 2.1 -1.1
v 0.7 2 -1.3
v 0.7 2.1 -1.3
v 0.8 2 -1.3
v 0.8 2.1 -1.3
v 0.8 2 -1.5
v 0.8 2.1 -1.5
v 0.9 2 -1.5
v 0.9 2.1 -1.5
v 0.9 2 -1.8
v 0.9 2.1 -1.8
v 1 2 -1.8
v 1 2.1 -1.8
v 0.1 2.9 -2.5
v 0.1 3 -2.5
v 0.2 2.9 -2.5
v 0.2 3 -2.5
v 0 2.8 -2.6
v 0 2.9 -2.6
v 0.1 2.1 -2.6
v 0.1 2.7 -2.6
v 0.1 2.8 -2.6
v 0.1 2.9 -2.6
v 0.2 2 -2.6
v 0.2 2.1 -2.6
v 0.2 2.7 -2.6
v 0.2 2.9 -2.6
v 0.9 2 -2.6
v 0.9 2.1 -2.6
v 1.3 2 -0.5
v 1.3 2.1 -0.5
v 1.7 2 -0.5
v 1.7 2.1 -0.5
v 1 2 -0.6
v 1 2.1 -0.6
v 1.3 2 -0.6
v 1.3 2.1 -0.6
v 1.7 2 -0.6
v 1.7 2.1 -0.6
v 2.1 2 -0.6
v 2.1 2.1 -0.6
v 0.9 2 -0.7
v 0.9 2.1 -0.7
v 1 2 -0.7
v 1 2.1 -0.7
v 0.8 2 -0.9
v 0.8 2.1 -0.9
v 0.9 2 -0.9
v 0.9 2.1 -0.9
v 2.1 2 -1
v 2.1 2.1 -1
v 2.2 2 -1
v 2.2 2.1 -1
v 0.7 2 -1.1
v 0.7 2.1 -1.1
v 0.8 2 -1.1
v 0.8 2.1 -1.1
v 0.6 2 -1.3
v 0.6 2.1 -1.3
v 0.7 2 -1.3
v 0.7 2.1 -1.3
v 0.7 2 -1.5
v 0.7 2.1 -1.5
v 0.8 2 -1.5
v 0.8 2.1 -1.5
v 0.8 2 -1.8
v 0.8 2.1 -1.8
v 0.9 2 -1.8
v 0.9 2.1 -1.8
v 0.9 2 -2.6
v 0.9 2.1 -2.6
v 1 2 -2.6
v 1 2.1 -2.6
v 0 2.8 -2.7
v 0 2.9 -2.7
v 0.1 2.1 -2.7
v 0.1 2.7 -2.7
v 0.1 2.8 -2.7
v 0.1 2.9 -2.7
v 0.2 2 -2.7
v 0.2 2.1 -2.7
v 0.2 2.7 -2.7
v 0.2 2.9 -2.7
v 0.9 2 -2.7
v 0.9 2.1 -2.7
v 0.1 2.9 -2.8
v 0.1 3 -2.8
v 0.2 2.9 -2.8
v 0.2 3 -2.8
v 1.3 2 -0.4
v 1.7 2 -0.4
v 1 2 -0.5
v 1.3 2 -0.5
v 1.7 2 -0.5
v 2.1 2 -0.5
v 0.9 2 -0.6
v 1 2 -0.6
v 1.3 2 -0.6
v 1.7 2 -0.6
v 2.1 2 -0.6
v 2.2 2 -0.6
v 0.8 2 -0.7
v 0.9 2 -0.7
v 1 2 -0.7
v 0.7 2 -0.9
v 0.8 2 -0.9
v 0.9 2 -0.9
v 2.1 2 -0.9
v 2.2 2 -0.9
v 2.1 2 -1
v 2.2 2 -1
v 0.6 2 -1.1
v 0.7 2 -1.1
v 0.8 2 -1.1
v 0.6 2 -1.3
v 0.7 2 -1.3
v 0.8 2 -1.3
v 0.7 2 -1.5
v 0.8 2 -1.5
v 0.9 2 -1.5
v 0.8 2 -1.8
v 0.9 2 -1.8
v 1 2 -1.8
v 0.2 2 -2.6
v 0.9 2 -2.6
v 1 2 -2.6
v 0.2 2 -2.7
v 0.9 2 -2.7
v 0.1 2.1 -2.6
v 0.2 2.1 -2.6
v 0.1 2.1 -2.7
v 0.2 2.1 -2.7
v 0 2.8 -2.6
v 0.1 2.8 -2.6
v 0 2.8 -2.7
v 0.1 2.8 -2.7
v 0.1 2.9 -2.5
v 0.2 2.9 -2.5
v 0.1 2.9 -2.6
v 0.2 2.9 -2.6
v 0.1 2.9 -2.7
v 0.2 2.9 -2.7
v 0.1 2.9 -2.8
v 0.2 2.9 -2.8
v 1.3 2.1 -0.4
v 1.7 2.1 -0.4
v 1 2.1 -0.5
v 1.3 2.1 -0.5
v 1.7 2.1 -0.5
v 2.1 2.1 -0.5
v 0.9 2.1 -0.6
v 1 2.1 -0.6
v 1.3 2.1 -0.6
v 1.7 2.1 -0.6
v 2.1 2.1 -0.6
v 2.2 2.1 -0.6
v 0.8 2.1 -0.7
v 0.9 2.1 -0.7
v 1 2.1 -0.7
v 0.7 2.1 -0.9
v 0.8 2.1 -0.9
v 0.9 2.1 -0.9
v 2.1 2.1 -0.9
v 2.2 2.1 -0.9
v 2.1 2.1 -1
v 2.2 2.1 -1
v 0.6 2.1 -1.1
v 0.7 2.1 -1.1
v 0.8 2.1 -1.1
v 0.6 2.1 -1.3
v 0.7 2.1 -1.3
v 0.8 2.1 -1.3
v 0.7 2.1 -1.5
v 0.8 2.1 -1.5
v 0.9 2.1 -1.5
v 0.8 2.1 -1.8
v 0.9 2.1 -1.8
v 1 2.1 -1.8
v 0.2 2.1 -2.6
v 0.9 2.1 -2.6
v 1 2.1 -2.6
v 0.2 2.1 -2.7
v 0.9 2.1 -2.7
v 0 2.9 -2.6
v 0.1 2.9 -2.6
v 0 2.9 -2.7
v 0.1 2.9 -2.7
v 0.1 3 -2.5
v 0.2 3 -2.5
v 0.1 3 -2.8
v 0.2 3 -2.8

# faces
f 3/4/1 2/4/1 1/4/1
f 4/4/1 2/4/1 3/4/1
f 7/2/1 6/2/1 5/2/1
f 8/2/1 6/2/1 7/2/1
f 9/4/1 8/4/1 7/4/1
f 10/4/1 8/4/1 9/4/1
f 15/4/1 13/4/1 12/4/1
f 15/4/1 14/4/1 13/4/1
f 15/4/1 12/4/1 11/4/1
f 16/4/1 14/4/1 15/4/1
f 19/3/1 18/3/1 17/3/1
f 20/3/1 18/3/1 19/3/1
f 23/3/1 22/3/1 21/3/1
f 24/3/1 22/3/1 23/3/1
f 29/3/1 26/3/1 25/3/1
f 30/3/1 26/3/1 29/3/1
f 31/3/1 28/3/1 27/3/1
f 32/3/1 28/3/1 31/3/1
f 37/3/1 34/3/1 33/3/1
f 38/3/1 34/3/1 37/3/1
f 39/3/1 36/3/1 35/3/1
f 40/3/1 36/3/1 39/3/1
f 45/3/1 42/3/1 41/3/1
f 46/3/1 42/3/1 45/3/1
f 47/3/1 44/3/1 43/3/1
f 48/3/1 44/3/1 47/3/1
f 51/3/1 50/3/1 49/3/1
f 52/3/1 50/3/1 51/3/1
f 55/3/1 54/3/1 53/3/1
f 56/3/1 54/3/1 55/3/1
f 59/3/1 58/3/1 57/3/1
f 60/3/1 58/3/1 59/3/1
f 64/3/1 62/3/1 61/3/1
f 65/1/1 63/1/1 62/1/1
f 65/3/1 62/3/1 64/3/1
f 66/1/1 63/1/1 65/1/1
f 67/2/2 68/2/2 69/2/2
f 69/2/2 68/2/2 70/2/2
f 69/4/2 70/4/2 72/4/2
f 72/4/2 70/4/2 73/4/2
f 72/4/2 73/4/2 75/4/2
f 73/4/2 74/4/2 75/4/2
f 71/4/2 72/4/2 75/4/2
f 75/4/2 74/4/2 76/4/2
f 77/3/2 78/3/2 79/3/2
f 79/3/2 78/3/2 80/3/2
f 81/3/2 82/3/2 85/3/2
f 85/3/2 82/3/2 86/3/2
f 83/3/2 84/3/2 87/3/2
f 87/3/2 84/3/2 88/3/2
f 89/3/2 90/3/2 95/3/2
f 95/3/2 90/3/2 96/3/2
f 91/3/2 92/3/2 97/3/2
f 97/3/2 92/3/2 98/3/2
f 93/3/2 94/3/2 99/3/2
f 99/3/2 94/3/2 100/3/2
f 101/3/2 102/3/2 105/3/2
f 105/3/2 102/3/2 106/3/2
f 103/3/2 104/3/2 107/3/2
f 107/3/2 104/3/2 108/3/2
f 109/3/2 110/3/2 111/3/2
f 111/3/2 110/3/2 112/3/2
f 113/3/2 114/3/2 115/3/2
f 115/3/2 114/3/2 116/3/2
f 117/3/2 118/3/2 119/3/2
f 119/3/2 118/3/2 120/3/2
f 121/3/2 122/3/2 124/3/2
f 122/1/2 123/1/2 125/1/2
f 124/3/2 122/3/2 125/3/2
f 125/1/2 123/1/2 126/1/2
f 129/3/3 128/3/3 127/3/3
f 130/3/3 128/3/3 129/3/3
f 133/3/3 132/3/3 131/3/3
f 134/3/3 132/3/3 133/3/3
f 137/3/3 136/3/3 135/3/3
f 138/3/3 136/3/3 137/3/3
f 141/3/3 140/3/3 139/3/3
f 142/3/3 140/3/3 141/3/3
f 145/3/3 144/3/3 143/3/3
f 146/3/3 144/3/3 145/3/3
f 149/3/3 148/3/3 147/3/3
f 150/3/3 148/3/3 149/3/3
f 153/3/3 152/3/3 151/3/3
f 154/3/3 152/3/3 153/3/3
f 157/3/3 156/3/3 155/3/3
f 158/3/3 156/3/3 157/3/3
f 161/3/3 160/3/3 159/3/3
f 162/3/3 160/3/3 161/3/3
f 165/3/3 164/3/3 163/3/3
f 166/3/3 164/3/3 165/3/3
f 169/3/3 168/3/3 167/3/3
f 170/3/3 168/3/3 169/3/3
f 173/4/3 172/4/3 171/4/3
f 174/4/3 172/4/3 173/4/3
f 179/4/3 176/4/3 175/4/3
f 180/4/3 176/4/3 179/4/3
f 182/2/3 178/2/3 177/2/3
f 183/4/3 179/4/3 178/4/3
f 183/4/3 180/4/3 179/4/3
f 183/2/3 178/2/3 182/2/3
f 184/4/3 180/4/3 183/4/3
f 185/3/3 182/3/3 181/3/3
f 186/3/3 182/3/3 185/3/3
f 187/3/4 188/3/4 189/3/4
f 189/3/4 188/3/4 190/3/4
f 191/3/4 192/3/4 193/3/4
f 193/3/4 192/3/4 194/3/4
f 195/3/4 196/3/4 197/3/4
f 197/3/4 196/3/4 198/3/4
f 199/3/4 200/3/4 201/3/4
f 201/3/4 200/3/4 202/3/4
f 203/3/4 204/3/4 205/3/4
f 205/3/4 204/3/4 206/3/4
f 207/1/4 208/1/4 209/1/4
f 209/1/4 208/1/4 210/1/4
f 211/3/4 212/3/4 213/3/4
f 213/3/4 212/3/4 214/3/4
f 215/3/4 216/3/4 217/3/4
f 217/3/4 216/3/4 218/3/4
f 219/3/4 220/3/4 221/3/4
f 221/3/4 220/3/4 222/3/4
f 223/3/4 224/3/4 225/3/4
f 225/3/4 224/3/4 226/3/4
f 227/3/4 228/3/4 229/3/4
f 229/3/4 228/3/4 230/3/4
f 231/4/4 232/4/4 235/4/4
f 235/4/4 232/4/4 236/4/4
f 233/2/4 234/2/4 238/2/4
f 234/4/4 235/4/4 239/4/4
f 235/4/4 236/4/4 239/4/4
f 238/2/4 234/2/4 239/2/4
f 239/4/4 236/4/4 240/4/4
f 237/3/4 238/3/4 241/3/4
f 241/3/4 238/3/4 242/3/4
f 243/4/4 244/4/4 245/4/4
f 245/4/4 244/4/4 246/4/4
f 250/3/5 248/3/5 247/3/5
f 251/3/5 248/3/5 250/3/5
f 254/3/5 250/3/5 249/3/5
f 255/3/5 250/3/5 254/3/5
f 256/3/5 252/3/5 251/3/5
f 257/3/5 252/3/5 256/3/5
f 260/3/5 254/3/5 253/3/5
f 261/3/5 254/3/5 260/3/5
f 263/3/5 260/3/5 259/3/5
f 264/3/5 260/3/5 263/3/5
f 265/3/5 258/3/5 257/3/5
f 266/3/5 258/3/5 265/3/5
f 267/1/5 266/1/5 265/1/5
f 268/1/5 266/1/5 267/1/5
f 270/3/5 263/3/5 262/3/5
f 271/3/5 263/3/5 270/3/5
f 272/3/5 270/3/5 269/3/5
f 273/3/5 270/3/5 272/3/5
f 275/3/5 274/3/5 273/3/5
f 276/3/5 274/3/5 275/3/5
f 278/3/5 277/3/5 276/3/5
f 279/3/5 277/3/5 278/3/5
f 282/3/5 280/3/5 279/3/5
f 283/3/5 280/3/5 282/3/5
f 284/3/5 282/3/5 281/3/5
f 285/3/5 282/3/5 284/3/5
f 288/2/5 287/2/5 286/2/5
f 289/2/5 287/2/5 288/2/5
f 292/4/5 291/4/5 290/4/5
f 293/4/5 291/4/5 292/4/5
f 296/4/5 295/4/5 294/4/5
f 297/4/5 295/4/5 296/4/5
f 300/4/5 299/4/5 298/4/5
f 301/4/5 299/4/5 300/4/5
f 302/3/6 303/3/6 305/3/6
f 305/3/6 303/3/6 306/3/6
f 304/3/6 305/3/6 309/3/6
f 309/3/6 305/3/6 310/3/6
f 306/3/6 307/3/6 311/3/6
f 311/3/6 307/3/6 312/3/6
f 308/3/6 309/3/6 315/3/6
f 315/3/6 309/3/6 316/3/6
f 314/3/6 315/3/6 318/3/6
f 318/3/6 315/3/6 319/3/6
f 312/3/6 313/3/6 320/3/6
f 320/3/6 313/3/6 321/3/6
f 320/1/6 321/1/6 322/1/6
f 322/1/6 321/1/6 323/1/6
f 317/3/6 318/3/6 325/3/6
f 325/3/6 318/3/6 326/3/6
f 324/3/6 325/3/6 327/3/6
f 327/3/6 325/3/6 328/3/6
f 328/3/6 329/3/6 330/3/6
f 330/3/6 329/3/6 331/3/6
f 331/3/6 332/3/6 333/3/6
f 333/3/6 332/3/6 334/3/6
f 334/3/6 335/3/6 337/3/6
f 337/3/6 335/3/6 338/3/6
f 336/3/6 337/3/6 339/3/6
f 339/3/6 337/3/6 340/3/6
f 341/4/6 342/4/6 343/4/6
f 343/4/6 342/4/6 344/4/6
f 345/4/6 346/4/6 347/4/6
f 347/4/6 346/4/6 348/4/6
