# MagicaVoxel @ Ephtracy

# group
o 

# material
mtllib toy wagon.mtl
usemtl palette

# normals
vn -1 0 0
vn 1 0 0
vn 0 0 1
vn 0 0 -1
vn 0 -1 0
vn 0 1 0

# texcoords
vt 0.306641 0.5
vt 0.970703 0.5
vt 0.974609 0.5

# verts
v 0.2 2.2 -0.2
v 0.2 2.2 -5.8
v 0.2 3.3 -0.2
v 0.2 3.3 -5.8
v 0.3 2.1 -0.3
v 0.3 2.1 -5.7
v 0.3 2.2 -0.3
v 0.3 2.2 -5.7
v 0.3 3.3 -0.3
v 0.3 3.3 -5.7
v 0.3 3.4 -0.3
v 0.3 3.4 -5.7
v 0.4 2 -0.4
v 0.4 2 -5.6
v 0.4 2.1 -0.4
v 0.4 2.1 -5.6
v 1.2 4.2 -7.1
v 1.2 4.2 -7.6
v 1.2 4.4 -7.1
v 1.2 4.4 -7.6
v 1.3 4.2 -6.9
v 1.3 4.2 -7.1
v 1.3 4.4 -6.9
v 1.3 4.4 -7.1
v 1.4 4.2 -6.8
v 1.4 4.2 -6.9
v 1.4 4.4 -6.8
v 1.4 4.4 -6.9
v 1.8 3.3 -5.7
v 1.8 3.3 -5.8
v 1.8 3.3 -5.9
v 1.8 3.4 -5.7
v 1.8 3.4 -5.9
v 1.8 3.4 -6
v 1.8 3.5 -5.7
v 1.8 3.5 -5.8
v 1.8 3.5 -6
v 1.8 3.5 -6.1
v 1.8 3.6 -5.8
v 1.8 3.6 -5.9
v 1.8 3.6 -6.1
v 1.8 3.6 -6.2
v 1.8 3.7 -5.9
v 1.8 3.7 -6.1
v 1.8 3.7 -6.2
v 1.8 3.7 -6.3
v 1.8 3.8 -6.1
v 1.8 3.8 -6.2
v 1.8 3.8 -6.3
v 1.8 3.8 -6.5
v 1.8 3.9 -6.2
v 1.8 3.9 -6.3
v 1.8 3.9 -6.5
v 1.8 3.9 -6.6
v 1.8 4 -6.3
v 1.8 4 -6.5
v 1.8 4 -6.6
v 1.8 4 -6.7
v 1.8 4.1 -6.5
v 1.8 4.1 -6.6
v 1.8 4.1 -6.7
v 1.8 4.1 -6.9
v 1.8 4.2 -6.6
v 1.8 4.2 -6.7
v 1.8 4.2 -6.8
v 1.8 4.2 -6.9
v 1.8 4.3 -6.7
v 1.8 4.3 -6.8
v 2.5 4.2 -7
v 2.5 4.2 -7.2
v 2.5 4.4 -7
v 2.5 4.4 -7.2
v 2.6 4.2 -7.2
v 2.6 4.2 -7.4
v 2.6 4.4 -7.2
v 2.6 4.4 -7.4
v 3.5 2.3 -0.5
v 3.5 2.3 -5.5
v 3.5 3.3 -0.5
v 3.5 3.3 -5.5
v 3.6 3.3 -0.4
v 3.6 3.3 -5.6
v 3.6 3.4 -0.4
v 3.6 3.4 -5.6
v 0.4 3.3 -0.4
v 0.4 3.3 -5.6
v 0.4 3.4 -0.4
v 0.4 3.4 -5.6
v 0.5 2.3 -0.5
v 0.5 2.3 -5.5
v 0.5 3.3 -0.5
v 0.5 3.3 -5.5
v 1.4 4.2 -7.2
v 1.4 4.2 -7.4
v 1.4 4.4 -7.2
v 1.4 4.4 -7.4
v 1.5 4.2 -7
v 1.5 4.2 -7.2
v 1.5 4.4 -7
v 1.5 4.4 -7.2
v 2.2 3.3 -5.7
v 2.2 3.3 -5.8
v 2.2 3.3 -5.9
v 2.2 3.4 -5.7
v 2.2 3.4 -5.9
v 2.2 3.4 -6
v 2.2 3.5 -5.7
v 2.2 3.5 -5.8
v 2.2 3.5 -6
v 2.2 3.5 -6.1
v 2.2 3.6 -5.8
v 2.2 3.6 -5.9
v 2.2 3.6 -6.1
v 2.2 3.6 -6.2
v 2.2 3.7 -5.9
v 2.2 3.7 -6.1
v 2.2 3.7 -6.2
v 2.2 3.7 -6.3
v 2.2 3.8 -6.1
v 2.2 3.8 -6.2
v 2.2 3.8 -6.3
v 2.2 3.8 -6.5
v 2.2 3.9 -6.2
v 2.2 3.9 -6.3
v 2.2 3.9 -6.5
v 2.2 3.9 -6.6
v 2.2 4 -6.3
v 2.2 4 -6.5
v 2.2 4 -6.6
v 2.2 4 -6.7
v 2.2 4.1 -6.5
v 2.2 4.1 -6.6
v 2.2 4.1 -6.7
v 2.2 4.1 -6.9
v 2.2 4.2 -6.6
v 2.2 4.2 -6.7
v 2.2 4.2 -6.8
v 2.2 4.2 -6.9
v 2.2 4.3 -6.7
v 2.2 4.3 -6.8
v 2.6 4.2 -6.8
v 2.6 4.2 -6.9
v 2.6 4.4 -6.8
v 2.6 4.4 -6.9
v 2.7 4.2 -6.9
v 2.7 4.2 -7.1
v 2.7 4.4 -6.9
v 2.7 4.4 -7.1
v 2.8 4.2 -7.1
v 2.8 4.2 -7.6
v 2.8 4.4 -7.1
v 2.8 4.4 -7.6
v 3.6 2 -0.4
v 3.6 2 -5.6
v 3.6 2.1 -0.4
v 3.6 2.1 -5.6
v 3.7 2.1 -0.3
v 3.7 2.1 -5.7
v 3.7 2.2 -0.3
v 3.7 2.2 -5.7
v 3.7 3.3 -0.3
v 3.7 3.3 -5.7
v 3.7 3.4 -0.3
v 3.7 3.4 -5.7
v 3.8 2.2 -0.2
v 3.8 2.2 -5.8
v 3.8 3.3 -0.2
v 3.8 3.3 -5.8
v 0.2 2.2 -0.2
v 0.2 3.3 -0.2
v 3.8 2.2 -0.2
v 3.8 3.3 -0.2
v 0.3 2.1 -0.3
v 0.3 2.2 -0.3
v 0.3 3.3 -0.3
v 0.3 3.4 -0.3
v 3.7 2.1 -0.3
v 3.7 2.2 -0.3
v 3.7 3.3 -0.3
v 3.7 3.4 -0.3
v 0.4 2 -0.4
v 0.4 2.1 -0.4
v 3.6 2 -0.4
v 3.6 2.1 -0.4
v 0.5 2.3 -5.5
v 0.5 3.3 -5.5
v 3.5 2.3 -5.5
v 3.5 3.3 -5.5
v 0.4 3.3 -5.6
v 0.4 3.4 -5.6
v 3.6 3.3 -5.6
v 3.6 3.4 -5.6
v 1.8 3.4 -5.7
v 1.8 3.5 -5.7
v 2.2 3.4 -5.7
v 2.2 3.5 -5.7
v 1.8 3.5 -5.8
v 1.8 3.6 -5.8
v 2.2 3.5 -5.8
v 2.2 3.6 -5.8
v 1.8 3.6 -5.9
v 1.8 3.7 -5.9
v 2.2 3.6 -5.9
v 2.2 3.7 -5.9
v 1.8 3.7 -6.1
v 1.8 3.8 -6.1
v 2.2 3.7 -6.1
v 2.2 3.8 -6.1
v 1.8 3.8 -6.2
v 1.8 3.9 -6.2
v 2.2 3.8 -6.2
v 2.2 3.9 -6.2
v 1.8 3.9 -6.3
v 1.8 4 -6.3
v 2.2 3.9 -6.3
v 2.2 4 -6.3
v 1.8 4 -6.5
v 1.8 4.1 -6.5
v 2.2 4 -6.5
v 2.2 4.1 -6.5
v 1.8 4.1 -6.6
v 1.8 4.2 -6.6
v 2.2 4.1 -6.6
v 2.2 4.2 -6.6
v 1.8 4.2 -6.7
v 1.8 4.3 -6.7
v 2.2 4.2 -6.7
v 2.2 4.3 -6.7
v 1.4 4.2 -6.8
v 1.4 4.4 -6.8
v 1.8 4.2 -6.8
v 1.8 4.3 -6.8
v 2.2 4.2 -6.8
v 2.2 4.3 -6.8
v 2.6 4.2 -6.8
v 2.6 4.4 -6.8
v 1.3 4.2 -6.9
v 1.3 4.4 -6.9
v 1.4 4.2 -6.9
v 1.4 4.4 -6.9
v 2.6 4.2 -6.9
v 2.6 4.4 -6.9
v 2.7 4.2 -6.9
v 2.7 4.4 -6.9
v 1.2 4.2 -7.1
v 1.2 4.4 -7.1
v 1.3 4.2 -7.1
v 1.3 4.4 -7.1
v 2.7 4.2 -7.1
v 2.7 4.4 -7.1
v 2.8 4.2 -7.1
v 2.8 4.4 -7.1
v 1.4 4.2 -7.4
v 1.4 4.4 -7.4
v 2.6 4.2 -7.4
v 2.6 4.4 -7.4
v 0.4 3.3 -0.4
v 0.4 3.4 -0.4
v 3.6 3.3 -0.4
v 3.6 3.4 -0.4
v 0.5 2.3 -0.5
v 0.5 3.3 -0.5
v 3.5 2.3 -0.5
v 3.5 3.3 -0.5
v 0.4 2 -5.6
v 0.4 2.1 -5.6
v 3.6 2 -5.6
v 3.6 2.1 -5.6
v 0.3 2.1 -5.7
v 0.3 2.2 -5.7
v 0.3 3.3 -5.7
v 0.3 3.4 -5.7
v 1.8 3.3 -5.7
v 1.8 3.4 -5.7
v 2.2 3.3 -5.7
v 2.2 3.4 -5.7
v 3.7 2.1 -5.7
v 3.7 2.2 -5.7
v 3.7 3.3 -5.7
v 3.7 3.4 -5.7
v 0.2 2.2 -5.8
v 0.2 3.3 -5.8
v 1.8 3.2 -5.8
v 1.8 3.3 -5.8
v 2.2 3.2 -5.8
v 2.2 3.3 -5.8
v 3.8 2.2 -5.8
v 3.8 3.3 -5.8
v 1.8 3.3 -5.9
v 1.8 3.4 -5.9
v 2.2 3.3 -5.9
v 2.2 3.4 -5.9
v 1.8 3.4 -6
v 1.8 3.5 -6
v 2.2 3.4 -6
v 2.2 3.5 -6
v 1.8 3.5 -6.1
v 1.8 3.6 -6.1
v 2.2 3.5 -6.1
v 2.2 3.6 -6.1
v 1.8 3.6 -6.2
v 1.8 3.7 -6.2
v 2.2 3.6 -6.2
v 2.2 3.7 -6.2
v 1.8 3.7 -6.3
v 1.8 3.8 -6.3
v 2.2 3.7 -6.3
v 2.2 3.8 -6.3
v 1.8 3.8 -6.5
v 1.8 3.9 -6.5
v 2.2 3.8 -6.5
v 2.2 3.9 -6.5
v 1.8 3.9 -6.6
v 1.8 4 -6.6
v 2.2 3.9 -6.6
v 2.2 4 -6.6
v 1.8 4 -6.7
v 1.8 4.1 -6.7
v 2.2 4 -6.7
v 2.2 4.1 -6.7
v 1.8 4.1 -6.9
v 1.8 4.2 -6.9
v 2.2 4.1 -6.9
v 2.2 4.2 -6.9
v 1.5 4.2 -7
v 1.5 4.4 -7
v 2.5 4.2 -7
v 2.5 4.4 -7
v 1.4 4.2 -7.2
v 1.4 4.4 -7.2
v 1.5 4.2 -7.2
v 1.5 4.4 -7.2
v 2.5 4.2 -7.2
v 2.5 4.4 -7.2
v 2.6 4.2 -7.2
v 2.6 4.4 -7.2
v 1.2 4.2 -7.6
v 1.2 4.4 -7.6
v 2.8 4.2 -7.6
v 2.8 4.4 -7.6
v 0.4 2 -0.4
v 3.6 2 -0.4
v 0.4 2 -5.6
v 3.6 2 -5.6
v 0.3 2.1 -0.3
v 3.7 2.1 -0.3
v 0.4 2.1 -0.4
v 3.6 2.1 -0.4
v 0.4 2.1 -5.6
v 3.6 2.1 -5.6
v 0.3 2.1 -5.7
v 3.7 2.1 -5.7
v 0.2 2.2 -0.2
v 3.8 2.2 -0.2
v 0.3 2.2 -0.3
v 3.7 2.2 -0.3
v 0.3 2.2 -5.7
v 3.7 2.2 -5.7
v 0.2 2.2 -5.8
v 3.8 2.2 -5.8
v 1.8 3.3 -5.8
v 2.2 3.3 -5.8
v 1.8 3.3 -5.9
v 2.2 3.3 -5.9
v 1.8 3.4 -5.9
v 2.2 3.4 -5.9
v 1.8 3.4 -6
v 2.2 3.4 -6
v 1.8 3.5 -6
v 2.2 3.5 -6
v 1.8 3.5 -6.1
v 2.2 3.5 -6.1
v 1.8 3.6 -6.1
v 2.2 3.6 -6.1
v 1.8 3.6 -6.2
v 2.2 3.6 -6.2
v 1.8 3.7 -6.2
v 2.2 3.7 -6.2
v 1.8 3.7 -6.3
v 2.2 3.7 -6.3
v 1.8 3.8 -6.3
v 2.2 3.8 -6.3
v 1.8 3.8 -6.5
v 2.2 3.8 -6.5
v 1.8 3.9 -6.5
v 2.2 3.9 -6.5
v 1.8 3.9 -6.6
v 2.2 3.9 -6.6
v 1.8 4 -6.6
v 2.2 4 -6.6
v 1.8 4 -6.7
v 2.2 4 -6.7
v 1.8 4.1 -6.7
v 2.2 4.1 -6.7
v 1.8 4.1 -6.9
v 2.2 4.1 -6.9
v 1.4 4.2 -6.8
v 1.8 4.2 -6.8
v 2.2 4.2 -6.8
v 2.6 4.2 -6.8
v 1.3 4.2 -6.9
v 1.4 4.2 -6.9
v 1.8 4.2 -6.9
v 2.2 4.2 -6.9
v 2.6 4.2 -6.9
v 2.7 4.2 -6.9
v 1.5 4.2 -7
v 2.5 4.2 -7
v 1.2 4.2 -7.1
v 1.3 4.2 -7.1
v 2.7 4.2 -7.1
v 2.8 4.2 -7.1
v 1.4 4.2 -7.2
v 1.5 4.2 -7.2
v 2.5 4.2 -7.2
v 2.6 4.2 -7.2
v 1.4 4.2 -7.4
v 2.6 4.2 -7.4
v 1.2 4.2 -7.6
v 2.8 4.2 -7.6
v 0.5 2.3 -0.5
v 3.5 2.3 -0.5
v 0.5 2.3 -5.5
v 3.5 2.3 -5.5
v 0.2 3.3 -0.2
v 3.8 3.3 -0.2
v 0.3 3.3 -0.3
v 3.7 3.3 -0.3
v 0.4 3.3 -0.4
v 3.6 3.3 -0.4
v 0.5 3.3 -0.5
v 3.5 3.3 -0.5
v 0.5 3.3 -5.5
v 3.5 3.3 -5.5
v 0.4 3.3 -5.6
v 3.6 3.3 -5.6
v 0.3 3.3 -5.7
v 1.8 3.3 -5.7
v 2.2 3.3 -5.7
v 3.7 3.3 -5.7
v 0.2 3.3 -5.8
v 1.8 3.3 -5.8
v 2.2 3.3 -5.8
v 3.8 3.3 -5.8
v 0.3 3.4 -0.3
v 3.7 3.4 -0.3
v 0.4 3.4 -0.4
v 3.6 3.4 -0.4
v 0.4 3.4 -5.6
v 3.6 3.4 -5.6
v 0.3 3.4 -5.7
v 1.8 3.4 -5.7
v 2.2 3.4 -5.7
v 3.7 3.4 -5.7
v 1.8 3.5 -5.7
v 2.2 3.5 -5.7
v 1.8 3.5 -5.8
v 2.2 3.5 -5.8
v 1.8 3.6 -5.8
v 2.2 3.6 -5.8
v 1.8 3.6 -5.9
v 2.2 3.6 -5.9
v 1.8 3.7 -5.9
v 2.2 3.7 -5.9
v 1.8 3.7 -6.1
v 2.2 3.7 -6.1
v 1.8 3.8 -6.1
v 2.2 3.8 -6.1
v 1.8 3.8 -6.2
v 2.2 3.8 -6.2
v 1.8 3.9 -6.2
v 2.2 3.9 -6.2
v 1.8 3.9 -6.3
v 2.2 3.9 -6.3
v 1.8 4 -6.3
v 2.2 4 -6.3
v 1.8 4 -6.5
v 2.2 4 -6.5
v 1.8 4.1 -6.5
v 2.2 4.1 -6.5
v 1.8 4.1 -6.6
v 2.2 4.1 -6.6
v 1.8 4.2 -6.6
v 2.2 4.2 -6.6
v 1.8 4.2 -6.7
v 2.2 4.2 -6.7
v 1.8 4.3 -6.7
v 2.2 4.3 -6.7
v 1.8 4.3 -6.8
v 2.2 4.3 -6.8
v 1.4 4.4 -6.8
v 2.6 4.4 -6.8
v 1.3 4.4 -6.9
v 1.4 4.4 -6.9
v 2.6 4.4 -6.9
v 2.7 4.4 -6.9
v 1.5 4.4 -7
v 2.5 4.4 -7
v 1.2 4.4 -7.1
v 1.3 4.4 -7.1
v 2.7 4.4 -7.1
v 2.8 4.4 -7.1
v 1.4 4.4 -7.2
v 1.5 4.4 -7.2
v 2.5 4.4 -7.2
v 2.6 4.4 -7.2
v 1.4 4.4 -7.4
v 2.6 4.4 -7.4
v 1.2 4.4 -7.6
v 2.8 4.4 -7.6

# faces
f 3/2/1 2/2/1 1/2/1
f 4/2/1 2/2/1 3/2/1
f 7/2/1 6/2/1 5/2/1
f 8/2/1 6/2/1 7/2/1
f 11/2/1 10/2/1 9/2/1
f 12/2/1 10/2/1 11/2/1
f 15/2/1 14/2/1 13/2/1
f 16/2/1 14/2/1 15/2/1
f 19/3/1 18/3/1 17/3/1
f 20/3/1 18/3/1 19/3/1
f 23/3/1 22/3/1 21/3/1
f 24/3/1 22/3/1 23/3/1
f 27/3/1 26/3/1 25/3/1
f 28/3/1 26/3/1 27/3/1
f 32/3/1 30/3/1 29/3/1
f 32/3/1 31/3/1 30/3/1
f 33/3/1 31/3/1 32/3/1
f 35/3/1 33/3/1 32/3/1
f 35/3/1 34/3/1 33/3/1
f 36/3/1 34/3/1 35/3/1
f 37/3/1 34/3/1 36/3/1
f 39/3/1 38/3/1 37/3/1
f 39/3/1 37/3/1 36/3/1
f 40/3/1 38/3/1 39/3/1
f 41/3/1 38/3/1 40/3/1
f 43/3/1 42/3/1 41/3/1
f 43/3/1 41/3/1 40/3/1
f 44/3/1 42/3/1 43/3/1
f 45/3/1 42/3/1 44/3/1
f 47/3/1 46/3/1 45/3/1
f 47/3/1 45/3/1 44/3/1
f 48/3/1 46/3/1 47/3/1
f 49/3/1 46/3/1 48/3/1
f 51/3/1 50/3/1 49/3/1
f 51/3/1 49/3/1 48/3/1
f 52/3/1 50/3/1 51/3/1
f 53/3/1 50/3/1 52/3/1
f 55/3/1 54/3/1 53/3/1
f 55/3/1 53/3/1 52/3/1
f 56/3/1 54/3/1 55/3/1
f 57/3/1 54/3/1 56/3/1
f 59/3/1 58/3/1 57/3/1
f 59/3/1 57/3/1 56/3/1
f 60/3/1 58/3/1 59/3/1
f 61/3/1 58/3/1 60/3/1
f 63/3/1 62/3/1 61/3/1
f 63/3/1 61/3/1 60/3/1
f 64/3/1 62/3/1 63/3/1
f 65/3/1 62/3/1 64/3/1
f 66/3/1 62/3/1 65/3/1
f 67/3/1 65/3/1 64/3/1
f 68/3/1 65/3/1 67/3/1
f 71/3/1 70/3/1 69/3/1
f 72/3/1 70/3/1 71/3/1
f 75/3/1 74/3/1 73/3/1
f 76/3/1 74/3/1 75/3/1
f 79/2/1 78/2/1 77/2/1
f 80/2/1 78/2/1 79/2/1
f 83/2/1 82/2/1 81/2/1
f 84/2/1 82/2/1 83/2/1
f 85/2/2 86/2/2 87/2/2
f 87/2/2 86/2/2 88/2/2
f 89/2/2 90/2/2 91/2/2
f 91/2/2 90/2/2 92/2/2
f 93/3/2 94/3/2 95/3/2
f 95/3/2 94/3/2 96/3/2
f 97/3/2 98/3/2 99/3/2
f 99/3/2 98/3/2 100/3/2
f 101/3/2 102/3/2 104/3/2
f 102/3/2 103/3/2 104/3/2
f 104/3/2 103/3/2 105/3/2
f 104/3/2 105/3/2 107/3/2
f 105/3/2 106/3/2 107/3/2
f 107/3/2 106/3/2 108/3/2
f 108/3/2 106/3/2 109/3/2
f 109/3/2 110/3/2 111/3/2
f 108/3/2 109/3/2 111/3/2
f 111/3/2 110/3/2 112/3/2
f 112/3/2 110/3/2 113/3/2
f 113/3/2 114/3/2 115/3/2
f 112/3/2 113/3/2 115/3/2
f 115/3/2 114/3/2 116/3/2
f 116/3/2 114/3/2 117/3/2
f 117/3/2 118/3/2 119/3/2
f 116/3/2 117/3/2 119/3/2
f 119/3/2 118/3/2 120/3/2
f 120/3/2 118/3/2 121/3/2
f 121/3/2 122/3/2 123/3/2
f 120/3/2 121/3/2 123/3/2
f 123/3/2 122/3/2 124/3/2
f 124/3/2 122/3/2 125/3/2
f 125/3/2 126/3/2 127/3/2
f 124/3/2 125/3/2 127/3/2
f 127/3/2 126/3/2 128/3/2
f 128/3/2 126/3/2 129/3/2
f 129/3/2 130/3/2 131/3/2
f 128/3/2 129/3/2 131/3/2
f 131/3/2 130/3/2 132/3/2
f 132/3/2 130/3/2 133/3/2
f 133/3/2 134/3/2 135/3/2
f 132/3/2 133/3/2 135/3/2
f 135/3/2 134/3/2 136/3/2
f 136/3/2 134/3/2 137/3/2
f 137/3/2 134/3/2 138/3/2
f 136/3/2 137/3/2 139/3/2
f 139/3/2 137/3/2 140/3/2
f 141/3/2 142/3/2 143/3/2
f 143/3/2 142/3/2 144/3/2
f 145/3/2 146/3/2 147/3/2
f 147/3/2 146/3/2 148/3/2
f 149/3/2 150/3/2 151/3/2
f 151/3/2 150/3/2 152/3/2
f 153/2/2 154/2/2 155/2/2
f 155/2/2 154/2/2 156/2/2
f 157/2/2 158/2/2 159/2/2
f 159/2/2 158/2/2 160/2/2
f 161/2/2 162/2/2 163/2/2
f 163/2/2 162/2/2 164/2/2
f 165/2/2 166/2/2 167/2/2
f 167/2/2 166/2/2 168/2/2
f 171/2/3 170/2/3 169/2/3
f 172/2/3 170/2/3 171/2/3
f 177/2/3 174/2/3 173/2/3
f 178/2/3 174/2/3 177/2/3
f 179/2/3 176/2/3 175/2/3
f 180/2/3 176/2/3 179/2/3
f 183/2/3 182/2/3 181/2/3
f 184/2/3 182/2/3 183/2/3
f 187/2/3 186/2/3 185/2/3
f 188/2/3 186/2/3 187/2/3
f 191/2/3 190/2/3 189/2/3
f 192/2/3 190/2/3 191/2/3
f 195/3/3 194/3/3 193/3/3
f 196/3/3 194/3/3 195/3/3
f 199/3/3 198/3/3 197/3/3
f 200/3/3 198/3/3 199/3/3
f 203/3/3 202/3/3 201/3/3
f 204/3/3 202/3/3 203/3/3
f 207/3/3 206/3/3 205/3/3
f 208/3/3 206/3/3 207/3/3
f 211/3/3 210/3/3 209/3/3
f 212/3/3 210/3/3 211/3/3
f 215/3/3 214/3/3 213/3/3
f 216/3/3 214/3/3 215/3/3
f 219/3/3 218/3/3 217/3/3
f 220/3/3 218/3/3 219/3/3
f 223/3/3 222/3/3 221/3/3
f 224/3/3 222/3/3 223/3/3
f 227/3/3 226/3/3 225/3/3
f 228/3/3 226/3/3 227/3/3
f 231/3/3 230/3/3 229/3/3
f 232/3/3 230/3/3 231/3/3
f 234/3/3 230/3/3 232/3/3
f 235/3/3 234/3/3 233/3/3
f 236/3/3 230/3/3 234/3/3
f 236/3/3 234/3/3 235/3/3
f 239/3/3 238/3/3 237/3/3
f 240/3/3 238/3/3 239/3/3
f 243/3/3 242/3/3 241/3/3
f 244/3/3 242/3/3 243/3/3
f 247/3/3 246/3/3 245/3/3
f 248/3/3 246/3/3 247/3/3
f 251/3/3 250/3/3 249/3/3
f 252/3/3 250/3/3 251/3/3
f 255/3/3 254/3/3 253/3/3
f 256/3/3 254/3/3 255/3/3
f 257/2/4 258/2/4 259/2/4
f 259/2/4 258/2/4 260/2/4
f 261/2/4 262/2/4 263/2/4
f 263/2/4 262/2/4 264/2/4
f 265/2/4 266/2/4 267/2/4
f 267/2/4 266/2/4 268/2/4
f 271/2/4 272/2/4 273/2/4
f 273/2/4 272/2/4 274/2/4
f 269/2/4 270/2/4 277/2/4
f 277/2/4 270/2/4 278/2/4
f 275/2/4 276/2/4 279/2/4
f 279/2/4 276/2/4 280/2/4
f 281/2/4 282/2/4 283/2/4
f 283/2/4 282/2/4 284/2/4
f 281/2/4 283/2/4 285/2/4
f 283/3/4 284/3/4 285/3/4
f 285/3/4 284/3/4 286/3/4
f 281/2/4 285/2/4 287/2/4
f 285/2/4 286/2/4 287/2/4
f 287/2/4 286/2/4 288/2/4
f 289/3/4 290/3/4 291/3/4
f 291/3/4 290/3/4 292/3/4
f 293/3/4 294/3/4 295/3/4
f 295/3/4 294/3/4 296/3/4
f 297/3/4 298/3/4 299/3/4
f 299/3/4 298/3/4 300/3/4
f 301/3/4 302/3/4 303/3/4
f 303/3/4 302/3/4 304/3/4
f 305/3/4 306/3/4 307/3/4
f 307/3/4 306/3/4 308/3/4
f 309/3/4 310/3/4 311/3/4
f 311/3/4 310/3/4 312/3/4
f 313/3/4 314/3/4 315/3/4
f 315/3/4 314/3/4 316/3/4
f 317/3/4 318/3/4 319/3/4
f 319/3/4 318/3/4 320/3/4
f 321/3/4 322/3/4 323/3/4
f 323/3/4 322/3/4 324/3/4
f 325/3/4 326/3/4 327/3/4
f 327/3/4 326/3/4 328/3/4
f 329/3/4 330/3/4 331/3/4
f 331/3/4 330/3/4 332/3/4
f 333/3/4 334/3/4 335/3/4
f 335/3/4 334/3/4 336/3/4
f 337/3/4 338/3/4 339/3/4
f 339/3/4 338/3/4 340/3/4
f 343/2/5 342/2/5 341/2/5
f 344/2/5 342/2/5 343/2/5
f 347/2/5 346/2/5 345/2/5
f 348/2/5 346/2/5 347/2/5
f 349/2/5 347/2/5 345/2/5
f 350/2/5 346/2/5 348/2/5
f 351/2/5 349/2/5 345/2/5
f 351/2/5 350/2/5 349/2/5
f 352/2/5 346/2/5 350/2/5
f 352/2/5 350/2/5 351/2/5
f 355/2/5 354/2/5 353/2/5
f 356/2/5 354/2/5 355/2/5
f 357/2/5 355/2/5 353/2/5
f 358/2/5 354/2/5 356/2/5
f 359/2/5 357/2/5 353/2/5
f 359/2/5 358/2/5 357/2/5
f 360/2/5 354/2/5 358/2/5
f 360/2/5 358/2/5 359/2/5
f 363/3/5 362/3/5 361/3/5
f 364/3/5 362/3/5 363/3/5
f 367/3/5 366/3/5 365/3/5
f 368/3/5 366/3/5 367/3/5
f 371/3/5 370/3/5 369/3/5
f 372/3/5 370/3/5 371/3/5
f 375/3/5 374/3/5 373/3/5
f 376/3/5 374/3/5 375/3/5
f 379/3/5 378/3/5 377/3/5
f 380/3/5 378/3/5 379/3/5
f 383/3/5 382/3/5 381/3/5
f 384/3/5 382/3/5 383/3/5
f 387/3/5 386/3/5 385/3/5
f 388/3/5 386/3/5 387/3/5
f 391/3/5 390/3/5 389/3/5
f 392/3/5 390/3/5 391/3/5
f 395/3/5 394/3/5 393/3/5
f 396/3/5 394/3/5 395/3/5
f 402/3/5 398/3/5 397/3/5
f 403/3/5 398/3/5 402/3/5
f 404/3/5 400/3/5 399/3/5
f 405/3/5 400/3/5 404/3/5
f 407/3/5 403/3/5 402/3/5
f 407/3/5 406/3/5 405/3/5
f 407/3/5 405/3/5 404/3/5
f 407/3/5 404/3/5 403/3/5
f 407/3/5 402/3/5 401/3/5
f 408/3/5 406/3/5 407/3/5
f 410/3/5 407/3/5 401/3/5
f 411/3/5 406/3/5 408/3/5
f 413/3/5 410/3/5 409/3/5
f 413/3/5 407/3/5 410/3/5
f 414/3/5 407/3/5 413/3/5
f 415/3/5 412/3/5 411/3/5
f 415/3/5 411/3/5 408/3/5
f 416/3/5 412/3/5 415/3/5
f 417/3/5 413/3/5 409/3/5
f 418/3/5 412/3/5 416/3/5
f 419/3/5 417/3/5 409/3/5
f 419/3/5 418/3/5 417/3/5
f 420/3/5 412/3/5 418/3/5
f 420/3/5 418/3/5 419/3/5
f 421/2/6 422/2/6 423/2/6
f 423/2/6 422/2/6 424/2/6
f 425/2/6 426/2/6 427/2/6
f 427/2/6 426/2/6 428/2/6
f 429/2/6 430/2/6 431/2/6
f 431/2/6 430/2/6 432/2/6
f 429/2/6 431/2/6 433/2/6
f 432/2/6 430/2/6 434/2/6
f 429/2/6 433/2/6 435/2/6
f 433/2/6 434/2/6 435/2/6
f 434/2/6 430/2/6 436/2/6
f 435/2/6 434/2/6 436/2/6
f 425/2/6 427/2/6 437/2/6
f 428/2/6 426/2/6 440/2/6
f 437/2/6 438/2/6 441/2/6
f 425/2/6 437/2/6 441/2/6
f 441/2/6 438/2/6 442/2/6
f 439/2/6 440/2/6 443/2/6
f 440/2/6 426/2/6 444/2/6
f 443/2/6 440/2/6 444/2/6
f 445/2/6 446/2/6 447/2/6
f 447/2/6 446/2/6 448/2/6
f 445/2/6 447/2/6 449/2/6
f 448/2/6 446/2/6 450/2/6
f 445/2/6 449/2/6 451/2/6
f 449/2/6 450/2/6 451/2/6
f 451/2/6 450/2/6 452/2/6
f 452/2/6 450/2/6 453/2/6
f 450/2/6 446/2/6 454/2/6
f 453/2/6 450/2/6 454/2/6
f 455/3/6 456/3/6 457/3/6
f 457/3/6 456/3/6 458/3/6
f 459/3/6 460/3/6 461/3/6
f 461/3/6 460/3/6 462/3/6
f 463/3/6 464/3/6 465/3/6
f 465/3/6 464/3/6 466/3/6
f 467/3/6 468/3/6 469/3/6
f 469/3/6 468/3/6 470/3/6
f 471/3/6 472/3/6 473/3/6
f 473/3/6 472/3/6 474/3/6
f 475/3/6 476/3/6 477/3/6
f 477/3/6 476/3/6 478/3/6
f 479/3/6 480/3/6 481/3/6
f 481/3/6 480/3/6 482/3/6
f 483/3/6 484/3/6 485/3/6
f 485/3/6 484/3/6 486/3/6
f 487/3/6 488/3/6 489/3/6
f 489/3/6 488/3/6 490/3/6
f 491/3/6 492/3/6 494/3/6
f 494/3/6 492/3/6 495/3/6
f 493/3/6 494/3/6 497/3/6
f 495/3/6 496/3/6 497/3/6
f 494/3/6 495/3/6 497/3/6
f 497/3/6 496/3/6 498/3/6
f 493/3/6 497/3/6 500/3/6
f 498/3/6 496/3/6 501/3/6
f 499/3/6 500/3/6 503/3/6
f 500/3/6 497/3/6 503/3/6
f 503/3/6 497/3/6 504/3/6
f 501/3/6 502/3/6 505/3/6
f 498/3/6 501/3/6 505/3/6
f 505/3/6 502/3/6 506/3/6
f 499/3/6 503/3/6 507/3/6
f 506/3/6 502/3/6 508/3/6
f 499/3/6 507/3/6 509/3/6
f 507/3/6 508/3/6 509/3/6
f 508/3/6 502/3/6 510/3/6
f 509/3/6 508/3/6 510/3/6
