# MagicaVoxel @ Ephtracy

# group
o 

# material
mtllib Window.mtl
usemtl palette

# normals
vn -1 0 0
vn 1 0 0
vn 0 0 1
vn 0 0 -1
vn 0 -1 0
vn 0 1 0

# texcoords
vt 0.306641 0.5
vt 0.974609 0.5
vt 0.978516 0.5
vt 0.982422 0.5
vt 0.986328 0.5

# verts
v 3.1 2 -2.1
v 3.1 2 -2.9
v 3.1 2.6 -2.1
v 3.1 2.6 -2.2
v 3.1 2.6 -2.8
v 3.1 2.6 -2.9
v 3.1 7 -2.2
v 3.1 7 -2.8
v 3.6 4 -2.1
v 3.6 4 -2.2
v 3.6 4 -2.8
v 3.6 4 -2.9
v 3.6 4.1 -2.1
v 3.6 4.1 -2.2
v 3.6 4.1 -2.8
v 3.6 4.1 -2.9
v 3.6 6.3 -2.1
v 3.6 6.3 -2.2
v 3.6 6.3 -2.8
v 3.6 6.3 -2.9
v 3.6 6.4 -2.1
v 3.6 6.4 -2.2
v 3.6 6.4 -2.8
v 3.6 6.4 -2.9
v 7.3 4.3 -2.2
v 7.3 4.3 -2.8
v 7.3 6.1 -2.2
v 7.3 6.1 -2.8
v 7.4 4.2 -2.1
v 7.4 4.2 -2.2
v 7.4 4.2 -2.8
v 7.4 4.2 -2.9
v 7.4 4.3 -2.8
v 7.4 6.1 -2.8
v 7.4 6.2 -2.1
v 7.4 6.2 -2.2
v 7.4 6.2 -2.8
v 7.4 6.2 -2.9
v 8 2.1 -2.2
v 8 2.1 -2.8
v 8 2.5 -2.2
v 8 2.5 -2.3
v 8 2.5 -2.7
v 8 2.5 -2.8
v 8 2.6 -2.3
v 8 2.6 -2.7
v 3.2 2.1 -2.2
v 3.2 2.1 -2.8
v 3.2 2.5 -2.2
v 3.2 2.5 -2.3
v 3.2 2.5 -2.7
v 3.2 2.5 -2.8
v 3.2 2.6 -2.3
v 3.2 2.6 -2.7
v 3.8 4.2 -2.1
v 3.8 4.2 -2.2
v 3.8 4.2 -2.8
v 3.8 4.2 -2.9
v 3.8 4.3 -2.8
v 3.8 6.1 -2.8
v 3.8 6.2 -2.1
v 3.8 6.2 -2.2
v 3.8 6.2 -2.8
v 3.8 6.2 -2.9
v 3.9 4.3 -2.2
v 3.9 4.3 -2.8
v 3.9 6.1 -2.2
v 3.9 6.1 -2.8
v 7.6 4 -2.1
v 7.6 4 -2.2
v 7.6 4 -2.8
v 7.6 4 -2.9
v 7.6 4.1 -2.1
v 7.6 4.1 -2.2
v 7.6 4.1 -2.8
v 7.6 4.1 -2.9
v 7.6 6.3 -2.1
v 7.6 6.3 -2.2
v 7.6 6.3 -2.8
v 7.6 6.3 -2.9
v 7.6 6.4 -2.1
v 7.6 6.4 -2.2
v 7.6 6.4 -2.8
v 7.6 6.4 -2.9
v 8.1 2 -2.1
v 8.1 2 -2.9
v 8.1 2.6 -2.1
v 8.1 2.6 -2.2
v 8.1 2.6 -2.8
v 8.1 2.6 -2.9
v 8.1 7 -2.2
v 8.1 7 -2.8
v 3.1 2 -2.1
v 3.1 2.6 -2.1
v 3.6 4 -2.1
v 3.6 4.1 -2.1
v 3.6 6.3 -2.1
v 3.6 6.4 -2.1
v 3.7 4 -2.1
v 3.7 4.1 -2.1
v 3.7 4.2 -2.1
v 3.7 6.2 -2.1
v 3.7 6.3 -2.1
v 3.7 6.4 -2.1
v 3.8 4.1 -2.1
v 3.8 4.2 -2.1
v 3.8 6.2 -2.1
v 3.8 6.3 -2.1
v 7.4 4.1 -2.1
v 7.4 4.2 -2.1
v 7.4 6.2 -2.1
v 7.4 6.3 -2.1
v 7.5 4 -2.1
v 7.5 4.1 -2.1
v 7.5 4.2 -2.1
v 7.5 6.2 -2.1
v 7.5 6.3 -2.1
v 7.5 6.4 -2.1
v 7.6 4 -2.1
v 7.6 4.1 -2.1
v 7.6 6.3 -2.1
v 7.6 6.4 -2.1
v 8.1 2 -2.1
v 8.1 2.6 -2.1
v 3.1 2.6 -2.2
v 3.1 7 -2.2
v 3.6 4 -2.2
v 3.6 4.1 -2.2
v 3.6 6.3 -2.2
v 3.6 6.4 -2.2
v 3.7 4 -2.2
v 3.7 6.4 -2.2
v 3.8 4.2 -2.2
v 3.8 6.2 -2.2
v 3.9 4.3 -2.2
v 3.9 6.1 -2.2
v 7.3 4.3 -2.2
v 7.3 6.1 -2.2
v 7.4 4.2 -2.2
v 7.4 6.2 -2.2
v 7.5 4 -2.2
v 7.5 6.4 -2.2
v 7.6 4 -2.2
v 7.6 4.1 -2.2
v 7.6 6.3 -2.2
v 7.6 6.4 -2.2
v 8.1 2.6 -2.2
v 8.1 7 -2.2
v 3.2 2.5 -2.7
v 3.2 2.6 -2.7
v 8 2.5 -2.7
v 8 2.6 -2.7
v 3.2 2.1 -2.8
v 3.2 2.5 -2.8
v 8 2.1 -2.8
v 8 2.5 -2.8
v 3.2 2.1 -2.2
v 3.2 2.5 -2.2
v 8 2.1 -2.2
v 8 2.5 -2.2
v 3.2 2.5 -2.3
v 3.2 2.6 -2.3
v 8 2.5 -2.3
v 8 2.6 -2.3
v 3.1 2.6 -2.8
v 3.1 7 -2.8
v 3.6 4 -2.8
v 3.6 4.1 -2.8
v 3.6 6.3 -2.8
v 3.6 6.4 -2.8
v 3.7 4 -2.8
v 3.7 6.4 -2.8
v 3.8 4.2 -2.8
v 3.8 4.3 -2.8
v 3.8 6.1 -2.8
v 3.8 6.2 -2.8
v 3.9 4.2 -2.8
v 3.9 4.3 -2.8
v 3.9 6.1 -2.8
v 3.9 6.2 -2.8
v 7.3 4.2 -2.8
v 7.3 4.3 -2.8
v 7.3 6.1 -2.8
v 7.3 6.2 -2.8
v 7.4 4.2 -2.8
v 7.4 4.3 -2.8
v 7.4 6.1 -2.8
v 7.4 6.2 -2.8
v 7.5 4 -2.8
v 7.5 6.4 -2.8
v 7.6 4 -2.8
v 7.6 4.1 -2.8
v 7.6 6.3 -2.8
v 7.6 6.4 -2.8
v 8.1 2.6 -2.8
v 8.1 7 -2.8
v 3.1 2 -2.9
v 3.1 2.6 -2.9
v 3.6 4 -2.9
v 3.6 4.1 -2.9
v 3.6 6.3 -2.9
v 3.6 6.4 -2.9
v 3.7 4 -2.9
v 3.7 4.1 -2.9
v 3.7 4.2 -2.9
v 3.7 6.2 -2.9
v 3.7 6.3 -2.9
v 3.7 6.4 -2.9
v 3.8 4.1 -2.9
v 3.8 4.2 -2.9
v 3.8 6.2 -2.9
v 3.8 6.3 -2.9
v 7.4 4.1 -2.9
v 7.4 4.2 -2.9
v 7.4 6.2 -2.9
v 7.4 6.3 -2.9
v 7.5 4 -2.9
v 7.5 4.1 -2.9
v 7.5 4.2 -2.9
v 7.5 6.2 -2.9
v 7.5 6.3 -2.9
v 7.5 6.4 -2.9
v 7.6 4 -2.9
v 7.6 4.1 -2.9
v 7.6 6.3 -2.9
v 7.6 6.4 -2.9
v 8.1 2 -2.9
v 8.1 2.6 -2.9
v 3.1 2 -2.1
v 8.1 2 -2.1
v 3.2 2 -2.2
v 8 2 -2.2
v 3.2 2 -2.8
v 8 2 -2.8
v 3.1 2 -2.9
v 8.1 2 -2.9
v 3.2 2.5 -2.2
v 8 2.5 -2.2
v 3.2 2.5 -2.3
v 8 2.5 -2.3
v 3.2 2.5 -2.7
v 8 2.5 -2.7
v 3.2 2.5 -2.8
v 8 2.5 -2.8
v 3.2 2.6 -2.3
v 8 2.6 -2.3
v 3.2 2.6 -2.7
v 8 2.6 -2.7
v 3.6 4 -2.1
v 3.7 4 -2.1
v 7.5 4 -2.1
v 7.6 4 -2.1
v 3.6 4 -2.2
v 3.7 4 -2.2
v 7.5 4 -2.2
v 7.6 4 -2.2
v 3.6 4 -2.8
v 3.7 4 -2.8
v 7.5 4 -2.8
v 7.6 4 -2.8
v 3.6 4 -2.9
v 3.7 4 -2.9
v 7.5 4 -2.9
v 7.6 4 -2.9
v 3.9 6.1 -2.2
v 7.3 6.1 -2.2
v 3.9 6.1 -2.8
v 7.3 6.1 -2.8
v 3.8 6.2 -2.1
v 7.4 6.2 -2.1
v 3.8 6.2 -2.2
v 7.4 6.2 -2.2
v 3.8 6.2 -2.8
v 3.9 6.2 -2.8
v 7.3 6.2 -2.8
v 7.4 6.2 -2.8
v 3.8 6.2 -2.9
v 7.4 6.2 -2.9
v 3.2 2.1 -2.2
v 8 2.1 -2.2
v 3.2 2.1 -2.8
v 8 2.1 -2.8
v 3.1 2.6 -2.1
v 8.1 2.6 -2.1
v 3.1 2.6 -2.2
v 8.1 2.6 -2.2
v 3.1 2.6 -2.8
v 8.1 2.6 -2.8
v 3.1 2.6 -2.9
v 8.1 2.6 -2.9
v 3.8 4.2 -2.1
v 7.4 4.2 -2.1
v 3.8 4.2 -2.2
v 7.4 4.2 -2.2
v 3.8 4.2 -2.8
v 3.9 4.2 -2.8
v 7.3 4.2 -2.8
v 7.4 4.2 -2.8
v 3.8 4.2 -2.9
v 7.4 4.2 -2.9
v 3.9 4.3 -2.2
v 7.3 4.3 -2.2
v 3.9 4.3 -2.8
v 7.3 4.3 -2.8
v 3.6 6.4 -2.1
v 3.7 6.4 -2.1
v 7.5 6.4 -2.1
v 7.6 6.4 -2.1
v 3.6 6.4 -2.2
v 3.7 6.4 -2.2
v 7.5 6.4 -2.2
v 7.6 6.4 -2.2
v 3.6 6.4 -2.8
v 3.7 6.4 -2.8
v 7.5 6.4 -2.8
v 7.6 6.4 -2.8
v 3.6 6.4 -2.9
v 3.7 6.4 -2.9
v 7.5 6.4 -2.9
v 7.6 6.4 -2.9
v 3.1 7 -2.2
v 8.1 7 -2.2
v 3.1 7 -2.8
v 8.1 7 -2.8

# faces
f 3/3/1 2/3/1 1/3/1
f 4/3/1 2/3/1 3/3/1
f 5/3/1 2/3/1 4/3/1
f 6/3/1 2/3/1 5/3/1
f 7/2/1 5/2/1 4/2/1
f 8/2/1 5/2/1 7/2/1
f 13/5/1 10/5/1 9/5/1
f 14/5/1 10/5/1 13/5/1
f 15/5/1 12/5/1 11/5/1
f 16/5/1 12/5/1 15/5/1
f 17/3/1 14/3/1 13/3/1
f 18/3/1 14/3/1 17/3/1
f 19/3/1 16/3/1 15/3/1
f 20/3/1 16/3/1 19/3/1
f 21/5/1 18/5/1 17/5/1
f 22/5/1 18/5/1 21/5/1
f 23/5/1 20/5/1 19/5/1
f 24/5/1 20/5/1 23/5/1
f 27/4/1 26/4/1 25/4/1
f 28/4/1 26/4/1 27/4/1
f 33/4/1 32/4/1 31/4/1
f 34/4/1 32/4/1 33/4/1
f 35/4/1 30/4/1 29/4/1
f 36/4/1 30/4/1 35/4/1
f 37/4/1 32/4/1 34/4/1
f 38/4/1 32/4/1 37/4/1
f 41/3/1 40/3/1 39/3/1
f 42/3/1 40/3/1 41/3/1
f 43/3/1 40/3/1 42/3/1
f 44/3/1 40/3/1 43/3/1
f 45/3/1 43/3/1 42/3/1
f 46/3/1 43/3/1 45/3/1
f 47/3/2 48/3/2 49/3/2
f 49/3/2 48/3/2 50/3/2
f 50/3/2 48/3/2 51/3/2
f 51/3/2 48/3/2 52/3/2
f 50/3/2 51/3/2 53/3/2
f 53/3/2 51/3/2 54/3/2
f 57/4/2 58/4/2 59/4/2
f 59/4/2 58/4/2 60/4/2
f 55/4/2 56/4/2 61/4/2
f 61/4/2 56/4/2 62/4/2
f 60/4/2 58/4/2 63/4/2
f 63/4/2 58/4/2 64/4/2
f 65/4/2 66/4/2 67/4/2
f 67/4/2 66/4/2 68/4/2
f 69/5/2 70/5/2 73/5/2
f 73/5/2 70/5/2 74/5/2
f 71/5/2 72/5/2 75/5/2
f 75/5/2 72/5/2 76/5/2
f 73/3/2 74/3/2 77/3/2
f 77/3/2 74/3/2 78/3/2
f 75/3/2 76/3/2 79/3/2
f 79/3/2 76/3/2 80/3/2
f 77/5/2 78/5/2 81/5/2
f 81/5/2 78/5/2 82/5/2
f 79/5/2 80/5/2 83/5/2
f 83/5/2 80/5/2 84/5/2
f 85/3/2 86/3/2 87/3/2
f 87/3/2 86/3/2 88/3/2
f 88/3/2 86/3/2 89/3/2
f 89/3/2 86/3/2 90/3/2
f 88/2/2 89/2/2 91/2/2
f 91/2/2 89/2/2 92/2/2
f 99/5/3 96/5/3 95/5/3
f 100/3/3 97/3/3 96/3/3
f 100/5/3 96/5/3 99/5/3
f 101/3/3 97/3/3 100/3/3
f 102/3/3 97/3/3 101/3/3
f 103/5/3 98/5/3 97/5/3
f 103/3/3 97/3/3 102/3/3
f 104/5/3 98/5/3 103/5/3
f 105/3/3 100/3/3 99/3/3
f 105/5/3 101/5/3 100/5/3
f 106/4/3 102/4/3 101/4/3
f 106/5/3 101/5/3 105/5/3
f 107/5/3 103/5/3 102/5/3
f 107/4/3 102/4/3 106/4/3
f 108/3/3 104/3/3 103/3/3
f 108/5/3 103/5/3 107/5/3
f 109/3/3 105/3/3 99/3/3
f 109/4/3 106/4/3 105/4/3
f 110/4/3 106/4/3 109/4/3
f 111/4/3 108/4/3 107/4/3
f 112/3/3 104/3/3 108/3/3
f 112/4/3 108/4/3 111/4/3
f 113/3/3 109/3/3 99/3/3
f 114/5/3 110/5/3 109/5/3
f 114/3/3 109/3/3 113/3/3
f 115/4/3 111/4/3 110/4/3
f 115/5/3 110/5/3 114/5/3
f 116/5/3 112/5/3 111/5/3
f 116/4/3 111/4/3 115/4/3
f 117/3/3 104/3/3 112/3/3
f 117/5/3 112/5/3 116/5/3
f 118/3/3 104/3/3 117/3/3
f 119/5/3 114/5/3 113/5/3
f 120/3/3 116/3/3 115/3/3
f 120/5/3 114/5/3 119/5/3
f 120/3/3 115/3/3 114/3/3
f 120/3/3 117/3/3 116/3/3
f 121/5/3 118/5/3 117/5/3
f 121/3/3 117/3/3 120/3/3
f 122/5/3 118/5/3 121/5/3
f 123/3/3 94/3/3 93/3/3
f 124/3/3 94/3/3 123/3/3
f 127/2/3 126/2/3 125/2/3
f 128/2/3 126/2/3 127/2/3
f 129/2/3 126/2/3 128/2/3
f 130/2/3 126/2/3 129/2/3
f 131/2/3 127/2/3 125/2/3
f 132/2/3 126/2/3 130/2/3
f 135/4/3 134/4/3 133/4/3
f 136/4/3 134/4/3 135/4/3
f 137/4/3 135/4/3 133/4/3
f 138/4/3 134/4/3 136/4/3
f 139/4/3 137/4/3 133/4/3
f 139/4/3 138/4/3 137/4/3
f 140/4/3 134/4/3 138/4/3
f 140/4/3 138/4/3 139/4/3
f 141/2/3 131/2/3 125/2/3
f 142/2/3 126/2/3 132/2/3
f 143/2/3 141/2/3 125/2/3
f 146/2/3 126/2/3 142/2/3
f 147/2/3 145/2/3 144/2/3
f 147/2/3 146/2/3 145/2/3
f 147/2/3 143/2/3 125/2/3
f 147/2/3 144/2/3 143/2/3
f 148/2/3 126/2/3 146/2/3
f 148/2/3 146/2/3 147/2/3
f 151/1/3 150/1/3 149/1/3
f 152/1/3 150/1/3 151/1/3
f 155/3/3 154/3/3 153/3/3
f 156/3/3 154/3/3 155/3/3
f 157/3/4 158/3/4 159/3/4
f 159/3/4 158/3/4 160/3/4
f 161/1/4 162/1/4 163/1/4
f 163/1/4 162/1/4 164/1/4
f 165/2/4 166/2/4 167/2/4
f 167/2/4 166/2/4 168/2/4
f 168/2/4 166/2/4 169/2/4
f 169/2/4 166/2/4 170/2/4
f 165/2/4 167/2/4 171/2/4
f 170/2/4 166/2/4 172/2/4
f 173/5/4 174/5/4 177/5/4
f 174/4/4 175/4/4 178/4/4
f 177/5/4 174/5/4 178/5/4
f 175/5/4 176/5/4 179/5/4
f 178/4/4 175/4/4 179/4/4
f 179/5/4 176/5/4 180/5/4
f 177/4/4 178/4/4 181/4/4
f 181/4/4 178/4/4 182/4/4
f 179/4/4 180/4/4 183/4/4
f 183/4/4 180/4/4 184/4/4
f 181/5/4 182/5/4 185/5/4
f 182/4/4 183/4/4 186/4/4
f 185/5/4 182/5/4 186/5/4
f 183/5/4 184/5/4 187/5/4
f 186/4/4 183/4/4 187/4/4
f 187/5/4 184/5/4 188/5/4
f 165/2/4 171/2/4 189/2/4
f 172/2/4 166/2/4 190/2/4
f 165/2/4 189/2/4 191/2/4
f 190/2/4 166/2/4 194/2/4
f 192/2/4 193/2/4 195/2/4
f 193/2/4 194/2/4 195/2/4
f 165/2/4 191/2/4 195/2/4
f 191/2/4 192/2/4 195/2/4
f 194/2/4 166/2/4 196/2/4
f 195/2/4 194/2/4 196/2/4
f 199/5/4 200/5/4 203/5/4
f 200/3/4 201/3/4 204/3/4
f 203/5/4 200/5/4 204/5/4
f 204/3/4 201/3/4 205/3/4
f 205/3/4 201/3/4 206/3/4
f 201/5/4 202/5/4 207/5/4
f 206/3/4 201/3/4 207/3/4
f 207/5/4 202/5/4 208/5/4
f 203/3/4 204/3/4 209/3/4
f 204/5/4 205/5/4 209/5/4
f 205/4/4 206/4/4 210/4/4
f 209/5/4 205/5/4 210/5/4
f 206/5/4 207/5/4 211/5/4
f 210/4/4 206/4/4 211/4/4
f 207/3/4 208/3/4 212/3/4
f 211/5/4 207/5/4 212/5/4
f 203/3/4 209/3/4 213/3/4
f 209/4/4 210/4/4 213/4/4
f 213/4/4 210/4/4 214/4/4
f 211/4/4 212/4/4 215/4/4
f 212/3/4 208/3/4 216/3/4
f 215/4/4 212/4/4 216/4/4
f 203/3/4 213/3/4 217/3/4
f 213/5/4 214/5/4 218/5/4
f 217/3/4 213/3/4 218/3/4
f 214/4/4 215/4/4 219/4/4
f 218/5/4 214/5/4 219/5/4
f 215/5/4 216/5/4 220/5/4
f 219/4/4 215/4/4 220/4/4
f 216/3/4 208/3/4 221/3/4
f 220/5/4 216/5/4 221/5/4
f 221/3/4 208/3/4 222/3/4
f 217/5/4 218/5/4 223/5/4
f 219/3/4 220/3/4 224/3/4
f 223/5/4 218/5/4 224/5/4
f 218/3/4 219/3/4 224/3/4
f 220/3/4 221/3/4 224/3/4
f 221/5/4 222/5/4 225/5/4
f 224/3/4 221/3/4 225/3/4
f 225/5/4 222/5/4 226/5/4
f 197/3/4 198/3/4 227/3/4
f 227/3/4 198/3/4 228/3/4
f 231/3/5 230/3/5 229/3/5
f 232/3/5 230/3/5 231/3/5
f 233/3/5 231/3/5 229/3/5
f 233/1/5 232/1/5 231/1/5
f 234/3/5 230/3/5 232/3/5
f 234/1/5 232/1/5 233/1/5
f 235/3/5 233/3/5 229/3/5
f 235/3/5 234/3/5 233/3/5
f 236/3/5 230/3/5 234/3/5
f 236/3/5 234/3/5 235/3/5
f 239/1/5 238/1/5 237/1/5
f 240/1/5 238/1/5 239/1/5
f 243/1/5 242/1/5 241/1/5
f 244/1/5 242/1/5 243/1/5
f 247/2/5 246/2/5 245/2/5
f 248/2/5 246/2/5 247/2/5
f 253/5/5 250/5/5 249/5/5
f 254/3/5 251/3/5 250/3/5
f 254/5/5 250/5/5 253/5/5
f 255/5/5 252/5/5 251/5/5
f 255/3/5 251/3/5 254/3/5
f 256/5/5 252/5/5 255/5/5
f 261/5/5 258/5/5 257/5/5
f 262/3/5 259/3/5 258/3/5
f 262/5/5 258/5/5 261/5/5
f 263/5/5 260/5/5 259/5/5
f 263/3/5 259/3/5 262/3/5
f 264/5/5 260/5/5 263/5/5
f 267/4/5 266/4/5 265/4/5
f 268/4/5 266/4/5 267/4/5
f 271/4/5 270/4/5 269/4/5
f 272/4/5 270/4/5 271/4/5
f 277/4/5 274/4/5 273/4/5
f 277/4/5 276/4/5 275/4/5
f 277/4/5 275/4/5 274/4/5
f 278/4/5 276/4/5 277/4/5
f 279/1/6 280/1/6 281/1/6
f 281/1/6 280/1/6 282/1/6
f 283/3/6 284/3/6 285/3/6
f 285/3/6 284/3/6 286/3/6
f 287/3/6 288/3/6 289/3/6
f 289/3/6 288/3/6 290/3/6
f 291/4/6 292/4/6 293/4/6
f 293/4/6 292/4/6 294/4/6
f 295/4/6 296/4/6 299/4/6
f 297/4/6 298/4/6 299/4/6
f 296/4/6 297/4/6 299/4/6
f 299/4/6 298/4/6 300/4/6
f 301/4/6 302/4/6 303/4/6
f 303/4/6 302/4/6 304/4/6
f 305/5/6 306/5/6 309/5/6
f 306/3/6 307/3/6 310/3/6
f 309/5/6 306/5/6 310/5/6
f 307/5/6 308/5/6 311/5/6
f 310/3/6 307/3/6 311/3/6
f 311/5/6 308/5/6 312/5/6
f 313/5/6 314/5/6 317/5/6
f 314/3/6 315/3/6 318/3/6
f 317/5/6 314/5/6 318/5/6
f 315/5/6 316/5/6 319/5/6
f 318/3/6 315/3/6 319/3/6
f 319/5/6 316/5/6 320/5/6
f 321/2/6 322/2/6 323/2/6
f 323/2/6 322/2/6 324/2/6
